STARTFONT 2.1
COMMENT 
COMMENT Id: cu-alt12.bdf,v 1.9 2000/12/06 21:58:14 mleisher Exp $
COMMENT 
COMMENT Copyright 1997, 1998, 1999 Computing Research Labs, New Mexico State
COMMENT University
COMMENT 
COMMENT Permission is hereby granted, free of charge, to any person
COMMENT obtaining a copy of this software and associated documentation
COMMENT files (the "Software"), to deal in the Software without
COMMENT restriction, including without limitation the rights to use,
COMMENT copy, modify, merge, publish, distribute, sublicense, and/or
COMMENT sell copies of the Software, and to permit persons to whom the
COMMENT Software is furnished to do so, subject to the following
COMMENT conditions:
COMMENT 
COMMENT The above copyright notice and this permission notice shall be
COMMENT included in all copies or substantial portions of the Software.
COMMENT 
COMMENT THE SOFTWARE IS PROVIDED "AS IS", WITHOUT WARRANTY OF ANY KIND,
COMMENT EXPRESS OR IMPLIED, INCLUDING BUT NOT LIMITED TO THE WARRANTIES
COMMENT OF MERCHANTABILITY, FITNESS FOR A PARTICULAR PURPOSE AND
COMMENT NONINFRINGEMENT.  IN NO EVENT SHALL THE COMPUTING RESEARCH LAB
COMMENT OR NEW MEXICO STATE UNIVERSITY BE LIABLE FOR ANY CLAIM, DAMAGES
COMMENT OR OTHER LIABILITY, WHETHER IN AN ACTION OF CONTRACT, TORT OR
COMMENT OTHERWISE, ARISING FROM, OUT OF OR IN CONNECTION WITH THE
COMMENT SOFTWARE OR THE USE OR OTHER DEALINGS IN THE SOFTWARE.
COMMENT 
COMMENT This font contains alternate glyphs for Arabic and Georgian blocks.
COMMENT Some have been added to the Private Use Area as well.
COMMENT 
FONT -MUTT-ClearlyU Alternate Glyphs-Medium-R-Normal--17-120-100-100-P-91-ISO10646-1
SIZE 12 100 100
FONTBOUNDINGBOX 18 24 -1 -7
STARTPROPERTIES 21
COPYRIGHT "1997, 1998 Computing Research Lab, New Mexico State University."
POINT_SIZE 120
PIXEL_SIZE 17
RESOLUTION_X 100
RESOLUTION_Y 100
FONT_ASCENT 12
FONT_DESCENT 6
AVERAGE_WIDTH 91
SPACING "P"
FOUNDRY "MUTT"
FAMILY_NAME "ClearlyU Alternate Glyphs"
WEIGHT_NAME "Medium"
SLANT "R"
SETWIDTH_NAME "Normal"
ADD_STYLE_NAME ""
CHARSET_REGISTRY "ISO10646"
CHARSET_ENCODING "1"
_XMBDFED_INFO "Edited with xmbdfed 4.4."
CAP_HEIGHT 11
X_HEIGHT 7
DEFAULT_CHAR 65534
ENDPROPERTIES
CHARS 157
STARTCHAR uni010F
ENCODING 271
SWIDTH 420 0
DWIDTH 7 0
BBX 6 16 1 0
BITMAP
88
70
20
00
18
08
08
08
08
78
48
88
88
88
48
7C
ENDCHAR
STARTCHAR uni0123
ENCODING 291
SWIDTH 480 0
DWIDTH 8 0
BBX 7 14 0 -7
BITMAP
3E
48
48
48
70
40
7C
82
82
C6
38
10
08
38
ENDCHAR
STARTCHAR uni013E
ENCODING 318
SWIDTH 240 0
DWIDTH 4 0
BBX 5 16 0 0
BITMAP
88
70
20
00
60
20
20
20
20
20
20
20
20
20
20
70
ENDCHAR
STARTCHAR uni015E
ENCODING 350
SWIDTH 480 0
DWIDTH 8 0
BBX 6 16 1 -5
BITMAP
7C
84
84
80
40
30
08
04
84
84
F8
00
30
30
10
20
ENDCHAR
STARTCHAR uni015F
ENCODING 351
SWIDTH 360 0
DWIDTH 6 0
BBX 5 12 1 -5
BITMAP
78
88
80
70
08
88
F0
00
30
30
10
20
ENDCHAR
STARTCHAR uni0162
ENCODING 354
SWIDTH 660 0
DWIDTH 11 0
BBX 9 16 1 -5
BITMAP
FF80
8880
8880
8880
0800
0800
0800
0800
0800
0800
3E00
0000
0C00
0C00
0400
0800
ENDCHAR
STARTCHAR uni0163
ENCODING 355
SWIDTH 360 0
DWIDTH 6 0
BBX 6 15 0 -5
BITMAP
20
20
20
F8
20
20
20
24
24
18
00
18
18
08
10
ENDCHAR
STARTCHAR uni03DE
ENCODING 990
SWIDTH 540 0
DWIDTH 9 0
BBX 8 11 1 0
BITMAP
C0
20
20
20
20
3F
02
02
04
04
08
ENDCHAR
STARTCHAR uni03DF
ENCODING 991
SWIDTH 420 0
DWIDTH 7 0
BBX 6 10 1 0
BITMAP
20
20
40
40
FC
08
08
10
10
20
ENDCHAR
STARTCHAR uni0431
ENCODING 1073
SWIDTH 360 0
DWIDTH 6 0
BBX 5 11 1 0
BITMAP
78
80
80
40
20
50
88
88
88
88
70
ENDCHAR
STARTCHAR uni066B
ENCODING 1643
SWIDTH 360 0
DWIDTH 6 0
BBX 4 8 1 -2
BITMAP
10
10
20
20
40
40
80
80
ENDCHAR
STARTCHAR uni06C1
ENCODING 1729
SWIDTH 300 0
DWIDTH 5 0
BBX 4 6 1 0
BITMAP
20
30
50
90
90
60
ENDCHAR
STARTCHAR uni06C2
ENCODING 1730
SWIDTH 300 0
DWIDTH 5 0
BBX 4 11 1 0
BITMAP
30
40
30
40
00
20
30
50
90
90
60
ENDCHAR
STARTCHAR uni06C3
ENCODING 1731
SWIDTH 300 0
DWIDTH 5 0
BBX 4 10 1 0
BITMAP
50
50
00
00
20
30
50
90
90
60
ENDCHAR
STARTCHAR uni06F4
ENCODING 1780
SWIDTH 540 0
DWIDTH 9 0
BBX 7 10 1 0
BITMAP
72
FE
CC
48
60
60
20
20
20
20
ENDCHAR
STARTCHAR uni06F7
ENCODING 1783
SWIDTH 600 0
DWIDTH 10 0
BBX 8 8 1 1
BITMAP
03
0E
38
60
E0
78
1E
07
ENDCHAR
STARTCHAR uni0916
ENCODING 2326
SWIDTH 840 0
DWIDTH 14 0
BBX 14 11 0 0
BITMAP
FFFC
1020
1020
13A0
B660
E460
44E0
43A0
2020
1020
0820
ENDCHAR
STARTCHAR uni0959
ENCODING 2393
SWIDTH 840 0
DWIDTH 14 0
BBX 14 11 0 0
BITMAP
FFFC
1020
1020
13A0
B660
E460
44E0
43A0
2020
1120
0920
ENDCHAR
STARTCHAR uni096A
ENCODING 2410
SWIDTH 540 0
DWIDTH 9 0
BBX 6 10 3 1
BITMAP
88
84
84
48
30
30
68
48
58
30
ENDCHAR
STARTCHAR uni096B
ENCODING 2411
SWIDTH 420 0
DWIDTH 7 0
BBX 6 13 1 -2
BITMAP
84
84
84
84
4C
34
04
08
08
F0
F0
10
08
ENDCHAR
STARTCHAR uni096C
ENCODING 2412
SWIDTH 480 0
DWIDTH 8 0
BBX 6 17 2 -2
BITMAP
30
48
40
20
70
80
80
80
78
40
40
40
3C
3C
20
40
80
ENDCHAR
STARTCHAR uni096E
ENCODING 2414
SWIDTH 600 0
DWIDTH 10 0
BBX 9 10 1 -1
BITMAP
FF80
2000
4000
4000
4000
4000
2300
1C80
0080
0100
ENDCHAR
STARTCHAR uni096F
ENCODING 2415
SWIDTH 540 0
DWIDTH 9 0
BBX 6 11 2 0
BITMAP
60
90
88
40
60
90
80
80
40
30
0C
ENDCHAR
STARTCHAR uni10A0
ENCODING 4256
SWIDTH 480 0
DWIDTH 8 0
BBX 7 8 1 -1
BITMAP
92
FE
92
10
10
10
1E
02
ENDCHAR
STARTCHAR uni10A1
ENCODING 4257
SWIDTH 480 0
DWIDTH 8 0
BBX 7 10 1 -4
BITMAP
EE
44
44
44
44
3C
04
42
82
7C
ENDCHAR
STARTCHAR uni10A2
ENCODING 4258
SWIDTH 540 0
DWIDTH 9 0
BBX 8 11 1 -4
BITMAP
80
EC
32
22
22
22
72
02
21
41
3E
ENDCHAR
STARTCHAR uni10A3
ENCODING 4259
SWIDTH 480 0
DWIDTH 8 0
BBX 7 11 1 0
BITMAP
FE
92
10
10
10
38
44
82
82
44
38
ENDCHAR
STARTCHAR uni10A4
ENCODING 4260
SWIDTH 480 0
DWIDTH 8 0
BBX 8 10 1 -3
BITMAP
80
EC
32
22
22
22
72
02
02
07
ENDCHAR
STARTCHAR uni10A5
ENCODING 4261
SWIDTH 720 0
DWIDTH 12 0
BBX 12 10 1 -3
BITMAP
8000
ECC0
3320
2220
2220
2220
7270
0200
0200
0700
ENDCHAR
STARTCHAR uni10A6
ENCODING 4262
SWIDTH 480 0
DWIDTH 8 0
BBX 7 11 1 0
BITMAP
80
E0
20
20
20
3C
22
22
22
22
3C
ENDCHAR
STARTCHAR uni10A7
ENCODING 4263
SWIDTH 720 0
DWIDTH 12 0
BBX 11 6 1 0
BITMAP
D980
6640
4440
4440
4440
EEE0
ENDCHAR
STARTCHAR uni10A8
ENCODING 4264
SWIDTH 300 0
DWIDTH 5 0
BBX 4 7 1 0
BITMAP
80
E0
20
20
20
20
70
ENDCHAR
STARTCHAR uni10A9
ENCODING 4265
SWIDTH 480 0
DWIDTH 8 0
BBX 7 13 1 -3
BITMAP
E0
40
40
40
78
44
44
44
44
3C
04
04
0E
ENDCHAR
STARTCHAR uni10AA
ENCODING 4266
SWIDTH 780 0
DWIDTH 13 0
BBX 12 7 1 0
BITMAP
8000
ECC0
3320
2220
2220
2220
7770
ENDCHAR
STARTCHAR uni10AB
ENCODING 4267
SWIDTH 360 0
DWIDTH 6 0
BBX 5 11 1 0
BITMAP
20
38
08
08
08
18
68
88
88
88
70
ENDCHAR
STARTCHAR uni10AC
ENCODING 4268
SWIDTH 480 0
DWIDTH 8 0
BBX 7 11 1 0
BITMAP
F8
48
40
40
40
78
44
44
44
44
EE
ENDCHAR
STARTCHAR uni10AD
ENCODING 4269
SWIDTH 720 0
DWIDTH 12 0
BBX 11 6 1 0
BITMAP
EEE0
4440
4440
4440
4CC0
3360
ENDCHAR
STARTCHAR uni10AE
ENCODING 4270
SWIDTH 540 0
DWIDTH 9 0
BBX 8 7 1 0
BITMAP
80
E7
22
22
22
26
1B
ENDCHAR
STARTCHAR uni10AF
ENCODING 4271
SWIDTH 540 0
DWIDTH 9 0
BBX 8 10 1 -3
BITMAP
80
FC
22
22
22
22
1E
02
02
07
ENDCHAR
STARTCHAR uni10B0
ENCODING 4272
SWIDTH 720 0
DWIDTH 12 0
BBX 11 9 1 0
BITMAP
0E00
0400
0400
E580
4640
4440
4440
4C40
34E0
ENDCHAR
STARTCHAR uni10B1
ENCODING 4273
SWIDTH 480 0
DWIDTH 8 0
BBX 7 10 1 0
BITMAP
E0
40
40
40
4E
44
44
44
4C
36
ENDCHAR
STARTCHAR uni10B2
ENCODING 4274
SWIDTH 360 0
DWIDTH 6 0
BBX 6 10 1 -4
BITMAP
F0
88
88
88
88
F0
80
80
84
78
ENDCHAR
STARTCHAR uni10B3
ENCODING 4275
SWIDTH 960 0
DWIDTH 16 0
BBX 15 9 1 -3
BITMAP
EEEE
4444
4444
4444
4CCC
3334
0004
0004
000E
ENDCHAR
STARTCHAR uni10B4
ENCODING 4276
SWIDTH 420 0
DWIDTH 7 0
BBX 7 9 1 -3
BITMAP
7C
92
92
92
92
7C
10
10
38
ENDCHAR
STARTCHAR uni10B5
ENCODING 4277
SWIDTH 600 0
DWIDTH 10 0
BBX 9 13 1 -3
BITMAP
0800
0800
0800
C800
4900
4F00
7900
4900
0980
0800
0800
0800
1C00
ENDCHAR
STARTCHAR uni10B6
ENCODING 4278
SWIDTH 540 0
DWIDTH 9 0
BBX 8 7 1 0
BITMAP
80
EC
32
22
22
22
77
ENDCHAR
STARTCHAR uni10B7
ENCODING 4279
SWIDTH 540 0
DWIDTH 9 0
BBX 8 10 1 -3
BITMAP
80
EC
32
22
22
22
72
02
02
07
ENDCHAR
STARTCHAR uni10B8
ENCODING 4280
SWIDTH 420 0
DWIDTH 7 0
BBX 7 10 1 -4
BITMAP
EE
44
44
44
44
3C
04
44
84
78
ENDCHAR
STARTCHAR uni10B9
ENCODING 4281
SWIDTH 480 0
DWIDTH 8 0
BBX 7 13 1 -3
BITMAP
E0
40
40
40
58
64
44
44
44
4E
40
40
E0
ENDCHAR
STARTCHAR uni10BA
ENCODING 4282
SWIDTH 480 0
DWIDTH 8 0
BBX 7 10 1 -4
BITMAP
D8
64
44
44
44
4E
40
40
44
38
ENDCHAR
STARTCHAR uni10BB
ENCODING 4283
SWIDTH 660 0
DWIDTH 11 0
BBX 11 9 1 0
BITMAP
0E00
0400
0400
DD80
6640
4440
4440
4440
EEE0
ENDCHAR
STARTCHAR uni10BC
ENCODING 4284
SWIDTH 660 0
DWIDTH 11 0
BBX 11 9 1 -3
BITMAP
D980
6640
4440
4440
4440
4EE0
4000
4000
E000
ENDCHAR
STARTCHAR uni10BD
ENCODING 4285
SWIDTH 480 0
DWIDTH 8 0
BBX 7 9 1 -4
BITMAP
FC
44
44
4E
40
7C
02
82
7C
ENDCHAR
STARTCHAR uni10BE
ENCODING 4286
SWIDTH 420 0
DWIDTH 7 0
BBX 7 10 1 -4
BITMAP
EE
44
44
44
44
78
40
40
42
3C
ENDCHAR
STARTCHAR uni10BF
ENCODING 4287
SWIDTH 480 0
DWIDTH 8 0
BBX 7 10 1 -3
BITMAP
84
EA
32
14
08
14
22
40
50
20
ENDCHAR
STARTCHAR uni10C0
ENCODING 4288
SWIDTH 720 0
DWIDTH 12 0
BBX 12 7 1 0
BITMAP
8000
E770
2220
2220
2220
2660
19A0
ENDCHAR
STARTCHAR uni10C1
ENCODING 4289
SWIDTH 420 0
DWIDTH 7 0
BBX 7 13 1 -3
BITMAP
78
48
40
40
78
44
44
44
44
4E
40
40
E0
ENDCHAR
STARTCHAR uni10C2
ENCODING 4290
SWIDTH 420 0
DWIDTH 7 0
BBX 6 6 1 0
BITMAP
08
44
84
84
84
78
ENDCHAR
STARTCHAR uni10C3
ENCODING 4291
SWIDTH 480 0
DWIDTH 8 0
BBX 7 13 1 -3
BITMAP
0E
04
04
04
E4
44
44
44
44
3C
04
04
0E
ENDCHAR
STARTCHAR uni10C4
ENCODING 4292
SWIDTH 540 0
DWIDTH 9 0
BBX 9 9 1 -3
BITMAP
E380
4100
4100
4100
4900
3E00
0800
0800
1C00
ENDCHAR
STARTCHAR uni10C5
ENCODING 4293
SWIDTH 600 0
DWIDTH 10 0
BBX 9 11 1 0
BITMAP
1E00
0900
0E00
0800
0B00
0D00
1900
6900
8900
8900
7180
ENDCHAR
STARTCHAR uni10C6
ENCODING 4294
SWIDTH 600 0
DWIDTH 10 0
BBX 9 12 1 -3
BITMAP
1C00
0800
0800
6B00
9C80
8880
8880
9C80
6B00
0800
0800
1C00
ENDCHAR
STARTCHAR uni10D0
ENCODING 4304
SWIDTH 420 0
DWIDTH 7 0
BBX 6 11 1 0
BITMAP
20
20
20
20
10
08
44
84
84
84
78
ENDCHAR
STARTCHAR uni10D1
ENCODING 4305
SWIDTH 480 0
DWIDTH 8 0
BBX 7 12 1 0
BITMAP
40
E0
10
10
10
38
44
82
82
82
44
38
ENDCHAR
STARTCHAR uni10D2
ENCODING 4306
SWIDTH 540 0
DWIDTH 9 0
BBX 8 12 1 0
BITMAP
70
88
C8
08
1C
22
41
41
41
41
22
1C
ENDCHAR
STARTCHAR uni10D3
ENCODING 4307
SWIDTH 660 0
DWIDTH 11 0
BBX 10 12 1 0
BITMAP
7780
8840
8840
8840
8840
8780
4000
3000
CC00
8300
0080
0040
ENDCHAR
STARTCHAR uni10D4
ENCODING 4308
SWIDTH 420 0
DWIDTH 7 0
BBX 6 12 1 0
BITMAP
78
84
C4
04
04
04
44
84
84
84
84
78
ENDCHAR
STARTCHAR uni10D5
ENCODING 4309
SWIDTH 420 0
DWIDTH 7 0
BBX 6 12 1 0
BITMAP
78
84
C4
04
18
04
44
84
84
84
84
78
ENDCHAR
STARTCHAR uni10D6
ENCODING 4310
SWIDTH 720 0
DWIDTH 12 0
BBX 11 13 1 0
BITMAP
7000
8800
8800
8800
78C0
0B00
0F80
0C40
0820
0820
0820
0440
0380
ENDCHAR
STARTCHAR uni10D7
ENCODING 4311
SWIDTH 840 0
DWIDTH 14 0
BBX 13 12 1 0
BITMAP
38E0
4510
8208
8208
8208
8208
8208
8208
8208
8208
4410
3820
ENDCHAR
STARTCHAR uni10D8
ENCODING 4312
SWIDTH 480 0
DWIDTH 8 0
BBX 7 12 1 0
BITMAP
38
44
82
82
82
82
82
82
82
82
44
28
ENDCHAR
STARTCHAR uni10D9
ENCODING 4313
SWIDTH 420 0
DWIDTH 7 0
BBX 6 12 1 0
BITMAP
10
08
04
04
04
18
44
84
84
84
84
78
ENDCHAR
STARTCHAR uni10DA
ENCODING 4314
SWIDTH 840 0
DWIDTH 14 0
BBX 13 12 1 0
BITMAP
7770
8888
8888
8888
8008
8010
4000
3800
C700
80C0
0020
0010
ENDCHAR
STARTCHAR uni10DB
ENCODING 4315
SWIDTH 420 0
DWIDTH 7 0
BBX 6 12 1 0
BITMAP
78
84
84
04
04
74
8C
84
84
84
84
78
ENDCHAR
STARTCHAR uni10DC
ENCODING 4316
SWIDTH 420 0
DWIDTH 7 0
BBX 6 12 1 0
BITMAP
64
9C
80
80
80
B8
C4
84
84
84
84
78
ENDCHAR
STARTCHAR uni10DD
ENCODING 4317
SWIDTH 600 0
DWIDTH 10 0
BBX 9 12 1 0
BITMAP
7700
8880
8880
8880
8880
8080
8080
8080
8080
8080
C180
4100
ENDCHAR
STARTCHAR uni10DE
ENCODING 4318
SWIDTH 420 0
DWIDTH 7 0
BBX 6 12 1 0
BITMAP
20
18
04
04
18
04
44
84
84
84
84
78
ENDCHAR
STARTCHAR uni10DF
ENCODING 4319
SWIDTH 420 0
DWIDTH 7 0
BBX 6 12 1 0
BITMAP
04
1C
D4
94
94
64
04
44
84
84
84
78
ENDCHAR
STARTCHAR uni10E0
ENCODING 4320
SWIDTH 600 0
DWIDTH 10 0
BBX 9 12 1 0
BITMAP
0200
0200
0C00
3000
4000
7700
8880
8880
8880
8080
8080
C180
ENDCHAR
STARTCHAR uni10E1
ENCODING 4321
SWIDTH 420 0
DWIDTH 7 0
BBX 6 12 1 0
BITMAP
80
80
80
80
88
90
98
84
84
84
84
78
ENDCHAR
STARTCHAR uni10E2
ENCODING 4322
SWIDTH 600 0
DWIDTH 10 0
BBX 9 12 1 0
BITMAP
0800
1400
1400
0800
5600
9100
9280
8E80
8080
8080
4100
3E00
ENDCHAR
STARTCHAR uni10E3
ENCODING 4323
SWIDTH 660 0
DWIDTH 11 0
BBX 10 12 1 0
BITMAP
4D80
9240
6240
0240
0040
0040
0840
1040
1040
1040
0880
0700
ENDCHAR
STARTCHAR uni10E4
ENCODING 4324
SWIDTH 600 0
DWIDTH 10 0
BBX 9 12 1 0
BITMAP
7700
8880
8880
8880
7080
0300
0080
3080
2080
2080
1100
0E00
ENDCHAR
STARTCHAR uni10E5
ENCODING 4325
SWIDTH 420 0
DWIDTH 7 0
BBX 6 12 1 0
BITMAP
04
04
34
4C
44
04
04
44
84
84
84
78
ENDCHAR
STARTCHAR uni10E6
ENCODING 4326
SWIDTH 600 0
DWIDTH 10 0
BBX 9 12 1 0
BITMAP
7700
8880
8880
8880
8080
8100
4000
3000
CC00
8200
0100
0080
ENDCHAR
STARTCHAR uni10E7
ENCODING 4327
SWIDTH 420 0
DWIDTH 7 0
BBX 6 12 1 0
BITMAP
64
84
84
84
7C
04
04
44
84
84
84
78
ENDCHAR
STARTCHAR uni10E8
ENCODING 4328
SWIDTH 480 0
DWIDTH 8 0
BBX 7 12 1 0
BITMAP
6C
92
92
02
02
3A
46
42
42
42
42
3C
ENDCHAR
STARTCHAR uni10E9
ENCODING 4329
SWIDTH 420 0
DWIDTH 7 0
BBX 6 12 1 0
BITMAP
70
88
88
90
E0
80
F8
84
84
84
84
88
ENDCHAR
STARTCHAR uni10EA
ENCODING 4330
SWIDTH 480 0
DWIDTH 8 0
BBX 7 12 1 0
BITMAP
28
44
42
82
82
9C
82
82
82
82
44
38
ENDCHAR
STARTCHAR uni10EB
ENCODING 4331
SWIDTH 420 0
DWIDTH 7 0
BBX 6 12 1 0
BITMAP
18
04
04
04
04
74
8C
84
84
84
84
78
ENDCHAR
STARTCHAR uni10EC
ENCODING 4332
SWIDTH 480 0
DWIDTH 8 0
BBX 7 12 1 0
BITMAP
6C
92
92
82
40
7C
44
44
28
28
10
10
ENDCHAR
STARTCHAR uni10ED
ENCODING 4333
SWIDTH 540 0
DWIDTH 9 0
BBX 8 12 1 0
BITMAP
04
04
05
35
4E
35
05
84
84
84
84
78
ENDCHAR
STARTCHAR uni10EE
ENCODING 4334
SWIDTH 540 0
DWIDTH 9 0
BBX 8 11 0 0
BITMAP
60
A0
20
2C
30
3E
21
21
21
21
1E
ENDCHAR
STARTCHAR uni10EF
ENCODING 4335
SWIDTH 780 0
DWIDTH 13 0
BBX 12 12 1 0
BITMAP
6060
9050
8810
4420
05C0
0600
0A00
3220
4110
2110
90E0
6000
ENDCHAR
STARTCHAR uni10F0
ENCODING 4336
SWIDTH 420 0
DWIDTH 7 0
BBX 6 12 1 0
BITMAP
20
18
04
04
18
04
04
18
84
84
84
78
ENDCHAR
STARTCHAR uni10F1
ENCODING 4337
SWIDTH 480 0
DWIDTH 8 0
BBX 7 12 1 0
BITMAP
50
4C
42
82
8C
82
82
8C
82
82
42
3C
ENDCHAR
STARTCHAR uni10F2
ENCODING 4338
SWIDTH 420 0
DWIDTH 7 0
BBX 6 12 1 0
BITMAP
30
48
84
84
84
84
84
84
84
84
48
FC
ENDCHAR
STARTCHAR uni10F3
ENCODING 4339
SWIDTH 420 0
DWIDTH 7 0
BBX 6 12 1 0
BITMAP
7C
04
08
10
38
04
44
84
84
84
84
78
ENDCHAR
STARTCHAR uni10F4
ENCODING 4340
SWIDTH 420 0
DWIDTH 7 0
BBX 6 13 1 0
BITMAP
10
20
18
04
04
18
04
44
84
84
84
84
78
ENDCHAR
STARTCHAR uni10F5
ENCODING 4341
SWIDTH 480 0
DWIDTH 8 0
BBX 7 13 1 0
BITMAP
78
84
84
84
84
7E
04
7E
84
84
84
84
78
ENDCHAR
STARTCHAR uni1F06
ENCODING 7942
SWIDTH 480 0
DWIDTH 8 0
BBX 7 14 1 0
BITMAP
3C
42
18
18
08
10
00
62
92
94
8C
88
98
66
ENDCHAR
STARTCHAR uni1F07
ENCODING 7943
SWIDTH 480 0
DWIDTH 8 0
BBX 7 14 1 0
BITMAP
78
84
30
30
20
10
00
62
92
94
8C
88
98
66
ENDCHAR
STARTCHAR uni1F0E
ENCODING 7950
SWIDTH 720 0
DWIDTH 12 0
BBX 12 15 -1 0
BITMAP
7800
8400
3000
3000
1200
2200
0500
0500
0500
0880
0880
0F80
1040
1040
78F0
ENDCHAR
STARTCHAR uni1F0F
ENCODING 7951
SWIDTH 720 0
DWIDTH 12 0
BBX 12 15 -1 0
BITMAP
7800
8400
3000
3000
2200
1200
0500
0500
0500
0880
0880
0F80
1040
1040
78F0
ENDCHAR
STARTCHAR uni1F26
ENCODING 7974
SWIDTH 420 0
DWIDTH 7 0
BBX 6 18 1 -4
BITMAP
78
84
30
30
10
20
00
98
64
44
44
44
44
44
04
04
04
04
ENDCHAR
STARTCHAR uni1F27
ENCODING 7975
SWIDTH 420 0
DWIDTH 7 0
BBX 6 18 1 -4
BITMAP
78
84
30
30
20
10
00
98
64
44
44
44
44
44
04
04
04
04
ENDCHAR
STARTCHAR uni1F2E
ENCODING 7982
SWIDTH 1020 0
DWIDTH 17 0
BBX 16 15 0 0
BITMAP
7800
8400
3000
3000
17DF
2104
0104
0104
0104
01FC
0104
0104
0104
0104
07DF
ENDCHAR
STARTCHAR uni1F2F
ENCODING 7983
SWIDTH 1020 0
DWIDTH 17 0
BBX 16 15 0 0
BITMAP
7800
8400
3000
3000
27DF
1104
0104
0104
0104
01FC
0104
0104
0104
0104
07DF
ENDCHAR
STARTCHAR uni1F36
ENCODING 7990
SWIDTH 360 0
DWIDTH 6 0
BBX 6 14 0 0
BITMAP
78
84
30
30
10
20
00
20
60
20
20
20
28
10
ENDCHAR
STARTCHAR uni1F37
ENCODING 7991
SWIDTH 360 0
DWIDTH 6 0
BBX 6 14 0 0
BITMAP
78
84
30
30
20
10
00
20
60
20
20
20
28
10
ENDCHAR
STARTCHAR uni1F3E
ENCODING 7998
SWIDTH 660 0
DWIDTH 11 0
BBX 10 15 0 0
BITMAP
7800
8400
3000
3000
17C0
2100
0100
0100
0100
0100
0100
0100
0100
0100
07C0
ENDCHAR
STARTCHAR uni1F3F
ENCODING 7999
SWIDTH 660 0
DWIDTH 11 0
BBX 10 15 0 0
BITMAP
7800
8400
3000
3000
27C0
1100
0100
0100
0100
0100
0100
0100
0100
0100
07C0
ENDCHAR
STARTCHAR uni1F56
ENCODING 8022
SWIDTH 420 0
DWIDTH 7 0
BBX 6 14 1 0
BITMAP
78
84
30
30
10
20
00
C8
44
44
44
44
48
30
ENDCHAR
STARTCHAR uni1F57
ENCODING 8023
SWIDTH 420 0
DWIDTH 7 0
BBX 6 14 1 0
BITMAP
78
84
30
30
20
10
00
C8
44
44
44
44
48
30
ENDCHAR
STARTCHAR uni1F5F
ENCODING 8031
SWIDTH 960 0
DWIDTH 16 0
BBX 15 14 0 0
BITMAP
7800
8400
3000
3F1E
2208
1110
0110
00A0
00E0
0040
0040
0040
0040
01F0
ENDCHAR
STARTCHAR uni1F66
ENCODING 8038
SWIDTH 600 0
DWIDTH 10 0
BBX 9 14 1 0
BITMAP
3C00
4200
1800
1800
0800
1000
0000
2200
4100
8080
8880
8880
8880
7700
ENDCHAR
STARTCHAR uni1F67
ENCODING 8039
SWIDTH 600 0
DWIDTH 10 0
BBX 9 14 1 0
BITMAP
3C00
4200
1800
1800
1000
0800
0000
2200
4100
8080
8880
8880
8880
7700
ENDCHAR
STARTCHAR uni1F6E
ENCODING 8046
SWIDTH 840 0
DWIDTH 14 0
BBX 13 15 0 0
BITMAP
7800
8400
3000
3000
13E0
2410
0808
0808
0808
0808
0410
0410
0220
0A28
0E38
ENDCHAR
STARTCHAR uni1F6F
ENCODING 8047
SWIDTH 840 0
DWIDTH 14 0
BBX 13 15 0 0
BITMAP
7800
8400
3000
3000
23E0
1410
0808
0808
0808
0808
0410
0410
0220
0A28
0E38
ENDCHAR
STARTCHAR uni1F86
ENCODING 8070
SWIDTH 480 0
DWIDTH 8 0
BBX 7 19 1 -5
BITMAP
3C
42
18
18
08
10
00
62
92
94
8C
88
98
66
00
60
20
28
10
ENDCHAR
STARTCHAR uni1F87
ENCODING 8071
SWIDTH 480 0
DWIDTH 8 0
BBX 7 19 1 -5
BITMAP
78
84
30
30
20
10
00
62
92
94
8C
88
98
66
00
60
20
28
10
ENDCHAR
STARTCHAR uni1F8E
ENCODING 8078
SWIDTH 720 0
DWIDTH 12 0
BBX 12 19 -1 -4
BITMAP
7800
8400
3000
3000
1200
2200
0500
0500
0500
0880
0880
0F80
1040
1040
78F0
0600
0200
0280
0100
ENDCHAR
STARTCHAR uni1F8F
ENCODING 8079
SWIDTH 720 0
DWIDTH 12 0
BBX 12 19 -1 -4
BITMAP
7800
8400
3000
3000
2200
1200
0500
0500
0500
0880
0880
0F80
1040
1040
78F0
0600
0200
0280
0100
ENDCHAR
STARTCHAR uni1F96
ENCODING 8086
SWIDTH 420 0
DWIDTH 7 0
BBX 6 18 1 -4
BITMAP
78
84
30
30
10
20
00
98
64
44
44
44
44
44
04
C4
44
64
ENDCHAR
STARTCHAR uni1F97
ENCODING 8087
SWIDTH 420 0
DWIDTH 7 0
BBX 6 18 1 -4
BITMAP
78
84
30
30
20
10
00
98
64
44
44
44
44
44
04
C4
44
64
ENDCHAR
STARTCHAR uni1F9E
ENCODING 8094
SWIDTH 1020 0
DWIDTH 17 0
BBX 16 20 0 -5
BITMAP
7800
8400
3000
3000
17DF
2104
0104
0104
0104
01FC
0104
0104
0104
0104
07DF
0000
00C0
0040
0050
0020
ENDCHAR
STARTCHAR uni1F9F
ENCODING 8095
SWIDTH 1020 0
DWIDTH 17 0
BBX 16 20 0 -5
BITMAP
7800
8400
3000
3000
27DF
1104
0104
0104
0104
01FC
0104
0104
0104
0104
07DF
0000
00C0
0040
0050
0020
ENDCHAR
STARTCHAR uni1FA6
ENCODING 8102
SWIDTH 600 0
DWIDTH 10 0
BBX 9 19 1 -5
BITMAP
3C00
4200
1800
1800
0800
1000
0000
2200
4100
8080
8880
8880
8880
7700
0000
1800
0800
0A00
0400
ENDCHAR
STARTCHAR uni1FA7
ENCODING 8103
SWIDTH 600 0
DWIDTH 10 0
BBX 9 19 1 -5
BITMAP
3C00
4200
1800
1800
1000
0800
0000
2200
4100
8080
8880
8880
8880
7700
0000
1800
0800
0A00
0400
ENDCHAR
STARTCHAR uni1FAE
ENCODING 8110
SWIDTH 840 0
DWIDTH 14 0
BBX 13 19 0 -4
BITMAP
7800
8400
3000
3000
13E0
2410
0808
0808
0808
0808
0410
0410
0220
0A28
0E38
0180
0080
00A0
0040
ENDCHAR
STARTCHAR uni1FAF
ENCODING 8111
SWIDTH 840 0
DWIDTH 14 0
BBX 13 19 0 -4
BITMAP
7800
8400
3000
3000
23E0
1410
0808
0808
0808
0808
0410
0410
0220
0A28
0E38
0180
0080
00A0
0040
ENDCHAR
STARTCHAR uni1FB6
ENCODING 8118
SWIDTH 480 0
DWIDTH 8 0
BBX 7 10 1 0
BITMAP
38
44
00
62
92
94
8C
88
98
66
ENDCHAR
STARTCHAR uni1FB7
ENCODING 8119
SWIDTH 480 0
DWIDTH 8 0
BBX 7 15 1 -5
BITMAP
38
44
00
62
92
94
8C
88
98
66
00
60
20
28
10
ENDCHAR
STARTCHAR uni1FC0
ENCODING 8128
SWIDTH 420 0
DWIDTH 7 0
BBX 6 2 1 11
BITMAP
78
84
ENDCHAR
STARTCHAR uni1FC1
ENCODING 8129
SWIDTH 360 0
DWIDTH 6 0
BBX 5 5 1 11
BITMAP
70
88
00
D8
D8
ENDCHAR
STARTCHAR uni1FC6
ENCODING 8134
SWIDTH 420 0
DWIDTH 7 0
BBX 6 14 1 -4
BITMAP
38
44
00
98
64
44
44
44
44
44
04
04
04
04
ENDCHAR
STARTCHAR uni1FC7
ENCODING 8135
SWIDTH 420 0
DWIDTH 7 0
BBX 6 14 1 -4
BITMAP
38
44
00
98
64
44
44
44
44
44
04
C4
44
64
ENDCHAR
STARTCHAR uni1FCF
ENCODING 8143
SWIDTH 420 0
DWIDTH 7 0
BBX 6 6 1 11
BITMAP
78
84
30
30
10
20
ENDCHAR
STARTCHAR uni1FD6
ENCODING 8150
SWIDTH 300 0
DWIDTH 5 0
BBX 5 10 0 0
BITMAP
70
88
00
20
60
20
20
20
28
10
ENDCHAR
STARTCHAR uni1FD7
ENCODING 8151
SWIDTH 300 0
DWIDTH 5 0
BBX 5 14 0 0
BITMAP
70
88
00
D8
D8
00
00
20
60
20
20
20
28
10
ENDCHAR
STARTCHAR uni1FDF
ENCODING 8159
SWIDTH 420 0
DWIDTH 7 0
BBX 6 6 1 11
BITMAP
78
84
30
30
20
10
ENDCHAR
STARTCHAR uni1FE6
ENCODING 8166
SWIDTH 420 0
DWIDTH 7 0
BBX 6 11 1 0
BITMAP
38
44
00
00
C8
44
44
44
44
48
30
ENDCHAR
STARTCHAR uni1FE7
ENCODING 8167
SWIDTH 420 0
DWIDTH 7 0
BBX 6 14 1 0
BITMAP
38
44
00
6C
6C
00
00
C8
44
44
44
44
48
30
ENDCHAR
STARTCHAR uni1FF6
ENCODING 8182
SWIDTH 600 0
DWIDTH 10 0
BBX 9 10 1 0
BITMAP
1C00
2200
0000
2200
4100
8080
8880
8880
8880
7700
ENDCHAR
STARTCHAR uni1FF7
ENCODING 8183
SWIDTH 600 0
DWIDTH 10 0
BBX 9 15 1 -5
BITMAP
1C00
2200
0000
2200
4100
8080
8880
8880
8880
7700
0000
1800
0800
0A00
0400
ENDCHAR
STARTCHAR uni204C
ENCODING 8268
SWIDTH 540 0
DWIDTH 9 0
BBX 8 5 1 3
BITMAP
3D
7D
FD
7D
3D
ENDCHAR
STARTCHAR uni204D
ENCODING 8269
SWIDTH 540 0
DWIDTH 9 0
BBX 8 5 1 3
BITMAP
BC
BE
BF
BE
BC
ENDCHAR
STARTCHAR uni20A3
ENCODING 8355
SWIDTH 600 0
DWIDTH 10 0
BBX 9 11 0 0
BITMAP
FF80
2080
2080
2000
7F00
2000
7F00
2000
2000
2000
F800
ENDCHAR
STARTCHAR uni20AF
ENCODING 8367
SWIDTH 720 0
DWIDTH 12 0
BBX 9 12 2 0
BITMAP
0400
0800
3E00
4900
1080
1080
1080
2080
2080
6080
B100
4E00
ENDCHAR
STARTCHAR uni2116
ENCODING 8470
SWIDTH 1080 0
DWIDTH 18 0
BBX 16 11 1 0
BITMAP
E3EE
3091
3091
2891
2891
248E
2280
2280
2180
2180
F880
ENDCHAR
STARTCHAR uniF0C6
ENCODING 61638
SWIDTH 720 0
DWIDTH 12 0
BBX 11 13 1 0
BITMAP
7800
8400
C400
0400
3F80
4440
4440
4440
3F80
0400
0460
0420
03C0
ENDCHAR
STARTCHAR uniF0F7
ENCODING 61687
SWIDTH 420 0
DWIDTH 7 0
BBX 6 12 1 0
BITMAP
78
84
C4
04
08
10
20
40
80
8C
84
78
ENDCHAR
STARTCHAR uniF0F8
ENCODING 61688
SWIDTH 420 0
DWIDTH 7 0
BBX 6 12 1 0
BITMAP
18
24
20
20
20
10
08
44
84
84
84
78
ENDCHAR
STARTCHAR uniFBA8
ENCODING 64424
SWIDTH 420 0
DWIDTH 7 0
BBX 7 10 0 -4
BITMAP
10
10
10
10
10
EE
00
10
20
30
ENDCHAR
STARTCHAR uniFEEC
ENCODING 65260
SWIDTH 360 0
DWIDTH 6 0
BBX 6 8 0 -6
BITMAP
40
CC
30
20
20
24
28
0C
ENDCHAR
STARTCHAR uniFFFD
ENCODING 65533
SWIDTH 960 0
DWIDTH 16 0
BBX 15 15 0 0
BITMAP
0100
0380
07C0
0C60
1BB0
3BB8
7F7C
FEFE
7EFC
3FF8
1EF0
0C60
06C0
0380
0100
ENDCHAR
STARTCHAR uniFFFE
ENCODING 65534
SWIDTH 600 0
DWIDTH 10 0
BBX 7 11 2 0
BITMAP
AA
00
82
00
82
00
82
00
82
00
AA
ENDCHAR
ENDFONT
