STARTFONT 2.1
COMMENT 
COMMENT Id: cu-arabic12.bdf,v 1.5 2000/12/06 21:58:14 mleisher Exp $
COMMENT 
COMMENT Copyright 1997, 1998, 1999 Computing Research Labs, New Mexico State
COMMENT University
COMMENT 
COMMENT Permission is hereby granted, free of charge, to any person
COMMENT obtaining a copy of this software and associated documentation
COMMENT files (the "Software"), to deal in the Software without
COMMENT restriction, including without limitation the rights to use,
COMMENT copy, modify, merge, publish, distribute, sublicense, and/or
COMMENT sell copies of the Software, and to permit persons to whom the
COMMENT Software is furnished to do so, subject to the following
COMMENT conditions:
COMMENT 
COMMENT The above copyright notice and this permission notice shall be
COMMENT included in all copies or substantial portions of the Software.
COMMENT 
COMMENT THE SOFTWARE IS PROVIDED "AS IS", WITHOUT WARRANTY OF ANY KIND,
COMMENT EXPRESS OR IMPLIED, INCLUDING BUT NOT LIMITED TO THE WARRANTIES
COMMENT OF MERCHANTABILITY, FITNESS FOR A PARTICULAR PURPOSE AND
COMMENT NONINFRINGEMENT.  IN NO EVENT SHALL THE COMPUTING RESEARCH LAB
COMMENT OR NEW MEXICO STATE UNIVERSITY BE LIABLE FOR ANY CLAIM, DAMAGES
COMMENT OR OTHER LIABILITY, WHETHER IN AN ACTION OF CONTRACT, TORT OR
COMMENT OTHERWISE, ARISING FROM, OUT OF OR IN CONNECTION WITH THE
COMMENT SOFTWARE OR THE USE OR OTHER DEALINGS IN THE SOFTWARE.
COMMENT 
COMMENT This font contains the contextual glyph forms that are not encoded
COMMENT in Unicode.
COMMENT 
FONT -MUTT-ClearlyU Arabic Extra-Medium-R-Normal--17-120-100-100-P-103-FontSpecific-0
SIZE 12 100 100
FONTBOUNDINGBOX 21 29 -1 -10
STARTPROPERTIES 19
POINT_SIZE 120
PIXEL_SIZE 17
RESOLUTION_X 100
RESOLUTION_Y 100
FONT_ASCENT 17
FONT_DESCENT 9
AVERAGE_WIDTH 103
SPACING "P"
FOUNDRY "MUTT"
FAMILY_NAME "ClearlyU Arabic Extra"
WEIGHT_NAME "Medium"
SLANT "R"
SETWIDTH_NAME "Normal"
ADD_STYLE_NAME ""
CHARSET_REGISTRY "FontSpecific"
CHARSET_ENCODING "0"
_XMBDFED_INFO "Edited with xmbdfed 4.3."
CAP_HEIGHT 11
X_HEIGHT 7
ENDPROPERTIES
CHARS 198
STARTCHAR uni0000
ENCODING 0
SWIDTH 300 0
DWIDTH 5 0
BBX 5 15 -1 0
BITMAP
18
20
18
E0
00
10
18
10
10
10
10
10
10
10
10
ENDCHAR
STARTCHAR uni0001
ENCODING 1
SWIDTH 300 0
DWIDTH 5 0
BBX 6 16 -1 0
BITMAP
18
20
18
E0
00
00
10
18
10
10
10
10
10
10
10
0C
ENDCHAR
STARTCHAR uni0002
ENCODING 2
SWIDTH 300 0
DWIDTH 5 0
BBX 5 15 -1 -5
BITMAP
10
18
10
10
10
10
10
10
10
10
00
18
20
18
E0
ENDCHAR
STARTCHAR uni0003
ENCODING 3
SWIDTH 300 0
DWIDTH 5 0
BBX 6 16 -1 -6
BITMAP
10
18
10
10
10
10
10
10
10
0C
00
00
18
20
18
E0
ENDCHAR
STARTCHAR uni0004
ENCODING 4
SWIDTH 360 0
DWIDTH 6 0
BBX 6 13 2 0
BITMAP
0C
10
0C
90
C0
80
80
80
80
80
80
80
80
ENDCHAR
STARTCHAR uni0005
ENCODING 5
SWIDTH 360 0
DWIDTH 6 0
BBX 6 13 2 0
BITMAP
0C
10
8C
90
C0
80
80
80
80
80
80
80
60
ENDCHAR
STARTCHAR uni0006
ENCODING 6
SWIDTH 540 0
DWIDTH 9 0
BBX 9 14 0 -3
BITMAP
0180
0200
0180
0200
0000
0000
0400
0A00
0A00
0E00
0200
0200
8400
7800
ENDCHAR
STARTCHAR uni0007
ENCODING 7
SWIDTH 600 0
DWIDTH 10 0
BBX 9 14 1 -4
BITMAP
0180
0200
0180
0200
0000
0000
0400
0A00
0A00
0780
0200
0200
8400
7800
ENDCHAR
STARTCHAR uni0008
ENCODING 8
SWIDTH 840 0
DWIDTH 14 0
BBX 13 14 1 -2
BITMAP
0018
0020
0018
0020
0000
0000
01E0
0200
4200
8180
8040
8040
4180
3E00
ENDCHAR
STARTCHAR uni0009
ENCODING 9
SWIDTH 780 0
DWIDTH 13 0
BBX 13 12 1 -5
BITMAP
0018
0020
0018
0020
0000
0000
41E0
8200
8180
8040
4180
3E00
ENDCHAR
STARTCHAR uni000A
ENCODING 10
SWIDTH 420 0
DWIDTH 7 0
BBX 7 11 0 0
BITMAP
06
08
06
08
00
00
10
08
08
08
F0
ENDCHAR
STARTCHAR uni000B
ENCODING 11
SWIDTH 360 0
DWIDTH 6 0
BBX 7 10 0 0
BITMAP
06
08
06
08
00
00
10
10
10
EC
ENDCHAR
STARTCHAR uni000C
ENCODING 12
SWIDTH 780 0
DWIDTH 13 0
BBX 13 11 0 -4
BITMAP
0500
0500
0008
4008
8008
8008
C030
7FC0
0600
0900
0600
ENDCHAR
STARTCHAR uni000D
ENCODING 13
SWIDTH 900 0
DWIDTH 15 0
BBX 15 11 1 -4
BITMAP
0500
0500
0000
4000
8010
8010
C06E
7F80
0600
0900
0600
ENDCHAR
STARTCHAR uni000E
ENCODING 14
SWIDTH 360 0
DWIDTH 6 0
BBX 5 11 0 -3
BITMAP
28
28
00
10
08
08
08
F0
60
90
60
ENDCHAR
STARTCHAR uni000F
ENCODING 15
SWIDTH 360 0
DWIDTH 6 0
BBX 6 10 0 -3
BITMAP
28
28
00
10
10
10
EC
60
90
60
ENDCHAR
STARTCHAR uni0010
ENCODING 16
SWIDTH 840 0
DWIDTH 14 0
BBX 13 10 1 -1
BITMAP
0500
0500
0200
0200
0008
4008
8008
8008
C030
7FC0
ENDCHAR
STARTCHAR uni0011
ENCODING 17
SWIDTH 900 0
DWIDTH 15 0
BBX 15 10 1 -1
BITMAP
0500
0500
0200
0200
0000
4000
8010
8010
C06E
7F80
ENDCHAR
STARTCHAR uni0012
ENCODING 18
SWIDTH 360 0
DWIDTH 6 0
BBX 5 10 0 0
BITMAP
28
28
10
10
00
10
08
08
08
F0
ENDCHAR
STARTCHAR uni0013
ENCODING 19
SWIDTH 360 0
DWIDTH 6 0
BBX 6 10 0 0
BITMAP
28
28
10
10
00
00
10
10
10
EC
ENDCHAR
STARTCHAR uni0014
ENCODING 20
SWIDTH 660 0
DWIDTH 11 0
BBX 10 17 1 -6
BITMAP
0C00
1000
0C00
1000
0000
0000
7000
8F00
3800
4000
4000
8000
8000
8000
4000
60C0
1F00
ENDCHAR
STARTCHAR uni0015
ENCODING 21
SWIDTH 600 0
DWIDTH 10 0
BBX 10 17 1 -6
BITMAP
0600
0800
0600
0800
0000
0000
7000
8F00
3A00
4200
41C0
8000
8000
8000
4000
60C0
1F00
ENDCHAR
STARTCHAR uni0016
ENCODING 22
SWIDTH 600 0
DWIDTH 10 0
BBX 9 11 0 0
BITMAP
0300
0400
0300
0400
0000
0000
3800
4780
0C00
1000
E000
ENDCHAR
STARTCHAR uni0017
ENCODING 23
SWIDTH 600 0
DWIDTH 10 0
BBX 10 11 0 0
BITMAP
0300
0400
0300
0400
0000
0000
3800
4780
0D00
1100
E0C0
ENDCHAR
STARTCHAR uni0018
ENCODING 24
SWIDTH 660 0
DWIDTH 11 0
BBX 10 18 1 -6
BITMAP
0800
0800
0000
0800
0800
0000
0000
7000
8F00
3800
4000
4000
8000
8000
8000
4000
60C0
1F00
ENDCHAR
STARTCHAR uni0019
ENCODING 25
SWIDTH 600 0
DWIDTH 10 0
BBX 10 18 1 -6
BITMAP
0800
0800
0000
0800
0800
0000
0000
7000
8F00
3A00
4200
41C0
8000
8000
8000
4000
60C0
1F00
ENDCHAR
STARTCHAR uni001A
ENCODING 26
SWIDTH 600 0
DWIDTH 10 0
BBX 9 12 0 0
BITMAP
0400
0400
0000
0400
0400
0000
0000
3800
4780
0C00
1000
E000
ENDCHAR
STARTCHAR uni001B
ENCODING 27
SWIDTH 600 0
DWIDTH 10 0
BBX 10 12 0 0
BITMAP
0400
0400
0000
0400
0400
0000
0000
3800
4780
0D00
1100
E0C0
ENDCHAR
STARTCHAR uni001C
ENCODING 28
SWIDTH 660 0
DWIDTH 11 0
BBX 10 17 1 -6
BITMAP
0800
0800
1400
1400
0000
0000
7000
8F00
3800
4000
4000
8000
8000
8000
4000
60C0
1F00
ENDCHAR
STARTCHAR uni001D
ENCODING 29
SWIDTH 600 0
DWIDTH 10 0
BBX 10 17 1 -6
BITMAP
0800
0800
1400
1400
0000
0000
7000
8F00
3A00
4200
41C0
8000
8000
8000
4000
60C0
1F00
ENDCHAR
STARTCHAR uni001E
ENCODING 30
SWIDTH 600 0
DWIDTH 10 0
BBX 9 11 0 0
BITMAP
0400
0400
0A00
0A00
0000
0000
3800
4780
0C00
1000
E000
ENDCHAR
STARTCHAR uni001F
ENCODING 31
SWIDTH 600 0
DWIDTH 10 0
BBX 10 11 0 0
BITMAP
0400
0400
0A00
0A00
0000
0000
3800
4780
0D00
1100
E0C0
ENDCHAR
STARTCHAR uni0020
ENCODING 32
SWIDTH 360 0
DWIDTH 6 0
BBX 5 9 1 -3
BITMAP
20
10
08
08
08
F0
20
50
20
ENDCHAR
STARTCHAR uni0021
ENCODING 33
SWIDTH 420 0
DWIDTH 7 0
BBX 7 9 1 -2
BITMAP
10
10
08
08
08
98
66
50
20
ENDCHAR
STARTCHAR uni0022
ENCODING 34
SWIDTH 360 0
DWIDTH 6 0
BBX 5 10 1 -4
BITMAP
20
10
08
08
08
F0
00
00
20
20
ENDCHAR
STARTCHAR uni0023
ENCODING 35
SWIDTH 420 0
DWIDTH 7 0
BBX 7 11 1 -4
BITMAP
10
10
08
08
08
98
66
00
00
20
20
ENDCHAR
STARTCHAR uni0024
ENCODING 36
SWIDTH 360 0
DWIDTH 6 0
BBX 5 16 1 -4
BITMAP
40
40
70
70
00
00
20
10
08
08
08
F0
00
00
20
20
ENDCHAR
STARTCHAR uni0025
ENCODING 37
SWIDTH 420 0
DWIDTH 7 0
BBX 7 17 1 -4
BITMAP
40
40
70
70
00
00
10
10
08
08
08
98
66
00
00
20
20
ENDCHAR
STARTCHAR uni0026
ENCODING 38
SWIDTH 360 0
DWIDTH 6 0
BBX 5 12 1 0
BITMAP
50
50
20
20
00
00
20
10
08
08
08
F0
ENDCHAR
STARTCHAR uni0027
ENCODING 39
SWIDTH 420 0
DWIDTH 7 0
BBX 7 13 1 0
BITMAP
50
50
20
20
00
00
10
10
08
08
08
98
66
ENDCHAR
STARTCHAR uni0028
ENCODING 40
SWIDTH 360 0
DWIDTH 6 0
BBX 5 13 1 0
BITMAP
50
50
00
50
50
00
00
20
10
08
08
08
F0
ENDCHAR
STARTCHAR uni0029
ENCODING 41
SWIDTH 420 0
DWIDTH 7 0
BBX 7 14 1 0
BITMAP
50
50
00
50
50
00
00
10
10
08
08
08
98
66
ENDCHAR
STARTCHAR uni002A
ENCODING 42
SWIDTH 480 0
DWIDTH 8 0
BBX 7 13 1 -4
BITMAP
22
14
08
00
00
08
08
04
04
04
0C
18
F0
ENDCHAR
STARTCHAR uni002B
ENCODING 43
SWIDTH 540 0
DWIDTH 9 0
BBX 8 13 1 -5
BITMAP
22
14
08
00
00
08
0C
07
04
04
0C
18
F0
ENDCHAR
STARTCHAR uni002C
ENCODING 44
SWIDTH 420 0
DWIDTH 7 0
BBX 6 9 1 -5
BITMAP
08
08
04
04
04
0C
18
F4
0C
ENDCHAR
STARTCHAR uni002D
ENCODING 45
SWIDTH 540 0
DWIDTH 9 0
BBX 8 9 1 -6
BITMAP
08
0C
07
04
04
0C
18
F4
0C
ENDCHAR
STARTCHAR uni002E
ENCODING 46
SWIDTH 420 0
DWIDTH 7 0
BBX 6 10 1 -6
BITMAP
08
08
04
04
04
0C
18
F0
04
04
ENDCHAR
STARTCHAR uni002F
ENCODING 47
SWIDTH 540 0
DWIDTH 9 0
BBX 8 10 1 -7
BITMAP
08
0C
07
04
04
0C
18
F0
04
04
ENDCHAR
STARTCHAR uni0030
ENCODING 48
SWIDTH 420 0
DWIDTH 7 0
BBX 6 12 1 -8
BITMAP
08
08
04
04
04
0C
18
F0
00
44
28
10
ENDCHAR
STARTCHAR uni0031
ENCODING 49
SWIDTH 540 0
DWIDTH 9 0
BBX 8 12 1 -9
BITMAP
08
0C
07
04
04
0C
18
F0
00
44
28
10
ENDCHAR
STARTCHAR uni0032
ENCODING 50
SWIDTH 420 0
DWIDTH 7 0
BBX 6 10 1 -6
BITMAP
08
08
04
44
44
0C
18
F0
04
04
ENDCHAR
STARTCHAR uni0033
ENCODING 51
SWIDTH 540 0
DWIDTH 9 0
BBX 8 10 1 -7
BITMAP
08
0C
07
44
44
0C
18
F0
04
04
ENDCHAR
STARTCHAR uni0034
ENCODING 52
SWIDTH 420 0
DWIDTH 7 0
BBX 6 12 1 -4
BITMAP
14
14
00
00
08
08
04
04
04
0C
18
F0
ENDCHAR
STARTCHAR uni0035
ENCODING 53
SWIDTH 540 0
DWIDTH 9 0
BBX 8 12 1 -5
BITMAP
14
14
00
00
08
0C
07
04
04
0C
18
F0
ENDCHAR
STARTCHAR uni0036
ENCODING 54
SWIDTH 420 0
DWIDTH 7 0
BBX 6 15 1 -4
BITMAP
14
14
00
14
14
00
00
08
08
04
04
04
0C
18
F0
ENDCHAR
STARTCHAR uni0037
ENCODING 55
SWIDTH 540 0
DWIDTH 9 0
BBX 8 15 1 -5
BITMAP
14
14
00
14
14
00
00
08
0C
07
04
04
0C
18
F0
ENDCHAR
STARTCHAR uni0038
ENCODING 56
SWIDTH 960 0
DWIDTH 16 0
BBX 15 12 1 -5
BITMAP
0010
0010
0002
0002
0012
0112
40EC
8080
8080
8088
4308
3C00
ENDCHAR
STARTCHAR uni0039
ENCODING 57
SWIDTH 1020 0
DWIDTH 17 0
BBX 17 11 1 -5
BITMAP
001000
001000
000000
000200
011200
40ED80
808000
808000
808800
430800
3C0000
ENDCHAR
STARTCHAR uni003A
ENCODING 58
SWIDTH 720 0
DWIDTH 12 0
BBX 11 11 0 -4
BITMAP
0100
0100
0000
0020
0120
1120
EEC0
0000
0000
0080
0080
ENDCHAR
STARTCHAR uni003B
ENCODING 59
SWIDTH 780 0
DWIDTH 13 0
BBX 13 11 0 -4
BITMAP
0100
0100
0000
0000
0100
1120
EED8
0000
0000
0080
0080
ENDCHAR
STARTCHAR uni003C
ENCODING 60
SWIDTH 960 0
DWIDTH 16 0
BBX 15 10 1 -6
BITMAP
0002
0012
0112
40EC
8080
8080
8094
4314
3C08
0008
ENDCHAR
STARTCHAR uni003D
ENCODING 61
SWIDTH 1020 0
DWIDTH 17 0
BBX 17 9 1 -6
BITMAP
000200
011200
40ED80
808000
808000
809400
431400
3C0800
000800
ENDCHAR
STARTCHAR uni003E
ENCODING 62
SWIDTH 720 0
DWIDTH 12 0
BBX 11 10 0 -6
BITMAP
0020
0120
1120
EEC0
0000
0000
0280
0280
0100
0100
ENDCHAR
STARTCHAR uni003F
ENCODING 63
SWIDTH 780 0
DWIDTH 13 0
BBX 13 9 0 -6
BITMAP
0100
1120
EED8
0000
0000
0280
0280
0100
0100
ENDCHAR
STARTCHAR uni0040
ENCODING 64
SWIDTH 960 0
DWIDTH 16 0
BBX 15 15 1 -6
BITMAP
0010
0010
0028
0028
0000
0002
0012
0112
40EC
8080
8080
8094
4314
3C08
0008
ENDCHAR
STARTCHAR uni0041
ENCODING 65
SWIDTH 1020 0
DWIDTH 17 0
BBX 17 14 1 -6
BITMAP
001000
001000
002800
002800
000000
000200
011200
40ED80
808000
808000
809400
431400
3C0800
000800
ENDCHAR
STARTCHAR uni0042
ENCODING 66
SWIDTH 720 0
DWIDTH 12 0
BBX 11 15 0 -6
BITMAP
0100
0100
0280
0280
0000
0020
0120
1120
EEC0
0000
0000
0280
0280
0100
0100
ENDCHAR
STARTCHAR uni0043
ENCODING 67
SWIDTH 780 0
DWIDTH 13 0
BBX 13 15 0 -6
BITMAP
0100
0100
0280
0280
0000
0000
0100
1120
EED8
0000
0000
0280
0280
0100
0100
ENDCHAR
STARTCHAR uni0044
ENCODING 68
SWIDTH 1080 0
DWIDTH 18 0
BBX 17 10 1 -5
BITMAP
000700
000880
001080
012700
40F800
80C000
808000
808A00
430A00
3C0000
ENDCHAR
STARTCHAR uni0045
ENCODING 69
SWIDTH 1080 0
DWIDTH 18 0
BBX 18 10 1 -5
BITMAP
000700
000880
001080
012100
40FFC0
80C000
808000
808A00
430A00
3C0000
ENDCHAR
STARTCHAR uni0046
ENCODING 70
SWIDTH 840 0
DWIDTH 14 0
BBX 13 9 0 -4
BITMAP
0070
0088
0108
2270
DF80
0400
0000
0140
0140
ENDCHAR
STARTCHAR uni0047
ENCODING 71
SWIDTH 780 0
DWIDTH 13 0
BBX 13 9 0 -4
BITMAP
00E0
0110
0210
2420
DFF8
0800
0000
0280
0280
ENDCHAR
STARTCHAR uni0048
ENCODING 72
SWIDTH 1080 0
DWIDTH 18 0
BBX 17 15 1 -5
BITMAP
001000
001000
002800
002800
000000
000700
000880
001080
012700
40F800
80C000
808000
808000
430000
3C0000
ENDCHAR
STARTCHAR uni0049
ENCODING 73
SWIDTH 1080 0
DWIDTH 18 0
BBX 18 15 1 -5
BITMAP
001000
001000
002800
002800
000000
000700
000880
001080
012100
40FFC0
80C000
808000
808000
430000
3C0000
ENDCHAR
STARTCHAR uni004A
ENCODING 74
SWIDTH 840 0
DWIDTH 14 0
BBX 13 11 0 -1
BITMAP
0100
0100
0280
0280
0000
0070
0088
0108
2270
DF80
0400
ENDCHAR
STARTCHAR uni004B
ENCODING 75
SWIDTH 780 0
DWIDTH 13 0
BBX 13 11 0 -1
BITMAP
0200
0200
0500
0500
0000
00E0
0110
0210
2420
DFF8
0800
ENDCHAR
STARTCHAR uni004C
ENCODING 76
SWIDTH 540 0
DWIDTH 9 0
BBX 8 10 1 0
BITMAP
22
32
25
25
20
26
29
31
26
F8
ENDCHAR
STARTCHAR uni004D
ENCODING 77
SWIDTH 600 0
DWIDTH 10 0
BBX 10 10 1 0
BITMAP
2200
3200
2500
2500
2000
2600
2900
3100
2200
FFC0
ENDCHAR
STARTCHAR uni004E
ENCODING 78
SWIDTH 540 0
DWIDTH 9 0
BBX 8 10 0 0
BITMAP
22
32
25
25
20
26
29
31
26
F8
ENDCHAR
STARTCHAR uni004F
ENCODING 79
SWIDTH 600 0
DWIDTH 10 0
BBX 10 10 0 0
BITMAP
2200
3200
2500
2500
2000
2600
2900
3100
2200
FFC0
ENDCHAR
STARTCHAR uni0050
ENCODING 80
SWIDTH 600 0
DWIDTH 10 0
BBX 9 18 1 -7
BITMAP
1000
1000
2800
2800
0000
0000
3800
4000
8000
4C00
3000
4000
4000
8000
8000
8000
4180
3E00
ENDCHAR
STARTCHAR uni0051
ENCODING 81
SWIDTH 540 0
DWIDTH 9 0
BBX 9 17 1 -6
BITMAP
1000
1000
2800
2800
0000
0000
3800
6C00
1000
3800
4780
4000
8000
8000
8000
4180
3E00
ENDCHAR
STARTCHAR uni0052
ENCODING 82
SWIDTH 420 0
DWIDTH 7 0
BBX 7 11 0 0
BITMAP
08
08
14
14
00
00
1C
20
40
26
F8
ENDCHAR
STARTCHAR uni0053
ENCODING 83
SWIDTH 480 0
DWIDTH 8 0
BBX 8 11 0 0
BITMAP
08
08
14
14
00
00
1C
36
08
1C
E3
ENDCHAR
STARTCHAR uni0054
ENCODING 84
SWIDTH 900 0
DWIDTH 15 0
BBX 14 8 1 0
BITMAP
0018
002C
0024
802C
8014
8004
4038
3FC0
ENDCHAR
STARTCHAR uni0055
ENCODING 85
SWIDTH 960 0
DWIDTH 16 0
BBX 16 8 1 -1
BITMAP
0018
002C
0024
802C
8014
8004
403B
3FC0
ENDCHAR
STARTCHAR uni0056
ENCODING 86
SWIDTH 360 0
DWIDTH 6 0
BBX 5 7 0 0
BITMAP
30
58
48
58
28
08
F0
ENDCHAR
STARTCHAR uni0057
ENCODING 87
SWIDTH 480 0
DWIDTH 8 0
BBX 8 6 0 0
BITMAP
18
24
24
28
10
EF
ENDCHAR
STARTCHAR uni0058
ENCODING 88
SWIDTH 900 0
DWIDTH 15 0
BBX 14 12 1 -4
BITMAP
0018
002C
0024
802C
8014
8004
4038
3FC0
0000
0000
0100
0100
ENDCHAR
STARTCHAR uni0059
ENCODING 89
SWIDTH 960 0
DWIDTH 16 0
BBX 16 12 1 -5
BITMAP
0018
002C
0024
802C
8014
8004
403B
3FC0
0000
0000
0100
0100
ENDCHAR
STARTCHAR uni005A
ENCODING 90
SWIDTH 360 0
DWIDTH 6 0
BBX 5 11 0 -4
BITMAP
30
58
48
58
28
08
F0
00
00
80
80
ENDCHAR
STARTCHAR uni005B
ENCODING 91
SWIDTH 480 0
DWIDTH 8 0
BBX 8 10 0 -4
BITMAP
18
24
24
28
10
EF
00
00
40
40
ENDCHAR
STARTCHAR uni005C
ENCODING 92
SWIDTH 900 0
DWIDTH 15 0
BBX 14 16 1 -4
BITMAP
0010
0010
0000
0000
0018
002C
0024
802C
8014
8004
4038
3FC0
0000
0000
0100
0100
ENDCHAR
STARTCHAR uni005D
ENCODING 93
SWIDTH 960 0
DWIDTH 16 0
BBX 16 16 1 -5
BITMAP
0010
0010
0000
0000
0018
002C
0024
802C
8014
8004
403B
3FC0
0000
0000
0100
0100
ENDCHAR
STARTCHAR uni005E
ENCODING 94
SWIDTH 360 0
DWIDTH 6 0
BBX 5 15 0 -4
BITMAP
20
20
00
00
30
58
48
58
28
08
F0
00
00
80
80
ENDCHAR
STARTCHAR uni005F
ENCODING 95
SWIDTH 480 0
DWIDTH 8 0
BBX 8 14 0 -4
BITMAP
08
08
00
00
18
24
24
28
10
EF
00
00
40
40
ENDCHAR
STARTCHAR uni0060
ENCODING 96
SWIDTH 900 0
DWIDTH 15 0
BBX 14 13 1 -5
BITMAP
0018
002C
0024
802C
8014
8004
4038
3FC0
0000
0028
0028
0010
0010
ENDCHAR
STARTCHAR uni0061
ENCODING 97
SWIDTH 960 0
DWIDTH 16 0
BBX 16 13 1 -6
BITMAP
0018
002C
0024
802C
8014
8004
403B
3FC0
0000
0028
0028
0010
0010
ENDCHAR
STARTCHAR uni0062
ENCODING 98
SWIDTH 360 0
DWIDTH 6 0
BBX 5 13 0 -6
BITMAP
30
58
48
58
28
08
F0
00
00
50
50
20
20
ENDCHAR
STARTCHAR uni0063
ENCODING 99
SWIDTH 480 0
DWIDTH 8 0
BBX 8 12 0 -6
BITMAP
18
24
24
28
10
EF
00
00
28
28
10
10
ENDCHAR
STARTCHAR uni0064
ENCODING 100
SWIDTH 600 0
DWIDTH 10 0
BBX 9 14 1 -3
BITMAP
0200
0200
0000
0000
0300
0580
0480
0480
4380
8080
8080
8100
4200
3C00
ENDCHAR
STARTCHAR uni0065
ENCODING 101
SWIDTH 720 0
DWIDTH 12 0
BBX 11 14 1 -5
BITMAP
0200
0200
0000
0000
0300
0580
0480
0480
43E0
8080
8080
8100
4200
3C00
ENDCHAR
STARTCHAR uni0066
ENCODING 102
SWIDTH 240 0
DWIDTH 4 0
BBX 5 11 0 0
BITMAP
20
20
00
00
30
58
48
58
28
08
F0
ENDCHAR
STARTCHAR uni0067
ENCODING 103
SWIDTH 480 0
DWIDTH 8 0
BBX 8 10 0 0
BITMAP
10
10
00
00
18
24
24
28
10
EF
ENDCHAR
STARTCHAR uni0068
ENCODING 104
SWIDTH 600 0
DWIDTH 10 0
BBX 9 16 1 -3
BITMAP
0200
0200
0500
0500
0000
0000
0300
0580
0480
0480
4380
8080
8080
8100
4200
3C00
ENDCHAR
STARTCHAR uni0069
ENCODING 105
SWIDTH 720 0
DWIDTH 12 0
BBX 11 16 1 -5
BITMAP
0200
0200
0500
0500
0000
0000
0300
0580
0480
0480
43E0
8080
8080
8100
4200
3C00
ENDCHAR
STARTCHAR uni006A
ENCODING 106
SWIDTH 240 0
DWIDTH 4 0
BBX 5 13 0 0
BITMAP
20
20
50
50
00
00
30
58
48
58
28
08
F0
ENDCHAR
STARTCHAR uni006B
ENCODING 107
SWIDTH 480 0
DWIDTH 8 0
BBX 8 12 0 0
BITMAP
10
10
28
28
00
00
18
24
24
28
10
EF
ENDCHAR
STARTCHAR uni006C
ENCODING 108
SWIDTH 960 0
DWIDTH 16 0
BBX 14 8 0 0
BITMAP
0600
1800
2000
2000
1FF8
0004
8004
7FF8
ENDCHAR
STARTCHAR uni006D
ENCODING 109
SWIDTH 1020 0
DWIDTH 17 0
BBX 16 9 1 0
BITMAP
0180
0600
1800
2000
2000
1FF8
0004
8004
7FFB
ENDCHAR
STARTCHAR uni006E
ENCODING 110
SWIDTH 900 0
DWIDTH 15 0
BBX 14 8 0 0
BITMAP
0600
1800
2000
2000
1FF8
0004
0004
FFF8
ENDCHAR
STARTCHAR uni006F
ENCODING 111
SWIDTH 960 0
DWIDTH 16 0
BBX 16 8 0 0
BITMAP
0600
1800
2000
2000
1FF8
0004
0004
FFFB
ENDCHAR
STARTCHAR uni0070
ENCODING 112
SWIDTH 960 0
DWIDTH 16 0
BBX 15 14 1 -1
BITMAP
0006
0018
0068
01A8
0210
0200
0100
00C0
0020
4010
8008
8008
C030
7FC0
ENDCHAR
STARTCHAR uni0071
ENCODING 113
SWIDTH 1020 0
DWIDTH 17 0
BBX 16 14 1 -1
BITMAP
0006
0018
0068
01A8
0210
0200
0100
00C0
0020
4010
8008
8008
C037
7FC0
ENDCHAR
STARTCHAR uni0072
ENCODING 114
SWIDTH 660 0
DWIDTH 11 0
BBX 10 11 0 0
BITMAP
00C0
0300
0D00
3500
4200
4000
2000
1800
0400
0400
F800
ENDCHAR
STARTCHAR uni0073
ENCODING 115
SWIDTH 660 0
DWIDTH 11 0
BBX 11 11 0 0
BITMAP
00C0
0300
0D00
3500
4200
4000
2000
1800
0400
0700
F8E0
ENDCHAR
STARTCHAR uni0074
ENCODING 116
SWIDTH 660 0
DWIDTH 11 0
BBX 9 13 1 0
BITMAP
0800
0800
0000
0100
0180
0100
0900
1900
0900
1900
0100
0100
FE00
ENDCHAR
STARTCHAR uni0075
ENCODING 117
SWIDTH 900 0
DWIDTH 15 0
BBX 14 14 1 -1
BITMAP
0200
0200
0000
0010
0018
0010
0210
0610
0210
4610
8010
8010
C06C
7F80
ENDCHAR
STARTCHAR uni0076
ENCODING 118
SWIDTH 660 0
DWIDTH 11 0
BBX 10 13 0 0
BITMAP
1000
1000
00C0
0300
0C00
3000
4000
4000
2000
1800
0400
0400
F800
ENDCHAR
STARTCHAR uni0077
ENCODING 119
SWIDTH 660 0
DWIDTH 11 0
BBX 11 13 0 0
BITMAP
1000
1000
00C0
0300
0C00
3000
4000
4000
2000
1800
0400
0700
F8E0
ENDCHAR
STARTCHAR uni0078
ENCODING 120
SWIDTH 660 0
DWIDTH 11 0
BBX 9 16 1 -6
BITMAP
0100
0180
0100
0900
1900
0900
1900
0100
0100
FE00
0000
0000
2800
2800
1000
1000
ENDCHAR
STARTCHAR uni0079
ENCODING 121
SWIDTH 900 0
DWIDTH 15 0
BBX 14 20 1 -7
BITMAP
0200
0200
0000
0010
0018
0010
0210
0610
0210
4610
8010
8010
C06C
7F80
0000
0000
0A00
0A00
0400
0400
ENDCHAR
STARTCHAR uni007A
ENCODING 122
SWIDTH 660 0
DWIDTH 11 0
BBX 10 19 0 -6
BITMAP
1000
1000
00C0
0300
0C00
3000
4000
4000
2000
1800
0400
0400
F800
0000
0000
5000
5000
2000
2000
ENDCHAR
STARTCHAR uni007B
ENCODING 123
SWIDTH 660 0
DWIDTH 11 0
BBX 11 19 0 -6
BITMAP
1000
1000
00C0
0300
0C00
3000
4000
4000
2000
1800
0400
0700
F8E0
0000
0000
5000
5000
2000
2000
ENDCHAR
STARTCHAR uni007C
ENCODING 124
SWIDTH 960 0
DWIDTH 16 0
BBX 15 17 1 -1
BITMAP
0004
0018
0060
0186
0218
0068
01A8
0210
0200
0100
00C0
0020
4010
8008
8008
C030
7FC0
ENDCHAR
STARTCHAR uni007D
ENCODING 125
SWIDTH 1020 0
DWIDTH 17 0
BBX 16 17 1 -1
BITMAP
0004
0018
0060
0186
0218
0068
01A8
0210
0200
0100
00C0
0020
4010
8008
8008
C037
7FC0
ENDCHAR
STARTCHAR uni007E
ENCODING 126
SWIDTH 660 0
DWIDTH 11 0
BBX 10 14 0 0
BITMAP
0080
0300
0C00
30C0
4300
0D00
3500
4200
4000
2000
1800
0400
0400
F800
ENDCHAR
STARTCHAR uni007F
ENCODING 127
SWIDTH 660 0
DWIDTH 11 0
BBX 11 14 0 0
BITMAP
0080
0300
0C00
30C0
4300
0D00
3500
4200
4000
2000
1800
0400
0700
F8E0
ENDCHAR
STARTCHAR uni0080
ENCODING 128
SWIDTH 960 0
DWIDTH 16 0
BBX 15 21 1 -5
BITMAP
0004
0018
0060
0186
0218
0060
0180
0200
0200
0100
00C0
0020
4010
8008
8008
C030
7FC0
0000
0000
0500
0500
ENDCHAR
STARTCHAR uni0081
ENCODING 129
SWIDTH 1020 0
DWIDTH 17 0
BBX 16 21 1 -5
BITMAP
0004
0018
0060
0186
0218
0060
0180
0200
0200
0100
00C0
0020
4010
8008
8008
C037
7FC0
0000
0000
0500
0500
ENDCHAR
STARTCHAR uni0082
ENCODING 130
SWIDTH 660 0
DWIDTH 11 0
BBX 10 18 0 -4
BITMAP
0080
0300
0C00
30C0
4300
0C00
3000
4000
4000
2000
1800
0400
0400
F800
0000
0000
5000
5000
ENDCHAR
STARTCHAR uni0083
ENCODING 131
SWIDTH 660 0
DWIDTH 11 0
BBX 11 18 0 -4
BITMAP
0080
0300
0C00
30C0
4300
0C00
3000
4000
4000
2000
1800
0400
0700
F8E0
0000
0000
5000
5000
ENDCHAR
STARTCHAR uni0084
ENCODING 132
SWIDTH 960 0
DWIDTH 16 0
BBX 15 20 1 -1
BITMAP
0100
0100
0040
0144
0118
0060
0186
0218
0060
0180
0200
0200
0100
00C0
0020
4010
8008
8008
C030
7FC0
ENDCHAR
STARTCHAR uni0085
ENCODING 133
SWIDTH 1020 0
DWIDTH 17 0
BBX 16 20 1 -1
BITMAP
0100
0100
0040
0144
0118
0060
0186
0218
0060
0180
0200
0200
0100
00C0
0020
4010
8008
8008
C037
7FC0
ENDCHAR
STARTCHAR uni0086
ENCODING 134
SWIDTH 660 0
DWIDTH 11 0
BBX 10 17 0 0
BITMAP
2000
2000
0800
2880
2300
0C00
30C0
4300
0C00
3000
4000
4000
2000
1800
0400
0400
F800
ENDCHAR
STARTCHAR uni0087
ENCODING 135
SWIDTH 660 0
DWIDTH 11 0
BBX 11 17 0 0
BITMAP
2000
2000
0800
2880
2300
0C00
30C0
4300
0C00
3000
4000
4000
2000
1800
0400
0700
F8E0
ENDCHAR
STARTCHAR uni0088
ENCODING 136
SWIDTH 600 0
DWIDTH 10 0
BBX 9 17 1 -2
BITMAP
0880
0500
0200
0000
0000
0200
0300
0200
0200
0200
0200
0200
4200
8200
8200
8400
7800
ENDCHAR
STARTCHAR uni0089
ENCODING 137
SWIDTH 540 0
DWIDTH 9 0
BBX 9 19 1 -4
BITMAP
0880
0500
0200
0000
0000
0200
0200
0200
0200
0200
0200
0200
0200
0300
4280
8200
8200
8400
7800
ENDCHAR
STARTCHAR uni008A
ENCODING 138
SWIDTH 300 0
DWIDTH 5 0
BBX 5 15 0 0
BITMAP
88
50
20
00
00
20
30
20
20
20
20
20
20
20
C0
ENDCHAR
STARTCHAR uni008B
ENCODING 139
SWIDTH 300 0
DWIDTH 5 0
BBX 5 15 0 0
BITMAP
88
50
20
00
00
20
20
20
20
20
20
20
20
20
D0
ENDCHAR
STARTCHAR uni008C
ENCODING 140
SWIDTH 540 0
DWIDTH 9 0
BBX 8 16 1 -2
BITMAP
02
02
00
00
02
03
02
02
02
02
02
42
82
82
84
78
ENDCHAR
STARTCHAR uni008D
ENCODING 141
SWIDTH 540 0
DWIDTH 9 0
BBX 9 18 1 -4
BITMAP
0200
0200
0000
0000
0200
0200
0200
0200
0200
0200
0200
0200
0300
4280
8200
8200
8400
7800
ENDCHAR
STARTCHAR uni008E
ENCODING 142
SWIDTH 300 0
DWIDTH 5 0
BBX 4 14 0 0
BITMAP
20
20
00
00
20
30
20
20
20
20
20
20
20
C0
ENDCHAR
STARTCHAR uni008F
ENCODING 143
SWIDTH 240 0
DWIDTH 4 0
BBX 4 14 0 0
BITMAP
20
20
00
00
20
20
20
20
20
20
20
20
20
D0
ENDCHAR
STARTCHAR uni0090
ENCODING 144
SWIDTH 540 0
DWIDTH 9 0
BBX 8 18 1 -2
BITMAP
02
02
05
05
00
00
02
03
02
02
02
02
02
42
82
82
84
78
ENDCHAR
STARTCHAR uni0091
ENCODING 145
SWIDTH 540 0
DWIDTH 9 0
BBX 9 20 1 -4
BITMAP
0200
0200
0500
0500
0000
0000
0200
0200
0200
0200
0200
0200
0200
0200
0300
4280
8200
8200
8400
7800
ENDCHAR
STARTCHAR uni0092
ENCODING 146
SWIDTH 300 0
DWIDTH 5 0
BBX 4 16 0 0
BITMAP
20
20
50
50
00
00
20
30
20
20
20
20
20
20
20
C0
ENDCHAR
STARTCHAR uni0093
ENCODING 147
SWIDTH 240 0
DWIDTH 4 0
BBX 4 16 0 0
BITMAP
20
20
50
50
00
00
20
20
20
20
20
20
20
20
20
D0
ENDCHAR
STARTCHAR uni0094
ENCODING 148
SWIDTH 600 0
DWIDTH 10 0
BBX 9 11 1 -3
BITMAP
1000
1000
0000
0200
0200
4100
8100
8100
8300
7E80
0380
ENDCHAR
STARTCHAR uni0095
ENCODING 149
SWIDTH 540 0
DWIDTH 9 0
BBX 9 11 1 -5
BITMAP
1000
1000
0000
0200
0200
4180
8100
8100
8300
7E80
0380
ENDCHAR
STARTCHAR uni0096
ENCODING 150
SWIDTH 360 0
DWIDTH 6 0
BBX 5 12 0 -3
BITMAP
20
20
00
00
10
08
08
08
F0
60
90
60
ENDCHAR
STARTCHAR uni0097
ENCODING 151
SWIDTH 360 0
DWIDTH 6 0
BBX 6 11 0 -3
BITMAP
10
10
00
00
10
10
10
EC
60
90
60
ENDCHAR
STARTCHAR uni0098
ENCODING 152
SWIDTH 600 0
DWIDTH 10 0
BBX 8 12 1 -2
BITMAP
08
08
14
14
00
02
02
41
81
81
82
7C
ENDCHAR
STARTCHAR uni0099
ENCODING 153
SWIDTH 540 0
DWIDTH 9 0
BBX 9 12 1 -4
BITMAP
0800
0800
1400
1400
0000
0200
0200
4180
8100
8100
8200
7C00
ENDCHAR
STARTCHAR uni009A
ENCODING 154
SWIDTH 360 0
DWIDTH 6 0
BBX 5 11 0 -6
BITMAP
10
08
08
08
F0
00
00
28
28
10
10
ENDCHAR
STARTCHAR uni009B
ENCODING 155
SWIDTH 360 0
DWIDTH 6 0
BBX 6 10 0 -6
BITMAP
10
10
10
EC
00
00
28
28
10
10
ENDCHAR
STARTCHAR uni009C
ENCODING 156
SWIDTH 420 0
DWIDTH 7 0
BBX 4 11 1 0
BITMAP
30
40
30
40
00
20
30
50
90
90
60
ENDCHAR
STARTCHAR uni009D
ENCODING 157
SWIDTH 420 0
DWIDTH 7 0
BBX 6 12 1 0
BITMAP
18
20
18
20
00
10
30
50
90
90
70
0C
ENDCHAR
STARTCHAR uni009E
ENCODING 158
SWIDTH 300 0
DWIDTH 5 0
BBX 4 11 1 0
BITMAP
30
40
30
40
00
20
30
50
90
90
60
ENDCHAR
STARTCHAR uni009F
ENCODING 159
SWIDTH 420 0
DWIDTH 7 0
BBX 6 10 1 0
BITMAP
18
20
18
20
00
00
30
78
8C
04
ENDCHAR
STARTCHAR uni00A0
ENCODING 160
SWIDTH 300 0
DWIDTH 5 0
BBX 4 10 1 0
BITMAP
50
50
00
00
20
30
50
90
90
60
ENDCHAR
STARTCHAR uni00A1
ENCODING 161
SWIDTH 420 0
DWIDTH 7 0
BBX 6 8 1 0
BITMAP
28
28
00
00
30
78
8C
04
ENDCHAR
STARTCHAR uni00A2
ENCODING 162
SWIDTH 540 0
DWIDTH 9 0
BBX 7 8 0 -3
BITMAP
04
0A
0A
0E
12
2A
94
78
ENDCHAR
STARTCHAR uni00A3
ENCODING 163
SWIDTH 600 0
DWIDTH 10 0
BBX 9 8 1 -4
BITMAP
0400
0A00
0A00
0780
1200
2A00
9400
7800
ENDCHAR
STARTCHAR uni00A4
ENCODING 164
SWIDTH 540 0
DWIDTH 9 0
BBX 7 12 0 -3
BITMAP
0A
0A
00
00
04
0A
0A
0E
02
02
84
78
ENDCHAR
STARTCHAR uni00A5
ENCODING 165
SWIDTH 600 0
DWIDTH 10 0
BBX 9 12 1 -4
BITMAP
0A00
0A00
0000
0000
0400
0A00
0A00
0780
0200
0200
8400
7800
ENDCHAR
STARTCHAR uni00A6
ENCODING 166
SWIDTH 780 0
DWIDTH 13 0
BBX 13 8 0 -2
BITMAP
0078
0080
1080
2060
6010
A010
1060
0F80
ENDCHAR
STARTCHAR uni00A7
ENCODING 167
SWIDTH 840 0
DWIDTH 14 0
BBX 13 6 1 -5
BITMAP
1078
2080
6060
A010
1060
0F80
ENDCHAR
STARTCHAR uni00A8
ENCODING 168
SWIDTH 660 0
DWIDTH 11 0
BBX 11 11 0 -2
BITMAP
4400
2800
1000
01E0
0200
4200
8180
8040
8040
4180
3E00
ENDCHAR
STARTCHAR uni00A9
ENCODING 169
SWIDTH 720 0
DWIDTH 12 0
BBX 11 11 1 -5
BITMAP
2200
1400
0800
0000
0000
41E0
8200
8180
8040
4180
3E00
ENDCHAR
STARTCHAR uni00AA
ENCODING 170
SWIDTH 360 0
DWIDTH 6 0
BBX 6 10 0 0
BITMAP
44
28
10
00
00
10
08
08
08
F0
ENDCHAR
STARTCHAR uni00AB
ENCODING 171
SWIDTH 360 0
DWIDTH 6 0
BBX 6 9 0 0
BITMAP
44
28
10
00
00
10
10
10
EC
ENDCHAR
STARTCHAR uni00AC
ENCODING 172
SWIDTH 720 0
DWIDTH 12 0
BBX 11 13 1 -7
BITMAP
01E0
0200
4200
8180
8040
8040
4180
3E00
0000
2800
2800
1000
1000
ENDCHAR
STARTCHAR uni00AD
ENCODING 173
SWIDTH 660 0
DWIDTH 11 0
BBX 11 11 1 -10
BITMAP
41E0
8200
8180
8040
4180
3E00
0000
2800
2800
1000
1000
ENDCHAR
STARTCHAR uni00AE
ENCODING 174
SWIDTH 360 0
DWIDTH 6 0
BBX 5 10 0 -5
BITMAP
10
08
08
08
F0
00
50
50
20
20
ENDCHAR
STARTCHAR uni00AF
ENCODING 175
SWIDTH 360 0
DWIDTH 6 0
BBX 6 9 0 -5
BITMAP
10
10
10
EC
00
28
28
10
10
ENDCHAR
STARTCHAR uni00B0
ENCODING 176
SWIDTH 360 0
DWIDTH 6 0
BBX 5 5 0 0
BITMAP
10
08
08
08
F0
ENDCHAR
STARTCHAR uni00B1
ENCODING 177
SWIDTH 360 0
DWIDTH 6 0
BBX 6 4 0 0
BITMAP
10
10
10
EC
ENDCHAR
STARTCHAR uni00B2
ENCODING 178
SWIDTH 600 0
DWIDTH 10 0
BBX 9 14 1 -4
BITMAP
1180
2A00
1180
2A00
4000
0000
0400
0A00
0A00
0780
0200
0200
8400
7800
ENDCHAR
STARTCHAR uni00B3
ENCODING 179
SWIDTH 960 0
DWIDTH 16 0
BBX 15 14 1 -5
BITMAP
0010
0010
0028
0028
0000
0002
0012
0112
40EC
8080
8080
8088
4308
3C00
ENDCHAR
STARTCHAR uni00B4
ENCODING 180
SWIDTH 1020 0
DWIDTH 17 0
BBX 17 13 1 -5
BITMAP
001000
001000
002800
002800
000000
000200
011200
40ED80
808000
808000
808800
430800
3C0000
ENDCHAR
STARTCHAR uni00B5
ENCODING 181
SWIDTH 720 0
DWIDTH 12 0
BBX 11 13 0 -4
BITMAP
0100
0100
0280
0280
0000
0020
0120
1120
EEC0
0000
0000
0080
0080
ENDCHAR
STARTCHAR uni00B6
ENCODING 182
SWIDTH 780 0
DWIDTH 13 0
BBX 13 13 0 -4
BITMAP
0100
0100
0280
0280
0000
0000
0100
1120
EED8
0000
0000
0080
0080
ENDCHAR
STARTCHAR uni00B7
ENCODING 183
SWIDTH 1080 0
DWIDTH 18 0
BBX 17 12 1 -5
BITMAP
002000
002000
000700
000880
001080
012700
40F800
80C000
808000
808400
430400
3C0000
ENDCHAR
STARTCHAR uni00B8
ENCODING 184
SWIDTH 1080 0
DWIDTH 18 0
BBX 18 12 1 -5
BITMAP
002000
002000
000700
000880
001080
012100
40FFC0
80C000
808000
808400
430400
3C0000
ENDCHAR
STARTCHAR uni00B9
ENCODING 185
SWIDTH 840 0
DWIDTH 14 0
BBX 13 11 0 -4
BITMAP
0200
0200
0070
0088
0108
2270
DF80
0400
0000
0040
0040
ENDCHAR
STARTCHAR uni00BA
ENCODING 186
SWIDTH 780 0
DWIDTH 13 0
BBX 13 11 0 -4
BITMAP
0400
0400
00E0
0110
0210
2420
DFF8
0800
0000
0080
0080
ENDCHAR
STARTCHAR uni00BB
ENCODING 187
SWIDTH 600 0
DWIDTH 10 0
BBX 9 16 1 -7
BITMAP
2000
2000
0000
0000
3800
4000
8000
4C00
3000
4000
4000
8800
8800
8000
4180
3E00
ENDCHAR
STARTCHAR uni00BC
ENCODING 188
SWIDTH 540 0
DWIDTH 9 0
BBX 9 15 1 -6
BITMAP
1000
1000
0000
0000
3800
6C00
1000
3800
4780
4000
8800
8800
8000
4180
3E00
ENDCHAR
STARTCHAR uni00BD
ENCODING 189
SWIDTH 420 0
DWIDTH 7 0
BBX 7 13 0 -4
BITMAP
10
10
00
00
1C
20
40
26
F8
00
00
10
10
ENDCHAR
STARTCHAR uni00BE
ENCODING 190
SWIDTH 480 0
DWIDTH 8 0
BBX 8 13 0 -4
BITMAP
08
08
00
00
1C
36
08
1C
E3
00
00
08
08
ENDCHAR
STARTCHAR uni00D0
ENCODING 208
SWIDTH 540 0
DWIDTH 9 0
BBX 8 15 1 0
BITMAP
11
0A
04
00
00
C4
E6
24
14
14
08
0C
14
24
38
ENDCHAR
STARTCHAR uni00D1
ENCODING 209
SWIDTH 660 0
DWIDTH 11 0
BBX 10 16 1 -1
BITMAP
0880
0500
0200
0000
0000
0200
6300
7200
1200
0A00
0A00
0A00
0D00
0900
30C0
E000
ENDCHAR
STARTCHAR uni00D2
ENCODING 210
SWIDTH 540 0
DWIDTH 9 0
BBX 7 14 1 0
BITMAP
04
04
00
00
C4
E6
24
14
14
08
0C
14
24
38
ENDCHAR
STARTCHAR uni00D3
ENCODING 211
SWIDTH 660 0
DWIDTH 11 0
BBX 10 15 1 -1
BITMAP
0200
0200
0000
0000
0200
6300
7200
1200
0A00
0A00
0A00
0D00
0900
30C0
E000
ENDCHAR
STARTCHAR uni00D4
ENCODING 212
SWIDTH 540 0
DWIDTH 9 0
BBX 7 16 1 0
BITMAP
04
04
0A
0A
00
00
C4
E6
24
14
14
08
0C
14
24
38
ENDCHAR
STARTCHAR uni00D5
ENCODING 213
SWIDTH 660 0
DWIDTH 11 0
BBX 10 17 1 -1
BITMAP
0200
0200
0500
0500
0000
0000
0200
6300
7200
1200
0A00
0A00
0A00
0D00
0900
30C0
E000
ENDCHAR
STARTCHAR uni00F0
ENCODING 240
SWIDTH 1260 0
DWIDTH 21 0
BBX 19 14 1 -4
BITMAP
028000
028000
02C000
028000
028000
028000
028840
028460
828420
828420
827820
440040
3858C0
005780
ENDCHAR
ENDFONT
