STARTFONT 2.1
COMMENT 
COMMENT Id: cu-lig12.bdf,v 1.5 2000/12/06 21:58:14 mleisher Exp $
COMMENT 
COMMENT Copyright 1997, 1998, 1999 Computing Research Labs, New Mexico State
COMMENT University
COMMENT 
COMMENT Permission is hereby granted, free of charge, to any person
COMMENT obtaining a copy of this software and associated documentation
COMMENT files (the "Software"), to deal in the Software without
COMMENT restriction, including without limitation the rights to use,
COMMENT copy, modify, merge, publish, distribute, sublicense, and/or
COMMENT sell copies of the Software, and to permit persons to whom the
COMMENT Software is furnished to do so, subject to the following
COMMENT conditions:
COMMENT 
COMMENT The above copyright notice and this permission notice shall be
COMMENT included in all copies or substantial portions of the Software.
COMMENT 
COMMENT THE SOFTWARE IS PROVIDED "AS IS", WITHOUT WARRANTY OF ANY KIND,
COMMENT EXPRESS OR IMPLIED, INCLUDING BUT NOT LIMITED TO THE WARRANTIES
COMMENT OF MERCHANTABILITY, FITNESS FOR A PARTICULAR PURPOSE AND
COMMENT NONINFRINGEMENT.  IN NO EVENT SHALL THE COMPUTING RESEARCH LAB
COMMENT OR NEW MEXICO STATE UNIVERSITY BE LIABLE FOR ANY CLAIM, DAMAGES
COMMENT OR OTHER LIABILITY, WHETHER IN AN ACTION OF CONTRACT, TORT OR
COMMENT OTHERWISE, ARISING FROM, OUT OF OR IN CONNECTION WITH THE
COMMENT SOFTWARE OR THE USE OR OTHER DEALINGS IN THE SOFTWARE.
COMMENT 
COMMENT This ligature font contains contextual shapes and ligatures that are
COMMENT not encoded in Unicode but are useful for text presentation.
COMMENT 
COMMENT The ligature font is broken into groups of 64 codepoints
COMMENT each for non-Arabic glyphs.  Starting at encoding 0, the groups
COMMENT are:
COMMENT 
COMMENT Group 1: Latin ligatures.
COMMENT Group 2: Armenian ligatures.
COMMENT Group 3: Georgian Mxedruli ligatures.
COMMENT Group 4: Arabic contextual shapes and ligatures.
COMMENT 
FONT -MUTT-ClearlyU Ligature-Medium-R-Normal--17-120-100-100-P-141-FontSpecific-0
SIZE 12 100 100
FONTBOUNDINGBOX 23 19 0 -6
STARTPROPERTIES 20
COPYRIGHT "1997, 1998 Computing Research Lab, New Mexico State University."
POINT_SIZE 120
PIXEL_SIZE 17
RESOLUTION_X 100
RESOLUTION_Y 100
FONT_ASCENT 13
FONT_DESCENT 4
AVERAGE_WIDTH 141
SPACING "P"
FOUNDRY "MUTT"
FAMILY_NAME "ClearlyU Ligature"
WEIGHT_NAME "Medium"
SLANT "R"
SETWIDTH_NAME "Normal"
ADD_STYLE_NAME ""
CHARSET_REGISTRY "FontSpecific"
CHARSET_ENCODING "0"
_XMBDFED_INFO "Edited with xmbdfed 4.3."
CAP_HEIGHT 11
X_HEIGHT 7
ENDPROPERTIES
CHARS 57
STARTCHAR uni0000
ENCODING 0
SWIDTH 420 0
DWIDTH 7 0
BBX 8 15 0 -3
BITMAP
1C
24
20
20
20
FC
2C
24
24
24
24
7E
04
09
06
ENDCHAR
STARTCHAR uni0001
ENCODING 1
SWIDTH 720 0
DWIDTH 12 0
BBX 13 15 0 -3
BITMAP
0EE0
1320
2200
2200
2200
FFE0
2260
2220
2220
2220
2220
7770
0020
0048
0030
ENDCHAR
STARTCHAR uni0002
ENCODING 2
SWIDTH 480 0
DWIDTH 8 0
BBX 9 12 0 0
BITMAP
1E00
2200
2200
2280
2300
FE00
2600
2A00
2200
2200
2200
7700
ENDCHAR
STARTCHAR uni0003
ENCODING 3
SWIDTH 720 0
DWIDTH 12 0
BBX 13 12 0 0
BITMAP
0EE0
1120
2220
2228
2230
FFE0
2260
22A0
2220
2220
2220
7770
ENDCHAR
STARTCHAR uni0004
ENCODING 4
SWIDTH 420 0
DWIDTH 7 0
BBX 6 16 0 -4
BITMAP
1C
24
20
20
20
FC
2C
24
24
24
24
74
04
04
24
38
ENDCHAR
STARTCHAR uni0005
ENCODING 5
SWIDTH 720 0
DWIDTH 12 0
BBX 11 16 0 -4
BITMAP
0EE0
1320
2200
2200
2200
FFE0
2260
2220
2220
2220
2220
7720
0020
0020
0120
01C0
ENDCHAR
STARTCHAR uni0007
ENCODING 7
SWIDTH 780 0
DWIDTH 13 0
BBX 12 12 1 0
BITMAP
1E00
2100
2080
2080
1180
7BE0
8880
8080
8080
8090
8890
7060
ENDCHAR
STARTCHAR uni0040
ENCODING 64
SWIDTH 720 0
DWIDTH 12 0
BBX 11 14 1 -3
BITMAP
0380
0480
0480
0480
C4E0
4480
4480
4480
4480
4CC0
3420
0020
0020
00C0
ENDCHAR
STARTCHAR uni0041
ENCODING 65
SWIDTH 900 0
DWIDTH 15 0
BBX 14 14 1 -3
BITMAP
0380
0480
0480
0480
C498
4488
4488
4488
4488
4C98
3468
0008
0008
001C
ENDCHAR
STARTCHAR uni0042
ENCODING 66
SWIDTH 840 0
DWIDTH 14 0
BBX 14 14 1 -3
BITMAP
0380
0480
04B0
04C8
C488
4488
4488
4488
4488
4C88
3488
0008
0008
001C
ENDCHAR
STARTCHAR uni0080
ENCODING 128
SWIDTH 780 0
DWIDTH 13 0
BBX 12 11 1 0
BITMAP
00E0
0110
1E10
2010
2010
20F0
1910
4510
8510
8510
78E0
ENDCHAR
STARTCHAR uni0081
ENCODING 129
SWIDTH 1020 0
DWIDTH 17 0
BBX 16 11 1 0
BITMAP
00FC
0708
1830
2040
20EE
2111
1911
4539
8501
8501
7882
ENDCHAR
STARTCHAR uni0082
ENCODING 130
SWIDTH 780 0
DWIDTH 13 0
BBX 12 11 1 0
BITMAP
0300
0500
1900
2120
2140
2160
1910
4510
8510
8510
78E0
ENDCHAR
STARTCHAR uni0083
ENCODING 131
SWIDTH 720 0
DWIDTH 12 0
BBX 11 17 1 -4
BITMAP
0020
0060
00A0
0720
1820
2020
2020
20E0
1920
4520
8420
8420
7920
0220
0220
0220
01C0
ENDCHAR
STARTCHAR uni0084
ENCODING 132
SWIDTH 480 0
DWIDTH 8 0
BBX 8 12 1 0
BITMAP
36
49
22
1C
20
20
20
18
44
84
84
78
ENDCHAR
STARTCHAR uni0085
ENCODING 133
SWIDTH 780 0
DWIDTH 13 0
BBX 12 11 1 0
BITMAP
0300
0500
1900
2120
2140
21E0
1990
4510
8510
8510
78E0
ENDCHAR
STARTCHAR uni0086
ENCODING 134
SWIDTH 600 0
DWIDTH 10 0
BBX 9 16 1 -3
BITMAP
0400
0400
0200
0A00
0C00
0800
7F00
8880
8880
8880
8880
4700
2000
D800
8400
0200
ENDCHAR
STARTCHAR uni0087
ENCODING 135
SWIDTH 960 0
DWIDTH 16 0
BBX 15 11 1 -4
BITMAP
71DC
8A22
CA22
0A22
0A22
091C
0880
0B60
0A10
0A08
0400
ENDCHAR
STARTCHAR uni0088
ENCODING 136
SWIDTH 900 0
DWIDTH 15 0
BBX 14 15 1 -4
BITMAP
0700
0880
0880
0480
7280
8AF8
CA84
0A84
0A84
0A84
0A78
0A00
0A00
0A00
0400
ENDCHAR
STARTCHAR uni0089
ENCODING 137
SWIDTH 1200 0
DWIDTH 20 0
BBX 19 11 1 -4
BITMAP
71DDC0
8A2220
CA2220
0A2220
0A7720
090040
08E000
0B1C00
0A0300
0A0080
040000
ENDCHAR
STARTCHAR uni008A
ENCODING 138
SWIDTH 840 0
DWIDTH 14 0
BBX 13 15 1 -4
BITMAP
0048
00B0
0080
0080
7080
89F0
CA88
0A88
0A88
0A88
0A70
0A00
0A00
0A00
0400
ENDCHAR
STARTCHAR uni008B
ENCODING 139
SWIDTH 720 0
DWIDTH 12 0
BBX 11 16 1 -4
BITMAP
0100
0080
0040
0020
0020
7020
88C0
C820
0B20
0A20
0A20
0BC0
0A00
0A00
0A00
0400
ENDCHAR
STARTCHAR uni008C
ENCODING 140
SWIDTH 840 0
DWIDTH 14 0
BBX 13 15 1 -4
BITMAP
0100
0280
0280
0290
72A0
8AB0
CA88
0A88
0A88
0A88
0A70
0A00
0A00
0A00
0400
ENDCHAR
STARTCHAR uni008D
ENCODING 141
SWIDTH 1020 0
DWIDTH 17 0
BBX 16 15 1 -4
BITMAP
0009
0016
0010
0010
7210
8A3E
CA51
0E51
7A51
8A51
4A4E
8A40
8A40
8A40
7180
ENDCHAR
STARTCHAR uni008E
ENCODING 142
SWIDTH 840 0
DWIDTH 14 0
BBX 13 15 1 -4
BITMAP
0100
0280
0280
0290
72A0
8AF0
CAC8
0A88
0A88
0A88
0A70
0A00
0A00
0A00
0400
ENDCHAR
STARTCHAR uni008F
ENCODING 143
SWIDTH 780 0
DWIDTH 13 0
BBX 12 12 1 -4
BITMAP
0100
7100
8880
C860
0910
3210
0A10
0BE0
0A00
0A00
0A00
0400
ENDCHAR
STARTCHAR uni0090
ENCODING 144
SWIDTH 1140 0
DWIDTH 19 0
BBX 18 15 1 -4
BITMAP
000C00
001400
006400
008480
708500
888580
C86440
091440
321440
0A1440
0BE380
0A0000
0A0000
0A0000
040000
ENDCHAR
STARTCHAR uni0091
ENCODING 145
SWIDTH 720 0
DWIDTH 12 0
BBX 11 13 1 -6
BITMAP
71C0
8A20
CB20
0920
3120
0920
0920
0920
0920
0920
6620
4040
3F80
ENDCHAR
STARTCHAR uni0092
ENCODING 146
SWIDTH 1200 0
DWIDTH 20 0
BBX 19 11 1 -4
BITMAP
71DDC0
8A2220
CA2220
0A2220
327720
090040
08E000
0B1C00
0A0300
0A0080
040000
ENDCHAR
STARTCHAR uni0093
ENCODING 147
SWIDTH 660 0
DWIDTH 11 0
BBX 10 17 1 -4
BITMAP
0700
0500
18C0
1040
18C0
0400
7200
8A00
CA00
0A00
3200
0A00
0A00
0A00
0A00
0A00
0400
ENDCHAR
STARTCHAR uni0094
ENCODING 148
SWIDTH 960 0
DWIDTH 16 0
BBX 15 11 1 -4
BITMAP
71DC
8A22
CA22
0A22
3272
0904
08C0
0B30
0A08
0A04
0400
ENDCHAR
STARTCHAR uni0095
ENCODING 149
SWIDTH 840 0
DWIDTH 14 0
BBX 13 15 1 -4
BITMAP
0100
0280
0280
0290
72A0
8AF0
CAC8
0A88
3288
0A88
0A70
0A00
0A00
0A00
0400
ENDCHAR
STARTCHAR uni0096
ENCODING 150
SWIDTH 1020 0
DWIDTH 17 0
BBX 16 11 1 0
BITMAP
0020
0050
0050
0052
3354
4CD6
8451
8451
8451
4891
310E
ENDCHAR
STARTCHAR uni0097
ENCODING 151
SWIDTH 1020 0
DWIDTH 17 0
BBX 16 11 1 0
BITMAP
0020
0050
0050
0052
3354
4CDE
8459
8451
8451
4891
310E
ENDCHAR
STARTCHAR uni0098
ENCODING 152
SWIDTH 780 0
DWIDTH 13 0
BBX 12 11 1 0
BITMAP
0200
0500
0500
0520
7540
8D60
8510
8510
8510
8510
48E0
ENDCHAR
STARTCHAR uni0099
ENCODING 153
SWIDTH 780 0
DWIDTH 13 0
BBX 12 11 1 0
BITMAP
0200
0500
0500
0520
7540
8DE0
8590
8510
8510
8510
48E0
ENDCHAR
STARTCHAR uni009A
ENCODING 154
SWIDTH 720 0
DWIDTH 12 0
BBX 11 11 1 -4
BITMAP
38C0
4520
6520
0540
1980
0700
0D00
1500
9500
A500
4200
ENDCHAR
STARTCHAR uni009B
ENCODING 155
SWIDTH 960 0
DWIDTH 16 0
BBX 15 16 1 -4
BITMAP
0040
00F0
0088
0088
0088
4488
2A9C
2AA2
2AA2
CAA2
2AA2
2A9C
2A80
2A80
2A80
1100
ENDCHAR
STARTCHAR uni009C
ENCODING 156
SWIDTH 720 0
DWIDTH 12 0
BBX 11 15 1 -4
BITMAP
0120
02C0
0200
0200
4200
27C0
2A20
2A20
CA20
2A20
29C0
2800
2800
2800
1000
ENDCHAR
STARTCHAR uni009D
ENCODING 157
SWIDTH 720 0
DWIDTH 12 0
BBX 11 15 1 -4
BITMAP
0400
0A00
0A00
0A40
4A80
2AC0
2A20
2A20
CA20
2A20
29C0
2800
2800
2800
1000
ENDCHAR
STARTCHAR uni009E
ENCODING 158
SWIDTH 960 0
DWIDTH 16 0
BBX 15 12 1 -4
BITMAP
0020
1220
0A10
0A0C
0A22
3242
0A42
7E7C
8A40
4A40
8A40
7180
ENDCHAR
STARTCHAR uni009F
ENCODING 159
SWIDTH 1020 0
DWIDTH 17 0
BBX 16 15 1 -4
BITMAP
0009
0016
0010
0010
1210
0A3E
0A51
0A51
3251
0A51
7E4E
8A40
4A40
8A40
7180
ENDCHAR
STARTCHAR uni00A0
ENCODING 160
SWIDTH 1200 0
DWIDTH 20 0
BBX 19 14 1 -3
BITMAP
000400
000A00
000A00
000A40
777A80
888AC0
888A20
888A20
9DCA20
401220
3801C0
C70000
80C000
002000
ENDCHAR
STARTCHAR uni00A1
ENCODING 161
SWIDTH 780 0
DWIDTH 13 0
BBX 12 11 1 0
BITMAP
7000
8800
8800
0800
0B60
7C90
8800
8800
8800
8800
7000
ENDCHAR
STARTCHAR uni00A2
ENCODING 162
SWIDTH 960 0
DWIDTH 16 0
BBX 15 12 1 -4
BITMAP
0020
9620
E910
090C
1D22
0142
0142
017C
0140
0140
0140
0080
ENDCHAR
STARTCHAR uni00A3
ENCODING 163
SWIDTH 1020 0
DWIDTH 17 0
BBX 16 12 1 0
BITMAP
0200
0200
0400
1800
2000
7700
8880
88B6
9CC9
8080
8080
4100
ENDCHAR
STARTCHAR uni00A4
ENCODING 164
SWIDTH 840 0
DWIDTH 14 0
BBX 13 12 1 0
BITMAP
0080
6080
A040
2030
2608
2908
2D08
22F0
2200
2200
2200
1C00
ENDCHAR
STARTCHAR uni00A5
ENCODING 165
SWIDTH 840 0
DWIDTH 14 0
BBX 13 11 1 0
BITMAP
6100
A280
2280
2490
28A0
2CB0
2288
2288
2288
2288
1C70
ENDCHAR
STARTCHAR uni00A6
ENCODING 166
SWIDTH 900 0
DWIDTH 15 0
BBX 14 13 1 -6
BITMAP
9638
E944
0964
1D24
0124
0124
0124
0124
0124
0124
0CC4
0808
07F0
ENDCHAR
STARTCHAR uni00A7
ENCODING 167
SWIDTH 1380 0
DWIDTH 23 0
BBX 22 11 1 -4
BITMAP
963BB8
E94444
094444
1D4444
014EE4
012008
011C00
016380
014060
014010
008000
ENDCHAR
STARTCHAR uni00A8
ENCODING 168
SWIDTH 840 0
DWIDTH 14 0
BBX 13 13 1 -6
BITMAP
6C70
9288
92C8
9248
6248
0C48
0248
0248
0248
0248
1988
1010
0FE0
ENDCHAR
STARTCHAR uni00A9
ENCODING 169
SWIDTH 840 0
DWIDTH 14 0
BBX 13 13 1 -6
BITMAP
6C70
9288
9288
9288
62B0
0C88
0288
0288
0288
0288
1908
1010
0FE0
ENDCHAR
STARTCHAR uni00AA
ENCODING 170
SWIDTH 780 0
DWIDTH 13 0
BBX 12 12 1 -4
BITMAP
0100
4900
8880
8860
9910
6A10
0A10
0BE0
0A00
0A00
0A00
0400
ENDCHAR
STARTCHAR uni00AB
ENCODING 171
SWIDTH 960 0
DWIDTH 16 0
BBX 15 11 1 -4
BITMAP
49DC
8A22
8A22
9A22
6A22
091C
0880
0B60
0A10
0A08
0400
ENDCHAR
STARTCHAR uni00AC
ENCODING 172
SWIDTH 960 0
DWIDTH 16 0
BBX 15 12 1 -4
BITMAP
0020
4A20
8A10
8A0C
9A22
6A42
0A42
7E7C
8A40
4A40
8A40
7180
ENDCHAR
STARTCHAR uni00AD
ENCODING 173
SWIDTH 1020 0
DWIDTH 17 0
BBX 16 15 1 -4
BITMAP
0009
0016
0010
0010
4A10
8A3E
8A51
9A51
6A51
0A51
7E4E
8A40
4A40
8A40
7180
ENDCHAR
STARTCHAR uni00AE
ENCODING 174
SWIDTH 900 0
DWIDTH 15 0
BBX 14 11 1 0
BITMAP
6C00
9200
9200
D200
02D8
1F24
2200
2200
2200
2200
1C00
ENDCHAR
ENDFONT
