STARTFONT 2.1
COMMENT 
COMMENT Id: cu-pua12.bdf,v 1.6 2000/12/06 21:58:14 mleisher Exp $
COMMENT 
COMMENT Copyright 1997, 1998, 1999 Computing Research Labs, New Mexico State
COMMENT University
COMMENT 
COMMENT Permission is hereby granted, free of charge, to any person
COMMENT obtaining a copy of this software and associated documentation
COMMENT files (the "Software"), to deal in the Software without
COMMENT restriction, including without limitation the rights to use,
COMMENT copy, modify, merge, publish, distribute, sublicense, and/or
COMMENT sell copies of the Software, and to permit persons to whom the
COMMENT Software is furnished to do so, subject to the following
COMMENT conditions:
COMMENT 
COMMENT The above copyright notice and this permission notice shall be
COMMENT included in all copies or substantial portions of the Software.
COMMENT 
COMMENT THE SOFTWARE IS PROVIDED "AS IS", WITHOUT WARRANTY OF ANY KIND,
COMMENT EXPRESS OR IMPLIED, INCLUDING BUT NOT LIMITED TO THE WARRANTIES
COMMENT OF MERCHANTABILITY, FITNESS FOR A PARTICULAR PURPOSE AND
COMMENT NONINFRINGEMENT.  IN NO EVENT SHALL THE COMPUTING RESEARCH LAB
COMMENT OR NEW MEXICO STATE UNIVERSITY BE LIABLE FOR ANY CLAIM, DAMAGES
COMMENT OR OTHER LIABILITY, WHETHER IN AN ACTION OF CONTRACT, TORT OR
COMMENT OTHERWISE, ARISING FROM, OUT OF OR IN CONNECTION WITH THE
COMMENT SOFTWARE OR THE USE OR OTHER DEALINGS IN THE SOFTWARE.
COMMENT 
COMMENT This font contains a small set of glyphs that are not encoded in
COMMENT Unicode.  These glyphs are provided for two cases:
COMMENT 
COMMENT   1. The glyph is convenient for rendering.
COMMENT 
COMMENT   2. The glyph represents a character not encoded in Unicode, but is
COMMENT      used.
COMMENT 
FONT -MUTT-ClearlyU PUA-Medium-R-Normal--17-120-100-100-P-110-ISO10646-1
SIZE 12 100 100
FONTBOUNDINGBOX 21 23 -5 -4
STARTPROPERTIES 19
COPYRIGHT "1997, 1998 Computing Research Lab, New Mexico State University."
POINT_SIZE 120
PIXEL_SIZE 17
RESOLUTION_X 100
RESOLUTION_Y 100
FONT_ASCENT 13
FONT_DESCENT 4
AVERAGE_WIDTH 110
SPACING "P"
FOUNDRY "MUTT"
FAMILY_NAME "ClearlyU PUA"
WEIGHT_NAME "Medium"
SLANT "R"
SETWIDTH_NAME "Normal"
ADD_STYLE_NAME ""
CHARSET_REGISTRY "ISO10646"
CHARSET_ENCODING "1"
_XMBDFED_INFO "Edited with xmbdfed 4.4."
DEFAULT_CHAR 65534
ENDPROPERTIES
CHARS 59
STARTCHAR uniE12E
ENCODING 57646
SWIDTH 360 0
DWIDTH 6 0
BBX 5 19 1 -3
BITMAP
10
30
20
40
00
F8
20
20
20
20
20
20
20
20
20
F8
20
48
30
ENDCHAR
STARTCHAR uniE12F
ENCODING 57647
SWIDTH 240 0
DWIDTH 4 0
BBX 4 15 1 -3
BITMAP
10
30
20
40
00
C0
40
40
40
40
40
E0
40
90
60
ENDCHAR
STARTCHAR uniE1F0
ENCODING 57840
SWIDTH 420 0
DWIDTH 7 0
BBX 6 15 2 0
BITMAP
44
38
10
00
7C
10
10
10
10
10
10
10
10
90
E0
ENDCHAR
STARTCHAR uniE234
ENCODING 57908
SWIDTH 660 0
DWIDTH 11 0
BBX 10 15 1 0
BITMAP
0900
1500
1200
0000
1E80
2180
4080
8080
8000
8000
83C0
8080
4080
2080
1F80
ENDCHAR
STARTCHAR uniE235
ENCODING 57909
SWIDTH 480 0
DWIDTH 8 0
BBX 7 15 1 -4
BITMAP
12
2A
24
00
3E
44
44
44
78
40
7C
82
82
82
7C
ENDCHAR
STARTCHAR uniE25F
ENCODING 57951
SWIDTH 300 0
DWIDTH 5 0
BBX 4 10 0 -3
BITMAP
30
10
10
10
10
10
10
10
90
E0
ENDCHAR
STARTCHAR uni04C5
ENCODING 58565
SWIDTH 600 0
DWIDTH 10 0
BBX 10 13 1 -2
BITMAP
7FC0
2100
2100
2100
2100
2100
2100
2100
2100
A100
C7C0
00C0
0040
ENDCHAR
STARTCHAR uni04C6
ENCODING 58566
SWIDTH 480 0
DWIDTH 8 0
BBX 7 9 1 -2
BITMAP
FE
44
44
44
44
C4
CE
02
02
ENDCHAR
STARTCHAR uni04C9
ENCODING 58569
SWIDTH 660 0
DWIDTH 11 0
BBX 11 17 0 -2
BITMAP
1100
0E00
0000
0000
FBE0
2180
2180
2280
2280
2480
2880
2880
3080
3080
FBE0
0060
0020
ENDCHAR
STARTCHAR uni04CA
ENCODING 58570
SWIDTH 480 0
DWIDTH 8 0
BBX 7 13 1 -2
BITMAP
44
38
00
00
EE
4C
54
54
54
64
EE
02
02
ENDCHAR
STARTCHAR uni04CD
ENCODING 58573
SWIDTH 840 0
DWIDTH 14 0
BBX 14 13 0 -2
BITMAP
F03C
3030
3030
2850
2850
2890
2490
2490
2310
2310
FB7C
000C
0004
ENDCHAR
STARTCHAR uni04CE
ENCODING 58574
SWIDTH 600 0
DWIDTH 10 0
BBX 9 9 1 -2
BITMAP
C180
6300
6300
5500
5500
4900
EB80
0080
0080
ENDCHAR
STARTCHAR uni04FA
ENCODING 58618
SWIDTH 540 0
DWIDTH 9 0
BBX 9 14 1 0
BITMAP
3600
3600
0000
BC00
C200
8100
8080
0080
1F80
0080
8080
8100
4200
3C00
ENDCHAR
STARTCHAR uni04FB
ENCODING 58619
SWIDTH 420 0
DWIDTH 7 0
BBX 6 10 1 0
BITMAP
D8
D8
00
70
48
04
3C
04
88
70
ENDCHAR
STARTCHAR uniEDED
ENCODING 60909
SWIDTH 480 0
DWIDTH 8 0
BBX 12 19 -5 0
BITMAP
4000
A000
4400
FC00
0000
2000
5000
5000
2000
0000
01E0
0310
0290
0110
0010
0010
0010
0010
0010
ENDCHAR
STARTCHAR uniEDEE
ENCODING 60910
SWIDTH 480 0
DWIDTH 8 0
BBX 11 18 -4 0
BITMAP
4000
4000
4000
0000
4000
A000
A000
4000
0000
03C0
0620
0520
0220
0020
0020
0020
0020
0020
ENDCHAR
STARTCHAR uniF0C6
ENCODING 61638
SWIDTH 720 0
DWIDTH 12 0
BBX 11 11 0 0
BITMAP
0E00
0400
0400
3F80
4440
8420
4440
3F80
0400
0400
0E00
ENDCHAR
STARTCHAR uniF0C9
ENCODING 61641
SWIDTH 480 0
DWIDTH 8 0
BBX 7 11 1 0
BITMAP
EE
44
4E
40
7C
44
44
4E
40
40
E0
ENDCHAR
STARTCHAR uniF0F7
ENCODING 61687
SWIDTH 360 0
DWIDTH 6 0
BBX 5 11 1 -4
BITMAP
70
88
C8
08
10
20
40
80
98
88
70
ENDCHAR
STARTCHAR uniF0F8
ENCODING 61688
SWIDTH 420 0
DWIDTH 7 0
BBX 6 9 1 0
BITMAP
30
48
40
20
18
44
84
84
78
ENDCHAR
STARTCHAR uniF0F9
ENCODING 61689
SWIDTH 480 0
DWIDTH 8 0
BBX 7 13 1 -3
BITMAP
EE
44
4E
40
58
64
44
44
44
4E
40
40
E0
ENDCHAR
STARTCHAR uniF8D0
ENCODING 63696
SWIDTH 900 0
DWIDTH 15 0
BBX 14 14 1 -1
BITMAP
00FC
01E0
0180
0380
0780
0780
0FF0
1F00
3FE0
7FF0
FFF8
0018
000C
0004
ENDCHAR
STARTCHAR uniF8D1
ENCODING 63697
SWIDTH 840 0
DWIDTH 14 0
BBX 13 14 1 -1
BITMAP
1878
38C0
7F80
FF00
7F00
3300
3300
0100
0100
0180
0080
00C0
0060
0020
ENDCHAR
STARTCHAR uniF8D2
ENCODING 63698
SWIDTH 900 0
DWIDTH 15 0
BBX 14 13 1 -1
BITMAP
1804
1808
3C08
3E08
7E08
7F18
63F8
C3F8
8038
0038
0878
0FF0
03E0
ENDCHAR
STARTCHAR uniF8D3
ENCODING 63699
SWIDTH 720 0
DWIDTH 12 0
BBX 11 13 1 0
BITMAP
2000
3000
3800
3800
1C00
0E00
1300
3180
60C0
40E0
F0E0
FF80
7E00
ENDCHAR
STARTCHAR uniF8D4
ENCODING 63700
SWIDTH 660 0
DWIDTH 11 0
BBX 10 13 1 0
BITMAP
FFC0
FFC0
FFC0
F000
E000
E000
E000
E000
E000
E000
7000
6000
6000
ENDCHAR
STARTCHAR uniF8D5
ENCODING 63701
SWIDTH 960 0
DWIDTH 16 0
BBX 15 13 1 0
BITMAP
0FFC
07FE
01F0
01E0
01C0
01C0
01C0
03C0
03C0
07F8
1FFC
7C02
E000
ENDCHAR
STARTCHAR uniF8D6
ENCODING 63702
SWIDTH 480 0
DWIDTH 8 0
BBX 7 13 1 0
BITMAP
10
38
7C
E6
C4
CC
C8
F8
70
70
30
18
08
ENDCHAR
STARTCHAR uniF8D7
ENCODING 63703
SWIDTH 780 0
DWIDTH 13 0
BBX 12 13 1 0
BITMAP
39E0
70F0
60F0
E0F0
F0E0
7FC0
3F80
3E00
1E00
0F00
0700
0380
01C0
ENDCHAR
STARTCHAR uniF8D8
ENCODING 63704
SWIDTH 840 0
DWIDTH 14 0
BBX 13 12 1 0
BITMAP
3FF8
7FF8
1FF8
0CF0
0CF0
08E0
08E0
10C0
10C0
2080
4000
8000
ENDCHAR
STARTCHAR uniF8D9
ENCODING 63705
SWIDTH 600 0
DWIDTH 10 0
BBX 9 12 1 0
BITMAP
0600
0700
0F80
1F00
1C00
3C00
3800
7800
7E00
FF00
FF80
0180
ENDCHAR
STARTCHAR uniF8DA
ENCODING 63706
SWIDTH 660 0
DWIDTH 11 0
BBX 10 13 1 0
BITMAP
0600
0F00
3F80
FFC0
F3C0
F3C0
F380
7380
7300
7A00
3800
1C00
0C00
ENDCHAR
STARTCHAR uniF8DB
ENCODING 63707
SWIDTH 780 0
DWIDTH 13 0
BBX 12 14 1 -1
BITMAP
0600
1F00
3F80
7F80
F800
FFC0
7FC0
3E00
3E00
1F00
0F80
07C0
03F0
01F0
ENDCHAR
STARTCHAR uniF8DC
ENCODING 63708
SWIDTH 960 0
DWIDTH 16 0
BBX 15 13 1 0
BITMAP
F01C
FFFE
1FFE
0F8C
0F8C
1FC8
7C00
7C00
3C00
1E00
0E00
0300
00C0
ENDCHAR
STARTCHAR uniF8DD
ENCODING 63709
SWIDTH 840 0
DWIDTH 14 0
BBX 13 14 1 -1
BITMAP
E000
7FF8
1FF8
00F8
00F0
00F0
01F8
03E0
03C0
03C0
03E0
01E0
00F0
0038
ENDCHAR
STARTCHAR uniF8DE
ENCODING 63710
SWIDTH 600 0
DWIDTH 10 0
BBX 9 12 1 0
BITMAP
1800
3800
3F00
7F80
4380
8380
0380
0780
0F00
1E00
3C00
F000
ENDCHAR
STARTCHAR uniF8DF
ENCODING 63711
SWIDTH 420 0
DWIDTH 7 0
BBX 6 12 1 0
BITMAP
18
3C
7C
F8
F8
3C
3C
1C
1C
1C
18
10
ENDCHAR
STARTCHAR uniF8E0
ENCODING 63712
SWIDTH 600 0
DWIDTH 10 0
BBX 9 13 1 0
BITMAP
0080
0F80
1F00
3E00
7C00
F800
F800
3800
3800
3800
3800
7000
E000
ENDCHAR
STARTCHAR uniF8E1
ENCODING 63713
SWIDTH 780 0
DWIDTH 13 0
BBX 12 12 1 1
BITMAP
FFF0
3FF0
0FC0
07C0
03F0
07E0
0780
0F00
1E00
1800
3000
4000
ENDCHAR
STARTCHAR uniF8E2
ENCODING 63714
SWIDTH 840 0
DWIDTH 14 0
BBX 13 12 1 0
BITMAP
1FE0
1F80
0F00
0F00
0E00
0E00
0E00
1E00
1F00
3FC0
7FF0
E038
ENDCHAR
STARTCHAR uniF8E3
ENCODING 63715
SWIDTH 840 0
DWIDTH 14 0
BBX 13 13 1 0
BITMAP
0038
0070
00F0
00F0
00F0
21F0
61F0
63F0
7FF0
FE00
F800
E000
C000
ENDCHAR
STARTCHAR uniF8E4
ENCODING 63716
SWIDTH 900 0
DWIDTH 15 0
BBX 14 14 1 -1
BITMAP
0EFC
3C7C
FC78
DC70
1CE0
1F80
3F00
3E00
3E00
1E00
1F00
0F80
07C0
01E0
ENDCHAR
STARTCHAR uniF8E5
ENCODING 63717
SWIDTH 840 0
DWIDTH 14 0
BBX 13 12 1 0
BITMAP
0080
0180
03C0
0380
0620
0C70
1FF8
1FE0
3F00
7800
E000
8000
ENDCHAR
STARTCHAR uniF8E6
ENCODING 63718
SWIDTH 960 0
DWIDTH 16 0
BBX 15 13 1 -1
BITMAP
0006
000C
001C
0038
2038
6078
7078
7FF8
7FF8
7FFC
703C
E00E
C000
ENDCHAR
STARTCHAR uniF8E7
ENCODING 63719
SWIDTH 780 0
DWIDTH 13 0
BBX 12 13 1 0
BITMAP
7FF0
FFE0
FC00
E000
E000
6000
6000
6000
3000
3000
1000
1800
0800
ENDCHAR
STARTCHAR uniF8E8
ENCODING 63720
SWIDTH 840 0
DWIDTH 14 0
BBX 13 15 1 -1
BITMAP
1FF8
3FF0
7FF0
79F0
F1E0
F1E0
F1E0
79C0
3FC0
1FC0
0FC0
03C0
01E0
0070
0030
ENDCHAR
STARTCHAR uniF8E9
ENCODING 63721
SWIDTH 300 0
DWIDTH 5 0
BBX 4 8 1 5
BITMAP
E0
70
70
70
E0
C0
C0
60
ENDCHAR
STARTCHAR uniF8F0
ENCODING 63728
SWIDTH 840 0
DWIDTH 14 0
BBX 13 4 1 4
BITMAP
3FE0
FFF8
FFF8
3FE0
ENDCHAR
STARTCHAR uniF8F1
ENCODING 63729
SWIDTH 900 0
DWIDTH 15 0
BBX 14 13 1 0
BITMAP
00FC
0FF0
1FC0
1E00
3800
3000
3000
6000
6000
4000
C000
8000
8000
ENDCHAR
STARTCHAR uniF8F2
ENCODING 63730
SWIDTH 360 0
DWIDTH 6 0
BBX 5 12 1 0
BITMAP
18
30
60
E0
C0
C0
C0
40
60
20
30
18
ENDCHAR
STARTCHAR uniF8F3
ENCODING 63731
SWIDTH 660 0
DWIDTH 11 0
BBX 10 12 1 0
BITMAP
3800
7000
F000
F180
FE00
FC00
F800
7800
3800
1C00
0700
01C0
ENDCHAR
STARTCHAR uniF8F4
ENCODING 63732
SWIDTH 900 0
DWIDTH 15 0
BBX 14 13 1 0
BITMAP
20FC
17F0
1FC0
0F80
0F00
0700
0780
0380
83C0
E1E0
7FF0
7FF8
3FFC
ENDCHAR
STARTCHAR uniF8F5
ENCODING 63733
SWIDTH 480 0
DWIDTH 8 0
BBX 7 14 1 -1
BITMAP
7C
F0
E0
E0
E0
7E
78
7E
38
30
30
10
18
08
ENDCHAR
STARTCHAR uniF8F6
ENCODING 63734
SWIDTH 900 0
DWIDTH 15 0
BBX 14 12 1 0
BITMAP
C000
6000
781C
7FFC
3FFC
3FF8
3838
3030
3010
2010
2010
0010
ENDCHAR
STARTCHAR uniF8F7
ENCODING 63735
SWIDTH 660 0
DWIDTH 11 0
BBX 10 12 1 0
BITMAP
00C0
3180
7F80
FF00
1F00
1F00
3700
0300
0300
0180
0080
0040
ENDCHAR
STARTCHAR uniF8F8
ENCODING 63736
SWIDTH 900 0
DWIDTH 15 0
BBX 14 13 1 0
BITMAP
C00C
6FD8
37B0
37B0
1FE0
1FE0
1FE0
1FE0
1FE0
3FF0
3FF0
6798
CFCC
ENDCHAR
STARTCHAR uniF8F9
ENCODING 63737
SWIDTH 660 0
DWIDTH 11 0
BBX 10 13 1 -1
BITMAP
0C00
1E00
7F80
FFC0
0C00
0C00
0C00
0C00
0C00
1E00
1E00
1E00
3300
ENDCHAR
STARTCHAR uniFFFD
ENCODING 65533
SWIDTH 960 0
DWIDTH 16 0
BBX 15 15 0 0
BITMAP
0100
0380
07C0
0C60
1BB0
3BB8
7F7C
FEFE
7EFC
3FF8
1EF0
0C60
06C0
0380
0100
ENDCHAR
STARTCHAR uniFFFE
ENCODING 65534
SWIDTH 600 0
DWIDTH 10 0
BBX 7 11 2 0
BITMAP
AA
00
82
00
82
00
82
00
82
00
AA
ENDCHAR
ENDFONT
