STARTFONT 2.1
FONT -jmk-Neep-Bold-R-Normal--24-240-75-75-C-120-US-ASCII
SIZE 24 75 75
FONTBOUNDINGBOX 12 24 0 -5
STARTPROPERTIES 29
FONTNAME_REGISTRY ""
FOUNDRY "jmk"
FAMILY_NAME "Neep"
WEIGHT_NAME "Bold"
SLANT "R"
SETWIDTH_NAME "Normal"
ADD_STYLE_NAME ""
PIXEL_SIZE 24
POINT_SIZE 240
RESOLUTION_X 75
RESOLUTION_Y 75
SPACING "C"
AVERAGE_WIDTH 120
CHARSET_REGISTRY "US"
CHARSET_ENCODING "ASCII"
COPYRIGHT "Jim Knoble <jmknoble@pobox.com>"
WEIGHT 188
RESOLUTION 75
X_HEIGHT 11
FIGURE_WIDTH 12
QUAD_WIDTH 12
FONT_ASCENT 19
FONT_DESCENT 5
_XMBDFED_INFO "Edited with xmbdfed 3.7."
RELATIVE_WEIGHT 70
RELATIVE_SETWIDTH 50
CAP_HEIGHT 16
UNDERLINE_POSITION -2
UNDERLINE_THICKNESS 2
ENDPROPERTIES
CHARS 38
STARTCHAR solid box
ENCODING 0
SWIDTH 480 0
DWIDTH 12 0
BBX 12 24 0 -5
BITMAP
0000
7FE0
7FE0
7FE0
7FE0
7FE0
7FE0
7FE0
7FE0
7FE0
7FE0
7FE0
7FE0
7FE0
7FE0
7FE0
7FE0
7FE0
7FE0
7FE0
7FE0
7FE0
7FE0
0000
ENDCHAR
STARTCHAR diamond
ENCODING 1
SWIDTH 480 0
DWIDTH 12 0
BBX 12 24 0 -5
BITMAP
0000
0000
0000
0000
0000
0000
0600
0F00
1F80
3FC0
7FE0
7FE0
3FC0
1F80
0F00
0600
0000
0000
0000
0000
0000
0000
0000
0000
ENDCHAR
STARTCHAR dithered box
ENCODING 2
SWIDTH 480 0
DWIDTH 12 0
BBX 12 24 0 -5
BITMAP
0000
5550
AAA0
5550
AAA0
5550
AAA0
5550
AAA0
5550
AAA0
5550
AAA0
5550
AAA0
5550
AAA0
5550
AAA0
5550
AAA0
5550
AAA0
5550
ENDCHAR
STARTCHAR horizontal tab visible control
ENCODING 3
SWIDTH 480 0
DWIDTH 12 0
BBX 12 24 0 -5
BITMAP
0000
0000
0000
7380
7380
7380
7F80
7F80
7380
7380
7380
0000
0FE0
0FE0
0380
0380
0380
0380
0380
0380
0000
0000
0000
0000
ENDCHAR
STARTCHAR form feed visible control
ENCODING 4
SWIDTH 480 0
DWIDTH 12 0
BBX 12 24 0 -5
BITMAP
0000
0000
0000
7F00
7F00
7000
7E00
7E00
7000
7000
7000
0000
0FE0
0FE0
0E00
0FC0
0FC0
0E00
0E00
0E00
0000
0000
0000
0000
ENDCHAR
STARTCHAR carriage return visible control
ENCODING 5
SWIDTH 480 0
DWIDTH 12 0
BBX 12 24 0 -5
BITMAP
0000
0000
0000
1F00
3F80
7980
7000
7000
7980
3F80
1F00
0000
1FC0
1FE0
1CE0
1FE0
1FC0
1DC0
1CE0
1CE0
0000
0000
0000
0000
ENDCHAR
STARTCHAR line feed visible control
ENCODING 6
SWIDTH 480 0
DWIDTH 12 0
BBX 12 24 0 -5
BITMAP
0000
0000
0000
7000
7000
7000
7000
7000
7000
7F00
7F00
0000
0FE0
0FE0
0E00
0FC0
0FC0
0E00
0E00
0E00
0000
0000
0000
0000
ENDCHAR
STARTCHAR degree sign
ENCODING 7
SWIDTH 480 0
DWIDTH 12 0
BBX 12 24 0 -5
BITMAP
0000
0000
0000
0F00
1F80
3DC0
38C0
3DC0
1F80
0F00
0000
0000
0000
0000
0000
0000
0000
0000
0000
0000
0000
0000
0000
0000
ENDCHAR
STARTCHAR plus-minus-sign
ENCODING 8
SWIDTH 480 0
DWIDTH 12 0
BBX 12 24 0 -5
BITMAP
0000
0000
0000
0000
0000
0700
0700
0700
0700
7FF0
7FF0
7FF0
0700
0700
0700
0700
0000
7FF0
7FF0
7FF0
0000
0000
0000
0000
ENDCHAR
STARTCHAR null visible control
ENCODING 9
SWIDTH 480 0
DWIDTH 12 0
BBX 12 24 0 -5
BITMAP
0000
0000
0000
7380
7B80
7B80
7F80
7F80
7780
7780
7380
0000
0E00
0E00
0E00
0E00
0E00
0E00
0FE0
0FE0
0000
0000
0000
0000
ENDCHAR
STARTCHAR vertical tab visible control
ENCODING 10
SWIDTH 480 0
DWIDTH 12 0
BBX 12 24 0 -5
BITMAP
0000
0000
0000
7380
7380
7380
7380
3F00
3F00
1E00
0C00
0000
0FE0
0FE0
0380
0380
0380
0380
0380
0380
0000
0000
0000
0000
ENDCHAR
STARTCHAR box drawing lower right corner
ENCODING 11
SWIDTH 480 0
DWIDTH 12 0
BBX 12 24 0 -5
BITMAP
0E00
0E00
0E00
0E00
0E00
0E00
0E00
0E00
0E00
0E00
0E00
FE00
FE00
FE00
0000
0000
0000
0000
0000
0000
0000
0000
0000
0000
ENDCHAR
STARTCHAR box drawing upper right corner
ENCODING 12
SWIDTH 480 0
DWIDTH 12 0
BBX 12 24 0 -5
BITMAP
0000
0000
0000
0000
0000
0000
0000
0000
0000
0000
0000
FE00
FE00
FE00
0E00
0E00
0E00
0E00
0E00
0E00
0E00
0E00
0E00
0E00
ENDCHAR
STARTCHAR box drawing upper left corner
ENCODING 13
SWIDTH 480 0
DWIDTH 12 0
BBX 12 24 0 -5
BITMAP
0000
0000
0000
0000
0000
0000
0000
0000
0000
0000
0000
0FF0
0FF0
0FF0
0E00
0E00
0E00
0E00
0E00
0E00
0E00
0E00
0E00
0E00
ENDCHAR
STARTCHAR box drawing lower left corner
ENCODING 14
SWIDTH 480 0
DWIDTH 12 0
BBX 12 24 0 -5
BITMAP
0E00
0E00
0E00
0E00
0E00
0E00
0E00
0E00
0E00
0E00
0E00
0FF0
0FF0
0FF0
0000
0000
0000
0000
0000
0000
0000
0000
0000
0000
ENDCHAR
STARTCHAR box drawing cross
ENCODING 15
SWIDTH 480 0
DWIDTH 12 0
BBX 12 24 0 -5
BITMAP
0E00
0E00
0E00
0E00
0E00
0E00
0E00
0E00
0E00
0E00
0E00
FFF0
FFF0
FFF0
0E00
0E00
0E00
0E00
0E00
0E00
0E00
0E00
0E00
0E00
ENDCHAR
STARTCHAR box drawing horizontal line high
ENCODING 16
SWIDTH 480 0
DWIDTH 12 0
BBX 12 24 0 -5
BITMAP
0000
FFF0
FFF0
FFF0
0000
0000
0000
0000
0000
0000
0000
0000
0000
0000
0000
0000
0000
0000
0000
0000
0000
0000
0000
0000
ENDCHAR
STARTCHAR box drawing horizontal line medium high
ENCODING 17
SWIDTH 480 0
DWIDTH 12 0
BBX 12 24 0 -5
BITMAP
0000
0000
0000
0000
0000
0000
FFF0
FFF0
FFF0
0000
0000
0000
0000
0000
0000
0000
0000
0000
0000
0000
0000
0000
0000
0000
ENDCHAR
STARTCHAR box drawing horizontal line middle
ENCODING 18
SWIDTH 480 0
DWIDTH 12 0
BBX 12 24 0 -5
BITMAP
0000
0000
0000
0000
0000
0000
0000
0000
0000
0000
0000
FFF0
FFF0
FFF0
0000
0000
0000
0000
0000
0000
0000
0000
0000
0000
ENDCHAR
STARTCHAR box drawing horizontal line medium low
ENCODING 19
SWIDTH 480 0
DWIDTH 12 0
BBX 12 24 0 -5
BITMAP
0000
0000
0000
0000
0000
0000
0000
0000
0000
0000
0000
0000
0000
0000
0000
0000
FFF0
FFF0
FFF0
0000
0000
0000
0000
0000
ENDCHAR
STARTCHAR box drawing horizontal line low
ENCODING 20
SWIDTH 480 0
DWIDTH 12 0
BBX 12 24 0 -5
BITMAP
0000
0000
0000
0000
0000
0000
0000
0000
0000
0000
0000
0000
0000
0000
0000
0000
0000
0000
0000
0000
0000
FFF0
FFF0
FFF0
ENDCHAR
STARTCHAR box drawing left tee
ENCODING 21
SWIDTH 480 0
DWIDTH 12 0
BBX 12 24 0 -5
BITMAP
0E00
0E00
0E00
0E00
0E00
0E00
0E00
0E00
0E00
0E00
0E00
0FF0
0FF0
0FF0
0E00
0E00
0E00
0E00
0E00
0E00
0E00
0E00
0E00
0E00
ENDCHAR
STARTCHAR box drawing right tee
ENCODING 22
SWIDTH 480 0
DWIDTH 12 0
BBX 12 24 0 -5
BITMAP
0E00
0E00
0E00
0E00
0E00
0E00
0E00
0E00
0E00
0E00
0E00
FE00
FE00
FE00
0E00
0E00
0E00
0E00
0E00
0E00
0E00
0E00
0E00
0E00
ENDCHAR
STARTCHAR box drawing lower tee
ENCODING 23
SWIDTH 480 0
DWIDTH 12 0
BBX 12 24 0 -5
BITMAP
0E00
0E00
0E00
0E00
0E00
0E00
0E00
0E00
0E00
0E00
0E00
FFF0
FFF0
FFF0
0000
0000
0000
0000
0000
0000
0000
0000
0000
0000
ENDCHAR
STARTCHAR box drawing upper tee
ENCODING 24
SWIDTH 480 0
DWIDTH 12 0
BBX 12 24 0 -5
BITMAP
0000
0000
0000
0000
0000
0000
0000
0000
0000
0000
0000
FFF0
FFF0
FFF0
0E00
0E00
0E00
0E00
0E00
0E00
0E00
0E00
0E00
0E00
ENDCHAR
STARTCHAR box drawing vertical line
ENCODING 25
SWIDTH 480 0
DWIDTH 12 0
BBX 12 24 0 -5
BITMAP
0E00
0E00
0E00
0E00
0E00
0E00
0E00
0E00
0E00
0E00
0E00
0E00
0E00
0E00
0E00
0E00
0E00
0E00
0E00
0E00
0E00
0E00
0E00
0E00
ENDCHAR
STARTCHAR less-than-or-equal sign
ENCODING 26
SWIDTH 480 0
DWIDTH 12 0
BBX 12 24 0 -5
BITMAP
0000
0000
0000
0000
0000
0000
0060
01E0
07C0
1F00
3C00
1F00
07C0
01E0
0060
0000
3FF0
3FF0
3FF0
0000
0000
0000
0000
0000
ENDCHAR
STARTCHAR greater-than-or-equal sign
ENCODING 27
SWIDTH 480 0
DWIDTH 12 0
BBX 12 24 0 -5
BITMAP
0000
0000
0000
0000
0000
0000
3000
3C00
1F00
07C0
01E0
07C0
1F00
3C00
3000
0000
7FE0
7FE0
7FE0
0000
0000
0000
0000
0000
ENDCHAR
STARTCHAR greek small letter pi
ENCODING 28
SWIDTH 480 0
DWIDTH 12 0
BBX 12 24 0 -5
BITMAP
0000
0000
0000
0000
0000
0000
0000
0000
3FF0
7FF0
FFF0
DDC0
1DC0
1DC0
1DC0
1DC0
1DE0
1DE0
1CE0
0000
0000
0000
0000
0000
ENDCHAR
STARTCHAR not-equal sign
ENCODING 29
SWIDTH 480 0
DWIDTH 12 0
BBX 12 24 0 -5
BITMAP
0000
0000
0000
0000
0000
0020
0060
00E0
7FE0
7FE0
7FE0
0700
0E00
7FE0
7FE0
7FE0
7000
6000
4000
0000
0000
0000
0000
0000
ENDCHAR
STARTCHAR pound sign
ENCODING 30
SWIDTH 480 0
DWIDTH 12 0
BBX 12 24 0 -5
BITMAP
0000
0000
0000
0780
0FC0
1FE0
1CC0
1C00
1C00
1C00
7F80
7F80
7F80
1C00
1C00
1C00
7FF0
7FF0
7FF0
0000
0000
0000
0000
0000
ENDCHAR
STARTCHAR middle dot
ENCODING 31
SWIDTH 480 0
DWIDTH 12 0
BBX 12 24 0 -5
BITMAP
0000
0000
0000
0000
0000
0000
0000
0000
0000
0700
0F80
0F80
0700
0000
0000
0000
0000
0000
0000
0000
0000
0000
0000
0000
ENDCHAR
STARTCHAR U+0020 space
ENCODING 32
SWIDTH 480 0
DWIDTH 12 0
BBX 12 24 0 -5
BITMAP
0000
0000
0000
0000
0000
0000
0000
0000
0000
0000
0000
0000
0000
0000
0000
0000
0000
0000
0000
0000
0000
0000
0000
0000
ENDCHAR
STARTCHAR U+0021 exclamation mark
ENCODING 33
SWIDTH 480 0
DWIDTH 12 0
BBX 12 24 0 -5
BITMAP
0000
0000
0000
0700
0700
0700
0700
0700
0700
0700
0700
0700
0700
0700
0000
0000
0700
0700
0700
0000
0000
0000
0000
0000
ENDCHAR
STARTCHAR U+0022 quotation mark
ENCODING 34
SWIDTH 480 0
DWIDTH 12 0
BBX 12 24 0 -5
BITMAP
0000
0000
39C0
39C0
39C0
39C0
39C0
39C0
0000
0000
0000
0000
0000
0000
0000
0000
0000
0000
0000
0000
0000
0000
0000
0000
ENDCHAR
STARTCHAR U+0023 number sign
ENCODING 35
SWIDTH 480 0
DWIDTH 12 0
BBX 12 24 0 -5
BITMAP
0000
0000
0000
1DC0
1DC0
1DC0
1DC0
7FF0
7FF0
7FF0
1DC0
1DC0
7FF0
7FF0
7FF0
1DC0
1DC0
1DC0
1DC0
0000
0000
0000
0000
0000
ENDCHAR
STARTCHAR U+0024 dollar sign
ENCODING 36
SWIDTH 480 0
DWIDTH 12 0
BBX 12 24 0 -5
BITMAP
0000
0000
0000
0600
0600
1F80
3FC0
7FE0
76C0
7E00
3F80
1FC0
07E0
36E0
7FE0
3FC0
1F80
0600
0600
0000
0000
0000
0000
0000
ENDCHAR
STARTCHAR U+0025 percent sign
ENCODING 37
SWIDTH 480 0
DWIDTH 12 0
BBX 12 24 0 -5
BITMAP
0000
0000
0000
3C70
7E70
76E0
76E0
7FC0
3F80
0380
0700
0700
0E00
0FE0
1FF0
3BB0
3BB0
73F0
71E0
0000
0000
0000
0000
0000
ENDCHAR
ENDFONT
