STARTFONT 2.1
FONT -jmk-Neep-Bold-R-Normal--24-240-75-75-C-120-US-ASCII
SIZE 24 75 75
FONTBOUNDINGBOX 12 24 0 -5
STARTPROPERTIES 29
FONTNAME_REGISTRY ""
FOUNDRY "jmk"
FAMILY_NAME "Neep"
WEIGHT_NAME "Bold"
SLANT "R"
SETWIDTH_NAME "Normal"
ADD_STYLE_NAME ""
PIXEL_SIZE 24
POINT_SIZE 240
RESOLUTION_X 75
RESOLUTION_Y 75
SPACING "C"
AVERAGE_WIDTH 120
CHARSET_REGISTRY "US"
CHARSET_ENCODING "ASCII"
COPYRIGHT "Jim Knoble <jmknoble@pobox.com>"
WEIGHT 188
RESOLUTION 75
X_HEIGHT 11
FIGURE_WIDTH 12
QUAD_WIDTH 12
FONT_ASCENT 19
FONT_DESCENT 5
_XMBDFED_INFO "Edited with xmbdfed 3.7."
RELATIVE_WEIGHT 70
RELATIVE_SETWIDTH 50
CAP_HEIGHT 16
UNDERLINE_POSITION -2
UNDERLINE_THICKNESS 2
ENDPROPERTIES
CHARS 89
STARTCHAR U+0027 apostrophe
ENCODING 39
SWIDTH 480 0
DWIDTH 12 0
BBX 12 24 0 -5
BITMAP
0000
0000
0F00
0F00
1E00
1C00
3800
3000
0000
0000
0000
0000
0000
0000
0000
0000
0000
0000
0000
0000
0000
0000
0000
0000
ENDCHAR
STARTCHAR U+0028 left parenthesis
ENCODING 40
SWIDTH 480 0
DWIDTH 12 0
BBX 12 24 0 -5
BITMAP
0000
0000
00E0
01C0
0380
0700
0700
0E00
0E00
1C00
1C00
1C00
1C00
1C00
1C00
0E00
0E00
0700
0700
0380
01C0
00E0
0000
0000
ENDCHAR
STARTCHAR U+0029 right parenthesis
ENCODING 41
SWIDTH 480 0
DWIDTH 12 0
BBX 12 24 0 -5
BITMAP
0000
0000
3800
1C00
0E00
0700
0700
0380
0380
01C0
01C0
01C0
01C0
01C0
01C0
0380
0380
0700
0700
0E00
1C00
3800
0000
0000
ENDCHAR
STARTCHAR U+002a asterisk
ENCODING 42
SWIDTH 480 0
DWIDTH 12 0
BBX 12 24 0 -5
BITMAP
0000
0000
0000
0000
0000
0000
1980
39C0
1F80
0F00
7FE0
7FE0
7FE0
0F00
1F80
39C0
1980
0000
0000
0000
0000
0000
0000
0000
ENDCHAR
STARTCHAR U+002b plus sign
ENCODING 43
SWIDTH 480 0
DWIDTH 12 0
BBX 12 24 0 -5
BITMAP
0000
0000
0000
0000
0000
0000
0700
0700
0700
0700
7FF0
7FF0
7FF0
0700
0700
0700
0700
0000
0000
0000
0000
0000
0000
0000
ENDCHAR
STARTCHAR U+002c comma
ENCODING 44
SWIDTH 480 0
DWIDTH 12 0
BBX 12 24 0 -5
BITMAP
0000
0000
0000
0000
0000
0000
0000
0000
0000
0000
0000
0000
0000
0000
0000
0000
0F00
0F00
1E00
1C00
3800
3000
0000
0000
ENDCHAR
STARTCHAR U+002d hyphen-minus
ENCODING 45
SWIDTH 480 0
DWIDTH 12 0
BBX 12 24 0 -5
BITMAP
0000
0000
0000
0000
0000
0000
0000
0000
0000
0000
7FE0
7FE0
7FE0
0000
0000
0000
0000
0000
0000
0000
0000
0000
0000
0000
ENDCHAR
STARTCHAR U+002e period
ENCODING 46
SWIDTH 480 0
DWIDTH 12 0
BBX 12 24 0 -5
BITMAP
0000
0000
0000
0000
0000
0000
0000
0000
0000
0000
0000
0000
0000
0000
0000
0000
0700
0F80
0F80
0700
0000
0000
0000
0000
ENDCHAR
STARTCHAR U+002f forward slash
ENCODING 47
SWIDTH 480 0
DWIDTH 12 0
BBX 12 24 0 -5
BITMAP
0000
0000
0030
0070
0070
00E0
00E0
01C0
01C0
0380
0380
0700
0700
0E00
0E00
1C00
1C00
3800
3800
7000
7000
6000
0000
0000
ENDCHAR
STARTCHAR U+0030 digit zero
ENCODING 48
SWIDTH 480 0
DWIDTH 12 0
BBX 12 24 0 -5
BITMAP
0000
0000
0000
0F80
1FC0
3FE0
38E0
7070
7070
7070
7770
7770
7070
7070
7070
38E0
3FE0
1FC0
0F80
0000
0000
0000
0000
0000
ENDCHAR
STARTCHAR U+0031 digit one
ENCODING 49
SWIDTH 480 0
DWIDTH 12 0
BBX 12 24 0 -5
BITMAP
0000
0000
0000
0300
0700
0F00
1F00
3F00
7700
0700
0700
0700
0700
0700
0700
0700
0700
0700
0700
0000
0000
0000
0000
0000
ENDCHAR
STARTCHAR U+0032 digit two
ENCODING 50
SWIDTH 480 0
DWIDTH 12 0
BBX 12 24 0 -5
BITMAP
0000
0000
0000
1FC0
3FE0
7FF0
70F0
2070
00F0
01E0
03C0
0780
0F00
1E00
3C00
7800
7FF0
7FF0
7FF0
0000
0000
0000
0000
0000
ENDCHAR
STARTCHAR U+0033 digit three
ENCODING 51
SWIDTH 480 0
DWIDTH 12 0
BBX 12 24 0 -5
BITMAP
0000
0000
0000
7FF0
7FF0
7FF0
00E0
01C0
0380
07C0
07E0
07F0
00F0
0070
2070
70F0
7FF0
3FE0
1FC0
0000
0000
0000
0000
0000
ENDCHAR
STARTCHAR U+0034 digit four
ENCODING 52
SWIDTH 480 0
DWIDTH 12 0
BBX 12 24 0 -5
BITMAP
0000
0000
0000
07C0
07C0
0FC0
0FC0
1DC0
1DC0
39C0
39C0
71C0
71C0
7FF0
7FF0
7FF0
01C0
01C0
01C0
0000
0000
0000
0000
0000
ENDCHAR
STARTCHAR U+0035 digit five
ENCODING 53
SWIDTH 480 0
DWIDTH 12 0
BBX 12 24 0 -5
BITMAP
0000
0000
0000
7FE0
7FE0
7FE0
7000
7000
77C0
7FE0
7FF0
70F0
0070
0070
2070
70F0
7FF0
3FE0
1FC0
0000
0000
0000
0000
0000
ENDCHAR
STARTCHAR U+0036 digit six
ENCODING 54
SWIDTH 480 0
DWIDTH 12 0
BBX 12 24 0 -5
BITMAP
0000
0000
0000
1FC0
3FE0
7FF0
7870
7020
7000
77C0
7FE0
7FF0
78F0
7070
7070
78F0
7FF0
3FE0
1FC0
0000
0000
0000
0000
0000
ENDCHAR
STARTCHAR U+0037 digit seven
ENCODING 55
SWIDTH 480 0
DWIDTH 12 0
BBX 12 24 0 -5
BITMAP
0000
0000
0000
7FF0
7FF0
7FF0
00F0
00E0
01E0
01C0
03C0
0380
0780
0700
0F00
0E00
1E00
1C00
1C00
0000
0000
0000
0000
0000
ENDCHAR
STARTCHAR U+0038 digit eight
ENCODING 56
SWIDTH 480 0
DWIDTH 12 0
BBX 12 24 0 -5
BITMAP
0000
0000
0000
1FC0
3FE0
7FF0
78F0
7070
7070
78F0
3FE0
3FE0
78F0
7070
7070
78F0
7FF0
3FE0
1FC0
0000
0000
0000
0000
0000
ENDCHAR
STARTCHAR U+0039 digit nine
ENCODING 57
SWIDTH 480 0
DWIDTH 12 0
BBX 12 24 0 -5
BITMAP
0000
0000
0000
1FC0
3FE0
7FF0
78F0
7070
7070
78F0
7FF0
3FF0
1F70
0070
2070
70F0
7FF0
3FE0
1FC0
0000
0000
0000
0000
0000
ENDCHAR
STARTCHAR U+003a colon
ENCODING 58
SWIDTH 480 0
DWIDTH 12 0
BBX 12 24 0 -5
BITMAP
0000
0000
0000
0000
0000
0000
0000
0700
0F80
0F80
0700
0000
0000
0000
0000
0000
0700
0F80
0F80
0700
0000
0000
0000
0000
ENDCHAR
STARTCHAR U+003b semicolon
ENCODING 59
SWIDTH 480 0
DWIDTH 12 0
BBX 12 24 0 -5
BITMAP
0000
0000
0000
0000
0000
0000
0000
0700
0F80
0F80
0700
0000
0000
0000
0000
0000
0F00
0F00
1E00
1C00
3800
3000
0000
0000
ENDCHAR
STARTCHAR U+003c less-than sign
ENCODING 60
SWIDTH 480 0
DWIDTH 12 0
BBX 12 24 0 -5
BITMAP
0000
0000
0000
0000
0040
00E0
01E0
03C0
0780
0F00
1E00
3C00
1E00
0F00
0780
03C0
01E0
00E0
0040
0000
0000
0000
0000
0000
ENDCHAR
STARTCHAR U+003d equals sign
ENCODING 61
SWIDTH 480 0
DWIDTH 12 0
BBX 12 24 0 -5
BITMAP
0000
0000
0000
0000
0000
0000
0000
0000
7FE0
7FE0
7FE0
0000
0000
7FE0
7FE0
7FE0
0000
0000
0000
0000
0000
0000
0000
0000
ENDCHAR
STARTCHAR U+003e greater-than sign
ENCODING 62
SWIDTH 480 0
DWIDTH 12 0
BBX 12 24 0 -5
BITMAP
0000
0000
0000
0000
1000
3800
3C00
1E00
0F00
0780
03C0
01E0
03C0
0780
0F00
1E00
3C00
3800
1000
0000
0000
0000
0000
0000
ENDCHAR
STARTCHAR U+003f question mark
ENCODING 63
SWIDTH 480 0
DWIDTH 12 0
BBX 12 24 0 -5
BITMAP
0000
0000
0000
3FC0
3FE0
3FE0
00E0
01C0
0380
0700
0E00
0E00
0E00
0E00
0000
0000
0E00
0E00
0E00
0000
0000
0000
0000
0000
ENDCHAR
STARTCHAR U+0040 at sign
ENCODING 64
SWIDTH 480 0
DWIDTH 12 0
BBX 12 24 0 -5
BITMAP
0000
0000
0000
0FC0
1FE0
3FF0
7870
71F0
63F0
67F0
6730
6730
67F0
63F0
71F0
7800
3FC0
1FC0
0FC0
0000
0000
0000
0000
0000
ENDCHAR
STARTCHAR U+0041 latin capital letter A
ENCODING 65
SWIDTH 480 0
DWIDTH 12 0
BBX 12 24 0 -5
BITMAP
0000
0000
0000
1FC0
3FE0
7FF0
78F0
7070
7070
7070
7FF0
7FF0
7FF0
7070
7070
7070
7070
7070
7070
0000
0000
0000
0000
0000
ENDCHAR
STARTCHAR U+0042 latin capital letter B
ENCODING 66
SWIDTH 480 0
DWIDTH 12 0
BBX 12 24 0 -5
BITMAP
0000
0000
0000
7F00
7F80
7FC0
73C0
71C0
71C0
7380
7FC0
7FE0
70F0
7070
7070
70F0
7FF0
7FE0
7FC0
0000
0000
0000
0000
0000
ENDCHAR
STARTCHAR U+0043 latin capital letter C
ENCODING 67
SWIDTH 480 0
DWIDTH 12 0
BBX 12 24 0 -5
BITMAP
0000
0000
0000
1FC0
3FE0
7FF0
7870
7020
7000
7000
7000
7000
7000
7000
7020
7870
7FF0
3FE0
1FC0
0000
0000
0000
0000
0000
ENDCHAR
STARTCHAR U+0044 latin capital letter D
ENCODING 68
SWIDTH 480 0
DWIDTH 12 0
BBX 12 24 0 -5
BITMAP
0000
0000
0000
7F00
7F80
7FC0
71E0
70F0
7070
7070
7070
7070
7070
7070
70F0
71E0
7FC0
7F80
7F00
0000
0000
0000
0000
0000
ENDCHAR
STARTCHAR U+0045 latin capital letter E
ENCODING 69
SWIDTH 480 0
DWIDTH 12 0
BBX 12 24 0 -5
BITMAP
0000
0000
0000
7FF0
7FF0
7FF0
7000
7000
7000
7FC0
7FC0
7FC0
7000
7000
7000
7000
7FF0
7FF0
7FF0
0000
0000
0000
0000
0000
ENDCHAR
STARTCHAR U+0046 latin capital letter F
ENCODING 70
SWIDTH 480 0
DWIDTH 12 0
BBX 12 24 0 -5
BITMAP
0000
0000
0000
7FF0
7FF0
7FF0
7000
7000
7000
7FC0
7FC0
7FC0
7000
7000
7000
7000
7000
7000
7000
0000
0000
0000
0000
0000
ENDCHAR
STARTCHAR U+0047 latin capital letter G
ENCODING 71
SWIDTH 480 0
DWIDTH 12 0
BBX 12 24 0 -5
BITMAP
0000
0000
0000
1FC0
3FE0
7FF0
7870
7020
7000
7000
73F0
73F0
73F0
7070
7070
7870
7FF0
3FF0
1FE0
0000
0000
0000
0000
0000
ENDCHAR
STARTCHAR U+0048 latin capital letter H
ENCODING 72
SWIDTH 480 0
DWIDTH 12 0
BBX 12 24 0 -5
BITMAP
0000
0000
0000
7070
7070
7070
7070
7070
7070
7FF0
7FF0
7FF0
7070
7070
7070
7070
7070
7070
7070
0000
0000
0000
0000
0000
ENDCHAR
STARTCHAR U+0049 latin capital letter I
ENCODING 73
SWIDTH 480 0
DWIDTH 12 0
BBX 12 24 0 -5
BITMAP
0000
0000
0000
3FE0
3FE0
3FE0
0700
0700
0700
0700
0700
0700
0700
0700
0700
0700
3FE0
3FE0
3FE0
0000
0000
0000
0000
0000
ENDCHAR
STARTCHAR U+004a latin capital letter J
ENCODING 74
SWIDTH 480 0
DWIDTH 12 0
BBX 12 24 0 -5
BITMAP
0000
0000
0000
07F0
07F0
07F0
0070
0070
0070
0070
0070
0070
0070
0070
2070
70F0
7FF0
3FE0
1FC0
0000
0000
0000
0000
0000
ENDCHAR
STARTCHAR U+004b latin capital letter K
ENCODING 75
SWIDTH 480 0
DWIDTH 12 0
BBX 12 24 0 -5
BITMAP
0000
0000
0000
70F0
71E0
73C0
7780
7F00
7E00
7F00
7F00
7F80
7380
73C0
71C0
71E0
70E0
70F0
7070
0000
0000
0000
0000
0000
ENDCHAR
STARTCHAR U+004c latin capital letter L
ENCODING 76
SWIDTH 480 0
DWIDTH 12 0
BBX 12 24 0 -5
BITMAP
0000
0000
0000
7000
7000
7000
7000
7000
7000
7000
7000
7000
7000
7000
7000
7000
7FF0
7FF0
7FF0
0000
0000
0000
0000
0000
ENDCHAR
STARTCHAR U+004d latin capital letter M
ENCODING 77
SWIDTH 480 0
DWIDTH 12 0
BBX 12 24 0 -5
BITMAP
0000
0000
0000
7070
7070
78F0
78F0
7DF0
7FF0
7FF0
7770
7770
7270
7270
7070
7070
7070
7070
7070
0000
0000
0000
0000
0000
ENDCHAR
STARTCHAR U+004e latin capital letter N
ENCODING 78
SWIDTH 480 0
DWIDTH 12 0
BBX 12 24 0 -5
BITMAP
0000
0000
0000
7070
7070
7870
7870
7C70
7C70
7E70
7670
7770
7370
73F0
71F0
71F0
70F0
70F0
7070
0000
0000
0000
0000
0000
ENDCHAR
STARTCHAR U+004f latin capital letter O
ENCODING 79
SWIDTH 480 0
DWIDTH 12 0
BBX 12 24 0 -5
BITMAP
0000
0000
0000
1FC0
3FE0
7FF0
78F0
7070
7070
7070
7070
7070
7070
7070
7070
78F0
7FF0
3FE0
1FC0
0000
0000
0000
0000
0000
ENDCHAR
STARTCHAR U+0050 latin capital letter P
ENCODING 80
SWIDTH 480 0
DWIDTH 12 0
BBX 12 24 0 -5
BITMAP
0000
0000
0000
7FC0
7FE0
7FF0
70F0
7070
7070
70F0
7FF0
7FE0
7FC0
7000
7000
7000
7000
7000
7000
0000
0000
0000
0000
0000
ENDCHAR
STARTCHAR U+0051 latin capital letter Q
ENCODING 81
SWIDTH 480 0
DWIDTH 12 0
BBX 12 24 0 -5
BITMAP
0000
0000
0000
1FC0
3FE0
7FF0
78F0
7070
7070
7070
7070
7070
7070
7070
7070
78F0
7FF0
3FE0
1FC0
0780
03F0
01F0
00F0
0000
ENDCHAR
STARTCHAR U+0052 latin capital letter R
ENCODING 82
SWIDTH 480 0
DWIDTH 12 0
BBX 12 24 0 -5
BITMAP
0000
0000
0000
7FC0
7FE0
7FF0
70F0
7070
7070
70F0
7FF0
7FE0
7FC0
7F00
7780
73C0
71E0
70F0
7070
0000
0000
0000
0000
0000
ENDCHAR
STARTCHAR U+0053 latin capital letter S
ENCODING 83
SWIDTH 480 0
DWIDTH 12 0
BBX 12 24 0 -5
BITMAP
0000
0000
0000
1FC0
3FE0
7FF0
7870
7020
7800
3E00
1F80
07C0
01E0
00F0
2070
70F0
7FF0
3FE0
1FC0
0000
0000
0000
0000
0000
ENDCHAR
STARTCHAR U+0054 latin capital letter T
ENCODING 84
SWIDTH 480 0
DWIDTH 12 0
BBX 12 24 0 -5
BITMAP
0000
0000
0000
7FF0
7FF0
7FF0
0700
0700
0700
0700
0700
0700
0700
0700
0700
0700
0700
0700
0700
0000
0000
0000
0000
0000
ENDCHAR
STARTCHAR U+0055 latin capital letter U
ENCODING 85
SWIDTH 480 0
DWIDTH 12 0
BBX 12 24 0 -5
BITMAP
0000
0000
0000
7070
7070
7070
7070
7070
7070
7070
7070
7070
7070
7070
7070
78F0
7FF0
3FE0
1FC0
0000
0000
0000
0000
0000
ENDCHAR
STARTCHAR U+0056 latin capital letter V
ENCODING 86
SWIDTH 480 0
DWIDTH 12 0
BBX 12 24 0 -5
BITMAP
0000
0000
0000
7070
7070
7070
7070
7070
7070
7070
78F0
38E0
3DE0
1DC0
1FC0
0F80
0F80
0700
0700
0000
0000
0000
0000
0000
ENDCHAR
STARTCHAR U+0057 latin capital letter W
ENCODING 87
SWIDTH 480 0
DWIDTH 12 0
BBX 12 24 0 -5
BITMAP
0000
0000
0000
7070
7070
7070
7070
7070
7070
7070
7270
7270
7770
7770
7FF0
7DF0
7DF0
38E0
38E0
0000
0000
0000
0000
0000
ENDCHAR
STARTCHAR U+0058 latin capital letter X
ENCODING 88
SWIDTH 480 0
DWIDTH 12 0
BBX 12 24 0 -5
BITMAP
0000
0000
0000
7070
7070
78F0
38E0
3DE0
1DC0
1FC0
0F80
0F80
1FC0
1DC0
3DE0
38E0
78F0
7070
7070
0000
0000
0000
0000
0000
ENDCHAR
STARTCHAR U+0059 latin capital letter Y
ENCODING 89
SWIDTH 480 0
DWIDTH 12 0
BBX 12 24 0 -5
BITMAP
0000
0000
0000
7070
7070
7070
7070
7070
78F0
7FF0
3FE0
1FC0
0700
0700
0700
0700
0700
0700
0700
0000
0000
0000
0000
0000
ENDCHAR
STARTCHAR U+005a latin capital letter Z
ENCODING 90
SWIDTH 480 0
DWIDTH 12 0
BBX 12 24 0 -5
BITMAP
0000
0000
0000
7FF0
7FF0
7FF0
0070
00F0
01E0
03C0
0780
0F00
1E00
3C00
7800
7000
7FF0
7FF0
7FF0
0000
0000
0000
0000
0000
ENDCHAR
STARTCHAR U+005b left square bracket
ENCODING 91
SWIDTH 480 0
DWIDTH 12 0
BBX 12 24 0 -5
BITMAP
0000
0000
1FE0
1FE0
1FE0
1C00
1C00
1C00
1C00
1C00
1C00
1C00
1C00
1C00
1C00
1C00
1C00
1C00
1C00
1FE0
1FE0
1FE0
0000
0000
ENDCHAR
STARTCHAR U+005c backslash
ENCODING 92
SWIDTH 480 0
DWIDTH 12 0
BBX 12 24 0 -5
BITMAP
0000
0000
6000
7000
7000
3800
3800
1C00
1C00
0E00
0E00
0700
0700
0380
0380
01C0
01C0
00E0
00E0
0070
0070
0030
0000
0000
ENDCHAR
STARTCHAR U+005d right square bracket
ENCODING 93
SWIDTH 480 0
DWIDTH 12 0
BBX 12 24 0 -5
BITMAP
0000
0000
3FC0
3FC0
3FC0
01C0
01C0
01C0
01C0
01C0
01C0
01C0
01C0
01C0
01C0
01C0
01C0
01C0
01C0
3FC0
3FC0
3FC0
0000
0000
ENDCHAR
STARTCHAR U+005e circumflex
ENCODING 94
SWIDTH 480 0
DWIDTH 12 0
BBX 12 24 0 -5
BITMAP
0000
0000
0000
0700
0700
0F80
0F80
1DC0
1DC0
38E0
38E0
0000
0000
0000
0000
0000
0000
0000
0000
0000
0000
0000
0000
0000
ENDCHAR
STARTCHAR U+005f underscore
ENCODING 95
SWIDTH 480 0
DWIDTH 12 0
BBX 12 24 0 -5
BITMAP
0000
0000
0000
0000
0000
0000
0000
0000
0000
0000
0000
0000
0000
0000
0000
0000
0000
0000
0000
0000
7FF0
7FF0
7FF0
0000
ENDCHAR
STARTCHAR U+0060 grave accent
ENCODING 96
SWIDTH 480 0
DWIDTH 12 0
BBX 12 24 0 -5
BITMAP
0000
0000
0F00
0F00
0780
0380
01C0
00C0
0000
0000
0000
0000
0000
0000
0000
0000
0000
0000
0000
0000
0000
0000
0000
0000
ENDCHAR
STARTCHAR U+0061 latin small letter a
ENCODING 97
SWIDTH 480 0
DWIDTH 12 0
BBX 12 24 0 -5
BITMAP
0000
0000
0000
0000
0000
0000
0000
0000
1FC0
1FE0
1FF0
0070
1FF0
3FF0
7FF0
7070
7FF0
3FF0
1F70
0000
0000
0000
0000
0000
ENDCHAR
STARTCHAR U+0062 latin small letter b
ENCODING 98
SWIDTH 480 0
DWIDTH 12 0
BBX 12 24 0 -5
BITMAP
0000
0000
0000
7000
7000
7000
7000
7000
73C0
77E0
7FF0
78F0
7070
7070
7070
78F0
7FF0
77E0
73C0
0000
0000
0000
0000
0000
ENDCHAR
STARTCHAR U+0063 latin small letter c
ENCODING 99
SWIDTH 480 0
DWIDTH 12 0
BBX 12 24 0 -5
BITMAP
0000
0000
0000
0000
0000
0000
0000
0000
1FC0
3FE0
7FF0
7860
7000
7000
7000
7860
7FF0
3FE0
1FC0
0000
0000
0000
0000
0000
ENDCHAR
STARTCHAR U+0064 latin small letter d
ENCODING 100
SWIDTH 480 0
DWIDTH 12 0
BBX 12 24 0 -5
BITMAP
0000
0000
0000
0070
0070
0070
0070
0070
1E70
3F70
7FF0
78F0
7070
7070
7070
78F0
7FF0
3F70
1E70
0000
0000
0000
0000
0000
ENDCHAR
STARTCHAR U+0065 latin small letter e
ENCODING 101
SWIDTH 480 0
DWIDTH 12 0
BBX 12 24 0 -5
BITMAP
0000
0000
0000
0000
0000
0000
0000
0000
1FC0
3FE0
7FF0
7070
7FF0
7FF0
7FF0
7000
7FE0
3FE0
1FE0
0000
0000
0000
0000
0000
ENDCHAR
STARTCHAR U+0066 latin small letter f
ENCODING 102
SWIDTH 480 0
DWIDTH 12 0
BBX 12 24 0 -5
BITMAP
0000
0000
0000
07C0
0FE0
1FF0
1E60
1C00
1C00
1C00
7FE0
7FE0
7FE0
1C00
1C00
1C00
1C00
1C00
1C00
0000
0000
0000
0000
0000
ENDCHAR
STARTCHAR U+0067 latin small letter g
ENCODING 103
SWIDTH 480 0
DWIDTH 12 0
BBX 12 24 0 -5
BITMAP
0000
0000
0000
0000
0000
0000
0000
0000
1E70
3F70
7FF0
78F0
7070
7070
78F0
7FF0
3F70
1E70
0070
2070
70F0
7FF0
3FE0
1FC0
ENDCHAR
STARTCHAR U+0068 latin small letter h
ENCODING 104
SWIDTH 480 0
DWIDTH 12 0
BBX 12 24 0 -5
BITMAP
0000
0000
0000
7000
7000
7000
7000
7000
73C0
77E0
7FF0
78F0
7070
7070
7070
7070
7070
7070
7070
0000
0000
0000
0000
0000
ENDCHAR
STARTCHAR U+0069 latin small letter i
ENCODING 105
SWIDTH 480 0
DWIDTH 12 0
BBX 12 24 0 -5
BITMAP
0000
0000
0000
0380
0380
0380
0000
0000
1F80
1F80
1F80
0380
0380
0380
0380
0380
0380
0380
0380
0000
0000
0000
0000
0000
ENDCHAR
STARTCHAR U+006a latin small letter j
ENCODING 106
SWIDTH 480 0
DWIDTH 12 0
BBX 12 24 0 -5
BITMAP
0000
0000
0000
00E0
00E0
00E0
0000
0000
07E0
07E0
07E0
00E0
00E0
00E0
00E0
00E0
00E0
00E0
00E0
10E0
39E0
3FE0
1FC0
0F80
ENDCHAR
STARTCHAR U+006b latin small letter k
ENCODING 107
SWIDTH 480 0
DWIDTH 12 0
BBX 12 24 0 -5
BITMAP
0000
0000
0000
7000
7000
7000
7000
7000
71E0
73C0
7780
7F00
7E00
7E00
7F00
7780
73C0
71E0
70F0
0000
0000
0000
0000
0000
ENDCHAR
STARTCHAR U+006c latin small letter l
ENCODING 108
SWIDTH 480 0
DWIDTH 12 0
BBX 12 24 0 -5
BITMAP
0000
0000
0000
1C00
1C00
1C00
1C00
1C00
1C00
1C00
1C00
1C00
1C00
1C00
1C00
1E00
1FC0
0FC0
07C0
0000
0000
0000
0000
0000
ENDCHAR
STARTCHAR U+006d latin small letter m
ENCODING 109
SWIDTH 480 0
DWIDTH 12 0
BBX 12 24 0 -5
BITMAP
0000
0000
0000
0000
0000
0000
0000
0000
6EE0
7FF0
7FF0
7770
7770
7770
7770
7770
7770
7770
7070
0000
0000
0000
0000
0000
ENDCHAR
STARTCHAR U+006e latin small letter n
ENCODING 110
SWIDTH 480 0
DWIDTH 12 0
BBX 12 24 0 -5
BITMAP
0000
0000
0000
0000
0000
0000
0000
0000
73C0
77E0
7FF0
78F0
7070
7070
7070
7070
7070
7070
7070
0000
0000
0000
0000
0000
ENDCHAR
STARTCHAR U+006f latin small letter o
ENCODING 111
SWIDTH 480 0
DWIDTH 12 0
BBX 12 24 0 -5
BITMAP
0000
0000
0000
0000
0000
0000
0000
0000
1FC0
3FE0
7FF0
78F0
7070
7070
7070
78F0
7FF0
3FE0
1FC0
0000
0000
0000
0000
0000
ENDCHAR
STARTCHAR U+0070 latin small letter p
ENCODING 112
SWIDTH 480 0
DWIDTH 12 0
BBX 12 24 0 -5
BITMAP
0000
0000
0000
0000
0000
0000
0000
0000
73C0
77E0
7FF0
78F0
7070
7070
78F0
7FF0
77E0
73C0
7000
7000
7000
7000
7000
7000
ENDCHAR
STARTCHAR U+0071 latin small letter q
ENCODING 113
SWIDTH 480 0
DWIDTH 12 0
BBX 12 24 0 -5
BITMAP
0000
0000
0000
0000
0000
0000
0000
0000
1E70
3F70
7FF0
78F0
7070
7070
78F0
7FF0
3F70
1E70
0070
0070
0070
0070
0070
0070
ENDCHAR
STARTCHAR U+0072 latin small letter r
ENCODING 114
SWIDTH 480 0
DWIDTH 12 0
BBX 12 24 0 -5
BITMAP
0000
0000
0000
0000
0000
0000
0000
0000
73C0
77E0
7FF0
7860
7000
7000
7000
7000
7000
7000
7000
0000
0000
0000
0000
0000
ENDCHAR
STARTCHAR U+0073 latin small letter s
ENCODING 115
SWIDTH 480 0
DWIDTH 12 0
BBX 12 24 0 -5
BITMAP
0000
0000
0000
0000
0000
0000
0000
0000
1FC0
3FE0
7FF0
7060
7F00
3FE0
07F0
3070
7FF0
3FE0
1FC0
0000
0000
0000
0000
0000
ENDCHAR
STARTCHAR U+0074 latin small letter t
ENCODING 116
SWIDTH 480 0
DWIDTH 12 0
BBX 12 24 0 -5
BITMAP
0000
0000
0000
0000
0000
1C00
1C00
1C00
7FE0
7FE0
7FE0
1C00
1C00
1C00
1C00
1E60
1FF0
0FE0
07C0
0000
0000
0000
0000
0000
ENDCHAR
STARTCHAR U+0075 latin small letter u
ENCODING 117
SWIDTH 480 0
DWIDTH 12 0
BBX 12 24 0 -5
BITMAP
0000
0000
0000
0000
0000
0000
0000
0000
7070
7070
7070
7070
7070
7070
7070
78F0
7FF0
3F70
1E70
0000
0000
0000
0000
0000
ENDCHAR
STARTCHAR U+0076 latin small letter v
ENCODING 118
SWIDTH 480 0
DWIDTH 12 0
BBX 12 24 0 -5
BITMAP
0000
0000
0000
0000
0000
0000
0000
0000
7070
7070
78F0
38E0
38E0
3DE0
1DC0
1FC0
0F80
0F80
0700
0000
0000
0000
0000
0000
ENDCHAR
STARTCHAR U+0077 latin small letter w
ENCODING 119
SWIDTH 480 0
DWIDTH 12 0
BBX 12 24 0 -5
BITMAP
0000
0000
0000
0000
0000
0000
0000
0000
7070
7070
7070
7270
7770
7770
7FF0
7DF0
7DF0
38E0
38E0
0000
0000
0000
0000
0000
ENDCHAR
STARTCHAR U+0078 latin small letter x
ENCODING 120
SWIDTH 480 0
DWIDTH 12 0
BBX 12 24 0 -5
BITMAP
0000
0000
0000
0000
0000
0000
0000
0000
7070
78F0
3DE0
1FC0
0F80
0700
0F80
1FC0
3DE0
78F0
7070
0000
0000
0000
0000
0000
ENDCHAR
STARTCHAR U+0079 latin small letter y
ENCODING 121
SWIDTH 480 0
DWIDTH 12 0
BBX 12 24 0 -5
BITMAP
0000
0000
0000
0000
0000
0000
0000
0000
7070
7070
7070
7070
7070
7070
78F0
7FF0
3F70
1E70
0070
2070
70F0
7FF0
3FE0
1FC0
ENDCHAR
STARTCHAR U+007a latin small letter z
ENCODING 122
SWIDTH 480 0
DWIDTH 12 0
BBX 12 24 0 -5
BITMAP
0000
0000
0000
0000
0000
0000
0000
0000
7FF0
7FF0
7FF0
00F0
03E0
0F80
3E00
7800
7FF0
7FF0
7FF0
0000
0000
0000
0000
0000
ENDCHAR
STARTCHAR U+007b left curly brace
ENCODING 123
SWIDTH 480 0
DWIDTH 12 0
BBX 12 24 0 -5
BITMAP
0000
0000
01E0
03E0
07E0
0780
0700
0700
0700
0700
0F00
3E00
3E00
0F00
0700
0700
0700
0700
0780
07E0
03E0
01E0
0000
0000
ENDCHAR
STARTCHAR U+007c vertical bar
ENCODING 124
SWIDTH 480 0
DWIDTH 12 0
BBX 12 24 0 -5
BITMAP
0000
0000
0700
0700
0700
0700
0700
0700
0700
0700
0700
0700
0700
0700
0700
0700
0700
0700
0700
0700
0700
0700
0000
0000
ENDCHAR
STARTCHAR U+007d right curly brace
ENCODING 125
SWIDTH 480 0
DWIDTH 12 0
BBX 12 24 0 -5
BITMAP
0000
0000
3C00
3E00
3F00
0F00
0700
0700
0700
0700
0780
03E0
03E0
0780
0700
0700
0700
0700
0F00
3F00
3E00
3C00
0000
0000
ENDCHAR
STARTCHAR U+007e tilde
ENCODING 126
SWIDTH 480 0
DWIDTH 12 0
BBX 12 24 0 -5
BITMAP
0000
0000
0000
0000
1C70
3E70
7F70
77F0
73E0
71C0
0000
0000
0000
0000
0000
0000
0000
0000
0000
0000
0000
0000
0000
0000
ENDCHAR
STARTCHAR nil
ENCODING 127
SWIDTH 480 0
DWIDTH 12 0
BBX 12 24 0 -5
BITMAP
0000
7FE0
4020
4020
4020
4020
4020
4020
4020
4020
4020
4020
4020
4020
4020
4020
4020
4020
4020
4020
4020
4020
7FE0
0000
ENDCHAR
ENDFONT
