STARTFONT 2.1
FONT -jmk-Neep-Bold-R-Normal--20-180-75-75-C-100-ISO8859-2
SIZE 20 75 75
FONTBOUNDINGBOX 10 20 0 -4
STARTPROPERTIES 29
FONTNAME_REGISTRY ""
FOUNDRY "jmk"
FAMILY_NAME "Neep"
WEIGHT_NAME "Bold"
SLANT "R"
SETWIDTH_NAME "Normal"
ADD_STYLE_NAME ""
PIXEL_SIZE 20
POINT_SIZE 180
RESOLUTION_X 75
RESOLUTION_Y 75
SPACING "C"
AVERAGE_WIDTH 100
CHARSET_REGISTRY "ISO8859"
CHARSET_ENCODING "2"
COPYRIGHT "Jim Knoble <jmknoble@pobox.com>"
WEIGHT 230
RESOLUTION 75
X_HEIGHT 9
FIGURE_WIDTH 10
QUAD_WIDTH 10
FONT_ASCENT 16
FONT_DESCENT 4
_XMBDFED_INFO "Edited with xmbdfed 3.7."
RELATIVE_WEIGHT 70
RELATIVE_SETWIDTH 50
CAP_HEIGHT 13
UNDERLINE_POSITION -2
UNDERLINE_THICKNESS 2
ENDPROPERTIES
CHARS 128
STARTCHAR nil
ENCODING 128
SWIDTH 480 0
DWIDTH 10 0
BBX 10 20 0 -4
BITMAP
0000
7F80
4080
4080
4080
4080
4080
4080
4080
4080
4080
4080
4080
4080
4080
4080
4080
4080
7F80
0000
ENDCHAR
STARTCHAR nil
ENCODING 129
SWIDTH 480 0
DWIDTH 10 0
BBX 10 20 0 -4
BITMAP
0000
7F80
4080
4080
4080
4080
4080
4080
4080
4080
4080
4080
4080
4080
4080
4080
4080
4080
7F80
0000
ENDCHAR
STARTCHAR nil
ENCODING 130
SWIDTH 480 0
DWIDTH 10 0
BBX 10 20 0 -4
BITMAP
0000
7F80
4080
4080
4080
4080
4080
4080
4080
4080
4080
4080
4080
4080
4080
4080
4080
4080
7F80
0000
ENDCHAR
STARTCHAR nil
ENCODING 131
SWIDTH 480 0
DWIDTH 10 0
BBX 10 20 0 -4
BITMAP
0000
7F80
4080
4080
4080
4080
4080
4080
4080
4080
4080
4080
4080
4080
4080
4080
4080
4080
7F80
0000
ENDCHAR
STARTCHAR nil
ENCODING 132
SWIDTH 480 0
DWIDTH 10 0
BBX 10 20 0 -4
BITMAP
0000
7F80
4080
4080
4080
4080
4080
4080
4080
4080
4080
4080
4080
4080
4080
4080
4080
4080
7F80
0000
ENDCHAR
STARTCHAR nil
ENCODING 133
SWIDTH 480 0
DWIDTH 10 0
BBX 10 20 0 -4
BITMAP
0000
7F80
4080
4080
4080
4080
4080
4080
4080
4080
4080
4080
4080
4080
4080
4080
4080
4080
7F80
0000
ENDCHAR
STARTCHAR nil
ENCODING 134
SWIDTH 480 0
DWIDTH 10 0
BBX 10 20 0 -4
BITMAP
0000
7F80
4080
4080
4080
4080
4080
4080
4080
4080
4080
4080
4080
4080
4080
4080
4080
4080
7F80
0000
ENDCHAR
STARTCHAR nil
ENCODING 135
SWIDTH 480 0
DWIDTH 10 0
BBX 10 20 0 -4
BITMAP
0000
7F80
4080
4080
4080
4080
4080
4080
4080
4080
4080
4080
4080
4080
4080
4080
4080
4080
7F80
0000
ENDCHAR
STARTCHAR nil
ENCODING 136
SWIDTH 480 0
DWIDTH 10 0
BBX 10 20 0 -4
BITMAP
0000
7F80
4080
4080
4080
4080
4080
4080
4080
4080
4080
4080
4080
4080
4080
4080
4080
4080
7F80
0000
ENDCHAR
STARTCHAR nil
ENCODING 137
SWIDTH 480 0
DWIDTH 10 0
BBX 10 20 0 -4
BITMAP
0000
7F80
4080
4080
4080
4080
4080
4080
4080
4080
4080
4080
4080
4080
4080
4080
4080
4080
7F80
0000
ENDCHAR
STARTCHAR nil
ENCODING 138
SWIDTH 480 0
DWIDTH 10 0
BBX 10 20 0 -4
BITMAP
0000
7F80
4080
4080
4080
4080
4080
4080
4080
4080
4080
4080
4080
4080
4080
4080
4080
4080
7F80
0000
ENDCHAR
STARTCHAR nil
ENCODING 139
SWIDTH 480 0
DWIDTH 10 0
BBX 10 20 0 -4
BITMAP
0000
7F80
4080
4080
4080
4080
4080
4080
4080
4080
4080
4080
4080
4080
4080
4080
4080
4080
7F80
0000
ENDCHAR
STARTCHAR nil
ENCODING 140
SWIDTH 480 0
DWIDTH 10 0
BBX 10 20 0 -4
BITMAP
0000
7F80
4080
4080
4080
4080
4080
4080
4080
4080
4080
4080
4080
4080
4080
4080
4080
4080
7F80
0000
ENDCHAR
STARTCHAR nil
ENCODING 141
SWIDTH 480 0
DWIDTH 10 0
BBX 10 20 0 -4
BITMAP
0000
7F80
4080
4080
4080
4080
4080
4080
4080
4080
4080
4080
4080
4080
4080
4080
4080
4080
7F80
0000
ENDCHAR
STARTCHAR nil
ENCODING 142
SWIDTH 480 0
DWIDTH 10 0
BBX 10 20 0 -4
BITMAP
0000
7F80
4080
4080
4080
4080
4080
4080
4080
4080
4080
4080
4080
4080
4080
4080
4080
4080
7F80
0000
ENDCHAR
STARTCHAR nil
ENCODING 143
SWIDTH 480 0
DWIDTH 10 0
BBX 10 20 0 -4
BITMAP
0000
7F80
4080
4080
4080
4080
4080
4080
4080
4080
4080
4080
4080
4080
4080
4080
4080
4080
7F80
0000
ENDCHAR
STARTCHAR nil
ENCODING 144
SWIDTH 480 0
DWIDTH 10 0
BBX 10 20 0 -4
BITMAP
0000
7F80
4080
4080
4080
4080
4080
4080
4080
4080
4080
4080
4080
4080
4080
4080
4080
4080
7F80
0000
ENDCHAR
STARTCHAR nil
ENCODING 145
SWIDTH 480 0
DWIDTH 10 0
BBX 10 20 0 -4
BITMAP
0000
7F80
4080
4080
4080
4080
4080
4080
4080
4080
4080
4080
4080
4080
4080
4080
4080
4080
7F80
0000
ENDCHAR
STARTCHAR nil
ENCODING 146
SWIDTH 480 0
DWIDTH 10 0
BBX 10 20 0 -4
BITMAP
0000
7F80
4080
4080
4080
4080
4080
4080
4080
4080
4080
4080
4080
4080
4080
4080
4080
4080
7F80
0000
ENDCHAR
STARTCHAR nil
ENCODING 147
SWIDTH 480 0
DWIDTH 10 0
BBX 10 20 0 -4
BITMAP
0000
7F80
4080
4080
4080
4080
4080
4080
4080
4080
4080
4080
4080
4080
4080
4080
4080
4080
7F80
0000
ENDCHAR
STARTCHAR nil
ENCODING 148
SWIDTH 480 0
DWIDTH 10 0
BBX 10 20 0 -4
BITMAP
0000
7F80
4080
4080
4080
4080
4080
4080
4080
4080
4080
4080
4080
4080
4080
4080
4080
4080
7F80
0000
ENDCHAR
STARTCHAR nil
ENCODING 149
SWIDTH 480 0
DWIDTH 10 0
BBX 10 20 0 -4
BITMAP
0000
7F80
4080
4080
4080
4080
4080
4080
4080
4080
4080
4080
4080
4080
4080
4080
4080
4080
7F80
0000
ENDCHAR
STARTCHAR nil
ENCODING 150
SWIDTH 480 0
DWIDTH 10 0
BBX 10 20 0 -4
BITMAP
0000
7F80
4080
4080
4080
4080
4080
4080
4080
4080
4080
4080
4080
4080
4080
4080
4080
4080
7F80
0000
ENDCHAR
STARTCHAR nil
ENCODING 151
SWIDTH 480 0
DWIDTH 10 0
BBX 10 20 0 -4
BITMAP
0000
7F80
4080
4080
4080
4080
4080
4080
4080
4080
4080
4080
4080
4080
4080
4080
4080
4080
7F80
0000
ENDCHAR
STARTCHAR nil
ENCODING 152
SWIDTH 480 0
DWIDTH 10 0
BBX 10 20 0 -4
BITMAP
0000
7F80
4080
4080
4080
4080
4080
4080
4080
4080
4080
4080
4080
4080
4080
4080
4080
4080
7F80
0000
ENDCHAR
STARTCHAR nil
ENCODING 153
SWIDTH 480 0
DWIDTH 10 0
BBX 10 20 0 -4
BITMAP
0000
7F80
4080
4080
4080
4080
4080
4080
4080
4080
4080
4080
4080
4080
4080
4080
4080
4080
7F80
0000
ENDCHAR
STARTCHAR nil
ENCODING 154
SWIDTH 480 0
DWIDTH 10 0
BBX 10 20 0 -4
BITMAP
0000
7F80
4080
4080
4080
4080
4080
4080
4080
4080
4080
4080
4080
4080
4080
4080
4080
4080
7F80
0000
ENDCHAR
STARTCHAR nil
ENCODING 155
SWIDTH 480 0
DWIDTH 10 0
BBX 10 20 0 -4
BITMAP
0000
7F80
4080
4080
4080
4080
4080
4080
4080
4080
4080
4080
4080
4080
4080
4080
4080
4080
7F80
0000
ENDCHAR
STARTCHAR nil
ENCODING 156
SWIDTH 480 0
DWIDTH 10 0
BBX 10 20 0 -4
BITMAP
0000
7F80
4080
4080
4080
4080
4080
4080
4080
4080
4080
4080
4080
4080
4080
4080
4080
4080
7F80
0000
ENDCHAR
STARTCHAR nil
ENCODING 157
SWIDTH 480 0
DWIDTH 10 0
BBX 10 20 0 -4
BITMAP
0000
7F80
4080
4080
4080
4080
4080
4080
4080
4080
4080
4080
4080
4080
4080
4080
4080
4080
7F80
0000
ENDCHAR
STARTCHAR nil
ENCODING 158
SWIDTH 480 0
DWIDTH 10 0
BBX 10 20 0 -4
BITMAP
0000
7F80
4080
4080
4080
4080
4080
4080
4080
4080
4080
4080
4080
4080
4080
4080
4080
4080
7F80
0000
ENDCHAR
STARTCHAR nil
ENCODING 159
SWIDTH 480 0
DWIDTH 10 0
BBX 10 20 0 -4
BITMAP
0000
7F80
4080
4080
4080
4080
4080
4080
4080
4080
4080
4080
4080
4080
4080
4080
4080
4080
7F80
0000
ENDCHAR
STARTCHAR U+00a0 no-break space
ENCODING 160
SWIDTH 480 0
DWIDTH 10 0
BBX 10 20 0 -4
BITMAP
0000
0000
0000
0000
0000
0000
0000
0000
0000
0000
0000
0000
0000
0000
0000
0000
0000
0000
0000
0000
ENDCHAR
STARTCHAR U+0104 latin captial letter A with ogonek
ENCODING 161
SWIDTH 480 0
DWIDTH 10 0
BBX 10 20 0 -4
BITMAP
0000
0000
0000
1F00
3F80
7BC0
71C0
71C0
71C0
7FC0
7FC0
71C0
71C0
71C0
71C0
71C0
0300
0700
07C0
03C0
ENDCHAR
STARTCHAR U+02d8 breve
ENCODING 162
SWIDTH 480 0
DWIDTH 10 0
BBX 10 20 0 -4
BITMAP
0000
0000
0000
2080
3180
1F00
0000
0000
0000
0000
0000
0000
0000
0000
0000
0000
0000
0000
0000
0000
ENDCHAR
STARTCHAR U+0141 latin capital letter L with stroke
ENCODING 163
SWIDTH 480 0
DWIDTH 10 0
BBX 10 20 0 -4
BITMAP
0000
0000
0000
7000
7000
7000
7600
7C00
7800
7000
F000
F000
7000
7000
7FC0
7FC0
0000
0000
0000
0000
ENDCHAR
STARTCHAR U+00a4 currency sign
ENCODING 164
SWIDTH 480 0
DWIDTH 10 0
BBX 10 20 0 -4
BITMAP
0000
0000
0000
0000
0000
0000
0000
60C0
7FC0
3F80
3180
3180
3180
3F80
7FC0
60C0
0000
0000
0000
0000
ENDCHAR
STARTCHAR U+013d latin capital letter L with caron
ENCODING 165
SWIDTH 480 0
DWIDTH 10 0
BBX 10 20 0 -4
BITMAP
0000
6300
3600
1C00
0000
7000
7000
7000
7000
7000
7000
7000
7000
7000
7FC0
7FC0
0000
0000
0000
0000
ENDCHAR
STARTCHAR U+015a latin capital letter S with acute
ENCODING 166
SWIDTH 480 0
DWIDTH 10 0
BBX 10 20 0 -4
BITMAP
0000
0700
0E00
1800
0000
1F00
3F80
71C0
7880
3C00
1F00
0780
23C0
71C0
3F80
1F00
0000
0000
0000
0000
ENDCHAR
STARTCHAR U+00a7 section sign
ENCODING 167
SWIDTH 480 0
DWIDTH 10 0
BBX 10 20 0 -4
BITMAP
0000
0000
0000
3F80
7F80
7000
3800
1E00
3F00
7380
7380
7380
3F00
1E00
0700
0380
7F80
7F00
0000
0000
ENDCHAR
STARTCHAR U+00a8 diaresis
ENCODING 168
SWIDTH 480 0
DWIDTH 10 0
BBX 10 20 0 -4
BITMAP
0000
0000
0000
3180
3180
3180
0000
0000
0000
0000
0000
0000
0000
0000
0000
0000
0000
0000
0000
0000
ENDCHAR
STARTCHAR U+0160 latin capital letter S with caron
ENCODING 169
SWIDTH 480 0
DWIDTH 10 0
BBX 10 20 0 -4
BITMAP
0000
3180
1B00
0E00
0000
1F00
3F80
71C0
7880
3C00
1F00
0780
23C0
71C0
3F80
1F00
0000
0000
0000
0000
ENDCHAR
STARTCHAR U+015e latin capital letter S with cedilla
ENCODING 170
SWIDTH 480 0
DWIDTH 10 0
BBX 10 20 0 -4
BITMAP
0000
0000
0000
1F00
3F80
79C0
7080
7800
3C00
1F00
0780
03C0
21C0
73C0
3F80
1F00
0E00
0700
1F00
1E00
ENDCHAR
STARTCHAR U+0164 latin capital letter T with caron
ENCODING 171
SWIDTH 480 0
DWIDTH 10 0
BBX 10 20 0 -4
BITMAP
0000
3180
1B00
0E00
0000
7FC0
7FC0
0E00
0E00
0E00
0E00
0E00
0E00
0E00
0E00
0E00
0000
0000
0000
0000
ENDCHAR
STARTCHAR U+0179 latin capital letter Z with acute
ENCODING 172
SWIDTH 480 0
DWIDTH 10 0
BBX 10 20 0 -4
BITMAP
0000
0700
0E00
1800
0000
7FC0
7FC0
01C0
0380
0700
0E00
1C00
3800
7000
7FC0
7FC0
0000
0000
0000
0000
ENDCHAR
STARTCHAR U+00ad soft hyphen
ENCODING 173
SWIDTH 480 0
DWIDTH 10 0
BBX 10 20 0 -4
BITMAP
0000
0000
0000
0000
0000
0000
0000
0000
0000
1F00
1F00
1F00
0000
0000
0000
0000
0000
0000
0000
0000
ENDCHAR
STARTCHAR U+017d latin capital letter Z with caron
ENCODING 174
SWIDTH 480 0
DWIDTH 10 0
BBX 10 20 0 -4
BITMAP
0000
3180
1B00
0E00
0000
7FC0
7FC0
01C0
0380
0700
0E00
1C00
3800
7000
7FC0
7FC0
0000
0000
0000
0000
ENDCHAR
STARTCHAR U+017b latin capital letter Z with dot above
ENCODING 175
SWIDTH 480 0
DWIDTH 10 0
BBX 10 20 0 -4
BITMAP
0000
0E00
0E00
0E00
0000
7FC0
7FC0
01C0
0380
0700
0E00
1C00
3800
7000
7FC0
7FC0
0000
0000
0000
0000
ENDCHAR
STARTCHAR U+00b0 degree sign
ENCODING 176
SWIDTH 480 0
DWIDTH 10 0
BBX 10 20 0 -4
BITMAP
0000
0000
0000
1E00
3F00
3300
3300
3F00
1E00
0000
0000
0000
0000
0000
0000
0000
0000
0000
0000
0000
ENDCHAR
STARTCHAR U+0105 latin small letter a with ogonek
ENCODING 177
SWIDTH 480 0
DWIDTH 10 0
BBX 10 20 0 -4
BITMAP
0000
0000
0000
0000
0000
0000
0000
3F00
3F80
01C0
1FC0
3FC0
71C0
73C0
7FC0
3DC0
0300
0700
07C0
03C0
ENDCHAR
STARTCHAR U+02db ogonek
ENCODING 178
SWIDTH 480 0
DWIDTH 10 0
BBX 10 20 0 -4
BITMAP
0000
0000
0000
0000
0000
0000
0000
0000
0000
0000
0000
0000
0000
0000
0000
0300
0600
0E00
0F80
0780
ENDCHAR
STARTCHAR U+0142 latin small letter l with stroke
ENCODING 179
SWIDTH 480 0
DWIDTH 10 0
BBX 10 20 0 -4
BITMAP
0000
0000
0000
1C00
1C00
1C00
1D80
1F00
1E00
1C00
3C00
3C00
1C00
1E00
0F80
0780
0000
0000
0000
0000
ENDCHAR
STARTCHAR U+00b4 acute accent
ENCODING 180
SWIDTH 480 0
DWIDTH 10 0
BBX 10 20 0 -4
BITMAP
0000
0000
0000
0700
0E00
1800
0000
0000
0000
0000
0000
0000
0000
0000
0000
0000
0000
0000
0000
0000
ENDCHAR
STARTCHAR U+013e latin small letter l with caron
ENCODING 181
SWIDTH 480 0
DWIDTH 10 0
BBX 10 20 0 -4
BITMAP
0000
3180
1B00
0E00
0000
1C00
1C00
1C00
1C00
1C00
1C00
1C00
1C00
1E00
0F80
0780
0000
0000
0000
0000
ENDCHAR
STARTCHAR U+015b latin small letter s with acute
ENCODING 182
SWIDTH 480 0
DWIDTH 10 0
BBX 10 20 0 -4
BITMAP
0000
0000
0000
0700
0E00
1800
0000
3F80
7FC0
70C0
7E00
3F80
07C0
61C0
7FC0
3F80
0000
0000
0000
0000
ENDCHAR
STARTCHAR U+02c7 caron
ENCODING 183
SWIDTH 480 0
DWIDTH 10 0
BBX 10 20 0 -4
BITMAP
0000
0000
0000
3180
1B00
0E00
0000
0000
0000
0000
0000
0000
0000
0000
0000
0000
0000
0000
0000
0000
ENDCHAR
STARTCHAR U+00b8 cedilla
ENCODING 184
SWIDTH 480 0
DWIDTH 10 0
BBX 10 20 0 -4
BITMAP
0000
0000
0000
0000
0000
0000
0000
0000
0000
0000
0000
0000
0000
0000
0000
0600
0700
0380
0F80
0F00
ENDCHAR
STARTCHAR U+0161 latin small letter s with caron
ENCODING 185
SWIDTH 480 0
DWIDTH 10 0
BBX 10 20 0 -4
BITMAP
0000
0000
0000
3180
1B00
0E00
0000
3F80
7FC0
70C0
7E00
3F80
07C0
61C0
7FC0
3F80
0000
0000
0000
0000
ENDCHAR
STARTCHAR U+015f latin small letter s with cedilla
ENCODING 186
SWIDTH 480 0
DWIDTH 10 0
BBX 10 20 0 -4
BITMAP
0000
0000
0000
0000
0000
0000
0000
3F80
7FC0
70C0
7E00
3F80
07C0
61C0
7FC0
3F80
0E00
0700
1F00
1E00
ENDCHAR
STARTCHAR U+0165 latin small letter t with caron
ENCODING 187
SWIDTH 480 0
DWIDTH 10 0
BBX 10 20 0 -4
BITMAP
0000
6300
3600
1C00
0000
3800
3800
7F80
7F80
3800
3800
3800
3800
3CC0
1FC0
0F80
0000
0000
0000
0000
ENDCHAR
STARTCHAR U+017a latin small letter z with acute
ENCODING 188
SWIDTH 480 0
DWIDTH 10 0
BBX 10 20 0 -4
BITMAP
0000
0000
0000
0700
0E00
1800
0000
7FC0
7FC0
0380
0700
0E00
1C00
3800
7FC0
7FC0
0000
0000
0000
0000
ENDCHAR
STARTCHAR U+02dd double acute accent
ENCODING 189
SWIDTH 480 0
DWIDTH 10 0
BBX 10 20 0 -4
BITMAP
0000
0000
0000
0CC0
1980
3300
0000
0000
0000
0000
0000
0000
0000
0000
0000
0000
0000
0000
0000
0000
ENDCHAR
STARTCHAR U+017e latin small letter z with caron
ENCODING 190
SWIDTH 480 0
DWIDTH 10 0
BBX 10 20 0 -4
BITMAP
0000
0000
0000
3180
1B00
0E00
0000
7FC0
7FC0
0380
0700
0E00
1C00
3800
7FC0
7FC0
0000
0000
0000
0000
ENDCHAR
STARTCHAR U+017c latin small letter z with dot above
ENCODING 191
SWIDTH 480 0
DWIDTH 10 0
BBX 10 20 0 -4
BITMAP
0000
0000
0000
0E00
0E00
0E00
0000
7FC0
7FC0
0380
0700
0E00
1C00
3800
7FC0
7FC0
0000
0000
0000
0000
ENDCHAR
STARTCHAR U+0154 latin capital letter R with acute
ENCODING 192
SWIDTH 480 0
DWIDTH 10 0
BBX 10 20 0 -4
BITMAP
0000
0700
0E00
1800
0000
7F00
7F80
73C0
71C0
73C0
7F80
7F00
7700
7380
71C0
70C0
0000
0000
0000
0000
ENDCHAR
STARTCHAR U+00c1 latin capital letter A with acute
ENCODING 193
SWIDTH 480 0
DWIDTH 10 0
BBX 10 20 0 -4
BITMAP
0000
0700
0E00
1800
0000
1F00
3F80
7BC0
71C0
71C0
7FC0
7FC0
71C0
71C0
71C0
71C0
0000
0000
0000
0000
ENDCHAR
STARTCHAR U+00c2 latin capital letter A with circumflex
ENCODING 194
SWIDTH 480 0
DWIDTH 10 0
BBX 10 20 0 -4
BITMAP
0000
0E00
1B00
3180
0000
1F00
3F80
7BC0
71C0
71C0
7FC0
7FC0
71C0
71C0
71C0
71C0
0000
0000
0000
0000
ENDCHAR
STARTCHAR U+0102 latin capital letter A with breve
ENCODING 195
SWIDTH 480 0
DWIDTH 10 0
BBX 10 20 0 -4
BITMAP
0000
2080
3180
1F00
0000
1F00
3F80
7BC0
71C0
71C0
7FC0
7FC0
71C0
71C0
71C0
71C0
0000
0000
0000
0000
ENDCHAR
STARTCHAR U+00c4 latin capital letter A with diaresis
ENCODING 196
SWIDTH 480 0
DWIDTH 10 0
BBX 10 20 0 -4
BITMAP
0000
3180
3180
3180
0000
1F00
3F80
7BC0
71C0
71C0
7FC0
7FC0
71C0
71C0
71C0
71C0
0000
0000
0000
0000
ENDCHAR
STARTCHAR U+0139 latin capital letter L with acute
ENCODING 197
SWIDTH 480 0
DWIDTH 10 0
BBX 10 20 0 -4
BITMAP
0000
0E00
1C00
3000
0000
7000
7000
7000
7000
7000
7000
7000
7000
7000
7FC0
7FC0
0000
0000
0000
0000
ENDCHAR
STARTCHAR U+0106 latin capital letter C with acute
ENCODING 198
SWIDTH 480 0
DWIDTH 10 0
BBX 10 20 0 -4
BITMAP
0000
0700
0E00
1800
0000
1F00
3F80
79C0
7080
7000
7000
7000
7080
79C0
3F80
1F00
0000
0000
0000
0000
ENDCHAR
STARTCHAR U+00c7 latin capital letter C with cedilla
ENCODING 199
SWIDTH 480 0
DWIDTH 10 0
BBX 10 20 0 -4
BITMAP
0000
0000
0000
1F00
3F80
79C0
7080
7000
7000
7000
7000
7000
7080
79C0
3F80
1F00
0700
0380
0F80
0F00
ENDCHAR
STARTCHAR U+010c latin capital letter C with caron
ENCODING 200
SWIDTH 480 0
DWIDTH 10 0
BBX 10 20 0 -4
BITMAP
0000
3180
1B00
0E00
0000
1F00
3F80
79C0
7080
7000
7000
7000
7080
79C0
3F80
1F00
0000
0000
0000
0000
ENDCHAR
STARTCHAR U+00c9 latin capital letter E with acute
ENCODING 201
SWIDTH 480 0
DWIDTH 10 0
BBX 10 20 0 -4
BITMAP
0000
0700
0E00
1800
0000
7FC0
7FC0
7000
7000
7F00
7F00
7000
7000
7000
7FC0
7FC0
0000
0000
0000
0000
ENDCHAR
STARTCHAR U+0118 latin capital letter E with ogonek
ENCODING 202
SWIDTH 480 0
DWIDTH 10 0
BBX 10 20 0 -4
BITMAP
0000
0000
0000
7FC0
7FC0
7000
7000
7000
7F00
7F00
7000
7000
7000
7000
7FC0
7FC0
0300
0700
07C0
03C0
ENDCHAR
STARTCHAR U+00cb latin capital letter E with diaresis
ENCODING 203
SWIDTH 480 0
DWIDTH 10 0
BBX 10 20 0 -4
BITMAP
0000
3180
3180
3180
0000
7FC0
7FC0
7000
7000
7F80
7F80
7000
7000
7000
7FC0
7FC0
0000
0000
0000
0000
ENDCHAR
STARTCHAR U+011a latin capital letter E with caron
ENCODING 204
SWIDTH 480 0
DWIDTH 10 0
BBX 10 20 0 -4
BITMAP
0000
3180
1B00
0E00
0000
7FC0
7FC0
7000
7000
7F00
7F00
7000
7000
7000
7FC0
7FC0
0000
0000
0000
0000
ENDCHAR
STARTCHAR U+00cd latin capital letter I with acute
ENCODING 205
SWIDTH 480 0
DWIDTH 10 0
BBX 10 20 0 -4
BITMAP
0000
0700
0E00
1800
0000
3F80
3F80
0E00
0E00
0E00
0E00
0E00
0E00
0E00
3F80
3F80
0000
0000
0000
0000
ENDCHAR
STARTCHAR U+00ce latin capital letter I with circumflex
ENCODING 206
SWIDTH 480 0
DWIDTH 10 0
BBX 10 20 0 -4
BITMAP
0000
0E00
1B00
3180
0000
3F80
3F80
0E00
0E00
0E00
0E00
0E00
0E00
0E00
3F80
3F80
0000
0000
0000
0000
ENDCHAR
STARTCHAR U+010e latin capital letter D with caron
ENCODING 207
SWIDTH 480 0
DWIDTH 10 0
BBX 10 20 0 -4
BITMAP
0000
3180
1B00
0E00
0000
7E00
7F00
7380
71C0
71C0
71C0
71C0
71C0
7380
7F00
7E00
0000
0000
0000
0000
ENDCHAR
STARTCHAR U+0110 latin capital letter D with stroke
ENCODING 208
SWIDTH 480 0
DWIDTH 10 0
BBX 10 20 0 -4
BITMAP
0000
0000
0000
7E00
7F00
7380
71C0
71C0
71C0
FDC0
FDC0
71C0
71C0
7380
7F00
7E00
0000
0000
0000
0000
ENDCHAR
STARTCHAR U+0143 latin capital letter N with acute
ENCODING 209
SWIDTH 480 0
DWIDTH 10 0
BBX 10 20 0 -4
BITMAP
0000
0700
0E00
1800
0000
71C0
79C0
79C0
7DC0
7DC0
7FC0
77C0
77C0
73C0
73C0
71C0
0000
0000
0000
0000
ENDCHAR
STARTCHAR U+0147 latin capital letter N with caron
ENCODING 210
SWIDTH 480 0
DWIDTH 10 0
BBX 10 20 0 -4
BITMAP
0000
3180
1B00
0E00
0000
71C0
79C0
79C0
7DC0
7DC0
7FC0
77C0
77C0
73C0
73C0
71C0
0000
0000
0000
0000
ENDCHAR
STARTCHAR U+00d3 latin capital letter O with acute
ENCODING 211
SWIDTH 480 0
DWIDTH 10 0
BBX 10 20 0 -4
BITMAP
0000
0700
0E00
1800
0000
1F00
3F80
7BC0
71C0
71C0
71C0
71C0
71C0
7BC0
3F80
1F00
0000
0000
0000
0000
ENDCHAR
STARTCHAR U+00d4 latin capital letter O with circumflex
ENCODING 212
SWIDTH 480 0
DWIDTH 10 0
BBX 10 20 0 -4
BITMAP
0000
0E00
1B00
3180
0000
1F00
3F80
7BC0
71C0
71C0
71C0
71C0
71C0
7BC0
3F80
1F00
0000
0000
0000
0000
ENDCHAR
STARTCHAR U+0150 latin capital letter O with double acute
ENCODING 213
SWIDTH 480 0
DWIDTH 10 0
BBX 10 20 0 -4
BITMAP
0000
0CC0
1980
3300
0000
1F00
3F80
7BC0
71C0
71C0
71C0
71C0
71C0
7BC0
3F80
1F00
0000
0000
0000
0000
ENDCHAR
STARTCHAR U+00d6 latin capital letter O with diaresis
ENCODING 214
SWIDTH 480 0
DWIDTH 10 0
BBX 10 20 0 -4
BITMAP
0000
3180
3180
3180
0000
1F00
3F80
7BC0
71C0
71C0
71C0
71C0
71C0
7BC0
3F80
1F00
0000
0000
0000
0000
ENDCHAR
STARTCHAR U+00d7 multiplication sign
ENCODING 215
SWIDTH 480 0
DWIDTH 10 0
BBX 10 20 0 -4
BITMAP
0000
0000
0000
0000
0000
0000
2100
7380
3F00
1E00
1E00
3F00
7380
2100
0000
0000
0000
0000
0000
0000
ENDCHAR
STARTCHAR U+0158 latin capital letter R with caron
ENCODING 216
SWIDTH 480 0
DWIDTH 10 0
BBX 10 20 0 -4
BITMAP
0000
3180
1B00
0E00
0000
7F00
7F80
73C0
71C0
73C0
7F80
7F00
7F00
7380
71C0
70C0
0000
0000
0000
0000
ENDCHAR
STARTCHAR U+016e latin capital letter U with ring above
ENCODING 217
SWIDTH 480 0
DWIDTH 10 0
BBX 10 20 0 -4
BITMAP
0000
1F00
3180
3180
1F00
0000
71C0
71C0
71C0
71C0
71C0
71C0
71C0
7BC0
3F80
1F00
0000
0000
0000
0000
ENDCHAR
STARTCHAR U+00da latin capital letter U with acute
ENCODING 218
SWIDTH 480 0
DWIDTH 10 0
BBX 10 20 0 -4
BITMAP
0000
0700
0E00
1800
0000
71C0
71C0
71C0
71C0
71C0
71C0
71C0
71C0
7BC0
3F80
1F00
0000
0000
0000
0000
ENDCHAR
STARTCHAR U+0170 latin capital letter U with double acute
ENCODING 219
SWIDTH 480 0
DWIDTH 10 0
BBX 10 20 0 -4
BITMAP
0000
0CC0
1980
3300
0000
71C0
71C0
71C0
71C0
71C0
71C0
71C0
71C0
7BC0
3F80
1F00
0000
0000
0000
0000
ENDCHAR
STARTCHAR U+00dc latin capital letter U with diaresis
ENCODING 220
SWIDTH 480 0
DWIDTH 10 0
BBX 10 20 0 -4
BITMAP
0000
3180
3180
3180
0000
71C0
71C0
71C0
71C0
71C0
71C0
71C0
71C0
7BC0
3F80
1F00
0000
0000
0000
0000
ENDCHAR
STARTCHAR U+00dd latin capital letter Y with acute
ENCODING 221
SWIDTH 480 0
DWIDTH 10 0
BBX 10 20 0 -4
BITMAP
0000
0700
0E00
1800
0000
71C0
71C0
71C0
7BC0
3F80
1F00
0E00
0E00
0E00
0E00
0E00
0000
0000
0000
0000
ENDCHAR
STARTCHAR U+0162 latin capital letter T with cedilla
ENCODING 222
SWIDTH 480 0
DWIDTH 10 0
BBX 10 20 0 -4
BITMAP
0000
0000
0000
7FC0
7FC0
0E00
0E00
0E00
0E00
0E00
0E00
0E00
0E00
0E00
0E00
0E00
0700
0380
0F80
0F00
ENDCHAR
STARTCHAR U+00df latin small letter sharp s
ENCODING 223
SWIDTH 480 0
DWIDTH 10 0
BBX 10 20 0 -4
BITMAP
0000
0000
0000
1F00
3F80
7980
7180
7300
7600
7600
7700
7380
71C0
71C0
77C0
7780
7000
7000
0000
0000
ENDCHAR
STARTCHAR U+0155 latin small letter r with acute
ENCODING 224
SWIDTH 480 0
DWIDTH 10 0
BBX 10 20 0 -4
BITMAP
0000
0000
0000
0700
0E00
1800
0000
7780
7FC0
78C0
7000
7000
7000
7000
7000
7000
0000
0000
0000
0000
ENDCHAR
STARTCHAR U+00e1 latin small letter a with acute
ENCODING 225
SWIDTH 480 0
DWIDTH 10 0
BBX 10 20 0 -4
BITMAP
0000
0000
0000
0700
0E00
1800
0000
3F00
3F80
01C0
1FC0
3FC0
71C0
73C0
7FC0
3DC0
0000
0000
0000
0000
ENDCHAR
STARTCHAR U+00e2 latin small letter a with circumflex
ENCODING 226
SWIDTH 480 0
DWIDTH 10 0
BBX 10 20 0 -4
BITMAP
0000
0000
0000
0E00
1B00
3180
0000
3F00
3F80
01C0
1FC0
3FC0
71C0
73C0
7FC0
3DC0
0000
0000
0000
0000
ENDCHAR
STARTCHAR U+0103 latin small letter a with breve
ENCODING 227
SWIDTH 480 0
DWIDTH 10 0
BBX 10 20 0 -4
BITMAP
0000
0000
0000
2080
3180
1F00
0000
3F00
3F80
01C0
1FC0
3FC0
71C0
73C0
7FC0
3DC0
0000
0000
0000
0000
ENDCHAR
STARTCHAR U+00e4 latin small letter a with diaresis
ENCODING 228
SWIDTH 480 0
DWIDTH 10 0
BBX 10 20 0 -4
BITMAP
0000
0000
0000
3180
3180
3180
0000
3F00
3F80
01C0
1FC0
3FC0
71C0
73C0
7FC0
3DC0
0000
0000
0000
0000
ENDCHAR
STARTCHAR U+013a latin small letter l with acute
ENCODING 229
SWIDTH 480 0
DWIDTH 10 0
BBX 10 20 0 -4
BITMAP
0000
0700
0E00
1800
0000
1C00
1C00
1C00
1C00
1C00
1C00
1C00
1C00
1E00
0F80
0780
0000
0000
0000
0000
ENDCHAR
STARTCHAR U+0107 latin small letter c with acute
ENCODING 230
SWIDTH 480 0
DWIDTH 10 0
BBX 10 20 0 -4
BITMAP
0000
0000
0000
0700
0E00
1800
0000
1F80
3FC0
78C0
7000
7000
7000
78C0
3FC0
1F80
0000
0000
0000
0000
ENDCHAR
STARTCHAR U+00e7 latin small letter c with cedilla
ENCODING 231
SWIDTH 480 0
DWIDTH 10 0
BBX 10 20 0 -4
BITMAP
0000
0000
0000
0000
0000
0000
0000
1F80
3FC0
78C0
7000
7000
7000
78C0
3FC0
1F80
0700
0380
0F80
0F00
ENDCHAR
STARTCHAR U+010d latin small letter c with caron
ENCODING 232
SWIDTH 480 0
DWIDTH 10 0
BBX 10 20 0 -4
BITMAP
0000
0000
0000
3180
1B00
0E00
0000
1F80
3FC0
78C0
7000
7000
7000
78C0
3FC0
1F80
0000
0000
0000
0000
ENDCHAR
STARTCHAR U+00e9 latin small letter e with acute
ENCODING 233
SWIDTH 480 0
DWIDTH 10 0
BBX 10 20 0 -4
BITMAP
0000
0000
0000
0700
0E00
1800
0000
1F00
3F80
71C0
7FC0
7FC0
7000
78C0
3FC0
1F80
0000
0000
0000
0000
ENDCHAR
STARTCHAR U+0119 latin small letter e with ogonek
ENCODING 234
SWIDTH 480 0
DWIDTH 10 0
BBX 10 20 0 -4
BITMAP
0000
0000
0000
0000
0000
0000
0000
1F00
3F80
71C0
7FC0
7FC0
7000
78C0
3FC0
1F80
0600
0E00
0F80
0780
ENDCHAR
STARTCHAR U+00eb latin small letter e with diaresis
ENCODING 235
SWIDTH 480 0
DWIDTH 10 0
BBX 10 20 0 -4
BITMAP
0000
0000
0000
3180
3180
3180
0000
1F00
3F80
71C0
7FC0
7FC0
7000
78C0
3FC0
1F80
0000
0000
0000
0000
ENDCHAR
STARTCHAR U+011b latin small letter e with caron
ENCODING 236
SWIDTH 480 0
DWIDTH 10 0
BBX 10 20 0 -4
BITMAP
0000
0000
0000
3180
1B00
0E00
0000
1F00
3F80
71C0
7FC0
7FC0
7000
78C0
3FC0
1F80
0000
0000
0000
0000
ENDCHAR
STARTCHAR U+00ed latin small letter i with acute
ENCODING 237
SWIDTH 480 0
DWIDTH 10 0
BBX 10 20 0 -4
BITMAP
0000
0000
0000
0700
0E00
1800
0000
3E00
3E00
0E00
0E00
0E00
0E00
0E00
0E00
0E00
0000
0000
0000
0000
ENDCHAR
STARTCHAR U+00ee latin small letter i with circumflex
ENCODING 238
SWIDTH 480 0
DWIDTH 10 0
BBX 10 20 0 -4
BITMAP
0000
0000
0000
0E00
1B00
3180
0000
3E00
3E00
0E00
0E00
0E00
0E00
0E00
0E00
0E00
0000
0000
0000
0000
ENDCHAR
STARTCHAR U+010f latin small letter d with caron
ENCODING 239
SWIDTH 480 0
DWIDTH 10 0
BBX 10 20 0 -4
BITMAP
0000
3180
1B00
0E00
01C0
01C0
01C0
1DC0
3FC0
7BC0
71C0
71C0
71C0
7BC0
3FC0
1DC0
0000
0000
0000
0000
ENDCHAR
STARTCHAR U+0111 latin small letter d with stroke
ENCODING 240
SWIDTH 480 0
DWIDTH 10 0
BBX 10 20 0 -4
BITMAP
0000
0000
0000
0380
0FC0
0FC0
0380
3B80
7F80
F780
E380
E380
E380
F780
7F80
3B80
0000
0000
0000
0000
ENDCHAR
STARTCHAR U+0144 latin small letter n with acute
ENCODING 241
SWIDTH 480 0
DWIDTH 10 0
BBX 10 20 0 -4
BITMAP
0000
0000
0000
0700
0E00
1800
0000
7700
7F80
7BC0
71C0
71C0
71C0
71C0
71C0
71C0
0000
0000
0000
0000
ENDCHAR
STARTCHAR U+0148 latin small letter n with caron
ENCODING 242
SWIDTH 480 0
DWIDTH 10 0
BBX 10 20 0 -4
BITMAP
0000
0000
0000
3180
1B00
0E00
0000
7700
7F80
7BC0
71C0
71C0
71C0
71C0
71C0
71C0
0000
0000
0000
0000
ENDCHAR
STARTCHAR U+00f3 latin small letter o with acute
ENCODING 243
SWIDTH 480 0
DWIDTH 10 0
BBX 10 20 0 -4
BITMAP
0000
0000
0000
0700
0E00
1800
0000
1F00
3F80
7BC0
71C0
71C0
71C0
7BC0
3F80
1F00
0000
0000
0000
0000
ENDCHAR
STARTCHAR U+00f4 latin small letter o with circumflex
ENCODING 244
SWIDTH 480 0
DWIDTH 10 0
BBX 10 20 0 -4
BITMAP
0000
0000
0000
0E00
1B00
3180
0000
1F00
3F80
7BC0
71C0
71C0
71C0
7BC0
3F80
1F00
0000
0000
0000
0000
ENDCHAR
STARTCHAR U+0151 latin small letter o with double acute
ENCODING 245
SWIDTH 480 0
DWIDTH 10 0
BBX 10 20 0 -4
BITMAP
0000
0000
0000
0CC0
1980
3300
0000
1F00
3F80
7BC0
71C0
71C0
71C0
7BC0
3F80
1F00
0000
0000
0000
0000
ENDCHAR
STARTCHAR U+00f6 latin small letter o with diaresis
ENCODING 246
SWIDTH 480 0
DWIDTH 10 0
BBX 10 20 0 -4
BITMAP
0000
0000
0000
3180
3180
3180
0000
1F00
3F80
7BC0
71C0
71C0
71C0
7BC0
3F80
1F00
0000
0000
0000
0000
ENDCHAR
STARTCHAR U+00f7 division sign
ENCODING 247
SWIDTH 480 0
DWIDTH 10 0
BBX 10 20 0 -4
BITMAP
0000
0000
0000
0000
0000
0E00
0E00
0E00
0000
7FC0
7FC0
0000
0E00
0E00
0E00
0000
0000
0000
0000
0000
ENDCHAR
STARTCHAR U+0159 latin small letter r with caron
ENCODING 248
SWIDTH 480 0
DWIDTH 10 0
BBX 10 20 0 -4
BITMAP
0000
0000
0000
3180
1B00
0E00
0000
7780
7FC0
78C0
7000
7000
7000
7000
7000
7000
0000
0000
0000
0000
ENDCHAR
STARTCHAR U+016f latin small letter u with ring above
ENCODING 249
SWIDTH 480 0
DWIDTH 10 0
BBX 10 20 0 -4
BITMAP
0000
0000
1F00
3180
3180
1F00
0000
71C0
71C0
71C0
71C0
71C0
71C0
7BC0
3FC0
1DC0
0000
0000
0000
0000
ENDCHAR
STARTCHAR U+00fa latin small letter u with acute
ENCODING 250
SWIDTH 480 0
DWIDTH 10 0
BBX 10 20 0 -4
BITMAP
0000
0000
0000
0700
0E00
1800
0000
71C0
71C0
71C0
71C0
71C0
71C0
7BC0
3FC0
1DC0
0000
0000
0000
0000
ENDCHAR
STARTCHAR U+0171 latin small letter u with double acute
ENCODING 251
SWIDTH 480 0
DWIDTH 10 0
BBX 10 20 0 -4
BITMAP
0000
0000
0000
0CC0
1980
3300
0000
71C0
71C0
71C0
71C0
71C0
71C0
7BC0
3FC0
1DC0
0000
0000
0000
0000
ENDCHAR
STARTCHAR U+00fc latin small letter u with diaresis
ENCODING 252
SWIDTH 480 0
DWIDTH 10 0
BBX 10 20 0 -4
BITMAP
0000
0000
0000
3180
3180
3180
0000
71C0
71C0
71C0
71C0
71C0
71C0
7BC0
3FC0
1DC0
0000
0000
0000
0000
ENDCHAR
STARTCHAR U+00fd latin small letter y with acute
ENCODING 253
SWIDTH 480 0
DWIDTH 10 0
BBX 10 20 0 -4
BITMAP
0000
0000
0000
0700
0E00
1800
0000
71C0
71C0
71C0
71C0
71C0
7BC0
3FC0
1DC0
01C0
21C0
73C0
3F80
1F00
ENDCHAR
STARTCHAR U+0163 latin small letter t with cedilla
ENCODING 254
SWIDTH 480 0
DWIDTH 10 0
BBX 10 20 0 -4
BITMAP
0000
0000
0000
0000
3800
3800
3800
7F80
7F80
3800
3800
3800
3800
3CC0
1FC0
0F80
0700
0380
0F80
0F00
ENDCHAR
STARTCHAR U+02d9 dot above
ENCODING 255
SWIDTH 480 0
DWIDTH 10 0
BBX 10 20 0 -4
BITMAP
0000
0000
0000
0E00
0E00
0E00
0000
0000
0000
0000
0000
0000
0000
0000
0000
0000
0000
0000
0000
0000
ENDCHAR
ENDFONT
