STARTFONT 2.1
FONT -jmk-Neep-Bold-R-SemiCondensed-AltGlyph-13-120-75-75-C-60-US-ASCII
SIZE 12 75 75
FONTBOUNDINGBOX 6 13 0 -2
STARTPROPERTIES 29
FONTNAME_REGISTRY ""
FOUNDRY "jmk"
FAMILY_NAME "Neep"
WEIGHT_NAME "Bold"
SLANT "R"
SETWIDTH_NAME "SemiCondensed"
ADD_STYLE_NAME "AltGlyph"
PIXEL_SIZE 13
POINT_SIZE 120
RESOLUTION_X 75
RESOLUTION_Y 75
SPACING "C"
AVERAGE_WIDTH 60
CHARSET_REGISTRY "US"
CHARSET_ENCODING "ASCII"
COPYRIGHT "Jim Knoble <jmknoble@pobox.com>"
WEIGHT 220
RESOLUTION 75
X_HEIGHT 6
FIGURE_WIDTH 6
QUAD_WIDTH 6
FONT_ASCENT 11
FONT_DESCENT 2
_XMBDFED_INFO "Edited with xmbdfed 3.2."
RELATIVE_WEIGHT 70
RELATIVE_SETWIDTH 40
CAP_HEIGHT 9
UNDERLINE_POSITION -1
UNDERLINE_THICKNESS 1
ENDPROPERTIES
CHARS 1
STARTCHAR U+0026 ampersand
ENCODING 38
SWIDTH 480 0
DWIDTH 6 0
BBX 6 13 0 -2
BITMAP
00
00
00
60
F0
D0
60
F8
D0
F8
68
00
00
ENDCHAR
ENDFONT
