STARTFONT 2.1
FONT -jmk-Neep-Medium-R-Normal-AltGlyph-20-180-75-75-C-100-US-ASCII
SIZE 20 75 75
FONTBOUNDINGBOX 10 20 0 -4
STARTPROPERTIES 29
FONTNAME_REGISTRY ""
FOUNDRY "jmk"
FAMILY_NAME "Neep"
WEIGHT_NAME "Medium"
SLANT "R"
SETWIDTH_NAME "Normal"
ADD_STYLE_NAME "AltGlyph"
PIXEL_SIZE 20
POINT_SIZE 180
RESOLUTION_X 75
RESOLUTION_Y 75
SPACING "C"
AVERAGE_WIDTH 100
CHARSET_REGISTRY "US"
CHARSET_ENCODING "ASCII"
COPYRIGHT "Jim Knoble <jmknoble@pobox.com>"
WEIGHT 150
RESOLUTION 75
X_HEIGHT 9
FIGURE_WIDTH 10
QUAD_WIDTH 10
FONT_ASCENT 16
FONT_DESCENT 4
_XMBDFED_INFO "Edited with xmbdfed 3.2."
RELATIVE_WEIGHT 50
RELATIVE_SETWIDTH 50
CAP_HEIGHT 13
UNDERLINE_POSITION -2
UNDERLINE_THICKNESS 1
ENDPROPERTIES
CHARS 1
STARTCHAR U+0026 ampersand
ENCODING 38
SWIDTH 480 0
DWIDTH 10 0
BBX 10 20 0 -4
BITMAP
0000
0000
0000
0000
3C00
6600
6600
6C00
3800
3800
6D80
6780
6300
6300
3780
1D80
0000
0000
0000
0000
ENDCHAR
ENDFONT
