STARTFONT 2.1
FONT -jmk-Neep-Bold-R-Normal--24-240-75-75-C-120-ISO8859-15
SIZE 24 75 75
FONTBOUNDINGBOX 12 24 0 -5
STARTPROPERTIES 29
FONTNAME_REGISTRY ""
FOUNDRY "jmk"
FAMILY_NAME "Neep"
WEIGHT_NAME "Bold"
SLANT "R"
SETWIDTH_NAME "Normal"
ADD_STYLE_NAME ""
PIXEL_SIZE 24
POINT_SIZE 240
RESOLUTION_X 75
RESOLUTION_Y 75
SPACING "C"
AVERAGE_WIDTH 120
CHARSET_REGISTRY "ISO8859"
CHARSET_ENCODING "15"
COPYRIGHT "Jim Knoble <jmknoble@pobox.com>"
WEIGHT 188
RESOLUTION 75
X_HEIGHT 11
FIGURE_WIDTH 12
QUAD_WIDTH 12
FONT_ASCENT 19
FONT_DESCENT 5
_XMBDFED_INFO "Edited with xmbdfed 3.7."
RELATIVE_WEIGHT 70
RELATIVE_SETWIDTH 50
CAP_HEIGHT 16
UNDERLINE_POSITION -2
UNDERLINE_THICKNESS 2
ENDPROPERTIES
CHARS 128
STARTCHAR nil
ENCODING 128
SWIDTH 480 0
DWIDTH 12 0
BBX 12 24 0 -5
BITMAP
0000
7FE0
4020
4020
4020
4020
4020
4020
4020
4020
4020
4020
4020
4020
4020
4020
4020
4020
4020
4020
4020
4020
7FE0
0000
ENDCHAR
STARTCHAR nil
ENCODING 129
SWIDTH 480 0
DWIDTH 12 0
BBX 12 24 0 -5
BITMAP
0000
7FE0
4020
4020
4020
4020
4020
4020
4020
4020
4020
4020
4020
4020
4020
4020
4020
4020
4020
4020
4020
4020
7FE0
0000
ENDCHAR
STARTCHAR nil
ENCODING 130
SWIDTH 480 0
DWIDTH 12 0
BBX 12 24 0 -5
BITMAP
0000
7FE0
4020
4020
4020
4020
4020
4020
4020
4020
4020
4020
4020
4020
4020
4020
4020
4020
4020
4020
4020
4020
7FE0
0000
ENDCHAR
STARTCHAR nil
ENCODING 131
SWIDTH 480 0
DWIDTH 12 0
BBX 12 24 0 -5
BITMAP
0000
7FE0
4020
4020
4020
4020
4020
4020
4020
4020
4020
4020
4020
4020
4020
4020
4020
4020
4020
4020
4020
4020
7FE0
0000
ENDCHAR
STARTCHAR nil
ENCODING 132
SWIDTH 480 0
DWIDTH 12 0
BBX 12 24 0 -5
BITMAP
0000
7FE0
4020
4020
4020
4020
4020
4020
4020
4020
4020
4020
4020
4020
4020
4020
4020
4020
4020
4020
4020
4020
7FE0
0000
ENDCHAR
STARTCHAR nil
ENCODING 133
SWIDTH 480 0
DWIDTH 12 0
BBX 12 24 0 -5
BITMAP
0000
7FE0
4020
4020
4020
4020
4020
4020
4020
4020
4020
4020
4020
4020
4020
4020
4020
4020
4020
4020
4020
4020
7FE0
0000
ENDCHAR
STARTCHAR nil
ENCODING 134
SWIDTH 480 0
DWIDTH 12 0
BBX 12 24 0 -5
BITMAP
0000
7FE0
4020
4020
4020
4020
4020
4020
4020
4020
4020
4020
4020
4020
4020
4020
4020
4020
4020
4020
4020
4020
7FE0
0000
ENDCHAR
STARTCHAR nil
ENCODING 135
SWIDTH 480 0
DWIDTH 12 0
BBX 12 24 0 -5
BITMAP
0000
7FE0
4020
4020
4020
4020
4020
4020
4020
4020
4020
4020
4020
4020
4020
4020
4020
4020
4020
4020
4020
4020
7FE0
0000
ENDCHAR
STARTCHAR nil
ENCODING 136
SWIDTH 480 0
DWIDTH 12 0
BBX 12 24 0 -5
BITMAP
0000
7FE0
4020
4020
4020
4020
4020
4020
4020
4020
4020
4020
4020
4020
4020
4020
4020
4020
4020
4020
4020
4020
7FE0
0000
ENDCHAR
STARTCHAR nil
ENCODING 137
SWIDTH 480 0
DWIDTH 12 0
BBX 12 24 0 -5
BITMAP
0000
7FE0
4020
4020
4020
4020
4020
4020
4020
4020
4020
4020
4020
4020
4020
4020
4020
4020
4020
4020
4020
4020
7FE0
0000
ENDCHAR
STARTCHAR nil
ENCODING 138
SWIDTH 480 0
DWIDTH 12 0
BBX 12 24 0 -5
BITMAP
0000
7FE0
4020
4020
4020
4020
4020
4020
4020
4020
4020
4020
4020
4020
4020
4020
4020
4020
4020
4020
4020
4020
7FE0
0000
ENDCHAR
STARTCHAR nil
ENCODING 139
SWIDTH 480 0
DWIDTH 12 0
BBX 12 24 0 -5
BITMAP
0000
7FE0
4020
4020
4020
4020
4020
4020
4020
4020
4020
4020
4020
4020
4020
4020
4020
4020
4020
4020
4020
4020
7FE0
0000
ENDCHAR
STARTCHAR nil
ENCODING 140
SWIDTH 480 0
DWIDTH 12 0
BBX 12 24 0 -5
BITMAP
0000
7FE0
4020
4020
4020
4020
4020
4020
4020
4020
4020
4020
4020
4020
4020
4020
4020
4020
4020
4020
4020
4020
7FE0
0000
ENDCHAR
STARTCHAR nil
ENCODING 141
SWIDTH 480 0
DWIDTH 12 0
BBX 12 24 0 -5
BITMAP
0000
7FE0
4020
4020
4020
4020
4020
4020
4020
4020
4020
4020
4020
4020
4020
4020
4020
4020
4020
4020
4020
4020
7FE0
0000
ENDCHAR
STARTCHAR nil
ENCODING 142
SWIDTH 480 0
DWIDTH 12 0
BBX 12 24 0 -5
BITMAP
0000
7FE0
4020
4020
4020
4020
4020
4020
4020
4020
4020
4020
4020
4020
4020
4020
4020
4020
4020
4020
4020
4020
7FE0
0000
ENDCHAR
STARTCHAR nil
ENCODING 143
SWIDTH 480 0
DWIDTH 12 0
BBX 12 24 0 -5
BITMAP
0000
7FE0
4020
4020
4020
4020
4020
4020
4020
4020
4020
4020
4020
4020
4020
4020
4020
4020
4020
4020
4020
4020
7FE0
0000
ENDCHAR
STARTCHAR nil
ENCODING 144
SWIDTH 480 0
DWIDTH 12 0
BBX 12 24 0 -5
BITMAP
0000
7FE0
4020
4020
4020
4020
4020
4020
4020
4020
4020
4020
4020
4020
4020
4020
4020
4020
4020
4020
4020
4020
7FE0
0000
ENDCHAR
STARTCHAR nil
ENCODING 145
SWIDTH 480 0
DWIDTH 12 0
BBX 12 24 0 -5
BITMAP
0000
7FE0
4020
4020
4020
4020
4020
4020
4020
4020
4020
4020
4020
4020
4020
4020
4020
4020
4020
4020
4020
4020
7FE0
0000
ENDCHAR
STARTCHAR nil
ENCODING 146
SWIDTH 480 0
DWIDTH 12 0
BBX 12 24 0 -5
BITMAP
0000
7FE0
4020
4020
4020
4020
4020
4020
4020
4020
4020
4020
4020
4020
4020
4020
4020
4020
4020
4020
4020
4020
7FE0
0000
ENDCHAR
STARTCHAR nil
ENCODING 147
SWIDTH 480 0
DWIDTH 12 0
BBX 12 24 0 -5
BITMAP
0000
7FE0
4020
4020
4020
4020
4020
4020
4020
4020
4020
4020
4020
4020
4020
4020
4020
4020
4020
4020
4020
4020
7FE0
0000
ENDCHAR
STARTCHAR nil
ENCODING 148
SWIDTH 480 0
DWIDTH 12 0
BBX 12 24 0 -5
BITMAP
0000
7FE0
4020
4020
4020
4020
4020
4020
4020
4020
4020
4020
4020
4020
4020
4020
4020
4020
4020
4020
4020
4020
7FE0
0000
ENDCHAR
STARTCHAR nil
ENCODING 149
SWIDTH 480 0
DWIDTH 12 0
BBX 12 24 0 -5
BITMAP
0000
7FE0
4020
4020
4020
4020
4020
4020
4020
4020
4020
4020
4020
4020
4020
4020
4020
4020
4020
4020
4020
4020
7FE0
0000
ENDCHAR
STARTCHAR nil
ENCODING 150
SWIDTH 480 0
DWIDTH 12 0
BBX 12 24 0 -5
BITMAP
0000
7FE0
4020
4020
4020
4020
4020
4020
4020
4020
4020
4020
4020
4020
4020
4020
4020
4020
4020
4020
4020
4020
7FE0
0000
ENDCHAR
STARTCHAR nil
ENCODING 151
SWIDTH 480 0
DWIDTH 12 0
BBX 12 24 0 -5
BITMAP
0000
7FE0
4020
4020
4020
4020
4020
4020
4020
4020
4020
4020
4020
4020
4020
4020
4020
4020
4020
4020
4020
4020
7FE0
0000
ENDCHAR
STARTCHAR nil
ENCODING 152
SWIDTH 480 0
DWIDTH 12 0
BBX 12 24 0 -5
BITMAP
0000
7FE0
4020
4020
4020
4020
4020
4020
4020
4020
4020
4020
4020
4020
4020
4020
4020
4020
4020
4020
4020
4020
7FE0
0000
ENDCHAR
STARTCHAR nil
ENCODING 153
SWIDTH 480 0
DWIDTH 12 0
BBX 12 24 0 -5
BITMAP
0000
7FE0
4020
4020
4020
4020
4020
4020
4020
4020
4020
4020
4020
4020
4020
4020
4020
4020
4020
4020
4020
4020
7FE0
0000
ENDCHAR
STARTCHAR nil
ENCODING 154
SWIDTH 480 0
DWIDTH 12 0
BBX 12 24 0 -5
BITMAP
0000
7FE0
4020
4020
4020
4020
4020
4020
4020
4020
4020
4020
4020
4020
4020
4020
4020
4020
4020
4020
4020
4020
7FE0
0000
ENDCHAR
STARTCHAR nil
ENCODING 155
SWIDTH 480 0
DWIDTH 12 0
BBX 12 24 0 -5
BITMAP
0000
7FE0
4020
4020
4020
4020
4020
4020
4020
4020
4020
4020
4020
4020
4020
4020
4020
4020
4020
4020
4020
4020
7FE0
0000
ENDCHAR
STARTCHAR nil
ENCODING 156
SWIDTH 480 0
DWIDTH 12 0
BBX 12 24 0 -5
BITMAP
0000
7FE0
4020
4020
4020
4020
4020
4020
4020
4020
4020
4020
4020
4020
4020
4020
4020
4020
4020
4020
4020
4020
7FE0
0000
ENDCHAR
STARTCHAR nil
ENCODING 157
SWIDTH 480 0
DWIDTH 12 0
BBX 12 24 0 -5
BITMAP
0000
7FE0
4020
4020
4020
4020
4020
4020
4020
4020
4020
4020
4020
4020
4020
4020
4020
4020
4020
4020
4020
4020
7FE0
0000
ENDCHAR
STARTCHAR nil
ENCODING 158
SWIDTH 480 0
DWIDTH 12 0
BBX 12 24 0 -5
BITMAP
0000
7FE0
4020
4020
4020
4020
4020
4020
4020
4020
4020
4020
4020
4020
4020
4020
4020
4020
4020
4020
4020
4020
7FE0
0000
ENDCHAR
STARTCHAR nil
ENCODING 159
SWIDTH 480 0
DWIDTH 12 0
BBX 12 24 0 -5
BITMAP
0000
7FE0
4020
4020
4020
4020
4020
4020
4020
4020
4020
4020
4020
4020
4020
4020
4020
4020
4020
4020
4020
4020
7FE0
0000
ENDCHAR
STARTCHAR U+00a0 no-break space
ENCODING 160
SWIDTH 480 0
DWIDTH 12 0
BBX 12 24 0 -5
BITMAP
0000
0000
0000
0000
0000
0000
0000
0000
0000
0000
0000
0000
0000
0000
0000
0000
0000
0000
0000
0000
0000
0000
0000
0000
ENDCHAR
STARTCHAR U+00a1 inverted exclamation mark
ENCODING 161
SWIDTH 480 0
DWIDTH 12 0
BBX 12 24 0 -5
BITMAP
0000
0000
0000
0000
0000
0000
0000
0000
0700
0700
0700
0000
0000
0700
0700
0700
0700
0700
0700
0700
0700
0700
0700
0700
ENDCHAR
STARTCHAR U+00a2 cent sign
ENCODING 162
SWIDTH 480 0
DWIDTH 12 0
BBX 12 24 0 -5
BITMAP
0000
0000
0000
0000
0600
0600
1F80
3FC0
7FE0
78C0
7000
7000
78C0
7FE0
3FC0
1F80
0600
0600
0000
0000
0000
0000
0000
0000
ENDCHAR
STARTCHAR U+00a3 pound sign
ENCODING 163
SWIDTH 480 0
DWIDTH 12 0
BBX 12 24 0 -5
BITMAP
0000
0000
0000
0780
0FC0
1FE0
1CC0
1C00
1C00
1C00
7F80
7F80
7F80
1C00
1C00
1C00
7FF0
7FF0
7FF0
0000
0000
0000
0000
0000
ENDCHAR
STARTCHAR U+20ac euro sign
ENCODING 164
SWIDTH 480 0
DWIDTH 12 0
BBX 12 24 0 -5
BITMAP
0000
0000
0000
0FC0
1FE0
3FF0
3C60
3800
7FC0
FF80
3800
3800
7F80
FF00
3800
3C60
3FF0
1FE0
0FC0
0000
0000
0000
0000
0000
ENDCHAR
STARTCHAR U+00a5 yen sign
ENCODING 165
SWIDTH 480 0
DWIDTH 12 0
BBX 12 24 0 -5
BITMAP
0000
0000
0000
7070
7070
7070
38E0
38E0
1DC0
7FF0
7FF0
7FF0
0700
7FF0
7FF0
7FF0
0700
0700
0700
0000
0000
0000
0000
0000
ENDCHAR
STARTCHAR U+0160 latin capital letter S with caron
ENCODING 166
SWIDTH 480 0
DWIDTH 12 0
BBX 12 24 0 -5
BITMAP
0000
38E0
1DC0
0F80
0700
0000
1FC0
3FE0
7FF0
7070
7820
3F00
1FC0
07E0
20F0
7070
7FF0
3FE0
1FC0
0000
0000
0000
0000
0000
ENDCHAR
STARTCHAR U+00a7 section sign
ENCODING 167
SWIDTH 480 0
DWIDTH 12 0
BBX 12 24 0 -5
BITMAP
0000
0000
0000
1FE0
3FE0
3FE0
3800
1C00
0F80
1FC0
3FE0
38E0
38E0
3FE0
1FC0
0F80
01C0
00E0
3FE0
3FE0
3FC0
0000
0000
0000
ENDCHAR
STARTCHAR U+0161 latin small letter s with caron
ENCODING 168
SWIDTH 480 0
DWIDTH 12 0
BBX 12 24 0 -5
BITMAP
0000
0000
38E0
1DC0
0F80
0700
0000
0000
1FC0
3FE0
7FF0
7060
7F00
3FE0
07F0
3070
7FF0
3FE0
1FC0
0000
0000
0000
0000
0000
ENDCHAR
STARTCHAR U+00a9 copyright sign
ENCODING 169
SWIDTH 480 0
DWIDTH 12 0
BBX 12 24 0 -5
BITMAP
0000
0000
0F00
30C0
4020
4020
8F10
9F90
9D90
9C10
9C10
9D90
9F90
8F10
4020
4020
30C0
0F00
0000
0000
0000
0000
0000
0000
ENDCHAR
STARTCHAR U+00aa feminine ordinal indicator
ENCODING 170
SWIDTH 480 0
DWIDTH 12 0
BBX 12 24 0 -5
BITMAP
0000
0000
0000
1F80
1FC0
00E0
1FE0
3FE0
38E0
3FE0
1EE0
0000
3FE0
3FE0
3FE0
0000
0000
0000
0000
0000
0000
0000
0000
0000
ENDCHAR
STARTCHAR U+00ab left-pointing double angle quotation mark
ENCODING 171
SWIDTH 480 0
DWIDTH 12 0
BBX 12 24 0 -5
BITMAP
0000
0000
0000
0000
0000
0000
0420
0E70
1CE0
39C0
7380
E700
7380
39C0
1CE0
0E70
0420
0000
0000
0000
0000
0000
0000
0000
ENDCHAR
STARTCHAR U+00ac not sign
ENCODING 172
SWIDTH 480 0
DWIDTH 12 0
BBX 12 24 0 -5
BITMAP
0000
0000
0000
0000
0000
0000
0000
0000
0000
0000
7FE0
7FE0
7FE0
00E0
00E0
00E0
00E0
0000
0000
0000
0000
0000
0000
0000
ENDCHAR
STARTCHAR U+00ad soft hyphen
ENCODING 173
SWIDTH 480 0
DWIDTH 12 0
BBX 12 24 0 -5
BITMAP
0000
0000
0000
0000
0000
0000
0000
0000
0000
0000
1F80
1F80
1F80
0000
0000
0000
0000
0000
0000
0000
0000
0000
0000
0000
ENDCHAR
STARTCHAR U+00ae registered sign
ENCODING 174
SWIDTH 480 0
DWIDTH 12 0
BBX 12 24 0 -5
BITMAP
0000
0000
0F00
30C0
4020
4020
9F10
9F90
9D90
9C10
9C10
9C10
9C10
9C10
4020
4020
30C0
0F00
0000
0000
0000
0000
0000
0000
ENDCHAR
STARTCHAR U+00af macron
ENCODING 175
SWIDTH 480 0
DWIDTH 12 0
BBX 12 24 0 -5
BITMAP
0000
0000
0000
7FE0
7FE0
7FE0
0000
0000
0000
0000
0000
0000
0000
0000
0000
0000
0000
0000
0000
0000
0000
0000
0000
0000
ENDCHAR
STARTCHAR U+00b0 degree sign
ENCODING 176
SWIDTH 480 0
DWIDTH 12 0
BBX 12 24 0 -5
BITMAP
0000
0000
0000
0F00
1F80
3DC0
38C0
3DC0
1F80
0F00
0000
0000
0000
0000
0000
0000
0000
0000
0000
0000
0000
0000
0000
0000
ENDCHAR
STARTCHAR U+00b1 plus-minus sign
ENCODING 177
SWIDTH 480 0
DWIDTH 12 0
BBX 12 24 0 -5
BITMAP
0000
0000
0000
0000
0000
0700
0700
0700
0700
7FF0
7FF0
7FF0
0700
0700
0700
0700
0000
7FF0
7FF0
7FF0
0000
0000
0000
0000
ENDCHAR
STARTCHAR U+00b2 superscript two
ENCODING 178
SWIDTH 480 0
DWIDTH 12 0
BBX 12 24 0 -5
BITMAP
0000
0000
0000
1FC0
3FE0
3FE0
19E0
03C0
0F80
1E00
3FE0
3FE0
3FE0
0000
0000
0000
0000
0000
0000
0000
0000
0000
0000
0000
ENDCHAR
STARTCHAR U+00b3 superscript three
ENCODING 179
SWIDTH 480 0
DWIDTH 12 0
BBX 12 24 0 -5
BITMAP
0000
0000
0000
3FE0
3FE0
3FC0
0380
07C0
07E0
00E0
3FE0
3FE0
1FC0
0000
0000
0000
0000
0000
0000
0000
0000
0000
0000
0000
ENDCHAR
STARTCHAR U+017d latin capital letter Z with caron
ENCODING 180
SWIDTH 480 0
DWIDTH 12 0
BBX 12 24 0 -5
BITMAP
0000
38E0
1DC0
0F80
0700
0000
7FF0
7FF0
7FF0
00F0
01E0
03C0
0780
0F00
1E00
3C00
7FF0
7FF0
7FF0
0000
0000
0000
0000
0000
ENDCHAR
STARTCHAR U+00b5 micro sign
ENCODING 181
SWIDTH 480 0
DWIDTH 12 0
BBX 12 24 0 -5
BITMAP
0000
0000
0000
0000
0000
0000
0000
0000
71C0
71C0
71C0
71C0
71C0
71C0
71C0
71C0
7FF0
7FF0
7EF0
7000
7000
7000
0000
0000
ENDCHAR
STARTCHAR U+00b6 pilcrow sign
ENCODING 182
SWIDTH 480 0
DWIDTH 12 0
BBX 12 24 0 -5
BITMAP
0000
0000
0000
0000
3FF0
7FF0
FFF0
FCE0
FCE0
FCE0
FCE0
7CE0
3CE0
1CE0
1CE0
1CE0
1CE0
1CE0
1CE0
0000
0000
0000
0000
0000
ENDCHAR
STARTCHAR U+00b7 middle dot
ENCODING 183
SWIDTH 480 0
DWIDTH 12 0
BBX 12 24 0 -5
BITMAP
0000
0000
0000
0000
0000
0000
0000
0000
0000
0700
0F80
0F80
0700
0000
0000
0000
0000
0000
0000
0000
0000
0000
0000
0000
ENDCHAR
STARTCHAR U+017e latin small letter z with caron
ENCODING 184
SWIDTH 480 0
DWIDTH 12 0
BBX 12 24 0 -5
BITMAP
0000
0000
38E0
1DC0
0F80
0700
0000
0000
7FF0
7FF0
7FF0
00F0
03E0
0F80
3E00
7800
7FF0
7FF0
7FF0
0000
0000
0000
0000
0000
ENDCHAR
STARTCHAR U+00b9 superscript one
ENCODING 185
SWIDTH 480 0
DWIDTH 12 0
BBX 12 24 0 -5
BITMAP
0000
0000
0000
0300
0700
0F00
1F00
3700
0700
0700
0700
0700
0700
0000
0000
0000
0000
0000
0000
0000
0000
0000
0000
0000
ENDCHAR
STARTCHAR U+00ba masculine ordinal indicator
ENCODING 186
SWIDTH 480 0
DWIDTH 12 0
BBX 12 24 0 -5
BITMAP
0000
0000
0000
0F80
1FC0
3FE0
38E0
38E0
3FE0
1FC0
0F80
0000
3FE0
3FE0
3FE0
0000
0000
0000
0000
0000
0000
0000
0000
0000
ENDCHAR
STARTCHAR U+00bb right-pointing double angle quotation mark
ENCODING 187
SWIDTH 480 0
DWIDTH 12 0
BBX 12 24 0 -5
BITMAP
0000
0000
0000
0000
0000
0000
4200
E700
7380
39C0
1CE0
0E70
1CE0
39C0
7380
E700
4200
0000
0000
0000
0000
0000
0000
0000
ENDCHAR
STARTCHAR U+0152 latin capital ligature OE
ENCODING 188
SWIDTH 480 0
DWIDTH 12 0
BBX 12 24 0 -5
BITMAP
0000
0000
0000
1FF0
3FF0
7FF0
7B80
7380
7380
73F0
73F0
73F0
7380
7380
7380
7B80
7FF0
3FF0
1FF0
0000
0000
0000
0000
0000
ENDCHAR
STARTCHAR U+0153 latin small ligature oe
ENCODING 189
SWIDTH 480 0
DWIDTH 12 0
BBX 12 24 0 -5
BITMAP
0000
0000
0000
0000
0000
0000
0000
0000
38C0
7DE0
FFF0
E730
E7F0
E7F0
E7F0
E700
FFE0
7DE0
38E0
0000
0000
0000
0000
0000
ENDCHAR
STARTCHAR U+0178 latin capital letter Y with diaresis
ENCODING 190
SWIDTH 480 0
DWIDTH 12 0
BBX 12 24 0 -5
BITMAP
0000
0000
38E0
38E0
38E0
0000
7070
7070
7070
7070
78F0
7FF0
3FE0
1FC0
0700
0700
0700
0700
0700
0000
0000
0000
0000
0000
ENDCHAR
STARTCHAR U+00bf inverted question mark
ENCODING 191
SWIDTH 480 0
DWIDTH 12 0
BBX 12 24 0 -5
BITMAP
0000
0000
0000
0000
0000
0000
0000
0000
0380
0380
0380
0000
0000
0380
0380
0380
0380
0700
0E00
1C00
3800
3FE0
3FE0
1FE0
ENDCHAR
STARTCHAR U+00c0 latin capital letter A with grave
ENCODING 192
SWIDTH 480 0
DWIDTH 12 0
BBX 12 24 0 -5
BITMAP
0000
0000
1E00
0F00
0380
0000
1FC0
3FE0
7FF0
78F0
7070
7070
7FF0
7FF0
7FF0
7070
7070
7070
7070
0000
0000
0000
0000
0000
ENDCHAR
STARTCHAR U+00c1 latin capital letter A with acute
ENCODING 193
SWIDTH 480 0
DWIDTH 12 0
BBX 12 24 0 -5
BITMAP
0000
0000
03C0
0780
0E00
0000
1FC0
3FE0
7FF0
78F0
7070
7070
7FF0
7FF0
7FF0
7070
7070
7070
7070
0000
0000
0000
0000
0000
ENDCHAR
STARTCHAR U+00c2 latin capital letter A with circumflex
ENCODING 194
SWIDTH 480 0
DWIDTH 12 0
BBX 12 24 0 -5
BITMAP
0000
0700
0F80
1DC0
38E0
0000
1FC0
3FE0
7FF0
78F0
7070
7070
7FF0
7FF0
7FF0
7070
7070
7070
7070
0000
0000
0000
0000
0000
ENDCHAR
STARTCHAR U+00c3 latin capital letter A with tilde
ENCODING 195
SWIDTH 480 0
DWIDTH 12 0
BBX 12 24 0 -5
BITMAP
0000
0000
1E60
3FE0
33C0
0000
1FC0
3FE0
7FF0
78F0
7070
7070
7FF0
7FF0
7FF0
7070
7070
7070
7070
0000
0000
0000
0000
0000
ENDCHAR
STARTCHAR U+00c4 latin capital letter A with diaresis
ENCODING 196
SWIDTH 480 0
DWIDTH 12 0
BBX 12 24 0 -5
BITMAP
0000
0000
38E0
38E0
38E0
0000
1FC0
3FE0
7FF0
78F0
7070
7070
7FF0
7FF0
7FF0
7070
7070
7070
7070
0000
0000
0000
0000
0000
ENDCHAR
STARTCHAR U+00c5 latin capital letter A with ring above
ENCODING 197
SWIDTH 480 0
DWIDTH 12 0
BBX 12 24 0 -5
BITMAP
0000
0000
0F80
1FC0
18C0
1FC0
1FC0
3FE0
7FF0
78F0
7070
7070
7FF0
7FF0
7FF0
7070
7070
7070
7070
0000
0000
0000
0000
0000
ENDCHAR
STARTCHAR U+00c6 latin capital ligature AE
ENCODING 198
SWIDTH 480 0
DWIDTH 12 0
BBX 12 24 0 -5
BITMAP
0000
0000
0000
1FF0
3FF0
7FF0
7B80
7380
7380
73F0
7FF0
7FF0
7F80
7380
7380
7380
73F0
73F0
73F0
0000
0000
0000
0000
0000
ENDCHAR
STARTCHAR U+00c7 latin capital letter C with cedilla
ENCODING 199
SWIDTH 480 0
DWIDTH 12 0
BBX 12 24 0 -5
BITMAP
0000
0000
0000
1FC0
3FE0
7FF0
7870
7020
7000
7000
7000
7000
7000
7000
7020
7870
7FF0
3FE0
1FC0
0700
0780
01C0
0FC0
0F80
ENDCHAR
STARTCHAR U+00c8 latin capital letter E with grave
ENCODING 200
SWIDTH 480 0
DWIDTH 12 0
BBX 12 24 0 -5
BITMAP
0000
0000
1E00
0F00
0380
0000
7FF0
7FF0
7FF0
7000
7000
7FC0
7FC0
7FC0
7000
7000
7FF0
7FF0
7FF0
0000
0000
0000
0000
0000
ENDCHAR
STARTCHAR U+00c9 latin capital letter E with acute
ENCODING 201
SWIDTH 480 0
DWIDTH 12 0
BBX 12 24 0 -5
BITMAP
0000
0000
03C0
0780
0E00
0000
7FF0
7FF0
7FF0
7000
7000
7FC0
7FC0
7FC0
7000
7000
7FF0
7FF0
7FF0
0000
0000
0000
0000
0000
ENDCHAR
STARTCHAR U+00ca latin capital letter E with circumflex
ENCODING 202
SWIDTH 480 0
DWIDTH 12 0
BBX 12 24 0 -5
BITMAP
0000
0700
0F80
1DC0
38E0
0000
7FF0
7FF0
7FF0
7000
7000
7FC0
7FC0
7FC0
7000
7000
7FF0
7FF0
7FF0
0000
0000
0000
0000
0000
ENDCHAR
STARTCHAR U+00cb latin capital letter E with diaresis
ENCODING 203
SWIDTH 480 0
DWIDTH 12 0
BBX 12 24 0 -5
BITMAP
0000
0000
38E0
38E0
38E0
0000
7FF0
7FF0
7FF0
7000
7000
7FC0
7FC0
7FC0
7000
7000
7FF0
7FF0
7FF0
0000
0000
0000
0000
0000
ENDCHAR
STARTCHAR U+00cc latin capital letter I with grave
ENCODING 204
SWIDTH 480 0
DWIDTH 12 0
BBX 12 24 0 -5
BITMAP
0000
0000
1E00
0F00
0380
0000
3FE0
3FE0
3FE0
0700
0700
0700
0700
0700
0700
0700
3FE0
3FE0
3FE0
0000
0000
0000
0000
0000
ENDCHAR
STARTCHAR U+00cd latin capital letter I with acute
ENCODING 205
SWIDTH 480 0
DWIDTH 12 0
BBX 12 24 0 -5
BITMAP
0000
0000
03C0
0780
0E00
0000
3FE0
3FE0
3FE0
0700
0700
0700
0700
0700
0700
0700
3FE0
3FE0
3FE0
0000
0000
0000
0000
0000
ENDCHAR
STARTCHAR U+00ce latin capital letter I with circumflex
ENCODING 206
SWIDTH 480 0
DWIDTH 12 0
BBX 12 24 0 -5
BITMAP
0000
0700
0F80
1DC0
38E0
0000
3FE0
3FE0
3FE0
0700
0700
0700
0700
0700
0700
0700
3FE0
3FE0
3FE0
0000
0000
0000
0000
0000
ENDCHAR
STARTCHAR U+00cf latin capital letter I with diaresis
ENCODING 207
SWIDTH 480 0
DWIDTH 12 0
BBX 12 24 0 -5
BITMAP
0000
0000
38E0
38E0
38E0
0000
3FE0
3FE0
3FE0
0700
0700
0700
0700
0700
0700
0700
3FE0
3FE0
3FE0
0000
0000
0000
0000
0000
ENDCHAR
STARTCHAR U+00d0 latin capital letter Eth
ENCODING 208
SWIDTH 480 0
DWIDTH 12 0
BBX 12 24 0 -5
BITMAP
0000
0000
0000
7F00
7F80
7FC0
71E0
70F0
7070
7070
FC70
FC70
7070
7070
70F0
71E0
7FC0
7F80
7F00
0000
0000
0000
0000
0000
ENDCHAR
STARTCHAR U+00d1 latin capital letter N with tilde
ENCODING 209
SWIDTH 480 0
DWIDTH 12 0
BBX 12 24 0 -5
BITMAP
0000
0000
1E60
3FE0
33C0
0000
7070
7870
7870
7C70
7E70
7670
7770
7370
73F0
71F0
70F0
70F0
7070
0000
0000
0000
0000
0000
ENDCHAR
STARTCHAR U+00d2 latin capital letter O with grave
ENCODING 210
SWIDTH 480 0
DWIDTH 12 0
BBX 12 24 0 -5
BITMAP
0000
0000
1E00
0F00
0380
0000
1FC0
3FE0
7FF0
78F0
7070
7070
7070
7070
7070
78F0
7FF0
3FE0
1FC0
0000
0000
0000
0000
0000
ENDCHAR
STARTCHAR U+00d3 latin capital letter O with acute
ENCODING 211
SWIDTH 480 0
DWIDTH 12 0
BBX 12 24 0 -5
BITMAP
0000
0000
03C0
0780
0E00
0000
1FC0
3FE0
7FF0
78F0
7070
7070
7070
7070
7070
78F0
7FF0
3FE0
1FC0
0000
0000
0000
0000
0000
ENDCHAR
STARTCHAR U+00d4 latin capital letter O with circumflex
ENCODING 212
SWIDTH 480 0
DWIDTH 12 0
BBX 12 24 0 -5
BITMAP
0000
0700
0F80
1DC0
38E0
0000
1FC0
3FE0
7FF0
78F0
7070
7070
7070
7070
7070
78F0
7FF0
3FE0
1FC0
0000
0000
0000
0000
0000
ENDCHAR
STARTCHAR U+00d5 latin capital letter O with tilde
ENCODING 213
SWIDTH 480 0
DWIDTH 12 0
BBX 12 24 0 -5
BITMAP
0000
0000
1E60
3FE0
33C0
0000
1FC0
3FE0
7FF0
78F0
7070
7070
7070
7070
7070
78F0
7FF0
3FE0
1FC0
0000
0000
0000
0000
0000
ENDCHAR
STARTCHAR U+00d6 latin capital letter O with diaresis
ENCODING 214
SWIDTH 480 0
DWIDTH 12 0
BBX 12 24 0 -5
BITMAP
0000
0000
38E0
38E0
38E0
0000
1FC0
3FE0
7FF0
78F0
7070
7070
7070
7070
7070
78F0
7FF0
3FE0
1FC0
0000
0000
0000
0000
0000
ENDCHAR
STARTCHAR U+00d7 multiplication sign
ENCODING 215
SWIDTH 480 0
DWIDTH 12 0
BBX 12 24 0 -5
BITMAP
0000
0000
0000
0000
0000
0000
2040
70E0
39C0
1F80
0F00
0F00
1F80
39C0
70E0
2040
0000
0000
0000
0000
0000
0000
0000
0000
ENDCHAR
STARTCHAR U+00d8 latin capital letter O with stroke
ENCODING 216
SWIDTH 480 0
DWIDTH 12 0
BBX 12 24 0 -5
BITMAP
0000
0000
0030
1FF0
3FE0
7FF0
78F0
71F0
71F0
7370
7370
7670
7670
7C70
7C70
78F0
7FF0
3FE0
7FC0
6000
0000
0000
0000
0000
ENDCHAR
STARTCHAR U+00d9 latin capital letter U with grave
ENCODING 217
SWIDTH 480 0
DWIDTH 12 0
BBX 12 24 0 -5
BITMAP
0000
0000
1E00
0F00
0380
0000
7070
7070
7070
7070
7070
7070
7070
7070
7070
78F0
7FF0
3FE0
1FC0
0000
0000
0000
0000
0000
ENDCHAR
STARTCHAR U+00da latin capital letter U with acute
ENCODING 218
SWIDTH 480 0
DWIDTH 12 0
BBX 12 24 0 -5
BITMAP
0000
0000
03C0
0780
0E00
0000
7070
7070
7070
7070
7070
7070
7070
7070
7070
78F0
7FF0
3FE0
1FC0
0000
0000
0000
0000
0000
ENDCHAR
STARTCHAR U+00db latin capital letter U with circumflex
ENCODING 219
SWIDTH 480 0
DWIDTH 12 0
BBX 12 24 0 -5
BITMAP
0000
0700
0F80
1DC0
38E0
0000
7070
7070
7070
7070
7070
7070
7070
7070
7070
78F0
7FF0
3FE0
1FC0
0000
0000
0000
0000
0000
ENDCHAR
STARTCHAR U+00dc latin capital letter U with diaresis
ENCODING 220
SWIDTH 480 0
DWIDTH 12 0
BBX 12 24 0 -5
BITMAP
0000
0000
38E0
38E0
38E0
0000
7070
7070
7070
7070
7070
7070
7070
7070
7070
78F0
7FF0
3FE0
1FC0
0000
0000
0000
0000
0000
ENDCHAR
STARTCHAR U+00dd latin capital letter Y with acute
ENCODING 221
SWIDTH 480 0
DWIDTH 12 0
BBX 12 24 0 -5
BITMAP
0000
0000
03C0
0780
0E00
0000
7070
7070
7070
7070
78F0
7FF0
3FE0
1FC0
0700
0700
0700
0700
0700
0000
0000
0000
0000
0000
ENDCHAR
STARTCHAR U+00de latin capital letter Thorn
ENCODING 222
SWIDTH 480 0
DWIDTH 12 0
BBX 12 24 0 -5
BITMAP
0000
0000
0000
7000
7000
7000
7FC0
7FE0
7FF0
70F0
7070
70F0
7FF0
7FE0
7FC0
7000
7000
7000
7000
0000
0000
0000
0000
0000
ENDCHAR
STARTCHAR U+00df latin small letter sharp s
ENCODING 223
SWIDTH 480 0
DWIDTH 12 0
BBX 12 24 0 -5
BITMAP
0000
0000
0000
0F80
1FC0
3FE0
78E0
71E0
73C0
7780
7700
7780
73C0
71E0
70F0
7270
77F0
77E0
73C0
7000
7000
0000
0000
0000
ENDCHAR
STARTCHAR U+00e0 latin small letter a with grave
ENCODING 224
SWIDTH 480 0
DWIDTH 12 0
BBX 12 24 0 -5
BITMAP
0000
0000
0000
1E00
0F00
0380
0000
0000
1FC0
1FE0
1FF0
0070
1FF0
3FF0
7FF0
7070
7FF0
3FF0
1F70
0000
0000
0000
0000
0000
ENDCHAR
STARTCHAR U+00e1 latin small letter a with acute
ENCODING 225
SWIDTH 480 0
DWIDTH 12 0
BBX 12 24 0 -5
BITMAP
0000
0000
0000
03C0
0780
0E00
0000
0000
1FC0
1FE0
1FF0
0070
1FF0
3FF0
7FF0
7070
7FF0
3FF0
1F70
0000
0000
0000
0000
0000
ENDCHAR
STARTCHAR U+00e2 latin small letter a with circumflex
ENCODING 226
SWIDTH 480 0
DWIDTH 12 0
BBX 12 24 0 -5
BITMAP
0000
0000
0700
0F80
1DC0
38E0
0000
0000
1FC0
1FE0
1FF0
0070
1FF0
3FF0
7FF0
7070
7FF0
3FF0
1F70
0000
0000
0000
0000
0000
ENDCHAR
STARTCHAR U+00e3 latin small letter a with tilde
ENCODING 227
SWIDTH 480 0
DWIDTH 12 0
BBX 12 24 0 -5
BITMAP
0000
0000
0000
1E60
3FE0
33C0
0000
0000
1FC0
1FE0
1FF0
0070
1FF0
3FF0
7FF0
7070
7FF0
3FF0
1F70
0000
0000
0000
0000
0000
ENDCHAR
STARTCHAR U+00e4 latin small letter a with diaresis
ENCODING 228
SWIDTH 480 0
DWIDTH 12 0
BBX 12 24 0 -5
BITMAP
0000
0000
0000
38E0
38E0
38E0
0000
0000
1FC0
1FE0
1FF0
0070
1FF0
3FF0
7FF0
7070
7FF0
3FF0
1F70
0000
0000
0000
0000
0000
ENDCHAR
STARTCHAR U+00e5 latin small letter a with ring above
ENCODING 229
SWIDTH 480 0
DWIDTH 12 0
BBX 12 24 0 -5
BITMAP
0000
0000
0F80
1FC0
18C0
1FC0
0F80
0000
1FC0
1FE0
1FF0
0070
1FF0
3FF0
7FF0
7070
7FF0
3FF0
1F70
0000
0000
0000
0000
0000
ENDCHAR
STARTCHAR U+00e6 latin small ligature ae
ENCODING 230
SWIDTH 480 0
DWIDTH 12 0
BBX 12 24 0 -5
BITMAP
0000
0000
0000
0000
0000
0000
0000
0000
78C0
7DE0
7FF0
0F30
3FF0
7FF0
FFF0
E700
FFE0
7DE0
38E0
0000
0000
0000
0000
0000
ENDCHAR
STARTCHAR U+00e7 latin small letter c with cedilla
ENCODING 231
SWIDTH 480 0
DWIDTH 12 0
BBX 12 24 0 -5
BITMAP
0000
0000
0000
0000
0000
0000
0000
0000
1FC0
3FE0
7FF0
7860
7000
7000
7000
7860
7FF0
3FE0
1FC0
0700
0780
01C0
0FC0
0F80
ENDCHAR
STARTCHAR U+00e8 latin small letter e with grave
ENCODING 232
SWIDTH 480 0
DWIDTH 12 0
BBX 12 24 0 -5
BITMAP
0000
0000
0000
1E00
0F00
0380
0000
0000
1FC0
3FE0
7FF0
7070
7FF0
7FF0
7FF0
7000
7FE0
3FE0
1FE0
0000
0000
0000
0000
0000
ENDCHAR
STARTCHAR U+00e9 latin small letter e with acute
ENCODING 233
SWIDTH 480 0
DWIDTH 12 0
BBX 12 24 0 -5
BITMAP
0000
0000
0000
03C0
0780
0E00
0000
0000
1FC0
3FE0
7FF0
7070
7FF0
7FF0
7FF0
7000
7FE0
3FE0
1FE0
0000
0000
0000
0000
0000
ENDCHAR
STARTCHAR U+00ea latin small letter e with circumflex
ENCODING 234
SWIDTH 480 0
DWIDTH 12 0
BBX 12 24 0 -5
BITMAP
0000
0000
0700
0F80
1DC0
38E0
0000
0000
1FC0
3FE0
7FF0
7070
7FF0
7FF0
7FF0
7000
7FE0
3FE0
1FE0
0000
0000
0000
0000
0000
ENDCHAR
STARTCHAR U+00eb latin small letter e with diaresis
ENCODING 235
SWIDTH 480 0
DWIDTH 12 0
BBX 12 24 0 -5
BITMAP
0000
0000
0000
38E0
38E0
38E0
0000
0000
1FC0
3FE0
7FF0
7070
7FF0
7FF0
7FF0
7000
7FE0
3FE0
1FE0
0000
0000
0000
0000
0000
ENDCHAR
STARTCHAR U+00ec latin small letter i with grave
ENCODING 236
SWIDTH 480 0
DWIDTH 12 0
BBX 12 24 0 -5
BITMAP
0000
0000
0000
1E00
0F00
0380
0000
0000
1F80
1F80
1F80
0380
0380
0380
0380
0380
0380
0380
0380
0000
0000
0000
0000
0000
ENDCHAR
STARTCHAR U+00ed latin small letter i with acute
ENCODING 237
SWIDTH 480 0
DWIDTH 12 0
BBX 12 24 0 -5
BITMAP
0000
0000
0000
03C0
0780
0E00
0000
0000
1F80
1F80
1F80
0380
0380
0380
0380
0380
0380
0380
0380
0000
0000
0000
0000
0000
ENDCHAR
STARTCHAR U+00ee latin small letter i with circumflex
ENCODING 238
SWIDTH 480 0
DWIDTH 12 0
BBX 12 24 0 -5
BITMAP
0000
0000
0700
0F80
1DC0
38E0
0000
0000
1F80
1F80
1F80
0380
0380
0380
0380
0380
0380
0380
0380
0000
0000
0000
0000
0000
ENDCHAR
STARTCHAR U+00ef latin small letter i with diaresis
ENCODING 239
SWIDTH 480 0
DWIDTH 12 0
BBX 12 24 0 -5
BITMAP
0000
0000
0000
38E0
38E0
38E0
0000
0000
1F80
1F80
1F80
0380
0380
0380
0380
0380
0380
0380
0380
0000
0000
0000
0000
0000
ENDCHAR
STARTCHAR U+00f0 latin small letter eth
ENCODING 240
SWIDTH 480 0
DWIDTH 12 0
BBX 12 24 0 -5
BITMAP
0000
0000
0000
39C0
3F80
0E00
3F00
7380
01C0
1FE0
3FE0
7FF0
78F0
7070
7070
78F0
7FF0
3FE0
1FC0
0000
0000
0000
0000
0000
ENDCHAR
STARTCHAR U+00f1 latin small letter n with tilde
ENCODING 241
SWIDTH 480 0
DWIDTH 12 0
BBX 12 24 0 -5
BITMAP
0000
0000
0000
1E60
3FE0
33C0
0000
0000
73C0
77E0
7FF0
78F0
7070
7070
7070
7070
7070
7070
7070
0000
0000
0000
0000
0000
ENDCHAR
STARTCHAR U+00f2 latin small letter o with grave
ENCODING 242
SWIDTH 480 0
DWIDTH 12 0
BBX 12 24 0 -5
BITMAP
0000
0000
0000
1E00
0F00
0380
0000
0000
1FC0
3FE0
7FF0
78F0
7070
7070
7070
78F0
7FF0
3FE0
1FC0
0000
0000
0000
0000
0000
ENDCHAR
STARTCHAR U+00f3 latin small letter o with acute
ENCODING 243
SWIDTH 480 0
DWIDTH 12 0
BBX 12 24 0 -5
BITMAP
0000
0000
0000
03C0
0780
0E00
0000
0000
1FC0
3FE0
7FF0
78F0
7070
7070
7070
78F0
7FF0
3FE0
1FC0
0000
0000
0000
0000
0000
ENDCHAR
STARTCHAR U+00f4 latin small letter o with circumflex
ENCODING 244
SWIDTH 480 0
DWIDTH 12 0
BBX 12 24 0 -5
BITMAP
0000
0000
0700
0F80
1DC0
38E0
0000
0000
1FC0
3FE0
7FF0
78F0
7070
7070
7070
78F0
7FF0
3FE0
1FC0
0000
0000
0000
0000
0000
ENDCHAR
STARTCHAR U+00f5 latin small letter o with tilde
ENCODING 245
SWIDTH 480 0
DWIDTH 12 0
BBX 12 24 0 -5
BITMAP
0000
0000
0000
1E60
3FE0
33C0
0000
0000
1FC0
3FE0
7FF0
78F0
7070
7070
7070
78F0
7FF0
3FE0
1FC0
0000
0000
0000
0000
0000
ENDCHAR
STARTCHAR U+00f6 latin small letter o with diaresis
ENCODING 246
SWIDTH 480 0
DWIDTH 12 0
BBX 12 24 0 -5
BITMAP
0000
0000
0000
38E0
38E0
38E0
0000
0000
1FC0
3FE0
7FF0
78F0
7070
7070
7070
78F0
7FF0
3FE0
1FC0
0000
0000
0000
0000
0000
ENDCHAR
STARTCHAR U+00f7 division sign
ENCODING 247
SWIDTH 480 0
DWIDTH 12 0
BBX 12 24 0 -5
BITMAP
0000
0000
0000
0000
0000
0700
0700
0700
0000
0000
7FF0
7FF0
7FF0
0000
0000
0700
0700
0700
0000
0000
0000
0000
0000
0000
ENDCHAR
STARTCHAR U+00f8 latin small letter o with stroke
ENCODING 248
SWIDTH 480 0
DWIDTH 12 0
BBX 12 24 0 -5
BITMAP
0000
0000
0000
0000
0000
0000
0000
0030
1FF0
3FE0
7FF0
79F0
73F0
7770
7E70
7CF0
7FF0
3FE0
7FC0
6000
0000
0000
0000
0000
ENDCHAR
STARTCHAR U+00f9 latin small letter u with grave
ENCODING 249
SWIDTH 480 0
DWIDTH 12 0
BBX 12 24 0 -5
BITMAP
0000
0000
0000
1E00
0F00
0380
0000
0000
7070
7070
7070
7070
7070
7070
7070
78F0
7FF0
3F70
1E70
0000
0000
0000
0000
0000
ENDCHAR
STARTCHAR U+00fa latin small letter u with acute
ENCODING 250
SWIDTH 480 0
DWIDTH 12 0
BBX 12 24 0 -5
BITMAP
0000
0000
0000
03C0
0780
0E00
0000
0000
7070
7070
7070
7070
7070
7070
7070
78F0
7FF0
3F70
1E70
0000
0000
0000
0000
0000
ENDCHAR
STARTCHAR U+00fb latin small letter u with circumflex
ENCODING 251
SWIDTH 480 0
DWIDTH 12 0
BBX 12 24 0 -5
BITMAP
0000
0000
0700
0F80
1DC0
38E0
0000
0000
7070
7070
7070
7070
7070
7070
7070
78F0
7FF0
3F70
1E70
0000
0000
0000
0000
0000
ENDCHAR
STARTCHAR U+00fc latin small letter u with diaresis
ENCODING 252
SWIDTH 480 0
DWIDTH 12 0
BBX 12 24 0 -5
BITMAP
0000
0000
0000
38E0
38E0
38E0
0000
0000
7070
7070
7070
7070
7070
7070
7070
78F0
7FF0
3F70
1E70
0000
0000
0000
0000
0000
ENDCHAR
STARTCHAR U+00fd latin small letter y with acute
ENCODING 253
SWIDTH 480 0
DWIDTH 12 0
BBX 12 24 0 -5
BITMAP
0000
0000
0000
03C0
0780
0E00
0000
0000
7070
7070
7070
7070
7070
7070
78F0
7FF0
3F70
1E70
0070
2070
70F0
7FF0
3FE0
1FC0
ENDCHAR
STARTCHAR U+00fe latin small letter thorn
ENCODING 254
SWIDTH 480 0
DWIDTH 12 0
BBX 12 24 0 -5
BITMAP
0000
0000
0000
7000
7000
7000
7000
7000
73C0
77E0
7FF0
78F0
7070
7070
7070
78F0
7FF0
77E0
73C0
7000
7000
7000
7000
7000
ENDCHAR
STARTCHAR U+00ff latin small letter y with diaresis
ENCODING 255
SWIDTH 480 0
DWIDTH 12 0
BBX 12 24 0 -5
BITMAP
0000
0000
0000
38E0
38E0
38E0
0000
0000
7070
7070
7070
7070
7070
7070
78F0
7FF0
3F70
1E70
0070
2070
70F0
7FF0
3FE0
1FC0
ENDCHAR
ENDFONT
