STARTFONT 2.1
FONT -jmk-Neep-Bold-R-Normal--20-180-75-75-C-100-US-ASCII
SIZE 20 75 75
FONTBOUNDINGBOX 10 20 0 -4
STARTPROPERTIES 29
FONTNAME_REGISTRY ""
FOUNDRY "jmk"
FAMILY_NAME "Neep"
WEIGHT_NAME "Bold"
SLANT "R"
SETWIDTH_NAME "Normal"
ADD_STYLE_NAME ""
PIXEL_SIZE 20
POINT_SIZE 180
RESOLUTION_X 75
RESOLUTION_Y 75
SPACING "C"
AVERAGE_WIDTH 100
CHARSET_REGISTRY "US"
CHARSET_ENCODING "ASCII"
COPYRIGHT "Jim Knoble <jmknoble@pobox.com>"
WEIGHT 230
RESOLUTION 75
X_HEIGHT 9
FIGURE_WIDTH 10
QUAD_WIDTH 10
FONT_ASCENT 16
FONT_DESCENT 4
_XMBDFED_INFO "Edited with xmbdfed 3.7."
RELATIVE_WEIGHT 70
RELATIVE_SETWIDTH 50
CAP_HEIGHT 13
UNDERLINE_POSITION -2
UNDERLINE_THICKNESS 2
ENDPROPERTIES
CHARS 89
STARTCHAR U+0027 apostrophe
ENCODING 39
SWIDTH 480 0
DWIDTH 10 0
BBX 10 20 0 -4
BITMAP
0000
0000
0F00
0E00
1C00
1800
3000
0000
0000
0000
0000
0000
0000
0000
0000
0000
0000
0000
0000
0000
ENDCHAR
STARTCHAR U+0028 left parenthesis
ENCODING 40
SWIDTH 480 0
DWIDTH 10 0
BBX 10 20 0 -4
BITMAP
0000
0000
0300
0700
0E00
1C00
1C00
3800
3800
3800
3800
3800
3800
3800
1C00
1C00
0E00
0700
0300
0000
ENDCHAR
STARTCHAR U+0029 right parenthesis
ENCODING 41
SWIDTH 480 0
DWIDTH 10 0
BBX 10 20 0 -4
BITMAP
0000
0000
3000
3800
1C00
0E00
0E00
0700
0700
0700
0700
0700
0700
0700
0E00
0E00
1C00
3800
3000
0000
ENDCHAR
STARTCHAR U+002a asterisk
ENCODING 42
SWIDTH 480 0
DWIDTH 10 0
BBX 10 20 0 -4
BITMAP
0000
0000
0000
0000
0000
0000
3300
3F00
1E00
7F80
7F80
1E00
3F00
3300
0000
0000
0000
0000
0000
0000
ENDCHAR
STARTCHAR U+002b plus sign
ENCODING 43
SWIDTH 480 0
DWIDTH 10 0
BBX 10 20 0 -4
BITMAP
0000
0000
0000
0000
0000
0000
0E00
0E00
0E00
7FC0
7FC0
0E00
0E00
0E00
0000
0000
0000
0000
0000
0000
ENDCHAR
STARTCHAR U+002c comma
ENCODING 44
SWIDTH 480 0
DWIDTH 10 0
BBX 10 20 0 -4
BITMAP
0000
0000
0000
0000
0000
0000
0000
0000
0000
0000
0000
0000
0000
0000
1E00
1C00
3800
3000
6000
0000
ENDCHAR
STARTCHAR U+002d hyphen-minus
ENCODING 45
SWIDTH 480 0
DWIDTH 10 0
BBX 10 20 0 -4
BITMAP
0000
0000
0000
0000
0000
0000
0000
0000
0000
7F80
7F80
7F80
0000
0000
0000
0000
0000
0000
0000
0000
ENDCHAR
STARTCHAR U+002e period
ENCODING 46
SWIDTH 480 0
DWIDTH 10 0
BBX 10 20 0 -4
BITMAP
0000
0000
0000
0000
0000
0000
0000
0000
0000
0000
0000
0000
0000
0C00
1E00
1E00
0C00
0000
0000
0000
ENDCHAR
STARTCHAR U+002f forward slash
ENCODING 47
SWIDTH 480 0
DWIDTH 10 0
BBX 10 20 0 -4
BITMAP
0000
0000
00C0
01C0
0180
0380
0300
0700
0600
0E00
0C00
1C00
1800
3800
3000
7000
6000
6000
0000
0000
ENDCHAR
STARTCHAR U+0030 digit zero
ENCODING 48
SWIDTH 480 0
DWIDTH 10 0
BBX 10 20 0 -4
BITMAP
0000
0000
0000
0E00
1F00
3B80
71C0
71C0
71C0
75C0
71C0
71C0
71C0
3B80
1F00
0E00
0000
0000
0000
0000
ENDCHAR
STARTCHAR U+0031 digit one
ENCODING 49
SWIDTH 480 0
DWIDTH 10 0
BBX 10 20 0 -4
BITMAP
0000
0000
0000
0600
0E00
1E00
3E00
6E00
0E00
0E00
0E00
0E00
0E00
0E00
0E00
0E00
0000
0000
0000
0000
ENDCHAR
STARTCHAR U+0032 digit two
ENCODING 50
SWIDTH 480 0
DWIDTH 10 0
BBX 10 20 0 -4
BITMAP
0000
0000
0000
1F00
3F80
73C0
21C0
01C0
0380
0700
0E00
1C00
3800
7000
7FC0
7FC0
0000
0000
0000
0000
ENDCHAR
STARTCHAR U+0033 digit three
ENCODING 51
SWIDTH 480 0
DWIDTH 10 0
BBX 10 20 0 -4
BITMAP
0000
0000
0000
7FC0
7FC0
0380
0700
0E00
1F00
1F80
03C0
01C0
21C0
73C0
3F80
1F00
0000
0000
0000
0000
ENDCHAR
STARTCHAR U+0034 digit four
ENCODING 52
SWIDTH 480 0
DWIDTH 10 0
BBX 10 20 0 -4
BITMAP
0000
0000
0000
0780
0F80
0F80
1F80
1B80
3B80
3380
7FC0
7FC0
0380
0380
0380
0380
0000
0000
0000
0000
ENDCHAR
STARTCHAR U+0035 digit five
ENCODING 53
SWIDTH 480 0
DWIDTH 10 0
BBX 10 20 0 -4
BITMAP
0000
0000
0000
7FC0
7FC0
7000
7000
7F00
7F80
73C0
01C0
01C0
21C0
73C0
3F80
1F00
0000
0000
0000
0000
ENDCHAR
STARTCHAR U+0036 digit six
ENCODING 54
SWIDTH 480 0
DWIDTH 10 0
BBX 10 20 0 -4
BITMAP
0000
0000
0000
1F00
3F80
79C0
7080
7000
7700
7F80
7BC0
71C0
71C0
7BC0
3F80
1F00
0000
0000
0000
0000
ENDCHAR
STARTCHAR U+0037 digit seven
ENCODING 55
SWIDTH 480 0
DWIDTH 10 0
BBX 10 20 0 -4
BITMAP
0000
0000
0000
7FC0
7FC0
01C0
0380
0380
0700
0700
0E00
0E00
1C00
1C00
3800
3800
0000
0000
0000
0000
ENDCHAR
STARTCHAR U+0038 digit eight
ENCODING 56
SWIDTH 480 0
DWIDTH 10 0
BBX 10 20 0 -4
BITMAP
0000
0000
0000
1F00
3F80
7BC0
71C0
71C0
3B80
1F00
3B80
71C0
71C0
7BC0
3F80
1F00
0000
0000
0000
0000
ENDCHAR
STARTCHAR U+0039 digit nine
ENCODING 57
SWIDTH 480 0
DWIDTH 10 0
BBX 10 20 0 -4
BITMAP
0000
0000
0000
1F00
3F80
7BC0
71C0
71C0
7BC0
3FC0
1DC0
01C0
21C0
73C0
3F80
1F00
0000
0000
0000
0000
ENDCHAR
STARTCHAR U+003a colon
ENCODING 58
SWIDTH 480 0
DWIDTH 10 0
BBX 10 20 0 -4
BITMAP
0000
0000
0000
0000
0000
0000
0C00
1E00
1E00
0C00
0000
0000
0000
0C00
1E00
1E00
0C00
0000
0000
0000
ENDCHAR
STARTCHAR U+003b semicolon
ENCODING 59
SWIDTH 480 0
DWIDTH 10 0
BBX 10 20 0 -4
BITMAP
0000
0000
0000
0000
0000
0000
0C00
1E00
1E00
0C00
0000
0000
0000
0000
1E00
1C00
3800
3000
6000
0000
ENDCHAR
STARTCHAR U+003c less-than sign
ENCODING 60
SWIDTH 480 0
DWIDTH 10 0
BBX 10 20 0 -4
BITMAP
0000
0000
0000
0000
0000
0100
0380
0700
0E00
1C00
3800
1C00
0E00
0700
0380
0100
0000
0000
0000
0000
ENDCHAR
STARTCHAR U+003d equals sign
ENCODING 61
SWIDTH 480 0
DWIDTH 10 0
BBX 10 20 0 -4
BITMAP
0000
0000
0000
0000
0000
0000
7F80
7F80
7F80
0000
0000
7F80
7F80
7F80
0000
0000
0000
0000
0000
0000
ENDCHAR
STARTCHAR U+003e greater-than sign
ENCODING 62
SWIDTH 480 0
DWIDTH 10 0
BBX 10 20 0 -4
BITMAP
0000
0000
0000
0000
0000
2000
7000
3800
1C00
0E00
0700
0E00
1C00
3800
7000
2000
0000
0000
0000
0000
ENDCHAR
STARTCHAR U+003f question mark
ENCODING 63
SWIDTH 480 0
DWIDTH 10 0
BBX 10 20 0 -4
BITMAP
0000
0000
0000
3F00
3F80
0380
0700
0E00
1C00
1C00
1C00
1C00
0000
1C00
1C00
1C00
0000
0000
0000
0000
ENDCHAR
STARTCHAR U+0040 at sign
ENCODING 64
SWIDTH 480 0
DWIDTH 10 0
BBX 10 20 0 -4
BITMAP
0000
0000
0000
1F80
3FC0
70C0
60C0
63C0
67C0
66C0
66C0
67C0
63C0
7000
3F00
1F00
0000
0000
0000
0000
ENDCHAR
STARTCHAR U+0041 latin capital letter A
ENCODING 65
SWIDTH 480 0
DWIDTH 10 0
BBX 10 20 0 -4
BITMAP
0000
0000
0000
1F00
3F80
7BC0
71C0
71C0
71C0
7FC0
7FC0
71C0
71C0
71C0
71C0
71C0
0000
0000
0000
0000
ENDCHAR
STARTCHAR U+0042 latin capital letter B
ENCODING 66
SWIDTH 480 0
DWIDTH 10 0
BBX 10 20 0 -4
BITMAP
0000
0000
0000
7E00
7F00
7780
7380
7380
7700
7F80
73C0
71C0
71C0
73C0
7F80
7F00
0000
0000
0000
0000
ENDCHAR
STARTCHAR U+0043 latin capital letter C
ENCODING 67
SWIDTH 480 0
DWIDTH 10 0
BBX 10 20 0 -4
BITMAP
0000
0000
0000
1F00
3F80
79C0
7080
7000
7000
7000
7000
7000
7080
79C0
3F80
1F00
0000
0000
0000
0000
ENDCHAR
STARTCHAR U+0044 latin capital letter D
ENCODING 68
SWIDTH 480 0
DWIDTH 10 0
BBX 10 20 0 -4
BITMAP
0000
0000
0000
7E00
7F00
7380
71C0
71C0
71C0
71C0
71C0
71C0
71C0
7380
7F00
7E00
0000
0000
0000
0000
ENDCHAR
STARTCHAR U+0045 latin capital letter E
ENCODING 69
SWIDTH 480 0
DWIDTH 10 0
BBX 10 20 0 -4
BITMAP
0000
0000
0000
7FC0
7FC0
7000
7000
7000
7F00
7F00
7000
7000
7000
7000
7FC0
7FC0
0000
0000
0000
0000
ENDCHAR
STARTCHAR U+0046 latin capital letter F
ENCODING 70
SWIDTH 480 0
DWIDTH 10 0
BBX 10 20 0 -4
BITMAP
0000
0000
0000
7FC0
7FC0
7000
7000
7000
7F00
7F00
7000
7000
7000
7000
7000
7000
0000
0000
0000
0000
ENDCHAR
STARTCHAR U+0047 latin capital letter G
ENCODING 71
SWIDTH 480 0
DWIDTH 10 0
BBX 10 20 0 -4
BITMAP
0000
0000
0000
1F00
3F80
79C0
7080
7000
7000
73C0
73C0
71C0
71C0
79C0
3FC0
1F80
0000
0000
0000
0000
ENDCHAR
STARTCHAR U+0048 latin capital letter H
ENCODING 72
SWIDTH 480 0
DWIDTH 10 0
BBX 10 20 0 -4
BITMAP
0000
0000
0000
71C0
71C0
71C0
71C0
71C0
7FC0
7FC0
71C0
71C0
71C0
71C0
71C0
71C0
0000
0000
0000
0000
ENDCHAR
STARTCHAR U+0049 latin capital letter I
ENCODING 73
SWIDTH 480 0
DWIDTH 10 0
BBX 10 20 0 -4
BITMAP
0000
0000
0000
3F80
3F80
0E00
0E00
0E00
0E00
0E00
0E00
0E00
0E00
0E00
3F80
3F80
0000
0000
0000
0000
ENDCHAR
STARTCHAR U+004a latin capital letter J
ENCODING 74
SWIDTH 480 0
DWIDTH 10 0
BBX 10 20 0 -4
BITMAP
0000
0000
0000
0FC0
0FC0
01C0
01C0
01C0
01C0
01C0
01C0
01C0
21C0
73C0
3F80
1F00
0000
0000
0000
0000
ENDCHAR
STARTCHAR U+004b latin capital letter K
ENCODING 75
SWIDTH 480 0
DWIDTH 10 0
BBX 10 20 0 -4
BITMAP
0000
0000
0000
71C0
7380
7700
7E00
7C00
7E00
7E00
7700
7700
7380
7380
71C0
71C0
0000
0000
0000
0000
ENDCHAR
STARTCHAR U+004c latin capital letter L
ENCODING 76
SWIDTH 480 0
DWIDTH 10 0
BBX 10 20 0 -4
BITMAP
0000
0000
0000
7000
7000
7000
7000
7000
7000
7000
7000
7000
7000
7000
7FC0
7FC0
0000
0000
0000
0000
ENDCHAR
STARTCHAR U+004d latin capital letter M
ENCODING 77
SWIDTH 480 0
DWIDTH 10 0
BBX 10 20 0 -4
BITMAP
0000
0000
0000
71C0
71C0
7BC0
7BC0
7FC0
7FC0
75C0
75C0
71C0
71C0
71C0
71C0
71C0
0000
0000
0000
0000
ENDCHAR
STARTCHAR U+004e latin capital letter N
ENCODING 78
SWIDTH 480 0
DWIDTH 10 0
BBX 10 20 0 -4
BITMAP
0000
0000
0000
71C0
71C0
79C0
79C0
7DC0
7DC0
7FC0
77C0
77C0
73C0
73C0
71C0
71C0
0000
0000
0000
0000
ENDCHAR
STARTCHAR U+004f latin capital letter O
ENCODING 79
SWIDTH 480 0
DWIDTH 10 0
BBX 10 20 0 -4
BITMAP
0000
0000
0000
1F00
3F80
7BC0
71C0
71C0
71C0
71C0
71C0
71C0
71C0
7BC0
3F80
1F00
0000
0000
0000
0000
ENDCHAR
STARTCHAR U+0050 latin capital letter P
ENCODING 80
SWIDTH 480 0
DWIDTH 10 0
BBX 10 20 0 -4
BITMAP
0000
0000
0000
7F00
7F80
73C0
71C0
71C0
73C0
7F80
7F00
7000
7000
7000
7000
7000
0000
0000
0000
0000
ENDCHAR
STARTCHAR U+0051 latin capital letter Q
ENCODING 81
SWIDTH 480 0
DWIDTH 10 0
BBX 10 20 0 -4
BITMAP
0000
0000
0000
1F00
3F80
7BC0
71C0
71C0
71C0
71C0
71C0
71C0
71C0
7BC0
3F80
1F00
0E00
07C0
03C0
0000
ENDCHAR
STARTCHAR U+0052 latin capital letter R
ENCODING 82
SWIDTH 480 0
DWIDTH 10 0
BBX 10 20 0 -4
BITMAP
0000
0000
0000
7F00
7F80
73C0
71C0
71C0
73C0
7F80
7F00
7E00
7700
7380
71C0
70C0
0000
0000
0000
0000
ENDCHAR
STARTCHAR U+0053 latin capital letter S
ENCODING 83
SWIDTH 480 0
DWIDTH 10 0
BBX 10 20 0 -4
BITMAP
0000
0000
0000
1F00
3F80
79C0
7080
7800
3C00
1F00
0780
03C0
21C0
73C0
3F80
1F00
0000
0000
0000
0000
ENDCHAR
STARTCHAR U+0054 latin capital letter T
ENCODING 84
SWIDTH 480 0
DWIDTH 10 0
BBX 10 20 0 -4
BITMAP
0000
0000
0000
7FC0
7FC0
0E00
0E00
0E00
0E00
0E00
0E00
0E00
0E00
0E00
0E00
0E00
0000
0000
0000
0000
ENDCHAR
STARTCHAR U+0055 latin capital letter U
ENCODING 85
SWIDTH 480 0
DWIDTH 10 0
BBX 10 20 0 -4
BITMAP
0000
0000
0000
71C0
71C0
71C0
71C0
71C0
71C0
71C0
71C0
71C0
71C0
7BC0
3F80
1F00
0000
0000
0000
0000
ENDCHAR
STARTCHAR U+0056 latin capital letter V
ENCODING 86
SWIDTH 480 0
DWIDTH 10 0
BBX 10 20 0 -4
BITMAP
0000
0000
0000
71C0
71C0
71C0
71C0
71C0
71C0
71C0
3180
3B80
1B00
1F00
0E00
0E00
0000
0000
0000
0000
ENDCHAR
STARTCHAR U+0057 latin capital letter W
ENCODING 87
SWIDTH 480 0
DWIDTH 10 0
BBX 10 20 0 -4
BITMAP
0000
0000
0000
71C0
71C0
71C0
71C0
71C0
71C0
71C0
75C0
75C0
7FC0
7FC0
7BC0
3180
0000
0000
0000
0000
ENDCHAR
STARTCHAR U+0058 latin capital letter X
ENCODING 88
SWIDTH 480 0
DWIDTH 10 0
BBX 10 20 0 -4
BITMAP
0000
0000
0000
71C0
71C0
3B80
3B80
1F00
1F00
0E00
1F00
1F00
3B80
3B80
71C0
71C0
0000
0000
0000
0000
ENDCHAR
STARTCHAR U+0059 latin capital letter Y
ENCODING 89
SWIDTH 480 0
DWIDTH 10 0
BBX 10 20 0 -4
BITMAP
0000
0000
0000
71C0
71C0
71C0
71C0
7BC0
3F80
1F00
0E00
0E00
0E00
0E00
0E00
0E00
0000
0000
0000
0000
ENDCHAR
STARTCHAR U+005a latin capital letter Z
ENCODING 90
SWIDTH 480 0
DWIDTH 10 0
BBX 10 20 0 -4
BITMAP
0000
0000
0000
7FC0
7FC0
01C0
0380
0700
0700
0E00
1C00
1C00
3800
7000
7FC0
7FC0
0000
0000
0000
0000
ENDCHAR
STARTCHAR U+005b left square bracket
ENCODING 91
SWIDTH 480 0
DWIDTH 10 0
BBX 10 20 0 -4
BITMAP
0000
0000
3F80
3F80
3800
3800
3800
3800
3800
3800
3800
3800
3800
3800
3800
3800
3800
3F80
3F80
0000
ENDCHAR
STARTCHAR U+005c backslash
ENCODING 92
SWIDTH 480 0
DWIDTH 10 0
BBX 10 20 0 -4
BITMAP
0000
0000
6000
7000
3000
3800
1800
1C00
0C00
0E00
0600
0700
0300
0380
0180
01C0
00C0
00C0
0000
0000
ENDCHAR
STARTCHAR U+005d right square bracket
ENCODING 93
SWIDTH 480 0
DWIDTH 10 0
BBX 10 20 0 -4
BITMAP
0000
0000
7F00
7F00
0700
0700
0700
0700
0700
0700
0700
0700
0700
0700
0700
0700
0700
7F00
7F00
0000
ENDCHAR
STARTCHAR U+005e circumflex
ENCODING 94
SWIDTH 480 0
DWIDTH 10 0
BBX 10 20 0 -4
BITMAP
0000
0000
0000
0C00
1E00
3F00
7380
6180
0000
0000
0000
0000
0000
0000
0000
0000
0000
0000
0000
0000
ENDCHAR
STARTCHAR U+005f underscore
ENCODING 95
SWIDTH 480 0
DWIDTH 10 0
BBX 10 20 0 -4
BITMAP
0000
0000
0000
0000
0000
0000
0000
0000
0000
0000
0000
0000
0000
0000
0000
0000
0000
7FC0
7FC0
7FC0
ENDCHAR
STARTCHAR U+0060 grave accent
ENCODING 96
SWIDTH 480 0
DWIDTH 10 0
BBX 10 20 0 -4
BITMAP
0000
0000
3C00
1C00
0E00
0600
0300
0000
0000
0000
0000
0000
0000
0000
0000
0000
0000
0000
0000
0000
ENDCHAR
STARTCHAR U+0061 latin small letter a
ENCODING 97
SWIDTH 480 0
DWIDTH 10 0
BBX 10 20 0 -4
BITMAP
0000
0000
0000
0000
0000
0000
0000
3F00
3F80
01C0
1FC0
3FC0
71C0
73C0
7FC0
3DC0
0000
0000
0000
0000
ENDCHAR
STARTCHAR U+0062 latin small letter b
ENCODING 98
SWIDTH 480 0
DWIDTH 10 0
BBX 10 20 0 -4
BITMAP
0000
0000
0000
7000
7000
7000
7000
7700
7F80
7BC0
71C0
71C0
71C0
7BC0
7F80
7700
0000
0000
0000
0000
ENDCHAR
STARTCHAR U+0063 latin small letter c
ENCODING 99
SWIDTH 480 0
DWIDTH 10 0
BBX 10 20 0 -4
BITMAP
0000
0000
0000
0000
0000
0000
0000
1F80
3FC0
78C0
7000
7000
7000
78C0
3FC0
1F80
0000
0000
0000
0000
ENDCHAR
STARTCHAR U+0064 latin small letter d
ENCODING 100
SWIDTH 480 0
DWIDTH 10 0
BBX 10 20 0 -4
BITMAP
0000
0000
0000
01C0
01C0
01C0
01C0
1DC0
3FC0
7BC0
71C0
71C0
71C0
7BC0
3FC0
1DC0
0000
0000
0000
0000
ENDCHAR
STARTCHAR U+0065 latin small letter e
ENCODING 101
SWIDTH 480 0
DWIDTH 10 0
BBX 10 20 0 -4
BITMAP
0000
0000
0000
0000
0000
0000
0000
1F00
3F80
71C0
7FC0
7FC0
7000
78C0
3FC0
1F80
0000
0000
0000
0000
ENDCHAR
STARTCHAR U+0066 latin small letter f
ENCODING 102
SWIDTH 480 0
DWIDTH 10 0
BBX 10 20 0 -4
BITMAP
0000
0000
0000
0F80
1FC0
3CC0
3800
3800
3800
7F80
7F80
3800
3800
3800
3800
3800
0000
0000
0000
0000
ENDCHAR
STARTCHAR U+0067 latin small letter g
ENCODING 103
SWIDTH 480 0
DWIDTH 10 0
BBX 10 20 0 -4
BITMAP
0000
0000
0000
0000
0000
0000
0000
1DC0
3FC0
7BC0
71C0
71C0
7BC0
3FC0
1DC0
01C0
21C0
73C0
3F80
1F00
ENDCHAR
STARTCHAR U+0068 latin small letter h
ENCODING 104
SWIDTH 480 0
DWIDTH 10 0
BBX 10 20 0 -4
BITMAP
0000
0000
0000
7000
7000
7000
7000
7700
7F80
7BC0
71C0
71C0
71C0
71C0
71C0
71C0
0000
0000
0000
0000
ENDCHAR
STARTCHAR U+0069 latin small letter i
ENCODING 105
SWIDTH 480 0
DWIDTH 10 0
BBX 10 20 0 -4
BITMAP
0000
0000
0000
0E00
0E00
0E00
0000
3E00
3E00
0E00
0E00
0E00
0E00
0E00
0E00
0E00
0000
0000
0000
0000
ENDCHAR
STARTCHAR U+006a latin small letter j
ENCODING 106
SWIDTH 480 0
DWIDTH 10 0
BBX 10 20 0 -4
BITMAP
0000
0000
0000
0380
0380
0380
0000
0F80
0F80
0380
0380
0380
0380
0380
0380
0380
2380
7780
3F00
1E00
ENDCHAR
STARTCHAR U+006b latin small letter k
ENCODING 107
SWIDTH 480 0
DWIDTH 10 0
BBX 10 20 0 -4
BITMAP
0000
0000
0000
7000
7000
7000
7000
7380
7700
7E00
7C00
7C00
7E00
7700
7380
71C0
0000
0000
0000
0000
ENDCHAR
STARTCHAR U+006c latin small letter l
ENCODING 108
SWIDTH 480 0
DWIDTH 10 0
BBX 10 20 0 -4
BITMAP
0000
0000
0000
1C00
1C00
1C00
1C00
1C00
1C00
1C00
1C00
1C00
1C00
1E00
0F80
0780
0000
0000
0000
0000
ENDCHAR
STARTCHAR U+006d latin small letter m
ENCODING 109
SWIDTH 480 0
DWIDTH 10 0
BBX 10 20 0 -4
BITMAP
0000
0000
0000
0000
0000
0000
0000
6D80
7FC0
7FC0
75C0
75C0
75C0
75C0
75C0
71C0
0000
0000
0000
0000
ENDCHAR
STARTCHAR U+006e latin small letter n
ENCODING 110
SWIDTH 480 0
DWIDTH 10 0
BBX 10 20 0 -4
BITMAP
0000
0000
0000
0000
0000
0000
0000
7700
7F80
7BC0
71C0
71C0
71C0
71C0
71C0
71C0
0000
0000
0000
0000
ENDCHAR
STARTCHAR U+006f latin small letter o
ENCODING 111
SWIDTH 480 0
DWIDTH 10 0
BBX 10 20 0 -4
BITMAP
0000
0000
0000
0000
0000
0000
0000
1F00
3F80
7BC0
71C0
71C0
71C0
7BC0
3F80
1F00
0000
0000
0000
0000
ENDCHAR
STARTCHAR U+0070 latin small letter p
ENCODING 112
SWIDTH 480 0
DWIDTH 10 0
BBX 10 20 0 -4
BITMAP
0000
0000
0000
0000
0000
0000
0000
7700
7F80
7BC0
71C0
71C0
7BC0
7F80
7700
7000
7000
7000
7000
7000
ENDCHAR
STARTCHAR U+0071 latin small letter q
ENCODING 113
SWIDTH 480 0
DWIDTH 10 0
BBX 10 20 0 -4
BITMAP
0000
0000
0000
0000
0000
0000
0000
1DC0
3FC0
7BC0
71C0
71C0
7BC0
3FC0
1DC0
01C0
01C0
01C0
01C0
01C0
ENDCHAR
STARTCHAR U+0072 latin small letter r
ENCODING 114
SWIDTH 480 0
DWIDTH 10 0
BBX 10 20 0 -4
BITMAP
0000
0000
0000
0000
0000
0000
0000
7780
7FC0
78C0
7000
7000
7000
7000
7000
7000
0000
0000
0000
0000
ENDCHAR
STARTCHAR U+0073 latin small letter s
ENCODING 115
SWIDTH 480 0
DWIDTH 10 0
BBX 10 20 0 -4
BITMAP
0000
0000
0000
0000
0000
0000
0000
3F80
7FC0
70C0
7E00
3F80
07C0
61C0
7FC0
3F80
0000
0000
0000
0000
ENDCHAR
STARTCHAR U+0074 latin small letter t
ENCODING 116
SWIDTH 480 0
DWIDTH 10 0
BBX 10 20 0 -4
BITMAP
0000
0000
0000
0000
3800
3800
3800
7F80
7F80
3800
3800
3800
3800
3CC0
1FC0
0F80
0000
0000
0000
0000
ENDCHAR
STARTCHAR U+0075 latin small letter u
ENCODING 117
SWIDTH 480 0
DWIDTH 10 0
BBX 10 20 0 -4
BITMAP
0000
0000
0000
0000
0000
0000
0000
71C0
71C0
71C0
71C0
71C0
71C0
7BC0
3FC0
1DC0
0000
0000
0000
0000
ENDCHAR
STARTCHAR U+0076 latin small letter v
ENCODING 118
SWIDTH 480 0
DWIDTH 10 0
BBX 10 20 0 -4
BITMAP
0000
0000
0000
0000
0000
0000
0000
71C0
71C0
71C0
3180
3B80
1B00
1F00
0E00
0E00
0000
0000
0000
0000
ENDCHAR
STARTCHAR U+0077 latin small letter w
ENCODING 119
SWIDTH 480 0
DWIDTH 10 0
BBX 10 20 0 -4
BITMAP
0000
0000
0000
0000
0000
0000
0000
71C0
71C0
71C0
75C0
75C0
7FC0
7FC0
7BC0
3180
0000
0000
0000
0000
ENDCHAR
STARTCHAR U+0078 latin small letter x
ENCODING 120
SWIDTH 480 0
DWIDTH 10 0
BBX 10 20 0 -4
BITMAP
0000
0000
0000
0000
0000
0000
0000
71C0
71C0
3B80
1F00
0E00
1F00
3B80
71C0
71C0
0000
0000
0000
0000
ENDCHAR
STARTCHAR U+0079 latin small letter y
ENCODING 121
SWIDTH 480 0
DWIDTH 10 0
BBX 10 20 0 -4
BITMAP
0000
0000
0000
0000
0000
0000
0000
71C0
71C0
71C0
71C0
71C0
7BC0
3FC0
1DC0
01C0
21C0
73C0
3F80
1F00
ENDCHAR
STARTCHAR U+007a latin small letter z
ENCODING 122
SWIDTH 480 0
DWIDTH 10 0
BBX 10 20 0 -4
BITMAP
0000
0000
0000
0000
0000
0000
0000
7FC0
7FC0
0380
0700
0E00
1C00
3800
7FC0
7FC0
0000
0000
0000
0000
ENDCHAR
STARTCHAR U+007b left curly brace
ENCODING 123
SWIDTH 480 0
DWIDTH 10 0
BBX 10 20 0 -4
BITMAP
0000
0000
0780
0F80
0E00
0E00
0E00
0E00
0E00
3C00
7800
3C00
0E00
0E00
0E00
0E00
0E00
0F80
0780
0000
ENDCHAR
STARTCHAR U+007c vertical bar
ENCODING 124
SWIDTH 480 0
DWIDTH 10 0
BBX 10 20 0 -4
BITMAP
0000
0000
0E00
0E00
0E00
0E00
0E00
0E00
0E00
0E00
0E00
0E00
0E00
0E00
0E00
0E00
0E00
0E00
0000
0000
ENDCHAR
STARTCHAR U+007d right curly brace
ENCODING 125
SWIDTH 480 0
DWIDTH 10 0
BBX 10 20 0 -4
BITMAP
0000
0000
7800
7C00
1C00
1C00
1C00
1C00
1C00
0F00
0780
0F00
1C00
1C00
1C00
1C00
1C00
7C00
7800
0000
ENDCHAR
STARTCHAR U+007e tilde
ENCODING 126
SWIDTH 480 0
DWIDTH 10 0
BBX 10 20 0 -4
BITMAP
0000
0000
0000
0000
39C0
7DC0
7FC0
77C0
7380
0000
0000
0000
0000
0000
0000
0000
0000
0000
0000
0000
ENDCHAR
STARTCHAR nil
ENCODING 127
SWIDTH 480 0
DWIDTH 10 0
BBX 10 20 0 -4
BITMAP
0000
7F80
4080
4080
4080
4080
4080
4080
4080
4080
4080
4080
4080
4080
4080
4080
4080
4080
7F80
0000
ENDCHAR
ENDFONT
