STARTFONT 2.1
FONT -jmk-Neep-Medium-R-Normal--24-240-75-75-C-120-ISO8859-2
SIZE 24 75 75
FONTBOUNDINGBOX 12 24 0 -5
STARTPROPERTIES 29
FONTNAME_REGISTRY ""
FOUNDRY "jmk"
FAMILY_NAME "Neep"
WEIGHT_NAME "Medium"
SLANT "R"
SETWIDTH_NAME "Normal"
ADD_STYLE_NAME ""
PIXEL_SIZE 24
POINT_SIZE 240
RESOLUTION_X 75
RESOLUTION_Y 75
SPACING "C"
AVERAGE_WIDTH 120
CHARSET_REGISTRY "ISO8859"
CHARSET_ENCODING "2"
COPYRIGHT "Jim Knoble <jmknoble@pobox.com>"
WEIGHT 133
RESOLUTION 75
X_HEIGHT 11
FIGURE_WIDTH 12
QUAD_WIDTH 12
FONT_ASCENT 19
FONT_DESCENT 5
_XMBDFED_INFO "Edited with xmbdfed 3.7."
RELATIVE_WEIGHT 50
RELATIVE_SETWIDTH 50
CAP_HEIGHT 16
UNDERLINE_POSITION -2
UNDERLINE_THICKNESS 2
ENDPROPERTIES
CHARS 128
STARTCHAR nil
ENCODING 128
SWIDTH 480 0
DWIDTH 12 0
BBX 12 24 0 -5
BITMAP
0000
7FE0
4020
4020
4020
4020
4020
4020
4020
4020
4020
4020
4020
4020
4020
4020
4020
4020
4020
4020
4020
4020
7FE0
0000
ENDCHAR
STARTCHAR nil
ENCODING 129
SWIDTH 480 0
DWIDTH 12 0
BBX 12 24 0 -5
BITMAP
0000
7FE0
4020
4020
4020
4020
4020
4020
4020
4020
4020
4020
4020
4020
4020
4020
4020
4020
4020
4020
4020
4020
7FE0
0000
ENDCHAR
STARTCHAR nil
ENCODING 130
SWIDTH 480 0
DWIDTH 12 0
BBX 12 24 0 -5
BITMAP
0000
7FE0
4020
4020
4020
4020
4020
4020
4020
4020
4020
4020
4020
4020
4020
4020
4020
4020
4020
4020
4020
4020
7FE0
0000
ENDCHAR
STARTCHAR nil
ENCODING 131
SWIDTH 480 0
DWIDTH 12 0
BBX 12 24 0 -5
BITMAP
0000
7FE0
4020
4020
4020
4020
4020
4020
4020
4020
4020
4020
4020
4020
4020
4020
4020
4020
4020
4020
4020
4020
7FE0
0000
ENDCHAR
STARTCHAR nil
ENCODING 132
SWIDTH 480 0
DWIDTH 12 0
BBX 12 24 0 -5
BITMAP
0000
7FE0
4020
4020
4020
4020
4020
4020
4020
4020
4020
4020
4020
4020
4020
4020
4020
4020
4020
4020
4020
4020
7FE0
0000
ENDCHAR
STARTCHAR nil
ENCODING 133
SWIDTH 480 0
DWIDTH 12 0
BBX 12 24 0 -5
BITMAP
0000
7FE0
4020
4020
4020
4020
4020
4020
4020
4020
4020
4020
4020
4020
4020
4020
4020
4020
4020
4020
4020
4020
7FE0
0000
ENDCHAR
STARTCHAR nil
ENCODING 134
SWIDTH 480 0
DWIDTH 12 0
BBX 12 24 0 -5
BITMAP
0000
7FE0
4020
4020
4020
4020
4020
4020
4020
4020
4020
4020
4020
4020
4020
4020
4020
4020
4020
4020
4020
4020
7FE0
0000
ENDCHAR
STARTCHAR nil
ENCODING 135
SWIDTH 480 0
DWIDTH 12 0
BBX 12 24 0 -5
BITMAP
0000
7FE0
4020
4020
4020
4020
4020
4020
4020
4020
4020
4020
4020
4020
4020
4020
4020
4020
4020
4020
4020
4020
7FE0
0000
ENDCHAR
STARTCHAR nil
ENCODING 136
SWIDTH 480 0
DWIDTH 12 0
BBX 12 24 0 -5
BITMAP
0000
7FE0
4020
4020
4020
4020
4020
4020
4020
4020
4020
4020
4020
4020
4020
4020
4020
4020
4020
4020
4020
4020
7FE0
0000
ENDCHAR
STARTCHAR nil
ENCODING 137
SWIDTH 480 0
DWIDTH 12 0
BBX 12 24 0 -5
BITMAP
0000
7FE0
4020
4020
4020
4020
4020
4020
4020
4020
4020
4020
4020
4020
4020
4020
4020
4020
4020
4020
4020
4020
7FE0
0000
ENDCHAR
STARTCHAR nil
ENCODING 138
SWIDTH 480 0
DWIDTH 12 0
BBX 12 24 0 -5
BITMAP
0000
7FE0
4020
4020
4020
4020
4020
4020
4020
4020
4020
4020
4020
4020
4020
4020
4020
4020
4020
4020
4020
4020
7FE0
0000
ENDCHAR
STARTCHAR nil
ENCODING 139
SWIDTH 480 0
DWIDTH 12 0
BBX 12 24 0 -5
BITMAP
0000
7FE0
4020
4020
4020
4020
4020
4020
4020
4020
4020
4020
4020
4020
4020
4020
4020
4020
4020
4020
4020
4020
7FE0
0000
ENDCHAR
STARTCHAR nil
ENCODING 140
SWIDTH 480 0
DWIDTH 12 0
BBX 12 24 0 -5
BITMAP
0000
7FE0
4020
4020
4020
4020
4020
4020
4020
4020
4020
4020
4020
4020
4020
4020
4020
4020
4020
4020
4020
4020
7FE0
0000
ENDCHAR
STARTCHAR nil
ENCODING 141
SWIDTH 480 0
DWIDTH 12 0
BBX 12 24 0 -5
BITMAP
0000
7FE0
4020
4020
4020
4020
4020
4020
4020
4020
4020
4020
4020
4020
4020
4020
4020
4020
4020
4020
4020
4020
7FE0
0000
ENDCHAR
STARTCHAR nil
ENCODING 142
SWIDTH 480 0
DWIDTH 12 0
BBX 12 24 0 -5
BITMAP
0000
7FE0
4020
4020
4020
4020
4020
4020
4020
4020
4020
4020
4020
4020
4020
4020
4020
4020
4020
4020
4020
4020
7FE0
0000
ENDCHAR
STARTCHAR nil
ENCODING 143
SWIDTH 480 0
DWIDTH 12 0
BBX 12 24 0 -5
BITMAP
0000
7FE0
4020
4020
4020
4020
4020
4020
4020
4020
4020
4020
4020
4020
4020
4020
4020
4020
4020
4020
4020
4020
7FE0
0000
ENDCHAR
STARTCHAR nil
ENCODING 144
SWIDTH 480 0
DWIDTH 12 0
BBX 12 24 0 -5
BITMAP
0000
7FE0
4020
4020
4020
4020
4020
4020
4020
4020
4020
4020
4020
4020
4020
4020
4020
4020
4020
4020
4020
4020
7FE0
0000
ENDCHAR
STARTCHAR nil
ENCODING 145
SWIDTH 480 0
DWIDTH 12 0
BBX 12 24 0 -5
BITMAP
0000
7FE0
4020
4020
4020
4020
4020
4020
4020
4020
4020
4020
4020
4020
4020
4020
4020
4020
4020
4020
4020
4020
7FE0
0000
ENDCHAR
STARTCHAR nil
ENCODING 146
SWIDTH 480 0
DWIDTH 12 0
BBX 12 24 0 -5
BITMAP
0000
7FE0
4020
4020
4020
4020
4020
4020
4020
4020
4020
4020
4020
4020
4020
4020
4020
4020
4020
4020
4020
4020
7FE0
0000
ENDCHAR
STARTCHAR nil
ENCODING 147
SWIDTH 480 0
DWIDTH 12 0
BBX 12 24 0 -5
BITMAP
0000
7FE0
4020
4020
4020
4020
4020
4020
4020
4020
4020
4020
4020
4020
4020
4020
4020
4020
4020
4020
4020
4020
7FE0
0000
ENDCHAR
STARTCHAR nil
ENCODING 148
SWIDTH 480 0
DWIDTH 12 0
BBX 12 24 0 -5
BITMAP
0000
7FE0
4020
4020
4020
4020
4020
4020
4020
4020
4020
4020
4020
4020
4020
4020
4020
4020
4020
4020
4020
4020
7FE0
0000
ENDCHAR
STARTCHAR nil
ENCODING 149
SWIDTH 480 0
DWIDTH 12 0
BBX 12 24 0 -5
BITMAP
0000
7FE0
4020
4020
4020
4020
4020
4020
4020
4020
4020
4020
4020
4020
4020
4020
4020
4020
4020
4020
4020
4020
7FE0
0000
ENDCHAR
STARTCHAR nil
ENCODING 150
SWIDTH 480 0
DWIDTH 12 0
BBX 12 24 0 -5
BITMAP
0000
7FE0
4020
4020
4020
4020
4020
4020
4020
4020
4020
4020
4020
4020
4020
4020
4020
4020
4020
4020
4020
4020
7FE0
0000
ENDCHAR
STARTCHAR nil
ENCODING 151
SWIDTH 480 0
DWIDTH 12 0
BBX 12 24 0 -5
BITMAP
0000
7FE0
4020
4020
4020
4020
4020
4020
4020
4020
4020
4020
4020
4020
4020
4020
4020
4020
4020
4020
4020
4020
7FE0
0000
ENDCHAR
STARTCHAR nil
ENCODING 152
SWIDTH 480 0
DWIDTH 12 0
BBX 12 24 0 -5
BITMAP
0000
7FE0
4020
4020
4020
4020
4020
4020
4020
4020
4020
4020
4020
4020
4020
4020
4020
4020
4020
4020
4020
4020
7FE0
0000
ENDCHAR
STARTCHAR nil
ENCODING 153
SWIDTH 480 0
DWIDTH 12 0
BBX 12 24 0 -5
BITMAP
0000
7FE0
4020
4020
4020
4020
4020
4020
4020
4020
4020
4020
4020
4020
4020
4020
4020
4020
4020
4020
4020
4020
7FE0
0000
ENDCHAR
STARTCHAR nil
ENCODING 154
SWIDTH 480 0
DWIDTH 12 0
BBX 12 24 0 -5
BITMAP
0000
7FE0
4020
4020
4020
4020
4020
4020
4020
4020
4020
4020
4020
4020
4020
4020
4020
4020
4020
4020
4020
4020
7FE0
0000
ENDCHAR
STARTCHAR nil
ENCODING 155
SWIDTH 480 0
DWIDTH 12 0
BBX 12 24 0 -5
BITMAP
0000
7FE0
4020
4020
4020
4020
4020
4020
4020
4020
4020
4020
4020
4020
4020
4020
4020
4020
4020
4020
4020
4020
7FE0
0000
ENDCHAR
STARTCHAR nil
ENCODING 156
SWIDTH 480 0
DWIDTH 12 0
BBX 12 24 0 -5
BITMAP
0000
7FE0
4020
4020
4020
4020
4020
4020
4020
4020
4020
4020
4020
4020
4020
4020
4020
4020
4020
4020
4020
4020
7FE0
0000
ENDCHAR
STARTCHAR nil
ENCODING 157
SWIDTH 480 0
DWIDTH 12 0
BBX 12 24 0 -5
BITMAP
0000
7FE0
4020
4020
4020
4020
4020
4020
4020
4020
4020
4020
4020
4020
4020
4020
4020
4020
4020
4020
4020
4020
7FE0
0000
ENDCHAR
STARTCHAR nil
ENCODING 158
SWIDTH 480 0
DWIDTH 12 0
BBX 12 24 0 -5
BITMAP
0000
7FE0
4020
4020
4020
4020
4020
4020
4020
4020
4020
4020
4020
4020
4020
4020
4020
4020
4020
4020
4020
4020
7FE0
0000
ENDCHAR
STARTCHAR nil
ENCODING 159
SWIDTH 480 0
DWIDTH 12 0
BBX 12 24 0 -5
BITMAP
0000
7FE0
4020
4020
4020
4020
4020
4020
4020
4020
4020
4020
4020
4020
4020
4020
4020
4020
4020
4020
4020
4020
7FE0
0000
ENDCHAR
STARTCHAR U+00a0 no-break space
ENCODING 160
SWIDTH 480 0
DWIDTH 12 0
BBX 12 24 0 -5
BITMAP
0000
0000
0000
0000
0000
0000
0000
0000
0000
0000
0000
0000
0000
0000
0000
0000
0000
0000
0000
0000
0000
0000
0000
0000
ENDCHAR
STARTCHAR U+0104 latin captial letter A with ogonek
ENCODING 161
SWIDTH 480 0
DWIDTH 12 0
BBX 12 24 0 -5
BITMAP
0000
0000
0000
1F80
3FC0
70E0
6060
6060
6060
6060
7FE0
7FE0
6060
6060
6060
6060
6060
6060
60E0
0180
0300
0300
03C0
01C0
ENDCHAR
STARTCHAR U+02d8 breve
ENCODING 162
SWIDTH 480 0
DWIDTH 12 0
BBX 12 24 0 -5
BITMAP
0000
0000
2040
30C0
1F80
0F00
0000
0000
0000
0000
0000
0000
0000
0000
0000
0000
0000
0000
0000
0000
0000
0000
0000
0000
ENDCHAR
STARTCHAR U+0141 latin capital letter L with stroke
ENCODING 163
SWIDTH 480 0
DWIDTH 12 0
BBX 12 24 0 -5
BITMAP
0000
0000
0000
6000
6000
6000
6000
6400
6C00
7800
7000
E000
E000
6000
6000
6000
6000
7FE0
7FE0
0000
0000
0000
0000
0000
ENDCHAR
STARTCHAR U+00a4 currency sign
ENCODING 164
SWIDTH 480 0
DWIDTH 12 0
BBX 12 24 0 -5
BITMAP
0000
0000
0000
0000
0000
0000
0000
0000
2040
76E0
3FC0
1980
30C0
30C0
30C0
1980
3FC0
76E0
2040
0000
0000
0000
0000
0000
ENDCHAR
STARTCHAR U+013d latin capital letter L with caron
ENCODING 165
SWIDTH 480 0
DWIDTH 12 0
BBX 12 24 0 -5
BITMAP
0000
6180
3300
1E00
0C00
0000
6000
6000
6000
6000
6000
6000
6000
6000
6000
6000
6000
7FE0
7FE0
0000
0000
0000
0000
0000
ENDCHAR
STARTCHAR U+015a latin capital letter S with acute
ENCODING 166
SWIDTH 480 0
DWIDTH 12 0
BBX 12 24 0 -5
BITMAP
0000
0000
03C0
0700
0C00
0000
1F80
3FC0
70E0
6040
7000
3E00
1F80
03C0
00E0
2060
70E0
3FC0
1F80
0000
0000
0000
0000
0000
ENDCHAR
STARTCHAR U+00a7 section sign
ENCODING 167
SWIDTH 480 0
DWIDTH 12 0
BBX 12 24 0 -5
BITMAP
0000
0000
0000
1FC0
3FC0
3000
3000
3800
1F00
1F80
39C0
30C0
30C0
39C0
1F80
0F80
01C0
00C0
00C0
3FC0
3F80
0000
0000
0000
ENDCHAR
STARTCHAR U+00a8 diaresis
ENCODING 168
SWIDTH 480 0
DWIDTH 12 0
BBX 12 24 0 -5
BITMAP
0000
0000
0000
1980
1980
1980
0000
0000
0000
0000
0000
0000
0000
0000
0000
0000
0000
0000
0000
0000
0000
0000
0000
0000
ENDCHAR
STARTCHAR U+0160 latin capital letter S with caron
ENCODING 169
SWIDTH 480 0
DWIDTH 12 0
BBX 12 24 0 -5
BITMAP
0000
30C0
1980
0F00
0600
0000
1F80
3FC0
70E0
6040
7000
3E00
1F80
03C0
00E0
2060
70E0
3FC0
1F80
0000
0000
0000
0000
0000
ENDCHAR
STARTCHAR U+015e latin capital letter S with cedilla
ENCODING 170
SWIDTH 480 0
DWIDTH 12 0
BBX 12 24 0 -5
BITMAP
0000
0000
0000
1F80
3FC0
70E0
6040
6000
7000
3C00
1F00
0780
01C0
00E0
0060
2060
70E0
3FC0
1F80
0600
0700
0180
0F80
0F00
ENDCHAR
STARTCHAR U+0164 latin capital letter T with caron
ENCODING 171
SWIDTH 480 0
DWIDTH 12 0
BBX 12 24 0 -5
BITMAP
0000
30C0
1980
0F00
0600
0000
7FE0
7FE0
0600
0600
0600
0600
0600
0600
0600
0600
0600
0600
0600
0000
0000
0000
0000
0000
ENDCHAR
STARTCHAR U+0179 latin capital letter Z with acute
ENCODING 172
SWIDTH 480 0
DWIDTH 12 0
BBX 12 24 0 -5
BITMAP
0000
0000
03C0
0700
0C00
0000
7FE0
7FE0
0060
00C0
0180
0300
0600
0C00
1800
3000
6000
7FE0
7FE0
0000
0000
0000
0000
0000
ENDCHAR
STARTCHAR U+00ad soft hyphen
ENCODING 173
SWIDTH 480 0
DWIDTH 12 0
BBX 12 24 0 -5
BITMAP
0000
0000
0000
0000
0000
0000
0000
0000
0000
0000
1F80
1F80
0000
0000
0000
0000
0000
0000
0000
0000
0000
0000
0000
0000
ENDCHAR
STARTCHAR U+017d latin capital letter Z with caron
ENCODING 174
SWIDTH 480 0
DWIDTH 12 0
BBX 12 24 0 -5
BITMAP
0000
30C0
1980
0F00
0600
0000
7FE0
7FE0
0060
00C0
0180
0300
0600
0C00
1800
3000
6000
7FE0
7FE0
0000
0000
0000
0000
0000
ENDCHAR
STARTCHAR U+017b latin capital letter Z with dot above
ENCODING 175
SWIDTH 480 0
DWIDTH 12 0
BBX 12 24 0 -5
BITMAP
0000
0000
0600
0600
0600
0000
7FE0
7FE0
0060
00C0
0180
0300
0600
0C00
1800
3000
6000
7FE0
7FE0
0000
0000
0000
0000
0000
ENDCHAR
STARTCHAR U+00b0 degree sign
ENCODING 176
SWIDTH 480 0
DWIDTH 12 0
BBX 12 24 0 -5
BITMAP
0000
0000
0000
0E00
1F00
3180
3180
3180
1F00
0E00
0000
0000
0000
0000
0000
0000
0000
0000
0000
0000
0000
0000
0000
0000
ENDCHAR
STARTCHAR U+0105 latin small letter a with ogonek
ENCODING 177
SWIDTH 480 0
DWIDTH 12 0
BBX 12 24 0 -5
BITMAP
0000
0000
0000
0000
0000
0000
0000
0000
1F80
1FC0
00E0
0060
1FE0
3FE0
7060
60E0
71E0
3F60
1EE0
0180
0300
0300
03C0
01C0
ENDCHAR
STARTCHAR U+02db ogonek
ENCODING 178
SWIDTH 480 0
DWIDTH 12 0
BBX 12 24 0 -5
BITMAP
0000
0000
0000
0000
0000
0000
0000
0000
0000
0000
0000
0000
0000
0000
0000
0000
0000
0000
0180
0300
0600
0600
0780
0380
ENDCHAR
STARTCHAR U+0142 latin small letter l with stroke
ENCODING 179
SWIDTH 480 0
DWIDTH 12 0
BBX 12 24 0 -5
BITMAP
0000
0000
0000
0C00
0C00
0C00
0C00
0C80
0D80
0F00
0E00
1C00
1C00
0C00
0C00
0C00
0E00
07C0
03C0
0000
0000
0000
0000
0000
ENDCHAR
STARTCHAR U+00b4 acute accent
ENCODING 180
SWIDTH 480 0
DWIDTH 12 0
BBX 12 24 0 -5
BITMAP
0000
0000
0000
03C0
0700
0C00
0000
0000
0000
0000
0000
0000
0000
0000
0000
0000
0000
0000
0000
0000
0000
0000
0000
0000
ENDCHAR
STARTCHAR U+013e latin small letter l with caron
ENCODING 181
SWIDTH 480 0
DWIDTH 12 0
BBX 12 24 0 -5
BITMAP
0000
30C0
1980
0F00
0600
0000
0C00
0C00
0C00
0C00
0C00
0C00
0C00
0C00
0C00
0C00
0E00
07C0
03C0
0000
0000
0000
0000
0000
ENDCHAR
STARTCHAR U+015b latin small letter s with acute
ENCODING 182
SWIDTH 480 0
DWIDTH 12 0
BBX 12 24 0 -5
BITMAP
0000
0000
0000
03C0
0700
0C00
0000
0000
1F80
3FC0
60E0
7840
3F00
0FC0
01E0
2060
70E0
3FC0
1F80
0000
0000
0000
0000
0000
ENDCHAR
STARTCHAR U+02c7 caron
ENCODING 183
SWIDTH 480 0
DWIDTH 12 0
BBX 12 24 0 -5
BITMAP
0000
0000
30C0
1980
0F00
0600
0000
0000
0000
0000
0000
0000
0000
0000
0000
0000
0000
0000
0000
0000
0000
0000
0000
0000
ENDCHAR
STARTCHAR U+00b8 cedilla
ENCODING 184
SWIDTH 480 0
DWIDTH 12 0
BBX 12 24 0 -5
BITMAP
0000
0000
0000
0000
0000
0000
0000
0000
0000
0000
0000
0000
0000
0000
0000
0000
0000
0000
0600
0600
0700
0180
0F80
0F00
ENDCHAR
STARTCHAR U+0161 latin small letter s with caron
ENCODING 185
SWIDTH 480 0
DWIDTH 12 0
BBX 12 24 0 -5
BITMAP
0000
0000
30C0
1980
0F00
0600
0000
0000
1F80
3FC0
60E0
7840
3F00
0FC0
01E0
2060
70E0
3FC0
1F80
0000
0000
0000
0000
0000
ENDCHAR
STARTCHAR U+015f latin small letter s with cedilla
ENCODING 186
SWIDTH 480 0
DWIDTH 12 0
BBX 12 24 0 -5
BITMAP
0000
0000
0000
0000
0000
0000
0000
0000
1F80
3FC0
60E0
7840
3F00
0FC0
01E0
2060
70E0
3FC0
1F80
0600
0700
0180
0F80
0F00
ENDCHAR
STARTCHAR U+0165 latin small letter t with caron
ENCODING 187
SWIDTH 480 0
DWIDTH 12 0
BBX 12 24 0 -5
BITMAP
0000
6180
3300
1E00
0C00
0000
1800
1800
7FC0
7FC0
1800
1800
1800
1800
1800
1840
1CE0
0FC0
0780
0000
0000
0000
0000
0000
ENDCHAR
STARTCHAR U+017a latin small letter z with acute
ENCODING 188
SWIDTH 480 0
DWIDTH 12 0
BBX 12 24 0 -5
BITMAP
0000
0000
0000
03C0
0700
0C00
0000
0000
7FE0
7FE0
00C0
0180
0300
0600
0C00
1800
3000
7FE0
7FE0
0000
0000
0000
0000
0000
ENDCHAR
STARTCHAR U+02dd double acute accent
ENCODING 189
SWIDTH 480 0
DWIDTH 12 0
BBX 12 24 0 -5
BITMAP
0000
0000
0000
0660
0CC0
1980
0000
0000
0000
0000
0000
0000
0000
0000
0000
0000
0000
0000
0000
0000
0000
0000
0000
0000
ENDCHAR
STARTCHAR U+017e latin small letter z with caron
ENCODING 190
SWIDTH 480 0
DWIDTH 12 0
BBX 12 24 0 -5
BITMAP
0000
0000
30C0
1980
0F00
0600
0000
0000
7FE0
7FE0
00C0
0180
0300
0600
0C00
1800
3000
7FE0
7FE0
0000
0000
0000
0000
0000
ENDCHAR
STARTCHAR U+017c latin small letter z with dot above
ENCODING 191
SWIDTH 480 0
DWIDTH 12 0
BBX 12 24 0 -5
BITMAP
0000
0000
0000
0600
0600
0600
0000
0000
7FE0
7FE0
00C0
0180
0300
0600
0C00
1800
3000
7FE0
7FE0
0000
0000
0000
0000
0000
ENDCHAR
STARTCHAR U+0154 latin capital letter R with acute
ENCODING 192
SWIDTH 480 0
DWIDTH 12 0
BBX 12 24 0 -5
BITMAP
0000
0000
03C0
0700
0C00
0000
7F80
7FC0
60E0
6060
6060
60E0
7FC0
7F80
6700
6380
61C0
60E0
6060
0000
0000
0000
0000
0000
ENDCHAR
STARTCHAR U+00c1 latin capital letter A with acute
ENCODING 193
SWIDTH 480 0
DWIDTH 12 0
BBX 12 24 0 -5
BITMAP
0000
0000
03C0
0700
0C00
0000
1F80
3FC0
70E0
6060
6060
6060
7FE0
7FE0
6060
6060
6060
6060
6060
0000
0000
0000
0000
0000
ENDCHAR
STARTCHAR U+00c2 latin capital letter A with circumflex
ENCODING 194
SWIDTH 480 0
DWIDTH 12 0
BBX 12 24 0 -5
BITMAP
0000
0600
0F00
1980
30C0
0000
1F80
3FC0
70E0
6060
6060
6060
7FE0
7FE0
6060
6060
6060
6060
6060
0000
0000
0000
0000
0000
ENDCHAR
STARTCHAR U+0102 latin capital letter A with breve
ENCODING 195
SWIDTH 480 0
DWIDTH 12 0
BBX 12 24 0 -5
BITMAP
0000
2040
30C0
1F80
0F00
0000
1F80
3FC0
70E0
6060
6060
6060
7FE0
7FE0
6060
6060
6060
6060
6060
0000
0000
0000
0000
0000
ENDCHAR
STARTCHAR U+00c4 latin capital letter A with diaresis
ENCODING 196
SWIDTH 480 0
DWIDTH 12 0
BBX 12 24 0 -5
BITMAP
0000
0000
1980
1980
1980
0000
1F80
3FC0
70E0
6060
6060
6060
7FE0
7FE0
6060
6060
6060
6060
6060
0000
0000
0000
0000
0000
ENDCHAR
STARTCHAR U+0139 latin capital letter L with acute
ENCODING 197
SWIDTH 480 0
DWIDTH 12 0
BBX 12 24 0 -5
BITMAP
0000
0000
0F00
1C00
3000
0000
6000
6000
6000
6000
6000
6000
6000
6000
6000
6000
6000
7FE0
7FE0
0000
0000
0000
0000
0000
ENDCHAR
STARTCHAR U+0106 latin capital letter C with acute
ENCODING 198
SWIDTH 480 0
DWIDTH 12 0
BBX 12 24 0 -5
BITMAP
0000
0000
03C0
0700
0C00
0000
1F80
3FC0
70E0
6040
6000
6000
6000
6000
6000
6040
70E0
3FC0
1F80
0000
0000
0000
0000
0000
ENDCHAR
STARTCHAR U+00c7 latin capital letter C with cedilla
ENCODING 199
SWIDTH 480 0
DWIDTH 12 0
BBX 12 24 0 -5
BITMAP
0000
0000
0000
1F80
3FC0
70E0
6040
6000
6000
6000
6000
6000
6000
6000
6000
6040
70E0
3FC0
1F80
0600
0700
0180
0F80
0F00
ENDCHAR
STARTCHAR U+010c latin capital letter C with caron
ENCODING 200
SWIDTH 480 0
DWIDTH 12 0
BBX 12 24 0 -5
BITMAP
0000
30C0
1980
0F00
0600
0000
1F80
3FC0
70E0
6040
6000
6000
6000
6000
6000
6040
70E0
3FC0
1F80
0000
0000
0000
0000
0000
ENDCHAR
STARTCHAR U+00c9 latin capital letter E with acute
ENCODING 201
SWIDTH 480 0
DWIDTH 12 0
BBX 12 24 0 -5
BITMAP
0000
0000
03C0
0700
0C00
0000
7FE0
7FE0
6000
6000
6000
7F80
7F80
6000
6000
6000
6000
7FE0
7FE0
0000
0000
0000
0000
0000
ENDCHAR
STARTCHAR U+0118 latin capital letter E with ogonek
ENCODING 202
SWIDTH 480 0
DWIDTH 12 0
BBX 12 24 0 -5
BITMAP
0000
0000
0000
7FE0
7FE0
6000
6000
6000
6000
6000
7F80
7F80
6000
6000
6000
6000
6000
7FE0
7FE0
0180
0300
0300
03C0
01C0
ENDCHAR
STARTCHAR U+00cb latin capital letter E with diaresis
ENCODING 203
SWIDTH 480 0
DWIDTH 12 0
BBX 12 24 0 -5
BITMAP
0000
0000
1980
1980
1980
0000
7FE0
7FE0
6000
6000
6000
7F80
7F80
6000
6000
6000
6000
7FE0
7FE0
0000
0000
0000
0000
0000
ENDCHAR
STARTCHAR U+011a latin capital letter E with caron
ENCODING 204
SWIDTH 480 0
DWIDTH 12 0
BBX 12 24 0 -5
BITMAP
0000
30C0
1980
0F00
0600
0000
7FE0
7FE0
6000
6000
6000
7F80
7F80
6000
6000
6000
6000
7FE0
7FE0
0000
0000
0000
0000
0000
ENDCHAR
STARTCHAR U+00cd latin capital letter I with acute
ENCODING 205
SWIDTH 480 0
DWIDTH 12 0
BBX 12 24 0 -5
BITMAP
0000
0000
03C0
0700
0C00
0000
3FC0
3FC0
0600
0600
0600
0600
0600
0600
0600
0600
0600
3FC0
3FC0
0000
0000
0000
0000
0000
ENDCHAR
STARTCHAR U+00ce latin capital letter I with circumflex
ENCODING 206
SWIDTH 480 0
DWIDTH 12 0
BBX 12 24 0 -5
BITMAP
0000
0600
0F00
1980
30C0
0000
3FC0
3FC0
0600
0600
0600
0600
0600
0600
0600
0600
0600
3FC0
3FC0
0000
0000
0000
0000
0000
ENDCHAR
STARTCHAR U+010e latin capital letter D with caron
ENCODING 207
SWIDTH 480 0
DWIDTH 12 0
BBX 12 24 0 -5
BITMAP
0000
6180
3300
1E00
0C00
0000
7E00
7F00
6180
60C0
6060
6060
6060
6060
6060
60C0
6180
7F00
7E00
0000
0000
0000
0000
0000
ENDCHAR
STARTCHAR U+0110 latin capital letter D with stroke
ENCODING 208
SWIDTH 480 0
DWIDTH 12 0
BBX 12 24 0 -5
BITMAP
0000
0000
0000
7E00
7F00
6180
60C0
6060
6060
6060
FC60
FC60
6060
6060
6060
60C0
6180
7F00
7E00
0000
0000
0000
0000
0000
ENDCHAR
STARTCHAR U+0143 latin capital letter N with acute
ENCODING 209
SWIDTH 480 0
DWIDTH 12 0
BBX 12 24 0 -5
BITMAP
0000
0000
03C0
0700
0C00
0000
6060
7060
7860
6860
6C60
6460
6660
6260
6360
6160
61E0
60E0
6060
0000
0000
0000
0000
0000
ENDCHAR
STARTCHAR U+0147 latin capital letter N with caron
ENCODING 210
SWIDTH 480 0
DWIDTH 12 0
BBX 12 24 0 -5
BITMAP
0000
30C0
1980
0F00
0600
0000
6060
7060
7860
6860
6C60
6460
6660
6260
6360
6160
61E0
60E0
6060
0000
0000
0000
0000
0000
ENDCHAR
STARTCHAR U+00d3 latin capital letter O with acute
ENCODING 211
SWIDTH 480 0
DWIDTH 12 0
BBX 12 24 0 -5
BITMAP
0000
0000
03C0
0700
0C00
0000
1F80
3FC0
70E0
6060
6060
6060
6060
6060
6060
6060
70E0
3FC0
1F80
0000
0000
0000
0000
0000
ENDCHAR
STARTCHAR U+00d4 latin capital letter O with circumflex
ENCODING 212
SWIDTH 480 0
DWIDTH 12 0
BBX 12 24 0 -5
BITMAP
0000
0600
0F00
1980
30C0
0000
1F80
3FC0
70E0
6060
6060
6060
6060
6060
6060
6060
70E0
3FC0
1F80
0000
0000
0000
0000
0000
ENDCHAR
STARTCHAR U+0150 latin capital letter O with double acute
ENCODING 213
SWIDTH 480 0
DWIDTH 12 0
BBX 12 24 0 -5
BITMAP
0000
0000
0660
0CC0
1980
0000
1F80
3FC0
70E0
6060
6060
6060
6060
6060
6060
6060
70E0
3FC0
1F80
0000
0000
0000
0000
0000
ENDCHAR
STARTCHAR U+00d6 latin capital letter O with diaresis
ENCODING 214
SWIDTH 480 0
DWIDTH 12 0
BBX 12 24 0 -5
BITMAP
0000
0000
1980
1980
1980
0000
1F80
3FC0
70E0
6060
6060
6060
6060
6060
6060
6060
70E0
3FC0
1F80
0000
0000
0000
0000
0000
ENDCHAR
STARTCHAR U+00d7 multiplication sign
ENCODING 215
SWIDTH 480 0
DWIDTH 12 0
BBX 12 24 0 -5
BITMAP
0000
0000
0000
0000
0000
0000
4040
60C0
3180
1B00
0E00
0E00
1B00
3180
60C0
4040
0000
0000
0000
0000
0000
0000
0000
0000
ENDCHAR
STARTCHAR U+0158 latin capital letter R with caron
ENCODING 216
SWIDTH 480 0
DWIDTH 12 0
BBX 12 24 0 -5
BITMAP
0000
30C0
1980
0F00
0600
0000
7F80
7FC0
60E0
6060
6060
60E0
7FC0
7F80
6700
6380
61C0
60E0
6060
0000
0000
0000
0000
0000
ENDCHAR
STARTCHAR U+016e latin capital letter U with ring above
ENCODING 217
SWIDTH 480 0
DWIDTH 12 0
BBX 12 24 0 -5
BITMAP
0000
0F00
1980
1080
1980
0F00
0000
6060
6060
6060
6060
6060
6060
6060
6060
6060
70E0
3FC0
1F80
0000
0000
0000
0000
0000
ENDCHAR
STARTCHAR U+00da latin capital letter U with acute
ENCODING 218
SWIDTH 480 0
DWIDTH 12 0
BBX 12 24 0 -5
BITMAP
0000
0000
03C0
0700
0C00
0000
6060
6060
6060
6060
6060
6060
6060
6060
6060
6060
70E0
3FC0
1F80
0000
0000
0000
0000
0000
ENDCHAR
STARTCHAR U+0170 latin capital letter U with double acute
ENCODING 219
SWIDTH 480 0
DWIDTH 12 0
BBX 12 24 0 -5
BITMAP
0000
0000
0660
0CC0
1980
0000
6060
6060
6060
6060
6060
6060
6060
6060
6060
6060
70E0
3FC0
1F80
0000
0000
0000
0000
0000
ENDCHAR
STARTCHAR U+00dc latin capital letter U with diaresis
ENCODING 220
SWIDTH 480 0
DWIDTH 12 0
BBX 12 24 0 -5
BITMAP
0000
0000
1980
1980
1980
0000
6060
6060
6060
6060
6060
6060
6060
6060
6060
6060
70E0
3FC0
1F80
0000
0000
0000
0000
0000
ENDCHAR
STARTCHAR U+00dd latin capital letter Y with acute
ENCODING 221
SWIDTH 480 0
DWIDTH 12 0
BBX 12 24 0 -5
BITMAP
0000
0000
03C0
0700
0C00
0000
6060
6060
6060
6060
6060
70E0
3FC0
1F80
0600
0600
0600
0600
0600
0000
0000
0000
0000
0000
ENDCHAR
STARTCHAR U+0162 latin capital letter T with cedilla
ENCODING 222
SWIDTH 480 0
DWIDTH 12 0
BBX 12 24 0 -5
BITMAP
0000
0000
0000
7FE0
7FE0
0600
0600
0600
0600
0600
0600
0600
0600
0600
0600
0600
0600
0600
0600
0300
0380
00C0
07C0
0780
ENDCHAR
STARTCHAR U+00df latin small letter sharp s
ENCODING 223
SWIDTH 480 0
DWIDTH 12 0
BBX 12 24 0 -5
BITMAP
0000
0000
0000
1F00
3F80
7180
6180
6300
6600
6600
6600
6300
6180
60C0
6060
6460
6E60
67E0
63C0
6000
6000
0000
0000
0000
ENDCHAR
STARTCHAR U+0155 latin small letter r with acute
ENCODING 224
SWIDTH 480 0
DWIDTH 12 0
BBX 12 24 0 -5
BITMAP
0000
0000
0000
03C0
0700
0C00
0000
0000
6780
6FC0
78E0
7040
6000
6000
6000
6000
6000
6000
6000
0000
0000
0000
0000
0000
ENDCHAR
STARTCHAR U+00e1 latin small letter a with acute
ENCODING 225
SWIDTH 480 0
DWIDTH 12 0
BBX 12 24 0 -5
BITMAP
0000
0000
0000
03C0
0700
0C00
0000
0000
1F80
1FC0
00E0
0060
1FE0
3FE0
7060
60E0
71E0
3F60
1E60
0000
0000
0000
0000
0000
ENDCHAR
STARTCHAR U+00e2 latin small letter a with circumflex
ENCODING 226
SWIDTH 480 0
DWIDTH 12 0
BBX 12 24 0 -5
BITMAP
0000
0000
0600
0F00
1980
30C0
0000
0000
1F80
1FC0
00E0
0060
1FE0
3FE0
7060
60E0
71E0
3F60
1E60
0000
0000
0000
0000
0000
ENDCHAR
STARTCHAR U+0103 latin small letter a with breve
ENCODING 227
SWIDTH 480 0
DWIDTH 12 0
BBX 12 24 0 -5
BITMAP
0000
0000
2040
30C0
1F80
0F00
0000
0000
1F80
1FC0
00E0
0060
1FE0
3FE0
7060
60E0
71E0
3F60
1E60
0000
0000
0000
0000
0000
ENDCHAR
STARTCHAR U+00e4 latin small letter a with diaresis
ENCODING 228
SWIDTH 480 0
DWIDTH 12 0
BBX 12 24 0 -5
BITMAP
0000
0000
0000
1980
1980
1980
0000
0000
1F80
1FC0
00E0
0060
1FE0
3FE0
7060
60E0
71E0
3F60
1E60
0000
0000
0000
0000
0000
ENDCHAR
STARTCHAR U+013a latin small letter l with acute
ENCODING 229
SWIDTH 480 0
DWIDTH 12 0
BBX 12 24 0 -5
BITMAP
0000
0000
03C0
0700
0C00
0000
0C00
0C00
0C00
0C00
0C00
0C00
0C00
0C00
0C00
0C00
0E00
07C0
03C0
0000
0000
0000
0000
0000
ENDCHAR
STARTCHAR U+0107 latin small letter c with acute
ENCODING 230
SWIDTH 480 0
DWIDTH 12 0
BBX 12 24 0 -5
BITMAP
0000
0000
0000
03C0
0700
0C00
0000
0000
1F80
3FC0
70E0
6040
6000
6000
6000
6040
70E0
3FC0
1F80
0000
0000
0000
0000
0000
ENDCHAR
STARTCHAR U+00e7 latin small letter c with cedilla
ENCODING 231
SWIDTH 480 0
DWIDTH 12 0
BBX 12 24 0 -5
BITMAP
0000
0000
0000
0000
0000
0000
0000
0000
1F80
3FC0
70E0
6040
6000
6000
6000
6040
70E0
3FC0
1F80
0600
0700
0180
0F80
0F00
ENDCHAR
STARTCHAR U+010d latin small letter c with caron
ENCODING 232
SWIDTH 480 0
DWIDTH 12 0
BBX 12 24 0 -5
BITMAP
0000
0000
30C0
1980
0F00
0600
0000
0000
1F80
3FC0
70E0
6040
6000
6000
6000
6040
70E0
3FC0
1F80
0000
0000
0000
0000
0000
ENDCHAR
STARTCHAR U+00e9 latin small letter e with acute
ENCODING 233
SWIDTH 480 0
DWIDTH 12 0
BBX 12 24 0 -5
BITMAP
0000
0000
0000
03C0
0700
0C00
0000
0000
1F80
3FC0
70E0
6060
7FE0
7FE0
6000
6040
70E0
3FC0
1F80
0000
0000
0000
0000
0000
ENDCHAR
STARTCHAR U+0119 latin small letter e with ogonek
ENCODING 234
SWIDTH 480 0
DWIDTH 12 0
BBX 12 24 0 -5
BITMAP
0000
0000
0000
0000
0000
0000
0000
0000
1F80
3FC0
70E0
6060
7FE0
7FE0
6000
6040
70E0
3FC0
1F80
0600
0C00
0C00
0F00
0700
ENDCHAR
STARTCHAR U+00eb latin small letter e with diaresis
ENCODING 235
SWIDTH 480 0
DWIDTH 12 0
BBX 12 24 0 -5
BITMAP
0000
0000
0000
1980
1980
1980
0000
0000
1F80
3FC0
70E0
6060
7FE0
7FE0
6000
6040
70E0
3FC0
1F80
0000
0000
0000
0000
0000
ENDCHAR
STARTCHAR U+011b latin small letter e with caron
ENCODING 236
SWIDTH 480 0
DWIDTH 12 0
BBX 12 24 0 -5
BITMAP
0000
0000
30C0
1980
0F00
0600
0000
0000
1F80
3FC0
70E0
6060
7FE0
7FE0
6000
6040
70E0
3FC0
1F80
0000
0000
0000
0000
0000
ENDCHAR
STARTCHAR U+00ed latin small letter i with acute
ENCODING 237
SWIDTH 480 0
DWIDTH 12 0
BBX 12 24 0 -5
BITMAP
0000
0000
0000
03C0
0700
0C00
0000
0000
1F00
1F00
0300
0300
0300
0300
0300
0300
0300
0300
0300
0000
0000
0000
0000
0000
ENDCHAR
STARTCHAR U+00ee latin small letter i with circumflex
ENCODING 238
SWIDTH 480 0
DWIDTH 12 0
BBX 12 24 0 -5
BITMAP
0000
0000
0600
0F00
1980
30C0
0000
0000
1F00
1F00
0300
0300
0300
0300
0300
0300
0300
0300
0300
0000
0000
0000
0000
0000
ENDCHAR
STARTCHAR U+010f latin small letter d with caron
ENCODING 239
SWIDTH 480 0
DWIDTH 12 0
BBX 12 24 0 -5
BITMAP
0000
30C0
1980
0F00
0660
0060
0060
0060
1E60
3F60
71E0
60E0
6060
6060
6060
60E0
71E0
3F60
1E60
0000
0000
0000
0000
0000
ENDCHAR
STARTCHAR U+0111 latin small letter d with stroke
ENCODING 240
SWIDTH 480 0
DWIDTH 12 0
BBX 12 24 0 -5
BITMAP
0000
0000
0000
0060
0060
03F0
03F0
0060
1E60
3F60
71E0
60E0
6060
6060
6060
60E0
71E0
3F60
1E60
0000
0000
0000
0000
0000
ENDCHAR
STARTCHAR U+0144 latin small letter n with acute
ENCODING 241
SWIDTH 480 0
DWIDTH 12 0
BBX 12 24 0 -5
BITMAP
0000
0000
0000
03C0
0700
0C00
0000
0000
6780
6FC0
78E0
7060
6060
6060
6060
6060
6060
6060
6060
0000
0000
0000
0000
0000
ENDCHAR
STARTCHAR U+0148 latin small letter n with caron
ENCODING 242
SWIDTH 480 0
DWIDTH 12 0
BBX 12 24 0 -5
BITMAP
0000
0000
30C0
1980
0F00
0600
0000
0000
6780
6FC0
78E0
7060
6060
6060
6060
6060
6060
6060
6060
0000
0000
0000
0000
0000
ENDCHAR
STARTCHAR U+00f3 latin small letter o with acute
ENCODING 243
SWIDTH 480 0
DWIDTH 12 0
BBX 12 24 0 -5
BITMAP
0000
0000
0000
03C0
0700
0C00
0000
0000
1F80
3FC0
70E0
6060
6060
6060
6060
6060
70E0
3FC0
1F80
0000
0000
0000
0000
0000
ENDCHAR
STARTCHAR U+00f4 latin small letter o with circumflex
ENCODING 244
SWIDTH 480 0
DWIDTH 12 0
BBX 12 24 0 -5
BITMAP
0000
0000
0600
0F00
1980
30C0
0000
0000
1F80
3FC0
70E0
6060
6060
6060
6060
6060
70E0
3FC0
1F80
0000
0000
0000
0000
0000
ENDCHAR
STARTCHAR U+0151 latin small letter o with double acute
ENCODING 245
SWIDTH 480 0
DWIDTH 12 0
BBX 12 24 0 -5
BITMAP
0000
0000
0000
0660
0CC0
1980
0000
0000
1F80
3FC0
70E0
6060
6060
6060
6060
6060
70E0
3FC0
1F80
0000
0000
0000
0000
0000
ENDCHAR
STARTCHAR U+00f6 latin small letter o with diaresis
ENCODING 246
SWIDTH 480 0
DWIDTH 12 0
BBX 12 24 0 -5
BITMAP
0000
0000
0000
1980
1980
1980
0000
0000
1F80
3FC0
70E0
6060
6060
6060
6060
6060
70E0
3FC0
1F80
0000
0000
0000
0000
0000
ENDCHAR
STARTCHAR U+00f7 division sign
ENCODING 247
SWIDTH 480 0
DWIDTH 12 0
BBX 12 24 0 -5
BITMAP
0000
0000
0000
0000
0000
0600
0600
0600
0000
0000
7FE0
7FE0
0000
0000
0600
0600
0600
0000
0000
0000
0000
0000
0000
0000
ENDCHAR
STARTCHAR U+0159 latin small letter r with caron
ENCODING 248
SWIDTH 480 0
DWIDTH 12 0
BBX 12 24 0 -5
BITMAP
0000
0000
30C0
1980
0F00
0600
0000
0000
6780
6FC0
78E0
7040
6000
6000
6000
6000
6000
6000
6000
0000
0000
0000
0000
0000
ENDCHAR
STARTCHAR U+016f latin small letter u with ring above
ENCODING 249
SWIDTH 480 0
DWIDTH 12 0
BBX 12 24 0 -5
BITMAP
0000
0000
0F00
1980
1080
1980
0F00
0000
6060
6060
6060
6060
6060
6060
6060
60E0
71E0
3F60
1E60
0000
0000
0000
0000
0000
ENDCHAR
STARTCHAR U+00fa latin small letter u with acute
ENCODING 250
SWIDTH 480 0
DWIDTH 12 0
BBX 12 24 0 -5
BITMAP
0000
0000
0000
03C0
0700
0C00
0000
0000
6060
6060
6060
6060
6060
6060
6060
60E0
71E0
3F60
1E60
0000
0000
0000
0000
0000
ENDCHAR
STARTCHAR U+0171 latin small letter u with double acute
ENCODING 251
SWIDTH 480 0
DWIDTH 12 0
BBX 12 24 0 -5
BITMAP
0000
0000
0000
0660
0CC0
1980
0000
0000
6060
6060
6060
6060
6060
6060
6060
60E0
71E0
3F60
1E60
0000
0000
0000
0000
0000
ENDCHAR
STARTCHAR U+00fc latin small letter u with diaresis
ENCODING 252
SWIDTH 480 0
DWIDTH 12 0
BBX 12 24 0 -5
BITMAP
0000
0000
0000
1980
1980
1980
0000
0000
6060
6060
6060
6060
6060
6060
6060
60E0
71E0
3F60
1E60
0000
0000
0000
0000
0000
ENDCHAR
STARTCHAR U+00fd latin small letter y with acute
ENCODING 253
SWIDTH 480 0
DWIDTH 12 0
BBX 12 24 0 -5
BITMAP
0000
0000
0000
03C0
0700
0C00
0000
0000
6060
6060
6060
6060
6060
6060
60E0
71E0
3F60
1E60
0060
0060
2060
70E0
3FC0
1F80
ENDCHAR
STARTCHAR U+0163 latin small letter t with cedilla
ENCODING 254
SWIDTH 480 0
DWIDTH 12 0
BBX 12 24 0 -5
BITMAP
0000
0000
0000
0000
0000
1800
1800
1800
7FC0
7FC0
1800
1800
1800
1800
1800
1840
1CE0
0FC0
0780
0300
0380
00C0
07C0
0780
ENDCHAR
STARTCHAR U+02d9 dot above
ENCODING 255
SWIDTH 480 0
DWIDTH 12 0
BBX 12 24 0 -5
BITMAP
0000
0000
0000
0600
0600
0600
0000
0000
0000
0000
0000
0000
0000
0000
0000
0000
0000
0000
0000
0000
0000
0000
0000
0000
ENDCHAR
ENDFONT
