STARTFONT 2.1
FONT -jmk-Neep-Bold-R-Normal--11-100-75-75-C-60-US-ASCII
SIZE 10 75 75
FONTBOUNDINGBOX 6 11 0 -2
STARTPROPERTIES 29
FONTNAME_REGISTRY ""
FOUNDRY "jmk"
FAMILY_NAME "Neep"
WEIGHT_NAME "Bold"
SLANT "R"
SETWIDTH_NAME "Normal"
ADD_STYLE_NAME ""
PIXEL_SIZE 11
POINT_SIZE 100
RESOLUTION_X 75
RESOLUTION_Y 75
SPACING "C"
AVERAGE_WIDTH 60
CHARSET_REGISTRY "US"
CHARSET_ENCODING "ASCII"
COPYRIGHT "Jim Knoble <jmknoble@pobox.com>"
WEIGHT 280
RESOLUTION 75
X_HEIGHT 5
FIGURE_WIDTH 6
QUAD_WIDTH 6
FONT_ASCENT 9
FONT_DESCENT 2
_XMBDFED_INFO "Edited with xmbdfed 3.2."
RELATIVE_WEIGHT 70
RELATIVE_SETWIDTH 50
CAP_HEIGHT 7
UNDERLINE_POSITION -1
UNDERLINE_THICKNESS 1
ENDPROPERTIES
CHARS 1
STARTCHAR U+0026 ampersand
ENCODING 38
SWIDTH 576 0
DWIDTH 6 0
BBX 6 11 0 -2
BITMAP
00
00
30
78
C0
70
C0
78
30
00
00
ENDCHAR
ENDFONT
