STARTFONT 2.1
FONT -jmk-Neep-Bold-R-Normal--20-180-75-75-C-100-ISO8859-9
SIZE 20 75 75
FONTBOUNDINGBOX 10 20 0 -4
STARTPROPERTIES 29
FONTNAME_REGISTRY ""
FOUNDRY "jmk"
FAMILY_NAME "Neep"
WEIGHT_NAME "Bold"
SLANT "R"
SETWIDTH_NAME "Normal"
ADD_STYLE_NAME ""
PIXEL_SIZE 20
POINT_SIZE 180
RESOLUTION_X 75
RESOLUTION_Y 75
SPACING "C"
AVERAGE_WIDTH 100
CHARSET_REGISTRY "ISO8859"
CHARSET_ENCODING "9"
COPYRIGHT "Jim Knoble <jmknoble@pobox.com>"
WEIGHT 230
RESOLUTION 75
X_HEIGHT 9
FIGURE_WIDTH 10
QUAD_WIDTH 10
FONT_ASCENT 16
FONT_DESCENT 4
_XMBDFED_INFO "Edited with xmbdfed 3.7."
RELATIVE_WEIGHT 70
RELATIVE_SETWIDTH 50
CAP_HEIGHT 13
UNDERLINE_POSITION -2
UNDERLINE_THICKNESS 2
ENDPROPERTIES
CHARS 128
STARTCHAR nil
ENCODING 128
SWIDTH 480 0
DWIDTH 10 0
BBX 10 20 0 -4
BITMAP
0000
7F80
4080
4080
4080
4080
4080
4080
4080
4080
4080
4080
4080
4080
4080
4080
4080
4080
7F80
0000
ENDCHAR
STARTCHAR nil
ENCODING 129
SWIDTH 480 0
DWIDTH 10 0
BBX 10 20 0 -4
BITMAP
0000
7F80
4080
4080
4080
4080
4080
4080
4080
4080
4080
4080
4080
4080
4080
4080
4080
4080
7F80
0000
ENDCHAR
STARTCHAR nil
ENCODING 130
SWIDTH 480 0
DWIDTH 10 0
BBX 10 20 0 -4
BITMAP
0000
7F80
4080
4080
4080
4080
4080
4080
4080
4080
4080
4080
4080
4080
4080
4080
4080
4080
7F80
0000
ENDCHAR
STARTCHAR nil
ENCODING 131
SWIDTH 480 0
DWIDTH 10 0
BBX 10 20 0 -4
BITMAP
0000
7F80
4080
4080
4080
4080
4080
4080
4080
4080
4080
4080
4080
4080
4080
4080
4080
4080
7F80
0000
ENDCHAR
STARTCHAR nil
ENCODING 132
SWIDTH 480 0
DWIDTH 10 0
BBX 10 20 0 -4
BITMAP
0000
7F80
4080
4080
4080
4080
4080
4080
4080
4080
4080
4080
4080
4080
4080
4080
4080
4080
7F80
0000
ENDCHAR
STARTCHAR nil
ENCODING 133
SWIDTH 480 0
DWIDTH 10 0
BBX 10 20 0 -4
BITMAP
0000
7F80
4080
4080
4080
4080
4080
4080
4080
4080
4080
4080
4080
4080
4080
4080
4080
4080
7F80
0000
ENDCHAR
STARTCHAR nil
ENCODING 134
SWIDTH 480 0
DWIDTH 10 0
BBX 10 20 0 -4
BITMAP
0000
7F80
4080
4080
4080
4080
4080
4080
4080
4080
4080
4080
4080
4080
4080
4080
4080
4080
7F80
0000
ENDCHAR
STARTCHAR nil
ENCODING 135
SWIDTH 480 0
DWIDTH 10 0
BBX 10 20 0 -4
BITMAP
0000
7F80
4080
4080
4080
4080
4080
4080
4080
4080
4080
4080
4080
4080
4080
4080
4080
4080
7F80
0000
ENDCHAR
STARTCHAR nil
ENCODING 136
SWIDTH 480 0
DWIDTH 10 0
BBX 10 20 0 -4
BITMAP
0000
7F80
4080
4080
4080
4080
4080
4080
4080
4080
4080
4080
4080
4080
4080
4080
4080
4080
7F80
0000
ENDCHAR
STARTCHAR nil
ENCODING 137
SWIDTH 480 0
DWIDTH 10 0
BBX 10 20 0 -4
BITMAP
0000
7F80
4080
4080
4080
4080
4080
4080
4080
4080
4080
4080
4080
4080
4080
4080
4080
4080
7F80
0000
ENDCHAR
STARTCHAR nil
ENCODING 138
SWIDTH 480 0
DWIDTH 10 0
BBX 10 20 0 -4
BITMAP
0000
7F80
4080
4080
4080
4080
4080
4080
4080
4080
4080
4080
4080
4080
4080
4080
4080
4080
7F80
0000
ENDCHAR
STARTCHAR nil
ENCODING 139
SWIDTH 480 0
DWIDTH 10 0
BBX 10 20 0 -4
BITMAP
0000
7F80
4080
4080
4080
4080
4080
4080
4080
4080
4080
4080
4080
4080
4080
4080
4080
4080
7F80
0000
ENDCHAR
STARTCHAR nil
ENCODING 140
SWIDTH 480 0
DWIDTH 10 0
BBX 10 20 0 -4
BITMAP
0000
7F80
4080
4080
4080
4080
4080
4080
4080
4080
4080
4080
4080
4080
4080
4080
4080
4080
7F80
0000
ENDCHAR
STARTCHAR nil
ENCODING 141
SWIDTH 480 0
DWIDTH 10 0
BBX 10 20 0 -4
BITMAP
0000
7F80
4080
4080
4080
4080
4080
4080
4080
4080
4080
4080
4080
4080
4080
4080
4080
4080
7F80
0000
ENDCHAR
STARTCHAR nil
ENCODING 142
SWIDTH 480 0
DWIDTH 10 0
BBX 10 20 0 -4
BITMAP
0000
7F80
4080
4080
4080
4080
4080
4080
4080
4080
4080
4080
4080
4080
4080
4080
4080
4080
7F80
0000
ENDCHAR
STARTCHAR nil
ENCODING 143
SWIDTH 480 0
DWIDTH 10 0
BBX 10 20 0 -4
BITMAP
0000
7F80
4080
4080
4080
4080
4080
4080
4080
4080
4080
4080
4080
4080
4080
4080
4080
4080
7F80
0000
ENDCHAR
STARTCHAR nil
ENCODING 144
SWIDTH 480 0
DWIDTH 10 0
BBX 10 20 0 -4
BITMAP
0000
7F80
4080
4080
4080
4080
4080
4080
4080
4080
4080
4080
4080
4080
4080
4080
4080
4080
7F80
0000
ENDCHAR
STARTCHAR nil
ENCODING 145
SWIDTH 480 0
DWIDTH 10 0
BBX 10 20 0 -4
BITMAP
0000
7F80
4080
4080
4080
4080
4080
4080
4080
4080
4080
4080
4080
4080
4080
4080
4080
4080
7F80
0000
ENDCHAR
STARTCHAR nil
ENCODING 146
SWIDTH 480 0
DWIDTH 10 0
BBX 10 20 0 -4
BITMAP
0000
7F80
4080
4080
4080
4080
4080
4080
4080
4080
4080
4080
4080
4080
4080
4080
4080
4080
7F80
0000
ENDCHAR
STARTCHAR nil
ENCODING 147
SWIDTH 480 0
DWIDTH 10 0
BBX 10 20 0 -4
BITMAP
0000
7F80
4080
4080
4080
4080
4080
4080
4080
4080
4080
4080
4080
4080
4080
4080
4080
4080
7F80
0000
ENDCHAR
STARTCHAR nil
ENCODING 148
SWIDTH 480 0
DWIDTH 10 0
BBX 10 20 0 -4
BITMAP
0000
7F80
4080
4080
4080
4080
4080
4080
4080
4080
4080
4080
4080
4080
4080
4080
4080
4080
7F80
0000
ENDCHAR
STARTCHAR nil
ENCODING 149
SWIDTH 480 0
DWIDTH 10 0
BBX 10 20 0 -4
BITMAP
0000
7F80
4080
4080
4080
4080
4080
4080
4080
4080
4080
4080
4080
4080
4080
4080
4080
4080
7F80
0000
ENDCHAR
STARTCHAR nil
ENCODING 150
SWIDTH 480 0
DWIDTH 10 0
BBX 10 20 0 -4
BITMAP
0000
7F80
4080
4080
4080
4080
4080
4080
4080
4080
4080
4080
4080
4080
4080
4080
4080
4080
7F80
0000
ENDCHAR
STARTCHAR nil
ENCODING 151
SWIDTH 480 0
DWIDTH 10 0
BBX 10 20 0 -4
BITMAP
0000
7F80
4080
4080
4080
4080
4080
4080
4080
4080
4080
4080
4080
4080
4080
4080
4080
4080
7F80
0000
ENDCHAR
STARTCHAR nil
ENCODING 152
SWIDTH 480 0
DWIDTH 10 0
BBX 10 20 0 -4
BITMAP
0000
7F80
4080
4080
4080
4080
4080
4080
4080
4080
4080
4080
4080
4080
4080
4080
4080
4080
7F80
0000
ENDCHAR
STARTCHAR nil
ENCODING 153
SWIDTH 480 0
DWIDTH 10 0
BBX 10 20 0 -4
BITMAP
0000
7F80
4080
4080
4080
4080
4080
4080
4080
4080
4080
4080
4080
4080
4080
4080
4080
4080
7F80
0000
ENDCHAR
STARTCHAR nil
ENCODING 154
SWIDTH 480 0
DWIDTH 10 0
BBX 10 20 0 -4
BITMAP
0000
7F80
4080
4080
4080
4080
4080
4080
4080
4080
4080
4080
4080
4080
4080
4080
4080
4080
7F80
0000
ENDCHAR
STARTCHAR nil
ENCODING 155
SWIDTH 480 0
DWIDTH 10 0
BBX 10 20 0 -4
BITMAP
0000
7F80
4080
4080
4080
4080
4080
4080
4080
4080
4080
4080
4080
4080
4080
4080
4080
4080
7F80
0000
ENDCHAR
STARTCHAR nil
ENCODING 156
SWIDTH 480 0
DWIDTH 10 0
BBX 10 20 0 -4
BITMAP
0000
7F80
4080
4080
4080
4080
4080
4080
4080
4080
4080
4080
4080
4080
4080
4080
4080
4080
7F80
0000
ENDCHAR
STARTCHAR nil
ENCODING 157
SWIDTH 480 0
DWIDTH 10 0
BBX 10 20 0 -4
BITMAP
0000
7F80
4080
4080
4080
4080
4080
4080
4080
4080
4080
4080
4080
4080
4080
4080
4080
4080
7F80
0000
ENDCHAR
STARTCHAR nil
ENCODING 158
SWIDTH 480 0
DWIDTH 10 0
BBX 10 20 0 -4
BITMAP
0000
7F80
4080
4080
4080
4080
4080
4080
4080
4080
4080
4080
4080
4080
4080
4080
4080
4080
7F80
0000
ENDCHAR
STARTCHAR nil
ENCODING 159
SWIDTH 480 0
DWIDTH 10 0
BBX 10 20 0 -4
BITMAP
0000
7F80
4080
4080
4080
4080
4080
4080
4080
4080
4080
4080
4080
4080
4080
4080
4080
4080
7F80
0000
ENDCHAR
STARTCHAR U+00a0 no-break space
ENCODING 160
SWIDTH 480 0
DWIDTH 10 0
BBX 10 20 0 -4
BITMAP
0000
0000
0000
0000
0000
0000
0000
0000
0000
0000
0000
0000
0000
0000
0000
0000
0000
0000
0000
0000
ENDCHAR
STARTCHAR U+00a1 inverted exclamation mark
ENCODING 161
SWIDTH 480 0
DWIDTH 10 0
BBX 10 20 0 -4
BITMAP
0000
0000
0000
0000
0000
0000
0000
0E00
0E00
0E00
0000
0E00
0E00
0E00
0E00
0E00
0E00
0E00
0E00
0E00
ENDCHAR
STARTCHAR U+00a2 cent sign
ENCODING 162
SWIDTH 480 0
DWIDTH 10 0
BBX 10 20 0 -4
BITMAP
0000
0000
0000
0000
0600
0600
1F80
3FC0
78C0
7000
7000
78C0
3FC0
1F80
0600
0600
0000
0000
0000
0000
ENDCHAR
STARTCHAR U+00a3 pound sign
ENCODING 163
SWIDTH 480 0
DWIDTH 10 0
BBX 10 20 0 -4
BITMAP
0000
0000
0000
1F00
3F80
3980
3800
3800
3800
7E00
7E00
3800
3800
3800
7FC0
7FC0
0000
0000
0000
0000
ENDCHAR
STARTCHAR U+00a4 currency sign
ENCODING 164
SWIDTH 480 0
DWIDTH 10 0
BBX 10 20 0 -4
BITMAP
0000
0000
0000
0000
0000
0000
0000
60C0
7FC0
3F80
3180
3180
3180
3F80
7FC0
60C0
0000
0000
0000
0000
ENDCHAR
STARTCHAR U+00a5 yen sign
ENCODING 165
SWIDTH 480 0
DWIDTH 10 0
BBX 10 20 0 -4
BITMAP
0000
0000
0000
71C0
71C0
3B80
3B80
1F00
1F00
7FC0
7FC0
0E00
7FC0
7FC0
0E00
0E00
0000
0000
0000
0000
ENDCHAR
STARTCHAR U+00a6 broken bar
ENCODING 166
SWIDTH 480 0
DWIDTH 10 0
BBX 10 20 0 -4
BITMAP
0000
0000
0000
0E00
0E00
0E00
0E00
0E00
0E00
0000
0E00
0E00
0E00
0E00
0E00
0E00
0E00
0000
0000
0000
ENDCHAR
STARTCHAR U+00a7 section sign
ENCODING 167
SWIDTH 480 0
DWIDTH 10 0
BBX 10 20 0 -4
BITMAP
0000
0000
0000
3F80
7F80
7000
3800
1E00
3F00
7380
7380
7380
3F00
1E00
0700
0380
7F80
7F00
0000
0000
ENDCHAR
STARTCHAR U+00a8 diaresis
ENCODING 168
SWIDTH 480 0
DWIDTH 10 0
BBX 10 20 0 -4
BITMAP
0000
0000
0000
3180
3180
3180
0000
0000
0000
0000
0000
0000
0000
0000
0000
0000
0000
0000
0000
0000
ENDCHAR
STARTCHAR U+00a9 copyright sign
ENCODING 169
SWIDTH 480 0
DWIDTH 10 0
BBX 10 20 0 -4
BITMAP
0000
0000
1F00
2080
4040
4E40
5F40
5B40
5840
5B40
5F40
4E40
4040
2080
1F00
0000
0000
0000
0000
0000
ENDCHAR
STARTCHAR U+00aa feminine ordinal indicator
ENCODING 170
SWIDTH 480 0
DWIDTH 10 0
BBX 10 20 0 -4
BITMAP
0000
0000
0000
1F00
1F80
0380
1F80
3B80
3F80
1D80
0000
3F80
3F80
0000
0000
0000
0000
0000
0000
0000
ENDCHAR
STARTCHAR U+00ab left-pointing double angle quotation mark
ENCODING 171
SWIDTH 480 0
DWIDTH 10 0
BBX 10 20 0 -4
BITMAP
0000
0000
0000
0000
0000
0000
0880
1DC0
3B80
7700
EE00
7700
3B80
1DC0
0880
0000
0000
0000
0000
0000
ENDCHAR
STARTCHAR U+00ac not sign
ENCODING 172
SWIDTH 480 0
DWIDTH 10 0
BBX 10 20 0 -4
BITMAP
0000
0000
0000
0000
0000
0000
0000
0000
0000
7FC0
7FC0
01C0
01C0
01C0
01C0
0000
0000
0000
0000
0000
ENDCHAR
STARTCHAR U+00ad soft hyphen
ENCODING 173
SWIDTH 480 0
DWIDTH 10 0
BBX 10 20 0 -4
BITMAP
0000
0000
0000
0000
0000
0000
0000
0000
0000
1F00
1F00
1F00
0000
0000
0000
0000
0000
0000
0000
0000
ENDCHAR
STARTCHAR U+00ae registered sign
ENCODING 174
SWIDTH 480 0
DWIDTH 10 0
BBX 10 20 0 -4
BITMAP
0000
0000
1F00
2080
4040
5E40
5F40
5B40
5840
5840
5840
5840
4040
2080
1F00
0000
0000
0000
0000
0000
ENDCHAR
STARTCHAR U+00af macron
ENCODING 175
SWIDTH 480 0
DWIDTH 10 0
BBX 10 20 0 -4
BITMAP
0000
0000
0000
7FC0
7FC0
0000
0000
0000
0000
0000
0000
0000
0000
0000
0000
0000
0000
0000
0000
0000
ENDCHAR
STARTCHAR U+00b0 degree sign
ENCODING 176
SWIDTH 480 0
DWIDTH 10 0
BBX 10 20 0 -4
BITMAP
0000
0000
0000
1E00
3F00
3300
3300
3F00
1E00
0000
0000
0000
0000
0000
0000
0000
0000
0000
0000
0000
ENDCHAR
STARTCHAR U+00b1 plus-minus sign
ENCODING 177
SWIDTH 480 0
DWIDTH 10 0
BBX 10 20 0 -4
BITMAP
0000
0000
0000
0000
0000
0000
0E00
0E00
0E00
7FC0
7FC0
0E00
0E00
0E00
0000
7FC0
7FC0
0000
0000
0000
ENDCHAR
STARTCHAR U+00b2 superscript two
ENCODING 178
SWIDTH 480 0
DWIDTH 10 0
BBX 10 20 0 -4
BITMAP
0000
0000
0000
1F00
3F80
1380
0F00
1C00
3F80
3F80
0000
0000
0000
0000
0000
0000
0000
0000
0000
0000
ENDCHAR
STARTCHAR U+00b3 superscript three
ENCODING 179
SWIDTH 480 0
DWIDTH 10 0
BBX 10 20 0 -4
BITMAP
0000
0000
0000
3F80
3F00
0600
0F00
0380
3F80
1F00
0000
0000
0000
0000
0000
0000
0000
0000
0000
0000
ENDCHAR
STARTCHAR U+00b4 acute accent
ENCODING 180
SWIDTH 480 0
DWIDTH 10 0
BBX 10 20 0 -4
BITMAP
0000
0000
0000
0700
0E00
1800
0000
0000
0000
0000
0000
0000
0000
0000
0000
0000
0000
0000
0000
0000
ENDCHAR
STARTCHAR U+00b5 micro sign
ENCODING 181
SWIDTH 480 0
DWIDTH 10 0
BBX 10 20 0 -4
BITMAP
0000
0000
0000
0000
0000
0000
0000
7380
7380
7380
7380
7380
7380
7B80
7FC0
76C0
7000
7000
0000
0000
ENDCHAR
STARTCHAR U+00b6 pilcrow sign
ENCODING 182
SWIDTH 480 0
DWIDTH 10 0
BBX 10 20 0 -4
BITMAP
0000
0000
0000
0000
1FC0
3FC0
7D80
7D80
7D80
7D80
3D80
1D80
0D80
0D80
0D80
0D80
0000
0000
0000
0000
ENDCHAR
STARTCHAR U+00b7 middle dot
ENCODING 183
SWIDTH 480 0
DWIDTH 10 0
BBX 10 20 0 -4
BITMAP
0000
0000
0000
0000
0000
0000
0000
0000
0C00
1E00
1E00
0C00
0000
0000
0000
0000
0000
0000
0000
0000
ENDCHAR
STARTCHAR U+00b8 cedilla
ENCODING 184
SWIDTH 480 0
DWIDTH 10 0
BBX 10 20 0 -4
BITMAP
0000
0000
0000
0000
0000
0000
0000
0000
0000
0000
0000
0000
0000
0000
0000
0600
0700
0380
0F80
0F00
ENDCHAR
STARTCHAR U+00b9 superscript one
ENCODING 185
SWIDTH 480 0
DWIDTH 10 0
BBX 10 20 0 -4
BITMAP
0000
0000
0000
0600
0E00
1E00
3E00
0E00
0E00
0E00
0000
0000
0000
0000
0000
0000
0000
0000
0000
0000
ENDCHAR
STARTCHAR U+00ba masculine ordinal indicator
ENCODING 186
SWIDTH 480 0
DWIDTH 10 0
BBX 10 20 0 -4
BITMAP
0000
0000
0000
1E00
3F00
7380
7380
7380
3F00
1E00
0000
7F80
7F80
0000
0000
0000
0000
0000
0000
0000
ENDCHAR
STARTCHAR U+00bb right-pointing double angle quotation mark
ENCODING 187
SWIDTH 480 0
DWIDTH 10 0
BBX 10 20 0 -4
BITMAP
0000
0000
0000
0000
0000
0000
4400
EE00
7700
3B80
1DC0
3B80
7700
EE00
4400
0000
0000
0000
0000
0000
ENDCHAR
STARTCHAR U+00bc vulgar fraction one quarter
ENCODING 188
SWIDTH 480 0
DWIDTH 10 0
BBX 10 20 0 -4
BITMAP
0000
0000
0000
1800
3800
7800
F800
3800
3800
3800
0380
0780
0F80
1BC0
1FC0
0380
0380
0000
0000
0000
ENDCHAR
STARTCHAR U+00bd vulgar fraction one half
ENCODING 189
SWIDTH 480 0
DWIDTH 10 0
BBX 10 20 0 -4
BITMAP
0000
0000
0000
1800
3800
7800
F800
3800
3800
3800
0F80
1FC0
09C0
0780
0E00
1FC0
1FC0
0000
0000
0000
ENDCHAR
STARTCHAR U+00be vulgar fraction three quarters
ENCODING 190
SWIDTH 480 0
DWIDTH 10 0
BBX 10 20 0 -4
BITMAP
0000
0000
0000
FE00
FC00
1800
3C00
0E00
FE00
7C00
0380
0780
0F80
1BC0
1FC0
0380
0380
0000
0000
0000
ENDCHAR
STARTCHAR U+00bf inverted question mark
ENCODING 191
SWIDTH 480 0
DWIDTH 10 0
BBX 10 20 0 -4
BITMAP
0000
0000
0000
0000
0000
0000
0000
0700
0700
0700
0000
0700
0700
0700
0700
0E00
1C00
3800
3F80
1F80
ENDCHAR
STARTCHAR U+00c0 latin capital letter A with grave
ENCODING 192
SWIDTH 480 0
DWIDTH 10 0
BBX 10 20 0 -4
BITMAP
0000
1C00
0E00
0300
0000
1F00
3F80
7BC0
71C0
71C0
7FC0
7FC0
71C0
71C0
71C0
71C0
0000
0000
0000
0000
ENDCHAR
STARTCHAR U+00c1 latin capital letter A with acute
ENCODING 193
SWIDTH 480 0
DWIDTH 10 0
BBX 10 20 0 -4
BITMAP
0000
0700
0E00
1800
0000
1F00
3F80
7BC0
71C0
71C0
7FC0
7FC0
71C0
71C0
71C0
71C0
0000
0000
0000
0000
ENDCHAR
STARTCHAR U+00c2 latin capital letter A with circumflex
ENCODING 194
SWIDTH 480 0
DWIDTH 10 0
BBX 10 20 0 -4
BITMAP
0000
0E00
1B00
3180
0000
1F00
3F80
7BC0
71C0
71C0
7FC0
7FC0
71C0
71C0
71C0
71C0
0000
0000
0000
0000
ENDCHAR
STARTCHAR U+00c3 latin capital letter A with tilde
ENCODING 195
SWIDTH 480 0
DWIDTH 10 0
BBX 10 20 0 -4
BITMAP
0000
38C0
6EC0
6380
0000
1F00
3F80
7BC0
71C0
71C0
7FC0
7FC0
71C0
71C0
71C0
71C0
0000
0000
0000
0000
ENDCHAR
STARTCHAR U+00c4 latin capital letter A with diaresis
ENCODING 196
SWIDTH 480 0
DWIDTH 10 0
BBX 10 20 0 -4
BITMAP
0000
3180
3180
3180
0000
1F00
3F80
7BC0
71C0
71C0
7FC0
7FC0
71C0
71C0
71C0
71C0
0000
0000
0000
0000
ENDCHAR
STARTCHAR U+00c5 latin capital letter A with ring above
ENCODING 197
SWIDTH 480 0
DWIDTH 10 0
BBX 10 20 0 -4
BITMAP
0000
1F00
3180
3180
1F00
1F00
3F80
7BC0
71C0
71C0
7FC0
7FC0
71C0
71C0
71C0
71C0
0000
0000
0000
0000
ENDCHAR
STARTCHAR U+00c6 latin capital ligature AE
ENCODING 198
SWIDTH 480 0
DWIDTH 10 0
BBX 10 20 0 -4
BITMAP
0000
0000
0000
1FC0
3FC0
7B80
7380
7380
73C0
7FC0
7F80
7380
7380
7380
73C0
73C0
0000
0000
0000
0000
ENDCHAR
STARTCHAR U+00c7 latin capital letter C with cedilla
ENCODING 199
SWIDTH 480 0
DWIDTH 10 0
BBX 10 20 0 -4
BITMAP
0000
0000
0000
1F00
3F80
79C0
7080
7000
7000
7000
7000
7000
7080
79C0
3F80
1F00
0700
0380
0F80
0F00
ENDCHAR
STARTCHAR U+00c8 latin capital letter E with grave
ENCODING 200
SWIDTH 480 0
DWIDTH 10 0
BBX 10 20 0 -4
BITMAP
0000
1C00
0E00
0300
0000
7FC0
7FC0
7000
7000
7F00
7F00
7000
7000
7000
7FC0
7FC0
0000
0000
0000
0000
ENDCHAR
STARTCHAR U+00c9 latin capital letter E with acute
ENCODING 201
SWIDTH 480 0
DWIDTH 10 0
BBX 10 20 0 -4
BITMAP
0000
0700
0E00
1800
0000
7FC0
7FC0
7000
7000
7F00
7F00
7000
7000
7000
7FC0
7FC0
0000
0000
0000
0000
ENDCHAR
STARTCHAR U+00ca latin capital letter E with circumflex
ENCODING 202
SWIDTH 480 0
DWIDTH 10 0
BBX 10 20 0 -4
BITMAP
0000
0E00
1B00
3180
0000
7FC0
7FC0
7000
7000
7F00
7F00
7000
7000
7000
7FC0
7FC0
0000
0000
0000
0000
ENDCHAR
STARTCHAR U+00cb latin capital letter E with diaresis
ENCODING 203
SWIDTH 480 0
DWIDTH 10 0
BBX 10 20 0 -4
BITMAP
0000
3180
3180
3180
0000
7FC0
7FC0
7000
7000
7F80
7F80
7000
7000
7000
7FC0
7FC0
0000
0000
0000
0000
ENDCHAR
STARTCHAR U+00cc latin capital letter I with grave
ENCODING 204
SWIDTH 480 0
DWIDTH 10 0
BBX 10 20 0 -4
BITMAP
0000
1C00
0E00
0300
0000
3F80
3F80
0E00
0E00
0E00
0E00
0E00
0E00
0E00
3F80
3F80
0000
0000
0000
0000
ENDCHAR
STARTCHAR U+00cd latin capital letter I with acute
ENCODING 205
SWIDTH 480 0
DWIDTH 10 0
BBX 10 20 0 -4
BITMAP
0000
0700
0E00
1800
0000
3F80
3F80
0E00
0E00
0E00
0E00
0E00
0E00
0E00
3F80
3F80
0000
0000
0000
0000
ENDCHAR
STARTCHAR U+00ce latin capital letter I with circumflex
ENCODING 206
SWIDTH 480 0
DWIDTH 10 0
BBX 10 20 0 -4
BITMAP
0000
0E00
1B00
3180
0000
3F80
3F80
0E00
0E00
0E00
0E00
0E00
0E00
0E00
3F80
3F80
0000
0000
0000
0000
ENDCHAR
STARTCHAR U+00cf latin capital letter I with diaresis
ENCODING 207
SWIDTH 480 0
DWIDTH 10 0
BBX 10 20 0 -4
BITMAP
0000
3180
3180
3180
0000
3F80
3F80
0E00
0E00
0E00
0E00
0E00
0E00
0E00
3F80
3F80
0000
0000
0000
0000
ENDCHAR
STARTCHAR U+011e latin capital letter G with breve
ENCODING 208
SWIDTH 480 0
DWIDTH 10 0
BBX 10 20 0 -4
BITMAP
0000
2080
3180
1F00
0000
1F00
3F80
79C0
7080
7000
73C0
73C0
71C0
79C0
3FC0
1F80
0000
0000
0000
0000
ENDCHAR
STARTCHAR U+00d1 latin capital letter N with tilde
ENCODING 209
SWIDTH 480 0
DWIDTH 10 0
BBX 10 20 0 -4
BITMAP
0000
38C0
6EC0
6380
0000
71C0
79C0
79C0
7DC0
7DC0
7FC0
77C0
77C0
73C0
73C0
71C0
0000
0000
0000
0000
ENDCHAR
STARTCHAR U+00d2 latin capital letter O with grave
ENCODING 210
SWIDTH 480 0
DWIDTH 10 0
BBX 10 20 0 -4
BITMAP
0000
1C00
0E00
0300
0000
1F00
3F80
7BC0
71C0
71C0
71C0
71C0
71C0
7BC0
3F80
1F00
0000
0000
0000
0000
ENDCHAR
STARTCHAR U+00d3 latin capital letter O with acute
ENCODING 211
SWIDTH 480 0
DWIDTH 10 0
BBX 10 20 0 -4
BITMAP
0000
0700
0E00
1800
0000
1F00
3F80
7BC0
71C0
71C0
71C0
71C0
71C0
7BC0
3F80
1F00
0000
0000
0000
0000
ENDCHAR
STARTCHAR U+00d4 latin capital letter O with circumflex
ENCODING 212
SWIDTH 480 0
DWIDTH 10 0
BBX 10 20 0 -4
BITMAP
0000
0E00
1B00
3180
0000
1F00
3F80
7BC0
71C0
71C0
71C0
71C0
71C0
7BC0
3F80
1F00
0000
0000
0000
0000
ENDCHAR
STARTCHAR U+00d5 latin capital letter O with tilde
ENCODING 213
SWIDTH 480 0
DWIDTH 10 0
BBX 10 20 0 -4
BITMAP
0000
38C0
6EC0
6380
0000
1F00
3F80
7BC0
71C0
71C0
71C0
71C0
71C0
7BC0
3F80
1F00
0000
0000
0000
0000
ENDCHAR
STARTCHAR U+00d6 latin capital letter O with diaresis
ENCODING 214
SWIDTH 480 0
DWIDTH 10 0
BBX 10 20 0 -4
BITMAP
0000
3180
3180
3180
0000
1F00
3F80
7BC0
71C0
71C0
71C0
71C0
71C0
7BC0
3F80
1F00
0000
0000
0000
0000
ENDCHAR
STARTCHAR U+00d7 multiplication sign
ENCODING 215
SWIDTH 480 0
DWIDTH 10 0
BBX 10 20 0 -4
BITMAP
0000
0000
0000
0000
0000
0000
2100
7380
3F00
1E00
1E00
3F00
7380
2100
0000
0000
0000
0000
0000
0000
ENDCHAR
STARTCHAR U+00d8 latin capital letter O with stroke
ENCODING 216
SWIDTH 480 0
DWIDTH 10 0
BBX 10 20 0 -4
BITMAP
0000
0000
0080
1F80
3F80
7BC0
73C0
73C0
75C0
75C0
75C0
79C0
79C0
7BC0
3F80
3F00
2000
0000
0000
0000
ENDCHAR
STARTCHAR U+00d9 latin capital letter U with grave
ENCODING 217
SWIDTH 480 0
DWIDTH 10 0
BBX 10 20 0 -4
BITMAP
0000
1C00
0E00
0300
0000
71C0
71C0
71C0
71C0
71C0
71C0
71C0
71C0
7BC0
3F80
1F00
0000
0000
0000
0000
ENDCHAR
STARTCHAR U+00da latin capital letter U with acute
ENCODING 218
SWIDTH 480 0
DWIDTH 10 0
BBX 10 20 0 -4
BITMAP
0000
0700
0E00
1800
0000
71C0
71C0
71C0
71C0
71C0
71C0
71C0
71C0
7BC0
3F80
1F00
0000
0000
0000
0000
ENDCHAR
STARTCHAR U+00db latin capital letter U with circumflex
ENCODING 219
SWIDTH 480 0
DWIDTH 10 0
BBX 10 20 0 -4
BITMAP
0000
0E00
1B00
3180
0000
71C0
71C0
71C0
71C0
71C0
71C0
71C0
71C0
7BC0
3F80
1F00
0000
0000
0000
0000
ENDCHAR
STARTCHAR U+00dc latin capital letter U with diaresis
ENCODING 220
SWIDTH 480 0
DWIDTH 10 0
BBX 10 20 0 -4
BITMAP
0000
3180
3180
3180
0000
71C0
71C0
71C0
71C0
71C0
71C0
71C0
71C0
7BC0
3F80
1F00
0000
0000
0000
0000
ENDCHAR
STARTCHAR U+0130 latin capital letter I with dot above
ENCODING 221
SWIDTH 480 0
DWIDTH 10 0
BBX 10 20 0 -4
BITMAP
0000
0E00
0E00
0E00
0000
3F80
3F80
0E00
0E00
0E00
0E00
0E00
0E00
0E00
3F80
3F80
0000
0000
0000
0000
ENDCHAR
STARTCHAR U+015e latin capital letter S with cedilla
ENCODING 222
SWIDTH 480 0
DWIDTH 10 0
BBX 10 20 0 -4
BITMAP
0000
0000
0000
1F00
3F80
79C0
7080
7800
3C00
1F00
0780
03C0
21C0
73C0
3F80
1F00
0E00
0700
1F00
1E00
ENDCHAR
STARTCHAR U+00df latin small letter sharp s
ENCODING 223
SWIDTH 480 0
DWIDTH 10 0
BBX 10 20 0 -4
BITMAP
0000
0000
0000
1F00
3F80
7980
7180
7300
7600
7600
7700
7380
71C0
71C0
77C0
7780
7000
7000
0000
0000
ENDCHAR
STARTCHAR U+00e0 latin small letter a with grave
ENCODING 224
SWIDTH 480 0
DWIDTH 10 0
BBX 10 20 0 -4
BITMAP
0000
0000
0000
1C00
0E00
0300
0000
3F00
3F80
01C0
1FC0
3FC0
71C0
73C0
7FC0
3DC0
0000
0000
0000
0000
ENDCHAR
STARTCHAR U+00e1 latin small letter a with acute
ENCODING 225
SWIDTH 480 0
DWIDTH 10 0
BBX 10 20 0 -4
BITMAP
0000
0000
0000
0700
0E00
1800
0000
3F00
3F80
01C0
1FC0
3FC0
71C0
73C0
7FC0
3DC0
0000
0000
0000
0000
ENDCHAR
STARTCHAR U+00e2 latin small letter a with circumflex
ENCODING 226
SWIDTH 480 0
DWIDTH 10 0
BBX 10 20 0 -4
BITMAP
0000
0000
0000
0E00
1B00
3180
0000
3F00
3F80
01C0
1FC0
3FC0
71C0
73C0
7FC0
3DC0
0000
0000
0000
0000
ENDCHAR
STARTCHAR U+00e3 latin small letter a with tilde
ENCODING 227
SWIDTH 480 0
DWIDTH 10 0
BBX 10 20 0 -4
BITMAP
0000
0000
0000
38C0
6EC0
6380
0000
3F00
3F80
01C0
1FC0
3FC0
71C0
73C0
7FC0
3DC0
0000
0000
0000
0000
ENDCHAR
STARTCHAR U+00e4 latin small letter a with diaresis
ENCODING 228
SWIDTH 480 0
DWIDTH 10 0
BBX 10 20 0 -4
BITMAP
0000
0000
0000
3180
3180
3180
0000
3F00
3F80
01C0
1FC0
3FC0
71C0
73C0
7FC0
3DC0
0000
0000
0000
0000
ENDCHAR
STARTCHAR U+00e5 latin small letter a with ring above
ENCODING 229
SWIDTH 480 0
DWIDTH 10 0
BBX 10 20 0 -4
BITMAP
0000
0000
1F00
3180
3180
1F00
0000
3F00
3F80
01C0
1FC0
3FC0
71C0
73C0
7FC0
3DC0
0000
0000
0000
0000
ENDCHAR
STARTCHAR U+00e6 latin small ligature ae
ENCODING 230
SWIDTH 480 0
DWIDTH 10 0
BBX 10 20 0 -4
BITMAP
0000
0000
0000
0000
0000
0000
0000
3B80
3FC0
0EC0
1FC0
3FC0
6E00
6EC0
7FC0
3B80
0000
0000
0000
0000
ENDCHAR
STARTCHAR U+00e7 latin small letter c with cedilla
ENCODING 231
SWIDTH 480 0
DWIDTH 10 0
BBX 10 20 0 -4
BITMAP
0000
0000
0000
0000
0000
0000
0000
1F80
3FC0
78C0
7000
7000
7000
78C0
3FC0
1F80
0700
0380
0F80
0F00
ENDCHAR
STARTCHAR U+00e8 latin small letter e with grave
ENCODING 232
SWIDTH 480 0
DWIDTH 10 0
BBX 10 20 0 -4
BITMAP
0000
0000
0000
1C00
0E00
0300
0000
1F00
3F80
71C0
7FC0
7FC0
7000
78C0
3FC0
1F80
0000
0000
0000
0000
ENDCHAR
STARTCHAR U+00e9 latin small letter e with acute
ENCODING 233
SWIDTH 480 0
DWIDTH 10 0
BBX 10 20 0 -4
BITMAP
0000
0000
0000
0700
0E00
1800
0000
1F00
3F80
71C0
7FC0
7FC0
7000
78C0
3FC0
1F80
0000
0000
0000
0000
ENDCHAR
STARTCHAR U+00ea latin small letter e with circumflex
ENCODING 234
SWIDTH 480 0
DWIDTH 10 0
BBX 10 20 0 -4
BITMAP
0000
0000
0000
0E00
1B00
3180
0000
1F00
3F80
71C0
7FC0
7FC0
7000
78C0
3FC0
1F80
0000
0000
0000
0000
ENDCHAR
STARTCHAR U+00eb latin small letter e with diaresis
ENCODING 235
SWIDTH 480 0
DWIDTH 10 0
BBX 10 20 0 -4
BITMAP
0000
0000
0000
3180
3180
3180
0000
1F00
3F80
71C0
7FC0
7FC0
7000
78C0
3FC0
1F80
0000
0000
0000
0000
ENDCHAR
STARTCHAR U+00ec latin small letter i with grave
ENCODING 236
SWIDTH 480 0
DWIDTH 10 0
BBX 10 20 0 -4
BITMAP
0000
0000
0000
3800
1C00
0600
0000
3E00
3E00
0E00
0E00
0E00
0E00
0E00
0E00
0E00
0000
0000
0000
0000
ENDCHAR
STARTCHAR U+00ed latin small letter i with acute
ENCODING 237
SWIDTH 480 0
DWIDTH 10 0
BBX 10 20 0 -4
BITMAP
0000
0000
0000
0700
0E00
1800
0000
3E00
3E00
0E00
0E00
0E00
0E00
0E00
0E00
0E00
0000
0000
0000
0000
ENDCHAR
STARTCHAR U+00ee latin small letter i with circumflex
ENCODING 238
SWIDTH 480 0
DWIDTH 10 0
BBX 10 20 0 -4
BITMAP
0000
0000
0000
0E00
1B00
3180
0000
3E00
3E00
0E00
0E00
0E00
0E00
0E00
0E00
0E00
0000
0000
0000
0000
ENDCHAR
STARTCHAR U+00ef latin small letter i with diaresis
ENCODING 239
SWIDTH 480 0
DWIDTH 10 0
BBX 10 20 0 -4
BITMAP
0000
0000
0000
3180
3180
3180
0000
3E00
3E00
0E00
0E00
0E00
0E00
0E00
0E00
0E00
0000
0000
0000
0000
ENDCHAR
STARTCHAR U+011f latin small letter g with breve
ENCODING 240
SWIDTH 480 0
DWIDTH 10 0
BBX 10 20 0 -4
BITMAP
0000
0000
0000
2080
3180
1F00
0000
1DC0
3FC0
7BC0
71C0
71C0
7BC0
3FC0
1DC0
01C0
21C0
73C0
3F80
1F00
ENDCHAR
STARTCHAR U+00f1 latin small letter n with tilde
ENCODING 241
SWIDTH 480 0
DWIDTH 10 0
BBX 10 20 0 -4
BITMAP
0000
0000
0000
38C0
6EC0
6380
0000
7700
7F80
7BC0
71C0
71C0
71C0
71C0
71C0
71C0
0000
0000
0000
0000
ENDCHAR
STARTCHAR U+00f2 latin small letter o with grave
ENCODING 242
SWIDTH 480 0
DWIDTH 10 0
BBX 10 20 0 -4
BITMAP
0000
0000
0000
1C00
0E00
0300
0000
1F00
3F80
7BC0
71C0
71C0
71C0
7BC0
3F80
1F00
0000
0000
0000
0000
ENDCHAR
STARTCHAR U+00f3 latin small letter o with acute
ENCODING 243
SWIDTH 480 0
DWIDTH 10 0
BBX 10 20 0 -4
BITMAP
0000
0000
0000
0700
0E00
1800
0000
1F00
3F80
7BC0
71C0
71C0
71C0
7BC0
3F80
1F00
0000
0000
0000
0000
ENDCHAR
STARTCHAR U+00f4 latin small letter o with circumflex
ENCODING 244
SWIDTH 480 0
DWIDTH 10 0
BBX 10 20 0 -4
BITMAP
0000
0000
0000
0E00
1B00
3180
0000
1F00
3F80
7BC0
71C0
71C0
71C0
7BC0
3F80
1F00
0000
0000
0000
0000
ENDCHAR
STARTCHAR U+00f5 latin small letter o with tilde
ENCODING 245
SWIDTH 480 0
DWIDTH 10 0
BBX 10 20 0 -4
BITMAP
0000
0000
0000
38C0
6EC0
6380
0000
1F00
3F80
7BC0
71C0
71C0
71C0
7BC0
3F80
1F00
0000
0000
0000
0000
ENDCHAR
STARTCHAR U+00f6 latin small letter o with diaresis
ENCODING 246
SWIDTH 480 0
DWIDTH 10 0
BBX 10 20 0 -4
BITMAP
0000
0000
0000
3180
3180
3180
0000
1F00
3F80
7BC0
71C0
71C0
71C0
7BC0
3F80
1F00
0000
0000
0000
0000
ENDCHAR
STARTCHAR U+00f7 division sign
ENCODING 247
SWIDTH 480 0
DWIDTH 10 0
BBX 10 20 0 -4
BITMAP
0000
0000
0000
0000
0000
0E00
0E00
0E00
0000
7FC0
7FC0
0000
0E00
0E00
0E00
0000
0000
0000
0000
0000
ENDCHAR
STARTCHAR U+00f8 latin small letter o with stroke
ENCODING 248
SWIDTH 480 0
DWIDTH 10 0
BBX 10 20 0 -4
BITMAP
0000
0000
0000
0000
0000
0000
0080
1F80
3F80
7BC0
73C0
75C0
79C0
7BC0
3F80
3F00
2000
0000
0000
0000
ENDCHAR
STARTCHAR U+00f9 latin small letter u with grave
ENCODING 249
SWIDTH 480 0
DWIDTH 10 0
BBX 10 20 0 -4
BITMAP
0000
0000
0000
1C00
0E00
0300
0000
71C0
71C0
71C0
71C0
71C0
71C0
7BC0
3FC0
1DC0
0000
0000
0000
0000
ENDCHAR
STARTCHAR U+00fa latin small letter u with acute
ENCODING 250
SWIDTH 480 0
DWIDTH 10 0
BBX 10 20 0 -4
BITMAP
0000
0000
0000
0700
0E00
1800
0000
71C0
71C0
71C0
71C0
71C0
71C0
7BC0
3FC0
1DC0
0000
0000
0000
0000
ENDCHAR
STARTCHAR U+00fb latin small letter u with circumflex
ENCODING 251
SWIDTH 480 0
DWIDTH 10 0
BBX 10 20 0 -4
BITMAP
0000
0000
0000
0E00
1B00
3180
0000
71C0
71C0
71C0
71C0
71C0
71C0
7BC0
3FC0
1DC0
0000
0000
0000
0000
ENDCHAR
STARTCHAR U+00fc latin small letter u with diaresis
ENCODING 252
SWIDTH 480 0
DWIDTH 10 0
BBX 10 20 0 -4
BITMAP
0000
0000
0000
3180
3180
3180
0000
71C0
71C0
71C0
71C0
71C0
71C0
7BC0
3FC0
1DC0
0000
0000
0000
0000
ENDCHAR
STARTCHAR U+0131 latin small letter dotless i
ENCODING 253
SWIDTH 480 0
DWIDTH 10 0
BBX 10 20 0 -4
BITMAP
0000
0000
0000
0000
0000
0000
0000
3E00
3E00
0E00
0E00
0E00
0E00
0E00
0E00
0E00
0000
0000
0000
0000
ENDCHAR
STARTCHAR U+015f latin small letter s with cedilla
ENCODING 254
SWIDTH 480 0
DWIDTH 10 0
BBX 10 20 0 -4
BITMAP
0000
0000
0000
0000
0000
0000
0000
3F80
7FC0
70C0
7E00
3F80
07C0
61C0
7FC0
3F80
0E00
0700
1F00
1E00
ENDCHAR
STARTCHAR U+00ff latin small letter y with diaresis
ENCODING 255
SWIDTH 480 0
DWIDTH 10 0
BBX 10 20 0 -4
BITMAP
0000
0000
0000
3180
3180
3180
0000
71C0
71C0
71C0
71C0
71C0
7BC0
3FC0
1DC0
01C0
21C0
73C0
3F80
1F00
ENDCHAR
ENDFONT
