STARTFONT 2.1
FONT -jmk-Neep-Bold-R-Normal--20-180-75-75-C-100-US-ASCII
SIZE 20 75 75
FONTBOUNDINGBOX 10 20 0 -4
STARTPROPERTIES 29
FONTNAME_REGISTRY ""
FOUNDRY "jmk"
FAMILY_NAME "Neep"
WEIGHT_NAME "Bold"
SLANT "R"
SETWIDTH_NAME "Normal"
ADD_STYLE_NAME ""
PIXEL_SIZE 20
POINT_SIZE 180
RESOLUTION_X 75
RESOLUTION_Y 75
SPACING "C"
AVERAGE_WIDTH 100
CHARSET_REGISTRY "US"
CHARSET_ENCODING "ASCII"
COPYRIGHT "Jim Knoble <jmknoble@pobox.com>"
WEIGHT 230
RESOLUTION 75
X_HEIGHT 9
FIGURE_WIDTH 10
QUAD_WIDTH 10
FONT_ASCENT 16
FONT_DESCENT 4
_XMBDFED_INFO "Edited with xmbdfed 3.7."
RELATIVE_WEIGHT 70
RELATIVE_SETWIDTH 50
CAP_HEIGHT 13
UNDERLINE_POSITION -2
UNDERLINE_THICKNESS 2
ENDPROPERTIES
CHARS 38
STARTCHAR solid box
ENCODING 0
SWIDTH 480 0
DWIDTH 10 0
BBX 10 20 0 -4
BITMAP
0000
7F80
7F80
7F80
7F80
7F80
7F80
7F80
7F80
7F80
7F80
7F80
7F80
7F80
7F80
7F80
7F80
7F80
7F80
0000
ENDCHAR
STARTCHAR diamond
ENCODING 1
SWIDTH 480 0
DWIDTH 10 0
BBX 10 20 0 -4
BITMAP
0000
0000
0000
0000
0000
0000
0400
0E00
1F00
3F80
7FC0
3F80
1F00
0E00
0400
0000
0000
0000
0000
0000
ENDCHAR
STARTCHAR dithered box
ENCODING 2
SWIDTH 480 0
DWIDTH 10 0
BBX 10 20 0 -4
BITMAP
0000
5540
AA80
5540
AA80
5540
AA80
5540
AA80
5540
AA80
5540
AA80
5540
AA80
5540
AA80
5540
AA80
5540
ENDCHAR
STARTCHAR horizontal tab visible control
ENCODING 3
SWIDTH 480 0
DWIDTH 10 0
BBX 10 20 0 -4
BITMAP
0000
0000
0000
6600
6600
7E00
7E00
6600
6600
6600
0000
0FC0
0FC0
0300
0300
0300
0300
0300
0000
0000
ENDCHAR
STARTCHAR form feed visible control
ENCODING 4
SWIDTH 480 0
DWIDTH 10 0
BBX 10 20 0 -4
BITMAP
0000
0000
0000
7E00
7E00
6000
7C00
7C00
6000
6000
0000
0FC0
0FC0
0C00
0F80
0F80
0C00
0C00
0000
0000
ENDCHAR
STARTCHAR carriage return visible control
ENCODING 5
SWIDTH 480 0
DWIDTH 10 0
BBX 10 20 0 -4
BITMAP
0000
0000
0000
3C00
7E00
6600
6000
6600
7E00
3C00
0000
0F80
0FC0
0CC0
0F80
0F80
0DC0
0CC0
0000
0000
ENDCHAR
STARTCHAR line feed visible control
ENCODING 6
SWIDTH 480 0
DWIDTH 10 0
BBX 10 20 0 -4
BITMAP
0000
0000
0000
6000
6000
6000
6000
6000
7E00
7E00
0000
0FC0
0FC0
0C00
0F80
0F80
0C00
0C00
0000
0000
ENDCHAR
STARTCHAR degree sign
ENCODING 7
SWIDTH 480 0
DWIDTH 10 0
BBX 10 20 0 -4
BITMAP
0000
0000
0000
1E00
3F00
3300
3300
3F00
1E00
0000
0000
0000
0000
0000
0000
0000
0000
0000
0000
0000
ENDCHAR
STARTCHAR plus-minus-sign
ENCODING 8
SWIDTH 480 0
DWIDTH 10 0
BBX 10 20 0 -4
BITMAP
0000
0000
0000
0000
0000
0000
0E00
0E00
0E00
7FC0
7FC0
0E00
0E00
0E00
0000
7FC0
7FC0
0000
0000
0000
ENDCHAR
STARTCHAR null visible control
ENCODING 9
SWIDTH 480 0
DWIDTH 10 0
BBX 10 20 0 -4
BITMAP
0000
0000
0000
6600
7600
7600
7E00
7E00
6E00
6600
0000
0C00
0C00
0C00
0C00
0C00
0FC0
0FC0
0000
0000
ENDCHAR
STARTCHAR vertical tab visible control
ENCODING 10
SWIDTH 480 0
DWIDTH 10 0
BBX 10 20 0 -4
BITMAP
0000
0000
0000
6600
6600
6600
3C00
3C00
1800
1800
0000
0FC0
0FC0
0300
0300
0300
0300
0300
0000
0000
ENDCHAR
STARTCHAR box drawing lower right corner
ENCODING 11
SWIDTH 480 0
DWIDTH 10 0
BBX 10 20 0 -4
BITMAP
1C00
1C00
1C00
1C00
1C00
1C00
1C00
1C00
1C00
FC00
FC00
0000
0000
0000
0000
0000
0000
0000
0000
0000
ENDCHAR
STARTCHAR box drawing upper right corner
ENCODING 12
SWIDTH 480 0
DWIDTH 10 0
BBX 10 20 0 -4
BITMAP
0000
0000
0000
0000
0000
0000
0000
0000
0000
FC00
FC00
1C00
1C00
1C00
1C00
1C00
1C00
1C00
1C00
1C00
ENDCHAR
STARTCHAR box drawing upper left corner
ENCODING 13
SWIDTH 480 0
DWIDTH 10 0
BBX 10 20 0 -4
BITMAP
0000
0000
0000
0000
0000
0000
0000
0000
0000
1FC0
1FC0
1C00
1C00
1C00
1C00
1C00
1C00
1C00
1C00
1C00
ENDCHAR
STARTCHAR box drawing lower left corner
ENCODING 14
SWIDTH 480 0
DWIDTH 10 0
BBX 10 20 0 -4
BITMAP
1C00
1C00
1C00
1C00
1C00
1C00
1C00
1C00
1C00
1FC0
1FC0
0000
0000
0000
0000
0000
0000
0000
0000
0000
ENDCHAR
STARTCHAR box drawing cross
ENCODING 15
SWIDTH 480 0
DWIDTH 10 0
BBX 10 20 0 -4
BITMAP
1C00
1C00
1C00
1C00
1C00
1C00
1C00
1C00
1C00
FFC0
FFC0
1C00
1C00
1C00
1C00
1C00
1C00
1C00
1C00
1C00
ENDCHAR
STARTCHAR box drawing horizontal line high
ENCODING 16
SWIDTH 480 0
DWIDTH 10 0
BBX 10 20 0 -4
BITMAP
0000
FFC0
FFC0
0000
0000
0000
0000
0000
0000
0000
0000
0000
0000
0000
0000
0000
0000
0000
0000
0000
ENDCHAR
STARTCHAR box drawing horizontal line medium high
ENCODING 17
SWIDTH 480 0
DWIDTH 10 0
BBX 10 20 0 -4
BITMAP
0000
0000
0000
0000
0000
FFC0
FFC0
0000
0000
0000
0000
0000
0000
0000
0000
0000
0000
0000
0000
0000
ENDCHAR
STARTCHAR box drawing horizontal line middle
ENCODING 18
SWIDTH 480 0
DWIDTH 10 0
BBX 10 20 0 -4
BITMAP
0000
0000
0000
0000
0000
0000
0000
0000
0000
FFC0
FFC0
0000
0000
0000
0000
0000
0000
0000
0000
0000
ENDCHAR
STARTCHAR box drawing horizontal line medium low
ENCODING 19
SWIDTH 480 0
DWIDTH 10 0
BBX 10 20 0 -4
BITMAP
0000
0000
0000
0000
0000
0000
0000
0000
0000
0000
0000
0000
0000
FFC0
FFC0
0000
0000
0000
0000
0000
ENDCHAR
STARTCHAR box drawing horizontal line low
ENCODING 20
SWIDTH 480 0
DWIDTH 10 0
BBX 10 20 0 -4
BITMAP
0000
0000
0000
0000
0000
0000
0000
0000
0000
0000
0000
0000
0000
0000
0000
0000
0000
FFC0
FFC0
0000
ENDCHAR
STARTCHAR box drawing left tee
ENCODING 21
SWIDTH 480 0
DWIDTH 10 0
BBX 10 20 0 -4
BITMAP
1C00
1C00
1C00
1C00
1C00
1C00
1C00
1C00
1C00
1FC0
1FC0
1C00
1C00
1C00
1C00
1C00
1C00
1C00
1C00
1C00
ENDCHAR
STARTCHAR box drawing right tee
ENCODING 22
SWIDTH 480 0
DWIDTH 10 0
BBX 10 20 0 -4
BITMAP
1C00
1C00
1C00
1C00
1C00
1C00
1C00
1C00
1C00
FC00
FC00
1C00
1C00
1C00
1C00
1C00
1C00
1C00
1C00
1C00
ENDCHAR
STARTCHAR box drawing lower tee
ENCODING 23
SWIDTH 480 0
DWIDTH 10 0
BBX 10 20 0 -4
BITMAP
1C00
1C00
1C00
1C00
1C00
1C00
1C00
1C00
1C00
FFC0
FFC0
0000
0000
0000
0000
0000
0000
0000
0000
0000
ENDCHAR
STARTCHAR box drawing upper tee
ENCODING 24
SWIDTH 480 0
DWIDTH 10 0
BBX 10 20 0 -4
BITMAP
0000
0000
0000
0000
0000
0000
0000
0000
0000
FFC0
FFC0
1C00
1C00
1C00
1C00
1C00
1C00
1C00
1C00
1C00
ENDCHAR
STARTCHAR box drawing vertical line
ENCODING 25
SWIDTH 480 0
DWIDTH 10 0
BBX 10 20 0 -4
BITMAP
1C00
1C00
1C00
1C00
1C00
1C00
1C00
1C00
1C00
1C00
1C00
1C00
1C00
1C00
1C00
1C00
1C00
1C00
1C00
1C00
ENDCHAR
STARTCHAR less-than-or-equal sign
ENCODING 26
SWIDTH 480 0
DWIDTH 10 0
BBX 10 20 0 -4
BITMAP
0000
0000
0000
0000
0000
0200
0700
0E00
1C00
3800
7000
3800
1C00
0E00
0700
0200
0000
7F80
7F80
0000
ENDCHAR
STARTCHAR greater-than-or-equal sign
ENCODING 27
SWIDTH 480 0
DWIDTH 10 0
BBX 10 20 0 -4
BITMAP
0000
0000
0000
0000
0000
1000
3800
1C00
0E00
0700
0380
0700
0E00
1C00
3800
1000
0000
7F80
7F80
0000
ENDCHAR
STARTCHAR greek small letter pi
ENCODING 28
SWIDTH 480 0
DWIDTH 10 0
BBX 10 20 0 -4
BITMAP
0000
0000
0000
0000
0000
0000
0000
0000
7FC0
FFC0
BB80
3B80
3B80
3B80
3BC0
39C0
0000
0000
0000
0000
ENDCHAR
STARTCHAR not-equal sign
ENCODING 29
SWIDTH 480 0
DWIDTH 10 0
BBX 10 20 0 -4
BITMAP
0000
0000
0000
0000
00C0
0180
7FC0
7FC0
7FC0
0600
0C00
7FC0
7FC0
7FC0
3000
6000
0000
0000
0000
0000
ENDCHAR
STARTCHAR pound sign
ENCODING 30
SWIDTH 480 0
DWIDTH 10 0
BBX 10 20 0 -4
BITMAP
0000
0000
0000
1F00
3F80
3980
3800
3800
3800
7E00
7E00
3800
3800
3800
7FC0
7FC0
0000
0000
0000
0000
ENDCHAR
STARTCHAR middle dot
ENCODING 31
SWIDTH 480 0
DWIDTH 10 0
BBX 10 20 0 -4
BITMAP
0000
0000
0000
0000
0000
0000
0000
0000
0C00
1E00
1E00
0C00
0000
0000
0000
0000
0000
0000
0000
0000
ENDCHAR
STARTCHAR U+0020 space
ENCODING 32
SWIDTH 480 0
DWIDTH 10 0
BBX 10 20 0 -4
BITMAP
0000
0000
0000
0000
0000
0000
0000
0000
0000
0000
0000
0000
0000
0000
0000
0000
0000
0000
0000
0000
ENDCHAR
STARTCHAR U+0021 exclamation mark
ENCODING 33
SWIDTH 480 0
DWIDTH 10 0
BBX 10 20 0 -4
BITMAP
0000
0000
0000
0E00
0E00
0E00
0E00
0E00
0E00
0E00
0E00
0E00
0000
0E00
0E00
0E00
0000
0000
0000
0000
ENDCHAR
STARTCHAR U+0022 quotation mark
ENCODING 34
SWIDTH 480 0
DWIDTH 10 0
BBX 10 20 0 -4
BITMAP
0000
0000
3B80
3B80
3B80
3B80
3B80
0000
0000
0000
0000
0000
0000
0000
0000
0000
0000
0000
0000
0000
ENDCHAR
STARTCHAR U+0023 number sign
ENCODING 35
SWIDTH 480 0
DWIDTH 10 0
BBX 10 20 0 -4
BITMAP
0000
0000
0000
0000
1B00
1B00
7FC0
7FC0
7FC0
1B00
1B00
7FC0
7FC0
7FC0
1B00
1B00
0000
0000
0000
0000
ENDCHAR
STARTCHAR U+0024 dollar sign
ENCODING 36
SWIDTH 480 0
DWIDTH 10 0
BBX 10 20 0 -4
BITMAP
0000
0000
0000
0C00
0C00
3F00
7F80
6D00
7C00
3F00
0F80
2D80
7F80
3F00
0C00
0C00
0000
0000
0000
0000
ENDCHAR
STARTCHAR U+0025 percent sign
ENCODING 37
SWIDTH 480 0
DWIDTH 10 0
BBX 10 20 0 -4
BITMAP
0000
0000
0000
38C0
7DC0
6D80
7F80
3F00
0600
0E00
0C00
1F80
3FC0
36C0
77C0
6380
0000
0000
0000
0000
ENDCHAR
ENDFONT
