STARTFONT 2.1
FONT -dylex-crawl-Medium-O-Normal--14-140-75-75-C-140-ISO10646-1
SIZE 14 78 78
FONTBOUNDINGBOX 14 14 0 -3
STARTPROPERTIES 23
FONTNAME_REGISTRY ""
FOUNDRY "dylex"
FAMILY_NAME "crawl"
WEIGHT_NAME "Medium"
SLANT "O"
SETWIDTH_NAME "Normal"
ADD_STYLE_NAME ""
PIXEL_SIZE 14
POINT_SIZE 140
RESOLUTION_X 75
RESOLUTION_Y 75
SPACING "C"
AVERAGE_WIDTH 140
CHARSET_REGISTRY "ISO10646"
CHARSET_ENCODING "1"
COPYRIGHT "Public domain font.  Share and enjoy."
DESTINATION 1
DEFAULT_CHAR 0
FONT_DESCENT 3
FONT_ASCENT 11
CAP_HEIGHT 10
X_HEIGHT 6
_GBDFED_INFO "Edited with gbdfed 1.6."
ENDPROPERTIES
CHARS 105
STARTCHAR char0
ENCODING 0
SWIDTH 923 0
DWIDTH 14 0
BBX 14 14 0 -3
BITMAP
0000
2AA8
0004
2000
0008
4000
0008
4000
0008
4000
0010
8000
5550
0000
ENDCHAR
STARTCHAR char1
ENCODING 1
SWIDTH 923 0
DWIDTH 14 0
BBX 14 14 0 -3
BITMAP
0000
0000
0000
0200
0500
0880
1040
0880
0500
0200
0000
0000
0000
0000
ENDCHAR
STARTCHAR char2
ENCODING 2
SWIDTH 923 0
DWIDTH 14 0
BBX 14 14 0 -3
BITMAP
5554
AAA8
5554
AAA8
5554
AAA8
5554
AAA8
5554
AAA8
5554
AAA8
5554
AAA8
ENDCHAR
STARTCHAR char26
ENCODING 26
SWIDTH 923 0
DWIDTH 14 0
BBX 14 14 0 -3
BITMAP
0000
0000
001C
00E0
0F00
7800
0E00
01C0
0070
0000
FFF0
0000
0000
0000
ENDCHAR
STARTCHAR char27
ENCODING 27
SWIDTH 923 0
DWIDTH 14 0
BBX 14 14 0 -3
BITMAP
0000
0000
3800
0700
00E0
0038
01C0
1E00
F000
0000
FFF0
0000
0000
0000
ENDCHAR
STARTCHAR char28
ENCODING 28
SWIDTH 923 0
DWIDTH 14 0
BBX 14 14 0 -3
BITMAP
0000
0000
0000
0000
7FF8
1860
30C0
30C0
30C0
6180
6180
0000
0000
0000
ENDCHAR
STARTCHAR char29
ENCODING 29
SWIDTH 923 0
DWIDTH 14 0
BBX 14 14 0 -3
BITMAP
0000
0000
0030
0060
1FF8
0180
0300
0600
7FE0
1800
3000
0000
0000
0000
ENDCHAR
STARTCHAR char30
ENCODING 30
SWIDTH 923 0
DWIDTH 14 0
BBX 14 14 0 -3
BITMAP
0000
03E0
0630
0600
0C00
0C00
7F80
1800
3000
7CC0
6780
0000
0000
0000
ENDCHAR
STARTCHAR char31
ENCODING 31
SWIDTH 923 0
DWIDTH 14 0
BBX 14 14 0 -3
BITMAP
0000
0000
0000
0000
0000
0000
0780
0000
0000
0000
0000
0000
0000
0000
ENDCHAR
STARTCHAR char32
ENCODING 32
SWIDTH 923 0
DWIDTH 14 0
BBX 14 14 0 -3
BITMAP
0000
0000
0000
0000
0000
0000
0000
0000
0000
0000
0000
0000
0000
0000
ENDCHAR
STARTCHAR char33
ENCODING 33
SWIDTH 923 0
DWIDTH 14 0
BBX 14 14 0 -3
BITMAP
0000
0180
0180
0180
0300
0300
0300
0300
0000
0600
0600
0000
0000
0000
ENDCHAR
STARTCHAR char34
ENCODING 34
SWIDTH 923 0
DWIDTH 14 0
BBX 14 14 0 -3
BITMAP
0000
0CC0
0CC0
1980
0900
0000
0000
0000
0000
0000
0000
0000
0000
0000
ENDCHAR
STARTCHAR char35
ENCODING 35
SWIDTH 923 0
DWIDTH 14 0
BBX 14 14 0 -3
BITMAP
0000
0660
0660
3FF8
0CC0
0CC0
0CC0
0CC0
7FF0
1980
1980
0000
0000
0000
ENDCHAR
STARTCHAR char36
ENCODING 36
SWIDTH 923 0
DWIDTH 14 0
BBX 14 14 0 -3
BITMAP
0000
0180
0FF0
1998
3300
1FE0
0330
6330
6660
3FC0
0600
0000
0000
0000
ENDCHAR
STARTCHAR char37
ENCODING 37
SWIDTH 923 0
DWIDTH 14 0
BBX 14 14 0 -3
BITMAP
0000
1818
2430
2460
19C0
0300
0600
1CC0
3120
6120
C0C0
0000
0000
0000
ENDCHAR
STARTCHAR char38
ENCODING 38
SWIDTH 923 0
DWIDTH 14 0
BBX 14 14 0 -3
BITMAP
0000
03C0
0660
0660
06C0
0780
0780
1CF0
30C0
31E0
1F30
0000
0000
0000
ENDCHAR
STARTCHAR char39
ENCODING 39
SWIDTH 923 0
DWIDTH 14 0
BBX 14 14 0 -3
BITMAP
0000
0300
0300
0600
0400
0000
0000
0000
0000
0000
0000
0000
0000
0000
ENDCHAR
STARTCHAR char40
ENCODING 40
SWIDTH 923 0
DWIDTH 14 0
BBX 14 14 0 -3
BITMAP
0000
00C0
0180
0300
0600
0C00
0C00
0C00
0C00
0C00
0600
0300
0000
0000
ENDCHAR
STARTCHAR char41
ENCODING 41
SWIDTH 923 0
DWIDTH 14 0
BBX 14 14 0 -3
BITMAP
0000
0300
0180
00C0
00C0
00C0
00C0
00C0
0180
0300
0600
0C00
0000
0000
ENDCHAR
STARTCHAR char42
ENCODING 42
SWIDTH 923 0
DWIDTH 14 0
BBX 14 14 0 -3
BITMAP
0000
0000
0000
0180
0DB0
0FE0
0780
1FC0
36C0
0600
0000
0000
0000
0000
ENDCHAR
STARTCHAR char43
ENCODING 43
SWIDTH 923 0
DWIDTH 14 0
BBX 14 14 0 -3
BITMAP
0000
0000
0000
0300
0300
0300
3FE0
0600
0600
0600
0000
0000
0000
0000
ENDCHAR
STARTCHAR char44
ENCODING 44
SWIDTH 923 0
DWIDTH 14 0
BBX 14 14 0 -3
BITMAP
0000
0000
0000
0000
0000
0000
0000
0000
0180
0180
0300
0600
0000
0000
ENDCHAR
STARTCHAR char45
ENCODING 45
SWIDTH 923 0
DWIDTH 14 0
BBX 14 14 0 -3
BITMAP
0000
0000
0000
0000
0000
0000
1FE0
0000
0000
0000
0000
0000
0000
0000
ENDCHAR
STARTCHAR char46
ENCODING 46
SWIDTH 923 0
DWIDTH 14 0
BBX 14 14 0 -3
BITMAP
0000
0000
0000
0000
0000
0000
0000
0000
0000
0300
0300
0000
0000
0000
ENDCHAR
STARTCHAR char47
ENCODING 47
SWIDTH 923 0
DWIDTH 14 0
BBX 14 14 0 -3
BITMAP
0000
0018
0030
0060
01C0
0300
0600
1C00
3000
6000
C000
0000
0000
0000
ENDCHAR
STARTCHAR char48
ENCODING 48
SWIDTH 923 0
DWIDTH 14 0
BBX 14 14 0 -3
BITMAP
0000
07E0
0C30
1818
3018
6318
6318
6030
6060
30C0
1F80
0000
0000
0000
ENDCHAR
STARTCHAR char49
ENCODING 49
SWIDTH 923 0
DWIDTH 14 0
BBX 14 14 0 -3
BITMAP
0000
0380
0780
0D80
0180
0300
0300
0300
0600
0600
7FE0
0000
0000
0000
ENDCHAR
STARTCHAR char50
ENCODING 50
SWIDTH 923 0
DWIDTH 14 0
BBX 14 14 0 -3
BITMAP
0000
0FF0
1818
300C
0018
0030
00C0
0700
1800
6000
FFF0
0000
0000
0000
ENDCHAR
STARTCHAR char51
ENCODING 51
SWIDTH 923 0
DWIDTH 14 0
BBX 14 14 0 -3
BITMAP
0000
0FF0
1818
300C
0018
03F0
0030
0018
C030
6060
3FC0
0000
0000
0000
ENDCHAR
STARTCHAR char52
ENCODING 52
SWIDTH 923 0
DWIDTH 14 0
BBX 14 14 0 -3
BITMAP
0000
0030
00F0
0730
1830
6060
7FF8
0060
00C0
00C0
00C0
0000
0000
0000
ENDCHAR
STARTCHAR char53
ENCODING 53
SWIDTH 923 0
DWIDTH 14 0
BBX 14 14 0 -3
BITMAP
0000
3FF8
3000
3000
6000
7FE0
0030
0018
0030
C060
7FC0
0000
0000
0000
ENDCHAR
STARTCHAR char54
ENCODING 54
SWIDTH 923 0
DWIDTH 14 0
BBX 14 14 0 -3
BITMAP
0000
0FF0
1818
3000
6000
7FE0
6030
C018
C030
6060
3FC0
0000
0000
0000
ENDCHAR
STARTCHAR char55
ENCODING 55
SWIDTH 923 0
DWIDTH 14 0
BBX 14 14 0 -3
BITMAP
0000
3FF8
0018
0030
00E0
0180
0300
0E00
1800
3000
6000
0000
0000
0000
ENDCHAR
STARTCHAR char56
ENCODING 56
SWIDTH 923 0
DWIDTH 14 0
BBX 14 14 0 -3
BITMAP
0000
0FF0
1818
3018
3030
1FE0
3030
6018
C030
6060
3FC0
0000
0000
0000
ENDCHAR
STARTCHAR char57
ENCODING 57
SWIDTH 923 0
DWIDTH 14 0
BBX 14 14 0 -3
BITMAP
0000
0FF0
1818
3018
3018
1FF8
0018
0018
0030
6060
3FC0
0000
0000
0000
ENDCHAR
STARTCHAR char58
ENCODING 58
SWIDTH 923 0
DWIDTH 14 0
BBX 14 14 0 -3
BITMAP
0000
0000
0000
0000
0300
0300
0000
0000
0600
0600
0000
0000
0000
0000
ENDCHAR
STARTCHAR char59
ENCODING 59
SWIDTH 923 0
DWIDTH 14 0
BBX 14 14 0 -3
BITMAP
0000
0000
0000
0000
0180
0180
0000
0000
0300
0300
0600
0C00
0000
0000
ENDCHAR
STARTCHAR char60
ENCODING 60
SWIDTH 923 0
DWIDTH 14 0
BBX 14 14 0 -3
BITMAP
0000
0000
0018
0060
0380
0E00
3000
0C00
0600
0180
0060
0000
0000
0000
ENDCHAR
STARTCHAR char61
ENCODING 61
SWIDTH 923 0
DWIDTH 14 0
BBX 14 14 0 -3
BITMAP
0000
0000
0000
0000
1FF8
0000
0000
0000
7FE0
0000
0000
0000
0000
0000
ENDCHAR
STARTCHAR char62
ENCODING 62
SWIDTH 923 0
DWIDTH 14 0
BBX 14 14 0 -3
BITMAP
0000
0000
1800
0600
0180
00C0
0030
01C0
0700
1800
6000
0000
0000
0000
ENDCHAR
STARTCHAR char63
ENCODING 63
SWIDTH 923 0
DWIDTH 14 0
BBX 14 14 0 -3
BITMAP
0000
0FC0
1860
3060
00C0
0300
0600
0600
0000
0C00
0C00
0000
0000
0000
ENDCHAR
STARTCHAR char64
ENCODING 64
SWIDTH 923 0
DWIDTH 14 0
BBX 14 14 0 -3
BITMAP
0000
0000
0FF0
1818
3798
6CD8
6CD8
6C98
6FE0
6000
3FC0
0000
0000
0000
ENDCHAR
STARTCHAR char65
ENCODING 65
SWIDTH 923 0
DWIDTH 14 0
BBX 14 14 0 -3
BITMAP
0000
00C0
01E0
0330
0E30
1818
3FF8
3018
6018
6018
6018
0000
0000
0000
ENDCHAR
STARTCHAR char66
ENCODING 66
SWIDTH 923 0
DWIDTH 14 0
BBX 14 14 0 -3
BITMAP
0000
1FE0
1830
1830
3060
3FE0
3030
3018
6030
6060
7FC0
0000
0000
0000
ENDCHAR
STARTCHAR char67
ENCODING 67
SWIDTH 923 0
DWIDTH 14 0
BBX 14 14 0 -3
BITMAP
0000
0FF0
1818
300C
6000
6000
6000
6000
6030
6060
3FC0
0000
0000
0000
ENDCHAR
STARTCHAR char68
ENCODING 68
SWIDTH 923 0
DWIDTH 14 0
BBX 14 14 0 -3
BITMAP
0000
3FE0
3030
3018
6018
6018
6018
6030
C060
C0C0
FF80
0000
0000
0000
ENDCHAR
STARTCHAR char69
ENCODING 69
SWIDTH 923 0
DWIDTH 14 0
BBX 14 14 0 -3
BITMAP
0000
3FF8
3000
3000
6000
7F80
6000
6000
C000
C000
FFE0
0000
0000
0000
ENDCHAR
STARTCHAR char70
ENCODING 70
SWIDTH 923 0
DWIDTH 14 0
BBX 14 14 0 -3
BITMAP
0000
3FF8
3000
3000
6000
7F80
6000
6000
C000
C000
C000
0000
0000
0000
ENDCHAR
STARTCHAR char71
ENCODING 71
SWIDTH 923 0
DWIDTH 14 0
BBX 14 14 0 -3
BITMAP
0000
0FF0
1818
300C
6000
6000
60F8
6018
6030
6070
3FD0
0000
0000
0000
ENDCHAR
STARTCHAR char72
ENCODING 72
SWIDTH 923 0
DWIDTH 14 0
BBX 14 14 0 -3
BITMAP
0000
300C
300C
300C
6018
7FF8
6018
6018
C030
C030
C030
0000
0000
0000
ENDCHAR
STARTCHAR char73
ENCODING 73
SWIDTH 923 0
DWIDTH 14 0
BBX 14 14 0 -3
BITMAP
0000
0FF0
0180
0180
0300
0300
0300
0300
0600
0600
3FC0
0000
0000
0000
ENDCHAR
STARTCHAR char74
ENCODING 74
SWIDTH 923 0
DWIDTH 14 0
BBX 14 14 0 -3
BITMAP
0000
01F8
0060
0060
00C0
00C0
00C0
30C0
3180
3300
1E00
0000
0000
0000
ENDCHAR
STARTCHAR char75
ENCODING 75
SWIDTH 923 0
DWIDTH 14 0
BBX 14 14 0 -3
BITMAP
0000
1830
1860
18C0
3180
3F00
3300
3180
6180
60C0
6060
0000
0000
0000
ENDCHAR
STARTCHAR char76
ENCODING 76
SWIDTH 923 0
DWIDTH 14 0
BBX 14 14 0 -3
BITMAP
0000
1800
1800
1800
3000
3000
3000
3000
6000
6000
7FF0
0000
0000
0000
ENDCHAR
STARTCHAR char77
ENCODING 77
SWIDTH 923 0
DWIDTH 14 0
BBX 14 14 0 -3
BITMAP
0000
300C
381C
3C3C
6CF8
6798
6318
6018
C030
C030
C030
0000
0000
0000
ENDCHAR
STARTCHAR char78
ENCODING 78
SWIDTH 923 0
DWIDTH 14 0
BBX 14 14 0 -3
BITMAP
0000
3018
3818
3C18
6C30
6630
6330
61B0
C1E0
C0E0
C060
0000
0000
0000
ENDCHAR
STARTCHAR char79
ENCODING 79
SWIDTH 923 0
DWIDTH 14 0
BBX 14 14 0 -3
BITMAP
0000
0FF0
1818
3018
6018
6018
6018
6018
6030
6060
3FC0
0000
0000
0000
ENDCHAR
STARTCHAR char80
ENCODING 80
SWIDTH 923 0
DWIDTH 14 0
BBX 14 14 0 -3
BITMAP
0000
3FE0
3030
3018
6030
6060
7FC0
6000
C000
C000
C000
0000
0000
0000
ENDCHAR
STARTCHAR char81
ENCODING 81
SWIDTH 923 0
DWIDTH 14 0
BBX 14 14 0 -3
BITMAP
0000
0FF0
1818
3018
6018
6018
6018
6018
61B0
60E0
3FE0
0030
0000
0000
ENDCHAR
STARTCHAR char82
ENCODING 82
SWIDTH 923 0
DWIDTH 14 0
BBX 14 14 0 -3
BITMAP
0000
3FE0
3030
3030
6030
6060
7FC0
6180
C180
C0C0
C060
0000
0000
0000
ENDCHAR
STARTCHAR char83
ENCODING 83
SWIDTH 923 0
DWIDTH 14 0
BBX 14 14 0 -3
BITMAP
0000
0FF8
180C
3000
3000
1FE0
0030
0030
C030
6060
3FC0
0000
0000
0000
ENDCHAR
STARTCHAR char84
ENCODING 84
SWIDTH 923 0
DWIDTH 14 0
BBX 14 14 0 -3
BITMAP
0000
3FF0
0300
0300
0600
0600
0600
0600
0C00
0C00
0C00
0000
0000
0000
ENDCHAR
STARTCHAR char85
ENCODING 85
SWIDTH 923 0
DWIDTH 14 0
BBX 14 14 0 -3
BITMAP
0000
6018
6018
6018
C018
C030
C030
C030
C060
C0C0
7F80
0000
0000
0000
ENDCHAR
STARTCHAR char86
ENCODING 86
SWIDTH 923 0
DWIDTH 14 0
BBX 14 14 0 -3
BITMAP
0000
6018
6018
6030
6060
30C0
3180
1B00
1E00
1E00
0C00
0000
0000
0000
ENDCHAR
STARTCHAR char87
ENCODING 87
SWIDTH 923 0
DWIDTH 14 0
BBX 14 14 0 -3
BITMAP
0000
6018
6018
6018
6630
6660
6F60
7FC0
73C0
7380
6180
0000
0000
0000
ENDCHAR
STARTCHAR char88
ENCODING 88
SWIDTH 923 0
DWIDTH 14 0
BBX 14 14 0 -3
BITMAP
0000
1818
0C30
0660
03C0
0380
0700
0F00
1980
30C0
6060
0000
0000
0000
ENDCHAR
STARTCHAR char89
ENCODING 89
SWIDTH 923 0
DWIDTH 14 0
BBX 14 14 0 -3
BITMAP
0000
6018
3030
1860
19C0
0F00
0600
0600
0C00
0C00
0C00
0000
0000
0000
ENDCHAR
STARTCHAR char90
ENCODING 90
SWIDTH 923 0
DWIDTH 14 0
BBX 14 14 0 -3
BITMAP
0000
3FF8
0030
0060
01C0
0300
0600
1C00
3000
6000
FFE0
0000
0000
0000
ENDCHAR
STARTCHAR char91
ENCODING 91
SWIDTH 923 0
DWIDTH 14 0
BBX 14 14 0 -3
BITMAP
0000
03E0
0300
0300
0300
0600
0600
0600
0C00
0C00
0C00
0F80
0000
0000
ENDCHAR
STARTCHAR char92
ENCODING 92
SWIDTH 923 0
DWIDTH 14 0
BBX 14 14 0 -3
BITMAP
0000
3000
1800
0C00
0C00
0600
0300
0180
0180
00C0
0060
0000
0000
0000
ENDCHAR
STARTCHAR char93
ENCODING 93
SWIDTH 923 0
DWIDTH 14 0
BBX 14 14 0 -3
BITMAP
0000
07C0
00C0
00C0
00C0
0180
0180
0180
0300
0300
0300
1F00
0000
0000
ENDCHAR
STARTCHAR char94
ENCODING 94
SWIDTH 923 0
DWIDTH 14 0
BBX 14 14 0 -3
BITMAP
0000
0180
03C0
0EC0
1860
3030
0000
0000
0000
0000
0000
0000
0000
0000
ENDCHAR
STARTCHAR char95
ENCODING 95
SWIDTH 923 0
DWIDTH 14 0
BBX 14 14 0 -3
BITMAP
0000
0000
0000
0000
0000
0000
0000
0000
0000
0000
0000
7FF8
0000
0000
ENDCHAR
STARTCHAR char96
ENCODING 96
SWIDTH 923 0
DWIDTH 14 0
BBX 14 14 0 -3
BITMAP
0000
0600
0300
0300
0000
0000
0000
0000
0000
0000
0000
0000
0000
0000
ENDCHAR
STARTCHAR char97
ENCODING 97
SWIDTH 923 0
DWIDTH 14 0
BBX 14 14 0 -3
BITMAP
0000
0000
0000
0000
0FF0
1818
0030
1FF0
3030
6060
3FE0
0000
0000
0000
ENDCHAR
STARTCHAR char98
ENCODING 98
SWIDTH 923 0
DWIDTH 14 0
BBX 14 14 0 -3
BITMAP
0000
1800
1800
1800
37E0
3830
3018
3018
6030
7060
6FC0
0000
0000
0000
ENDCHAR
STARTCHAR char99
ENCODING 99
SWIDTH 923 0
DWIDTH 14 0
BBX 14 14 0 -3
BITMAP
0000
0000
0000
0000
0FF0
1818
3000
6000
6000
6060
3FC0
0000
0000
0000
ENDCHAR
STARTCHAR char100
ENCODING 100
SWIDTH 923 0
DWIDTH 14 0
BBX 14 14 0 -3
BITMAP
0000
0018
0018
0018
1FB0
3070
6030
C030
C060
60E0
3F60
0000
0000
0000
ENDCHAR
STARTCHAR char101
ENCODING 101
SWIDTH 923 0
DWIDTH 14 0
BBX 14 14 0 -3
BITMAP
0000
0000
0000
0000
0FE0
1830
3030
7FF0
6000
6060
3FC0
0000
0000
0000
ENDCHAR
STARTCHAR char102
ENCODING 102
SWIDTH 923 0
DWIDTH 14 0
BBX 14 14 0 -3
BITMAP
0000
03E0
0630
0600
0C00
7F80
0C00
0C00
1800
1800
1800
0000
0000
0000
ENDCHAR
STARTCHAR char103
ENCODING 103
SWIDTH 923 0
DWIDTH 14 0
BBX 14 14 0 -3
BITMAP
0000
0000
0000
0000
0FD8
1830
3030
6030
6030
6060
3FE0
0060
C060
7FC0
ENDCHAR
STARTCHAR char104
ENCODING 104
SWIDTH 923 0
DWIDTH 14 0
BBX 14 14 0 -3
BITMAP
0000
1800
1800
1800
37E0
3C30
3018
3018
6030
6030
6030
0000
0000
0000
ENDCHAR
STARTCHAR char105
ENCODING 105
SWIDTH 923 0
DWIDTH 14 0
BBX 14 14 0 -3
BITMAP
0000
0180
0180
0000
0F00
0300
0300
0300
0600
0600
3FC0
0000
0000
0000
ENDCHAR
STARTCHAR char106
ENCODING 106
SWIDTH 923 0
DWIDTH 14 0
BBX 14 14 0 -3
BITMAP
0000
0030
0030
0000
01E0
0060
0060
0060
00C0
00C0
00C0
3180
3300
1E00
ENDCHAR
STARTCHAR char107
ENCODING 107
SWIDTH 923 0
DWIDTH 14 0
BBX 14 14 0 -3
BITMAP
0000
0C00
0C00
0C00
1860
18C0
1980
1B00
3F00
3980
30C0
0000
0000
0000
ENDCHAR
STARTCHAR char108
ENCODING 108
SWIDTH 923 0
DWIDTH 14 0
BBX 14 14 0 -3
BITMAP
0000
03C0
00C0
00C0
0180
0180
0180
0180
0300
0300
1FE0
0000
0000
0000
ENDCHAR
STARTCHAR char109
ENCODING 109
SWIDTH 923 0
DWIDTH 14 0
BBX 14 14 0 -3
BITMAP
0000
0000
0000
0000
2E70
3BD8
6318
6318
6318
C630
C630
0000
0000
0000
ENDCHAR
STARTCHAR char110
ENCODING 110
SWIDTH 923 0
DWIDTH 14 0
BBX 14 14 0 -3
BITMAP
0000
0000
0000
0000
1BF0
1E18
3818
3018
3018
6030
6030
0000
0000
0000
ENDCHAR
STARTCHAR char111
ENCODING 111
SWIDTH 923 0
DWIDTH 14 0
BBX 14 14 0 -3
BITMAP
0000
0000
0000
0000
0FF0
1818
3018
6018
6030
6060
3FC0
0000
0000
0000
ENDCHAR
STARTCHAR char112
ENCODING 112
SWIDTH 923 0
DWIDTH 14 0
BBX 14 14 0 -3
BITMAP
0000
0000
0000
0000
1BF0
1C18
1818
3018
3018
3830
37E0
6000
6000
6000
ENDCHAR
STARTCHAR char113
ENCODING 113
SWIDTH 923 0
DWIDTH 14 0
BBX 14 14 0 -3
BITMAP
0000
0000
0000
0000
1FB0
3070
3030
6060
6060
60E0
3F60
00C0
00C0
00C0
ENDCHAR
STARTCHAR char114
ENCODING 114
SWIDTH 923 0
DWIDTH 14 0
BBX 14 14 0 -3
BITMAP
0000
0000
0000
0000
37E0
1C30
3030
3000
3000
6000
6000
0000
0000
0000
ENDCHAR
STARTCHAR char115
ENCODING 115
SWIDTH 923 0
DWIDTH 14 0
BBX 14 14 0 -3
BITMAP
0000
0000
0000
0000
0FF0
1818
3000
1FE0
0030
6060
3FC0
0000
0000
0000
ENDCHAR
STARTCHAR char116
ENCODING 116
SWIDTH 923 0
DWIDTH 14 0
BBX 14 14 0 -3
BITMAP
0000
0300
0300
0300
3FC0
0600
0600
0600
0C00
0C60
07C0
0000
0000
0000
ENDCHAR
STARTCHAR char117
ENCODING 117
SWIDTH 923 0
DWIDTH 14 0
BBX 14 14 0 -3
BITMAP
0000
0000
0000
0000
3018
3018
6030
6030
6030
60E0
3F60
0000
0000
0000
ENDCHAR
STARTCHAR char118
ENCODING 118
SWIDTH 923 0
DWIDTH 14 0
BBX 14 14 0 -3
BITMAP
0000
0000
0000
0000
6018
6018
6070
30C0
1B80
1E00
0C00
0000
0000
0000
ENDCHAR
STARTCHAR char119
ENCODING 119
SWIDTH 923 0
DWIDTH 14 0
BBX 14 14 0 -3
BITMAP
0000
0000
0000
0000
6018
6018
6030
6660
7F60
73C0
6180
0000
0000
0000
ENDCHAR
STARTCHAR char120
ENCODING 120
SWIDTH 923 0
DWIDTH 14 0
BBX 14 14 0 -3
BITMAP
0000
0000
0000
0000
3018
1830
0DC0
0700
1D80
60C0
C060
0000
0000
0000
ENDCHAR
STARTCHAR char121
ENCODING 121
SWIDTH 923 0
DWIDTH 14 0
BBX 14 14 0 -3
BITMAP
0000
0000
0000
0000
3018
3018
6030
6030
6030
60E0
3F60
00C0
C180
7F00
ENDCHAR
STARTCHAR char122
ENCODING 122
SWIDTH 923 0
DWIDTH 14 0
BBX 14 14 0 -3
BITMAP
0000
0000
0000
0000
1FF8
0018
00E0
0300
1C00
6000
7FE0
0000
0000
0000
ENDCHAR
STARTCHAR char123
ENCODING 123
SWIDTH 923 0
DWIDTH 14 0
BBX 14 14 0 -3
BITMAP
0000
01E0
0300
0300
0300
0600
1C00
0600
0600
0C00
0C00
0780
0000
0000
ENDCHAR
STARTCHAR char124
ENCODING 124
SWIDTH 923 0
DWIDTH 14 0
BBX 14 14 0 -3
BITMAP
0000
0180
0180
0180
0180
0300
0300
0300
0600
0600
0600
0600
0000
0000
ENDCHAR
STARTCHAR char123
ENCODING 125
SWIDTH 923 0
DWIDTH 14 0
BBX 14 14 0 -3
BITMAP
0000
0780
00C0
00C0
0180
0180
00E0
0180
0300
0300
0300
1E00
0000
0000
ENDCHAR
STARTCHAR char126
ENCODING 126
SWIDTH 923 0
DWIDTH 14 0
BBX 14 14 0 -3
BITMAP
0000
0000
0000
0000
0000
0E00
3B18
6370
01C0
0000
0000
0000
0000
0000
ENDCHAR
STARTCHAR char127
ENCODING 127
SWIDTH 923 0
DWIDTH 14 0
BBX 14 14 0 -3
BITMAP
0000
0000
0000
0000
0000
0000
0000
0000
0000
0000
0000
0000
0000
0000
ENDCHAR
ENDFONT
