STARTFONT 2.1
FONT -dylex-crawl-Bold-R-Normal--14-140-75-75-C-140-ISO10646-1
SIZE 14 78 78
FONTBOUNDINGBOX 14 14 0 -3
STARTPROPERTIES 23
FONTNAME_REGISTRY ""
FOUNDRY "dylex"
FAMILY_NAME "crawl"
WEIGHT_NAME "Bold"
SLANT "R"
SETWIDTH_NAME "Normal"
ADD_STYLE_NAME ""
PIXEL_SIZE 14
POINT_SIZE 140
RESOLUTION_X 75
RESOLUTION_Y 75
SPACING "C"
AVERAGE_WIDTH 140
CHARSET_REGISTRY "ISO10646"
CHARSET_ENCODING "1"
COPYRIGHT "Public domain font.  Share and enjoy."
DESTINATION 1
DEFAULT_CHAR 0
FONT_DESCENT 3
FONT_ASCENT 11
CAP_HEIGHT 10
X_HEIGHT 6
_GBDFED_INFO "Edited with gbdfed 1.6."
ENDPROPERTIES
CHARS 254
STARTCHAR char0
ENCODING 0
SWIDTH 923 0
DWIDTH 14 0
BBX 14 14 0 -3
BITMAP
0000
6CD8
6CD8
0000
6018
6018
0000
0000
6018
6018
0000
6CD8
6CD8
0000
ENDCHAR
STARTCHAR char1
ENCODING 1
SWIDTH 923 0
DWIDTH 14 0
BBX 14 14 0 -3
BITMAP
0000
0000
0000
0300
0780
0FC0
1FE0
0FC0
0780
0300
0000
0000
0000
0000
ENDCHAR
STARTCHAR char2
ENCODING 2
SWIDTH 923 0
DWIDTH 14 0
BBX 14 14 0 -3
BITMAP
5554
AAA8
5554
AAA8
5554
AAA8
5554
AAA8
5554
AAA8
5554
AAA8
5554
AAA8
ENDCHAR
STARTCHAR char3
ENCODING 3
SWIDTH 923 0
DWIDTH 14 0
BBX 14 14 0 -3
BITMAP
0000
7700
7700
7F00
7700
7700
03F8
00E0
00E0
00E0
00E0
0000
0000
0000
ENDCHAR
STARTCHAR char4
ENCODING 4
SWIDTH 923 0
DWIDTH 14 0
BBX 14 14 0 -3
BITMAP
0000
7E00
7000
7C00
7000
71F8
71C0
01F0
01C0
01C0
01C0
0000
0000
0000
ENDCHAR
STARTCHAR char5
ENCODING 5
SWIDTH 923 0
DWIDTH 14 0
BBX 14 14 0 -3
BITMAP
0000
3C00
7600
7000
7000
77F0
3DD8
01D8
01F0
01F8
01D8
0000
0000
0000
ENDCHAR
STARTCHAR char6
ENCODING 6
SWIDTH 923 0
DWIDTH 14 0
BBX 14 14 0 -3
BITMAP
0000
7000
7000
7000
7000
71F8
7FC0
01F0
01C0
01C0
01C0
0000
0000
0000
ENDCHAR
STARTCHAR char7
ENCODING 7
SWIDTH 923 0
DWIDTH 14 0
BBX 14 14 0 -3
BITMAP
1C00
3E00
3600
3E00
1C00
0000
0000
0000
0000
0000
0000
0000
0000
0000
ENDCHAR
STARTCHAR char8
ENCODING 8
SWIDTH 923 0
DWIDTH 14 0
BBX 14 14 0 -3
BITMAP
0000
0300
0300
0300
1FE0
1FE0
0300
0300
0300
1FE0
1FE0
0000
0000
0000
ENDCHAR
STARTCHAR char9
ENCODING 9
SWIDTH 923 0
DWIDTH 14 0
BBX 14 14 0 -3
BITMAP
0000
7380
7B80
7F80
7F80
77C0
73C0
01C0
01C0
01F8
01F8
0000
0000
0000
ENDCHAR
STARTCHAR char10
ENCODING 10
SWIDTH 923 0
DWIDTH 14 0
BBX 14 14 0 -3
BITMAP
0000
7380
7380
7380
3F00
1FF8
0FF8
00E0
00E0
00E0
00E0
0000
0000
0000
ENDCHAR
STARTCHAR char11
ENCODING 11
SWIDTH 923 0
DWIDTH 14 0
BBX 14 14 0 -3
BITMAP
0300
0300
0300
0300
0300
0300
FF00
FF00
0000
0000
0000
0000
0000
0000
ENDCHAR
STARTCHAR char12
ENCODING 12
SWIDTH 923 0
DWIDTH 14 0
BBX 14 14 0 -3
BITMAP
0000
0000
0000
0000
0000
0000
FF00
FF00
0300
0300
0300
0300
0300
0300
ENDCHAR
STARTCHAR char13
ENCODING 13
SWIDTH 923 0
DWIDTH 14 0
BBX 14 14 0 -3
BITMAP
0000
0000
0000
0000
0000
0000
03FC
03FC
0300
0300
0300
0300
0300
0300
ENDCHAR
STARTCHAR char14
ENCODING 14
SWIDTH 923 0
DWIDTH 14 0
BBX 14 14 0 -3
BITMAP
0300
0300
0300
0300
0300
0300
03FC
03FC
0000
0000
0000
0000
0000
0000
ENDCHAR
STARTCHAR char15
ENCODING 15
SWIDTH 923 0
DWIDTH 14 0
BBX 14 14 0 -3
BITMAP
0300
0300
0300
0300
0300
0300
FFFC
FFFC
0300
0300
0300
0300
0300
0300
ENDCHAR
STARTCHAR char16
ENCODING 16
SWIDTH 923 0
DWIDTH 14 0
BBX 14 14 0 -3
BITMAP
FFFC
FFFC
0000
0000
0000
0000
0000
0000
0000
0000
0000
0000
0000
0000
ENDCHAR
STARTCHAR char17
ENCODING 17
SWIDTH 923 0
DWIDTH 14 0
BBX 14 14 0 -3
BITMAP
0000
0000
0000
FFFC
FFFC
0000
0000
0000
0000
0000
0000
0000
0000
0000
ENDCHAR
STARTCHAR char18
ENCODING 18
SWIDTH 923 0
DWIDTH 14 0
BBX 14 14 0 -3
BITMAP
0000
0000
0000
0000
0000
0000
FFFC
FFFC
0000
0000
0000
0000
0000
0000
ENDCHAR
STARTCHAR char19
ENCODING 19
SWIDTH 923 0
DWIDTH 14 0
BBX 14 14 0 -3
BITMAP
0000
0000
0000
0000
0000
0000
0000
0000
0000
FFFC
FFFC
0000
0000
0000
ENDCHAR
STARTCHAR char20
ENCODING 20
SWIDTH 923 0
DWIDTH 14 0
BBX 14 14 0 -3
BITMAP
0000
0000
0000
0000
0000
0000
0000
0000
0000
0000
0000
0000
FFFC
FFFC
ENDCHAR
STARTCHAR char21
ENCODING 21
SWIDTH 923 0
DWIDTH 14 0
BBX 14 14 0 -3
BITMAP
0300
0300
0300
0300
0300
0300
03FC
03FC
0300
0300
0300
0300
0300
0300
ENDCHAR
STARTCHAR char22
ENCODING 22
SWIDTH 923 0
DWIDTH 14 0
BBX 14 14 0 -3
BITMAP
0300
0300
0300
0300
0300
0300
FF00
FF00
0300
0300
0300
0300
0300
0300
ENDCHAR
STARTCHAR char23
ENCODING 23
SWIDTH 923 0
DWIDTH 14 0
BBX 14 14 0 -3
BITMAP
0300
0300
0300
0300
0300
0300
FFFC
FFFC
0000
0000
0000
0000
0000
0000
ENDCHAR
STARTCHAR char24
ENCODING 24
SWIDTH 923 0
DWIDTH 14 0
BBX 14 14 0 -3
BITMAP
0000
0000
0000
0000
0000
0000
FFFC
FFFC
0300
0300
0300
0300
0300
0300
ENDCHAR
STARTCHAR char25
ENCODING 25
SWIDTH 923 0
DWIDTH 14 0
BBX 14 14 0 -3
BITMAP
0300
0300
0300
0300
0300
0300
0300
0300
0300
0300
0300
0300
0300
0300
ENDCHAR
STARTCHAR char26
ENCODING 26
SWIDTH 923 0
DWIDTH 14 0
BBX 14 14 0 -3
BITMAP
0000
0000
0078
03E0
1F00
7800
1F00
03E0
0078
7FF8
7FF8
0000
0000
0000
ENDCHAR
STARTCHAR char27
ENCODING 27
SWIDTH 923 0
DWIDTH 14 0
BBX 14 14 0 -3
BITMAP
0000
0000
7800
1F00
03E0
0078
03E0
1F00
7800
7FF8
7FF8
0000
0000
0000
ENDCHAR
STARTCHAR char28
ENCODING 28
SWIDTH 923 0
DWIDTH 14 0
BBX 14 14 0 -3
BITMAP
0000
0000
0000
0000
7FF8
7FF8
1CE0
1CE0
1CE0
1CE0
1CE0
0000
0000
0000
ENDCHAR
STARTCHAR char29
ENCODING 29
SWIDTH 923 0
DWIDTH 14 0
BBX 14 14 0 -3
BITMAP
0000
0000
0000
00E0
3FF0
3FF0
0380
0700
3FF0
3FF0
1C00
0000
0000
0000
ENDCHAR
STARTCHAR char30
ENCODING 30
SWIDTH 923 0
DWIDTH 14 0
BBX 14 14 0 -3
BITMAP
0000
07E0
0E70
1C00
1C00
0E00
7FC0
0E00
1C00
3F70
3BE0
0000
0000
0000
ENDCHAR
STARTCHAR char31
ENCODING 31
SWIDTH 923 0
DWIDTH 14 0
BBX 14 14 0 -3
BITMAP
0000
0000
0000
0000
0000
0000
0780
0780
0000
0000
0000
0000
0000
0000
ENDCHAR
STARTCHAR char32
ENCODING 32
SWIDTH 923 0
DWIDTH 14 0
BBX 14 14 0 -3
BITMAP
0000
0000
0000
0000
0000
0000
0000
0000
0000
0000
0000
0000
0000
0000
ENDCHAR
STARTCHAR char33
ENCODING 33
SWIDTH 923 0
DWIDTH 14 0
BBX 14 14 0 -3
BITMAP
0000
0700
0700
0700
0700
0700
0700
0700
0000
0700
0700
0000
0000
0000
ENDCHAR
STARTCHAR char34
ENCODING 34
SWIDTH 923 0
DWIDTH 14 0
BBX 14 14 0 -3
BITMAP
0000
1DC0
1DC0
1DC0
0D80
0000
0000
0000
0000
0000
0000
0000
0000
0000
ENDCHAR
STARTCHAR char35
ENCODING 35
SWIDTH 923 0
DWIDTH 14 0
BBX 14 14 0 -3
BITMAP
0000
1CE0
1CE0
7FF8
7FF8
1CE0
1CE0
7FF8
7FF8
1CE0
1CE0
0000
0000
0000
ENDCHAR
STARTCHAR char36
ENCODING 36
SWIDTH 923 0
DWIDTH 14 0
BBX 14 14 0 -3
BITMAP
0000
0700
3FE0
7770
7700
3FE0
0770
7770
7770
3FE0
0700
0000
0000
0000
ENDCHAR
STARTCHAR char37
ENCODING 37
SWIDTH 923 0
DWIDTH 14 0
BBX 14 14 0 -3
BITMAP
0000
3038
7870
78E0
31C0
0380
0700
0E60
1CF0
38F0
7060
0000
0000
0000
ENDCHAR
STARTCHAR char38
ENCODING 38
SWIDTH 923 0
DWIDTH 14 0
BBX 14 14 0 -3
BITMAP
0000
1F80
39C0
39C0
3B80
1F00
0F80
1DF0
38E0
39F0
1FB8
0000
0000
0000
ENDCHAR
STARTCHAR char39
ENCODING 39
SWIDTH 923 0
DWIDTH 14 0
BBX 14 14 0 -3
BITMAP
0000
0700
0700
0700
0600
0000
0000
0000
0000
0000
0000
0000
0000
0000
ENDCHAR
STARTCHAR char40
ENCODING 40
SWIDTH 923 0
DWIDTH 14 0
BBX 14 14 0 -3
BITMAP
0000
01C0
0380
0700
0E00
0E00
0E00
0E00
0E00
0700
0380
01C0
0000
0000
ENDCHAR
STARTCHAR char41
ENCODING 41
SWIDTH 923 0
DWIDTH 14 0
BBX 14 14 0 -3
BITMAP
0000
0E00
0700
0380
01C0
01C0
01C0
01C0
01C0
0380
0700
0E00
0000
0000
ENDCHAR
STARTCHAR char42
ENCODING 42
SWIDTH 923 0
DWIDTH 14 0
BBX 14 14 0 -3
BITMAP
0000
0000
0000
0700
3760
3FE0
0F80
3FE0
3760
0700
0000
0000
0000
0000
ENDCHAR
STARTCHAR char43
ENCODING 43
SWIDTH 923 0
DWIDTH 14 0
BBX 14 14 0 -3
BITMAP
0000
0000
0000
0700
0700
0700
7FF0
7FF0
0700
0700
0700
0000
0000
0000
ENDCHAR
STARTCHAR char44
ENCODING 44
SWIDTH 923 0
DWIDTH 14 0
BBX 14 14 0 -3
BITMAP
0000
0000
0000
0000
0000
0000
0000
0000
0700
0700
0700
0E00
0000
0000
ENDCHAR
STARTCHAR char45
ENCODING 45
SWIDTH 923 0
DWIDTH 14 0
BBX 14 14 0 -3
BITMAP
0000
0000
0000
0000
0000
0000
1FE0
1FE0
0000
0000
0000
0000
0000
0000
ENDCHAR
STARTCHAR char46
ENCODING 46
SWIDTH 923 0
DWIDTH 14 0
BBX 14 14 0 -3
BITMAP
0000
0000
0000
0000
0000
0000
0000
0000
0700
0700
0700
0000
0000
0000
ENDCHAR
STARTCHAR char47
ENCODING 47
SWIDTH 923 0
DWIDTH 14 0
BBX 14 14 0 -3
BITMAP
0000
0038
0070
00E0
01C0
0380
0700
0E00
1C00
3800
7000
0000
0000
0000
ENDCHAR
STARTCHAR char48
ENCODING 48
SWIDTH 923 0
DWIDTH 14 0
BBX 14 14 0 -3
BITMAP
0000
0FC0
1FE0
3870
7038
7338
7338
7038
3870
1FE0
0FC0
0000
0000
0000
ENDCHAR
STARTCHAR char49
ENCODING 49
SWIDTH 923 0
DWIDTH 14 0
BBX 14 14 0 -3
BITMAP
0000
0F00
1F00
3F00
0700
0700
0700
0700
0700
7FF0
7FF0
0000
0000
0000
ENDCHAR
STARTCHAR char50
ENCODING 50
SWIDTH 923 0
DWIDTH 14 0
BBX 14 14 0 -3
BITMAP
0000
1FE0
3FF0
7038
0038
0070
01E0
0780
1E00
3FF8
7FF8
0000
0000
0000
ENDCHAR
STARTCHAR char51
ENCODING 51
SWIDTH 923 0
DWIDTH 14 0
BBX 14 14 0 -3
BITMAP
0000
1FE0
3FF0
7038
0070
03E0
03E0
0070
7038
3FF0
1FE0
0000
0000
0000
ENDCHAR
STARTCHAR char52
ENCODING 52
SWIDTH 923 0
DWIDTH 14 0
BBX 14 14 0 -3
BITMAP
0000
00F0
03F0
0F70
3C70
7070
7FF8
7FF8
0070
0070
0070
0000
0000
0000
ENDCHAR
STARTCHAR char53
ENCODING 53
SWIDTH 923 0
DWIDTH 14 0
BBX 14 14 0 -3
BITMAP
0000
7FF0
7FF0
7000
7000
7FE0
7FF0
0038
6038
7FF0
3FE0
0000
0000
0000
ENDCHAR
STARTCHAR char54
ENCODING 54
SWIDTH 923 0
DWIDTH 14 0
BBX 14 14 0 -3
BITMAP
0000
1FE0
3FF0
7030
7000
7FE0
7FF0
7038
7038
3FF0
1FE0
0000
0000
0000
ENDCHAR
STARTCHAR char55
ENCODING 55
SWIDTH 923 0
DWIDTH 14 0
BBX 14 14 0 -3
BITMAP
0000
3FF8
3FF8
0070
00E0
01C0
0380
0700
0E00
1C00
3800
0000
0000
0000
ENDCHAR
STARTCHAR char56
ENCODING 56
SWIDTH 923 0
DWIDTH 14 0
BBX 14 14 0 -3
BITMAP
0000
1FE0
3FF0
7038
3870
1FE0
3FF0
7038
7038
3FF0
1FE0
0000
0000
0000
ENDCHAR
STARTCHAR char57
ENCODING 57
SWIDTH 923 0
DWIDTH 14 0
BBX 14 14 0 -3
BITMAP
0000
1FE0
3FF0
7038
3818
1FF8
0FF8
0038
3838
3FF0
1FE0
0000
0000
0000
ENDCHAR
STARTCHAR char58
ENCODING 58
SWIDTH 923 0
DWIDTH 14 0
BBX 14 14 0 -3
BITMAP
0000
0000
0000
0000
0700
0700
0700
0000
0700
0700
0700
0000
0000
0000
ENDCHAR
STARTCHAR char59
ENCODING 59
SWIDTH 923 0
DWIDTH 14 0
BBX 14 14 0 -3
BITMAP
0000
0000
0000
0000
0700
0700
0700
0000
0700
0700
0700
0E00
0000
0000
ENDCHAR
STARTCHAR char60
ENCODING 60
SWIDTH 923 0
DWIDTH 14 0
BBX 14 14 0 -3
BITMAP
0000
0000
0070
01E0
0780
1E00
7800
1E00
0780
01E0
0070
0000
0000
0000
ENDCHAR
STARTCHAR char61
ENCODING 61
SWIDTH 923 0
DWIDTH 14 0
BBX 14 14 0 -3
BITMAP
0000
0000
0000
0000
3FF0
3FF0
0000
0000
3FF0
3FF0
0000
0000
0000
0000
ENDCHAR
STARTCHAR char62
ENCODING 62
SWIDTH 923 0
DWIDTH 14 0
BBX 14 14 0 -3
BITMAP
0000
0000
3800
1E00
0780
01E0
0078
01E0
0780
1E00
3800
0000
0000
0000
ENDCHAR
STARTCHAR char63
ENCODING 63
SWIDTH 923 0
DWIDTH 14 0
BBX 14 14 0 -3
BITMAP
0000
1FC0
38E0
7070
00E0
0380
0700
0700
0000
0700
0700
0000
0000
0000
ENDCHAR
STARTCHAR char64
ENCODING 64
SWIDTH 923 0
DWIDTH 14 0
BBX 14 14 0 -3
BITMAP
0000
0FC0
1FE0
3870
7378
77F8
76F8
73F0
3800
1FE0
0FE0
0000
0000
0000
ENDCHAR
STARTCHAR char65
ENCODING 65
SWIDTH 923 0
DWIDTH 14 0
BBX 14 14 0 -3
BITMAP
0000
0300
0780
0FC0
1CE0
3870
7FF8
7FF8
7038
7038
7038
0000
0000
0000
ENDCHAR
STARTCHAR char66
ENCODING 66
SWIDTH 923 0
DWIDTH 14 0
BBX 14 14 0 -3
BITMAP
0000
7FC0
7FE0
7070
7070
7FE0
7FF0
7038
7038
7FF0
7FE0
0000
0000
0000
ENDCHAR
STARTCHAR char67
ENCODING 67
SWIDTH 923 0
DWIDTH 14 0
BBX 14 14 0 -3
BITMAP
0000
0FE0
1FF0
3838
7000
7000
7000
7000
3838
1FF0
0FE0
0000
0000
0000
ENDCHAR
STARTCHAR char68
ENCODING 68
SWIDTH 923 0
DWIDTH 14 0
BBX 14 14 0 -3
BITMAP
0000
7FC0
7FE0
7070
7038
7038
7038
7038
7070
7FE0
7FC0
0000
0000
0000
ENDCHAR
STARTCHAR char69
ENCODING 69
SWIDTH 923 0
DWIDTH 14 0
BBX 14 14 0 -3
BITMAP
0000
7FF8
7FF8
7000
7000
7FC0
7FC0
7000
7000
7FF8
7FF8
0000
0000
0000
ENDCHAR
STARTCHAR char70
ENCODING 70
SWIDTH 923 0
DWIDTH 14 0
BBX 14 14 0 -3
BITMAP
0000
7FF8
7FF8
7000
7000
7FC0
7FC0
7000
7000
7000
7000
0000
0000
0000
ENDCHAR
STARTCHAR char71
ENCODING 71
SWIDTH 923 0
DWIDTH 14 0
BBX 14 14 0 -3
BITMAP
0000
0FE0
1FF0
3838
7000
7000
71F8
71F8
3838
1FF8
0FE8
0000
0000
0000
ENDCHAR
STARTCHAR char72
ENCODING 72
SWIDTH 923 0
DWIDTH 14 0
BBX 14 14 0 -3
BITMAP
0000
7038
7038
7038
7038
7FF8
7FF8
7038
7038
7038
7038
0000
0000
0000
ENDCHAR
STARTCHAR char73
ENCODING 73
SWIDTH 923 0
DWIDTH 14 0
BBX 14 14 0 -3
BITMAP
0000
3FE0
3FE0
0700
0700
0700
0700
0700
0700
3FE0
3FE0
0000
0000
0000
ENDCHAR
STARTCHAR char74
ENCODING 74
SWIDTH 923 0
DWIDTH 14 0
BBX 14 14 0 -3
BITMAP
0000
07F0
07F0
01C0
01C0
01C0
01C0
71C0
71C0
3F80
1F00
0000
0000
0000
ENDCHAR
STARTCHAR char75
ENCODING 75
SWIDTH 923 0
DWIDTH 14 0
BBX 14 14 0 -3
BITMAP
0000
3870
38E0
39C0
3B80
3F00
3F00
3B80
39C0
38E0
3870
0000
0000
0000
ENDCHAR
STARTCHAR char76
ENCODING 76
SWIDTH 923 0
DWIDTH 14 0
BBX 14 14 0 -3
BITMAP
0000
7000
7000
7000
7000
7000
7000
7000
7000
7FF8
7FF8
0000
0000
0000
ENDCHAR
STARTCHAR char77
ENCODING 77
SWIDTH 923 0
DWIDTH 14 0
BBX 14 14 0 -3
BITMAP
0000
6018
7038
7878
7CF8
7FF8
77B8
7338
7038
7038
7038
0000
0000
0000
ENDCHAR
STARTCHAR char78
ENCODING 78
SWIDTH 923 0
DWIDTH 14 0
BBX 14 14 0 -3
BITMAP
0000
7038
7838
7C38
7E38
7738
73B8
71F8
70F8
7078
7038
0000
0000
0000
ENDCHAR
STARTCHAR char79
ENCODING 79
SWIDTH 923 0
DWIDTH 14 0
BBX 14 14 0 -3
BITMAP
0000
1FE0
3FF0
7038
7038
7038
7038
7038
7038
3FF0
1FE0
0000
0000
0000
ENDCHAR
STARTCHAR char80
ENCODING 80
SWIDTH 923 0
DWIDTH 14 0
BBX 14 14 0 -3
BITMAP
0000
7FE0
7FF0
7038
7038
7070
7FE0
7FC0
7000
7000
7000
0000
0000
0000
ENDCHAR
STARTCHAR char81
ENCODING 81
SWIDTH 923 0
DWIDTH 14 0
BBX 14 14 0 -3
BITMAP
0000
1FE0
3FF0
7038
7038
7038
7038
71F8
70F8
3FF0
1FF0
0038
0000
0000
ENDCHAR
STARTCHAR char82
ENCODING 82
SWIDTH 923 0
DWIDTH 14 0
BBX 14 14 0 -3
BITMAP
0000
7FE0
7FF0
7038
7038
7070
7FE0
7FC0
70E0
7070
7038
0000
0000
0000
ENDCHAR
STARTCHAR char83
ENCODING 83
SWIDTH 923 0
DWIDTH 14 0
BBX 14 14 0 -3
BITMAP
0000
1FE0
3FF0
7038
3800
1FE0
0FF0
0038
7038
3FF0
1FE0
0000
0000
0000
ENDCHAR
STARTCHAR char84
ENCODING 84
SWIDTH 923 0
DWIDTH 14 0
BBX 14 14 0 -3
BITMAP
0000
7FF0
7FF0
0700
0700
0700
0700
0700
0700
0700
0700
0000
0000
0000
ENDCHAR
STARTCHAR char85
ENCODING 85
SWIDTH 923 0
DWIDTH 14 0
BBX 14 14 0 -3
BITMAP
0000
7038
7038
7038
7038
7038
7038
7038
7038
3FF0
1FE0
0000
0000
0000
ENDCHAR
STARTCHAR char86
ENCODING 86
SWIDTH 923 0
DWIDTH 14 0
BBX 14 14 0 -3
BITMAP
0000
7038
7038
3870
3870
1CE0
1CE0
0FC0
0780
0780
0300
0000
0000
0000
ENDCHAR
STARTCHAR char87
ENCODING 87
SWIDTH 923 0
DWIDTH 14 0
BBX 14 14 0 -3
BITMAP
0000
7038
7038
7338
77B8
3FF0
3FF0
3FF0
1CE0
1CE0
1860
0000
0000
0000
ENDCHAR
STARTCHAR char88
ENCODING 88
SWIDTH 923 0
DWIDTH 14 0
BBX 14 14 0 -3
BITMAP
0000
7038
3870
1CE0
0FC0
0780
0780
0FC0
1CE0
3870
7038
0000
0000
0000
ENDCHAR
STARTCHAR char89
ENCODING 89
SWIDTH 923 0
DWIDTH 14 0
BBX 14 14 0 -3
BITMAP
0000
6030
7070
38E0
1DC0
0F80
0700
0700
0700
0700
0700
0000
0000
0000
ENDCHAR
STARTCHAR char90
ENCODING 90
SWIDTH 923 0
DWIDTH 14 0
BBX 14 14 0 -3
BITMAP
0000
7FF8
7FF0
00E0
01C0
0380
0700
0E00
1C00
3FF8
7FF8
0000
0000
0000
ENDCHAR
STARTCHAR char91
ENCODING 91
SWIDTH 923 0
DWIDTH 14 0
BBX 14 14 0 -3
BITMAP
0000
0FC0
0FC0
0E00
0E00
0E00
0E00
0E00
0E00
0E00
0FC0
0FC0
0000
0000
ENDCHAR
STARTCHAR char92
ENCODING 92
SWIDTH 923 0
DWIDTH 14 0
BBX 14 14 0 -3
BITMAP
0000
7000
3800
1C00
0E00
0700
0380
01C0
00E0
0070
0038
0000
0000
0000
ENDCHAR
STARTCHAR char93
ENCODING 93
SWIDTH 923 0
DWIDTH 14 0
BBX 14 14 0 -3
BITMAP
0000
0FC0
0FC0
01C0
01C0
01C0
01C0
01C0
01C0
01C0
0FC0
0FC0
0000
0000
ENDCHAR
STARTCHAR char94
ENCODING 94
SWIDTH 923 0
DWIDTH 14 0
BBX 14 14 0 -3
BITMAP
0000
0700
0F80
1DC0
38E0
7070
0000
0000
0000
0000
0000
0000
0000
0000
ENDCHAR
STARTCHAR char95
ENCODING 95
SWIDTH 923 0
DWIDTH 14 0
BBX 14 14 0 -3
BITMAP
0000
0000
0000
0000
0000
0000
0000
0000
0000
0000
0000
7FF8
0000
0000
ENDCHAR
STARTCHAR char96
ENCODING 96
SWIDTH 923 0
DWIDTH 14 0
BBX 14 14 0 -3
BITMAP
0000
0E00
0700
0380
0000
0000
0000
0000
0000
0000
0000
0000
0000
0000
ENDCHAR
STARTCHAR char97
ENCODING 97
SWIDTH 923 0
DWIDTH 14 0
BBX 14 14 0 -3
BITMAP
0000
0000
0000
0000
1FF0
3838
0038
3FF8
7038
7038
3FD8
0000
0000
0000
ENDCHAR
STARTCHAR char98
ENCODING 98
SWIDTH 923 0
DWIDTH 14 0
BBX 14 14 0 -3
BITMAP
0000
7000
7000
7000
7FE0
7870
7038
7038
7038
7870
6FE0
0000
0000
0000
ENDCHAR
STARTCHAR char99
ENCODING 99
SWIDTH 923 0
DWIDTH 14 0
BBX 14 14 0 -3
BITMAP
0000
0000
0000
0000
1FF0
3838
7000
7000
7000
3838
1FF0
0000
0000
0000
ENDCHAR
STARTCHAR char100
ENCODING 100
SWIDTH 923 0
DWIDTH 14 0
BBX 14 14 0 -3
BITMAP
0000
0038
0038
0038
1FF8
3878
7038
7038
7038
3878
1FD8
0000
0000
0000
ENDCHAR
STARTCHAR char101
ENCODING 101
SWIDTH 923 0
DWIDTH 14 0
BBX 14 14 0 -3
BITMAP
0000
0000
0000
0000
1FE0
3870
7038
7FF8
7000
3838
1FF0
0000
0000
0000
ENDCHAR
STARTCHAR char102
ENCODING 102
SWIDTH 923 0
DWIDTH 14 0
BBX 14 14 0 -3
BITMAP
0000
07E0
0E70
0E00
0E00
7FC0
0E00
0E00
0E00
0E00
0E00
0000
0000
0000
ENDCHAR
STARTCHAR char103
ENCODING 103
SWIDTH 923 0
DWIDTH 14 0
BBX 14 14 0 -3
BITMAP
0000
0000
0000
0000
1FD8
3878
7038
7038
7038
3838
1FF8
0038
3838
1FF0
ENDCHAR
STARTCHAR char104
ENCODING 104
SWIDTH 923 0
DWIDTH 14 0
BBX 14 14 0 -3
BITMAP
0000
7000
7000
7000
7FE0
7870
7038
7038
7038
7038
7038
0000
0000
0000
ENDCHAR
STARTCHAR char105
ENCODING 105
SWIDTH 923 0
DWIDTH 14 0
BBX 14 14 0 -3
BITMAP
0000
0700
0700
0000
1F00
0700
0700
0700
0700
0700
3FE0
0000
0000
0000
ENDCHAR
STARTCHAR char106
ENCODING 106
SWIDTH 923 0
DWIDTH 14 0
BBX 14 14 0 -3
BITMAP
0000
00E0
00E0
0000
03E0
00E0
00E0
00E0
00E0
00E0
00E0
38E0
1DC0
0F80
ENDCHAR
STARTCHAR char107
ENCODING 107
SWIDTH 923 0
DWIDTH 14 0
BBX 14 14 0 -3
BITMAP
0000
3800
3800
3800
38E0
39C0
3B80
3F00
3F80
3DC0
38E0
0000
0000
0000
ENDCHAR
STARTCHAR char108
ENCODING 108
SWIDTH 923 0
DWIDTH 14 0
BBX 14 14 0 -3
BITMAP
0000
1F00
0700
0700
0700
0700
0700
0700
0700
0700
3FE0
0000
0000
0000
ENDCHAR
STARTCHAR char109
ENCODING 109
SWIDTH 923 0
DWIDTH 14 0
BBX 14 14 0 -3
BITMAP
0000
0000
0000
0000
DCE0
FFF0
E738
E738
E738
E738
E738
0000
0000
0000
ENDCHAR
STARTCHAR char110
ENCODING 110
SWIDTH 923 0
DWIDTH 14 0
BBX 14 14 0 -3
BITMAP
0000
0000
0000
0000
6FE0
7870
7038
7038
7038
7038
7038
0000
0000
0000
ENDCHAR
STARTCHAR char111
ENCODING 111
SWIDTH 923 0
DWIDTH 14 0
BBX 14 14 0 -3
BITMAP
0000
0000
0000
0000
1FE0
3870
7038
7038
7038
3870
1FE0
0000
0000
0000
ENDCHAR
STARTCHAR char112
ENCODING 112
SWIDTH 923 0
DWIDTH 14 0
BBX 14 14 0 -3
BITMAP
0000
0000
0000
0000
6FE0
7870
7038
7038
7038
7870
7FE0
7000
7000
7000
ENDCHAR
STARTCHAR char113
ENCODING 113
SWIDTH 923 0
DWIDTH 14 0
BBX 14 14 0 -3
BITMAP
0000
0000
0000
0000
1FD8
3878
7038
7038
7038
3878
1FF8
0038
0038
0038
ENDCHAR
STARTCHAR char114
ENCODING 114
SWIDTH 923 0
DWIDTH 14 0
BBX 14 14 0 -3
BITMAP
0000
0000
0000
0000
6FE0
3C70
3830
3800
3800
3800
3800
0000
0000
0000
ENDCHAR
STARTCHAR char115
ENCODING 115
SWIDTH 923 0
DWIDTH 14 0
BBX 14 14 0 -3
BITMAP
0000
0000
0000
0000
3FE0
7070
7000
3FE0
0070
7070
3FE0
0000
0000
0000
ENDCHAR
STARTCHAR char116
ENCODING 116
SWIDTH 923 0
DWIDTH 14 0
BBX 14 14 0 -3
BITMAP
0000
0E00
0E00
0E00
7FC0
0E00
0E00
0E00
0E00
0E70
07E0
0000
0000
0000
ENDCHAR
STARTCHAR char117
ENCODING 117
SWIDTH 923 0
DWIDTH 14 0
BBX 14 14 0 -3
BITMAP
0000
0000
0000
0000
7038
7038
7038
7038
7038
3878
1FD8
0000
0000
0000
ENDCHAR
STARTCHAR char118
ENCODING 118
SWIDTH 923 0
DWIDTH 14 0
BBX 14 14 0 -3
BITMAP
0000
0000
0000
0000
7038
7038
3870
1CE0
0FC0
0780
0300
0000
0000
0000
ENDCHAR
STARTCHAR char119
ENCODING 119
SWIDTH 923 0
DWIDTH 14 0
BBX 14 14 0 -3
BITMAP
0000
0000
0000
0000
7038
7338
7338
3FF0
3FF0
3CF0
1860
0000
0000
0000
ENDCHAR
STARTCHAR char120
ENCODING 120
SWIDTH 923 0
DWIDTH 14 0
BBX 14 14 0 -3
BITMAP
0000
0000
0000
0000
7038
3CF0
0FC0
0780
0FC0
3CF0
7038
0000
0000
0000
ENDCHAR
STARTCHAR char121
ENCODING 121
SWIDTH 923 0
DWIDTH 14 0
BBX 14 14 0 -3
BITMAP
0000
0000
0000
0000
7038
7038
7038
7038
7038
3878
1FF8
0038
3870
1FE0
ENDCHAR
STARTCHAR char122
ENCODING 122
SWIDTH 923 0
DWIDTH 14 0
BBX 14 14 0 -3
BITMAP
0000
0000
0000
0000
7FF0
00E0
03C0
0F80
1E00
3800
7FF0
0000
0000
0000
ENDCHAR
STARTCHAR char123
ENCODING 123
SWIDTH 923 0
DWIDTH 14 0
BBX 14 14 0 -3
BITMAP
0000
03C0
0700
0E00
0E00
0700
0E00
0700
0E00
0E00
0700
03C0
0000
0000
ENDCHAR
STARTCHAR char124
ENCODING 124
SWIDTH 923 0
DWIDTH 14 0
BBX 14 14 0 -3
BITMAP
0000
0700
0700
0700
0700
0700
0700
0700
0700
0700
0700
0700
0000
0000
ENDCHAR
STARTCHAR char125
ENCODING 125
SWIDTH 923 0
DWIDTH 14 0
BBX 14 14 0 -3
BITMAP
0000
0F00
0380
01C0
01C0
0380
01C0
0380
01C0
01C0
0380
0F00
0000
0000
ENDCHAR
STARTCHAR char126
ENCODING 126
SWIDTH 923 0
DWIDTH 14 0
BBX 14 14 0 -3
BITMAP
0000
0000
0000
0000
0000
1E18
3F38
73F0
61E0
0000
0000
0000
0000
0000
ENDCHAR
STARTCHAR char127
ENCODING 127
SWIDTH 923 0
DWIDTH 14 0
BBX 14 14 0 -3
BITMAP
0000
0000
0000
0000
0000
0000
0000
0000
0000
0000
0000
0000
0000
0000
ENDCHAR
STARTCHAR char133
ENCODING 133
SWIDTH 923 0
DWIDTH 14 0
BBX 14 14 0 -3
BITMAP
0000
0000
0000
0000
0000
0000
0000
0000
7770
7770
7770
0000
0000
0000
ENDCHAR
STARTCHAR char136
ENCODING 136
SWIDTH 923 0
DWIDTH 14 0
BBX 14 14 0 -3
BITMAP
0780
0FC0
1CE0
3870
0000
0000
0000
0000
0000
0000
0000
0000
0000
0000
ENDCHAR
STARTCHAR char171
ENCODING 139
SWIDTH 923 0
DWIDTH 14 0
BBX 14 14 0 -3
BITMAP
0000
0000
0000
0000
01C0
0380
0700
0E00
0700
0380
01C0
0000
0000
0000
ENDCHAR
STARTCHAR char97
ENCODING 140
SWIDTH 923 0
DWIDTH 14 0
BBX 14 14 0 -3
BITMAP
0000
0000
0000
0000
3DF0
77B8
7338
73F0
7300
77B8
3DF0
0000
0000
0000
ENDCHAR
STARTCHAR char140
ENCODING 155
SWIDTH 923 0
DWIDTH 14 0
BBX 14 14 0 -3
BITMAP
0000
0000
0000
0000
0E00
0700
0380
01C0
0380
0700
0E00
0000
0000
0000
ENDCHAR
STARTCHAR char33
ENCODING 161
SWIDTH 923 0
DWIDTH 14 0
BBX 14 14 0 -3
BITMAP
0000
0700
0700
0000
0700
0700
0700
0700
0700
0700
0700
0000
0000
0000
ENDCHAR
STARTCHAR char30
ENCODING 163
SWIDTH 923 0
DWIDTH 14 0
BBX 14 14 0 -3
BITMAP
0000
07E0
0E70
1C00
1C00
0E00
7FC0
0E00
1C00
3F70
3BE0
0000
0000
0000
ENDCHAR
STARTCHAR char124
ENCODING 166
SWIDTH 923 0
DWIDTH 14 0
BBX 14 14 0 -3
BITMAP
0000
0700
0700
0700
0700
0700
0000
0700
0700
0700
0700
0700
0000
0000
ENDCHAR
STARTCHAR char167
ENCODING 167
SWIDTH 923 0
DWIDTH 14 0
BBX 14 14 0 -3
BITMAP
0000
0FE0
1FF0
0E38
1F80
39C0
1CE0
0E70
07E0
71C0
3FE0
1FC0
0000
0000
ENDCHAR
STARTCHAR char168
ENCODING 168
SWIDTH 923 0
DWIDTH 14 0
BBX 14 14 0 -3
BITMAP
1DC0
1DC0
1DC0
0000
0000
0000
0000
0000
0000
0000
0000
0000
0000
0000
ENDCHAR
STARTCHAR char169
ENCODING 169
SWIDTH 923 0
DWIDTH 14 0
BBX 14 14 0 -3
BITMAP
0000
0000
0FC0
1FE0
3FF0
3CF0
3BF0
3BF0
3CF0
3FF0
1FE0
0FC0
0000
0000
ENDCHAR
STARTCHAR char171
ENCODING 171
SWIDTH 923 0
DWIDTH 14 0
BBX 14 14 0 -3
BITMAP
0000
0000
0000
0000
0770
0EE0
1DC0
3B80
1DC0
0EE0
0770
0000
0000
0000
ENDCHAR
STARTCHAR char169
ENCODING 174
SWIDTH 923 0
DWIDTH 14 0
BBX 14 14 0 -3
BITMAP
0000
0000
0FC0
1FE0
3FF0
38F0
3B70
38F0
3B70
3FF0
1FE0
0FC0
0000
0000
ENDCHAR
STARTCHAR char7
ENCODING 176
SWIDTH 923 0
DWIDTH 14 0
BBX 14 14 0 -3
BITMAP
0300
0780
0CC0
0CC0
0780
0300
0000
0000
0000
0000
0000
0000
0000
0000
ENDCHAR
STARTCHAR char8
ENCODING 177
SWIDTH 923 0
DWIDTH 14 0
BBX 14 14 0 -3
BITMAP
0000
0300
0300
0300
1FE0
1FE0
0300
0300
0300
1FE0
1FE0
0000
0000
0000
ENDCHAR
STARTCHAR char178
ENCODING 178
SWIDTH 923 0
DWIDTH 14 0
BBX 14 14 0 -3
BITMAP
0780
0CC0
0180
0300
0600
0FC0
0000
0000
0000
0000
0000
0000
0000
0000
ENDCHAR
STARTCHAR char179
ENCODING 179
SWIDTH 923 0
DWIDTH 14 0
BBX 14 14 0 -3
BITMAP
0780
00C0
0380
00C0
00C0
0780
0000
0000
0000
0000
0000
0000
0000
0000
ENDCHAR
STARTCHAR char180
ENCODING 180
SWIDTH 923 0
DWIDTH 14 0
BBX 14 14 0 -3
BITMAP
01C0
0380
0700
0000
0000
0000
0000
0000
0000
0000
0000
0000
0000
0000
ENDCHAR
STARTCHAR char183
ENCODING 183
SWIDTH 923 0
DWIDTH 14 0
BBX 14 14 0 -3
BITMAP
0000
0000
0000
0000
0000
0700
0700
0700
0000
0000
0000
0000
0000
0000
ENDCHAR
STARTCHAR char185
ENCODING 185
SWIDTH 923 0
DWIDTH 14 0
BBX 14 14 0 -3
BITMAP
0700
0F00
0300
0300
0300
0FC0
0000
0000
0000
0000
0000
0000
0000
0000
ENDCHAR
STARTCHAR char7
ENCODING 186
SWIDTH 923 0
DWIDTH 14 0
BBX 14 14 0 -3
BITMAP
0780
0CC0
0CC0
0CC0
0CC0
0780
0000
0000
0000
0000
0000
0000
0000
0000
ENDCHAR
STARTCHAR char171
ENCODING 187
SWIDTH 923 0
DWIDTH 14 0
BBX 14 14 0 -3
BITMAP
0000
0000
0000
0000
3B80
1DC0
0EE0
0770
0EE0
1DC0
3B80
0000
0000
0000
ENDCHAR
STARTCHAR char47
ENCODING 188
SWIDTH 923 0
DWIDTH 14 0
BBX 14 14 0 -3
BITMAP
0000
7038
3070
30E0
31C0
33B0
7F70
0ED0
1DF8
3830
7030
0000
0000
0000
ENDCHAR
STARTCHAR char189
ENCODING 189
SWIDTH 923 0
DWIDTH 14 0
BBX 14 14 0 -3
BITMAP
0000
7038
3070
30E0
31C0
33F0
7FD8
0E18
1C30
3860
70F8
0000
0000
0000
ENDCHAR
STARTCHAR char190
ENCODING 190
SWIDTH 923 0
DWIDTH 14 0
BBX 14 14 0 -3
BITMAP
0000
3838
6C70
18E0
0DC0
6FB0
3F70
0ED0
1DF8
3830
7030
0000
0000
0000
ENDCHAR
STARTCHAR char63
ENCODING 191
SWIDTH 923 0
DWIDTH 14 0
BBX 14 14 0 -3
BITMAP
0000
0700
0700
0000
0700
0700
0E00
3800
7070
38E0
1FC0
0000
0000
0000
ENDCHAR
STARTCHAR char65
ENCODING 192
SWIDTH 923 0
DWIDTH 14 0
BBX 14 14 0 -3
BITMAP
0E00
0700
0000
0780
0FC0
1CE0
3870
7FF8
7038
7038
7038
0000
0000
0000
ENDCHAR
STARTCHAR char193
ENCODING 193
SWIDTH 923 0
DWIDTH 14 0
BBX 14 14 0 -3
BITMAP
01C0
0380
0000
0780
0FC0
1CE0
3870
7FF8
7038
7038
7038
0020
0000
0000
ENDCHAR
STARTCHAR char194
ENCODING 194
SWIDTH 923 0
DWIDTH 14 0
BBX 14 14 0 -3
BITMAP
0300
0480
0000
0780
0FC0
1CE0
3870
7FF8
7038
7038
7038
0000
0000
0000
ENDCHAR
STARTCHAR char195
ENCODING 195
SWIDTH 923 0
DWIDTH 14 0
BBX 14 14 0 -3
BITMAP
0660
1980
0000
0780
0FC0
1CE0
3870
7FF8
7038
7038
7038
0000
0000
0000
ENDCHAR
STARTCHAR char196
ENCODING 196
SWIDTH 923 0
DWIDTH 14 0
BBX 14 14 0 -3
BITMAP
0CC0
0CC0
0000
0780
0FC0
1CE0
3870
7FF8
7038
7038
7038
0000
0000
0000
ENDCHAR
STARTCHAR char197
ENCODING 197
SWIDTH 923 0
DWIDTH 14 0
BBX 14 14 0 -3
BITMAP
0300
0480
0480
0780
0FC0
1CE0
3870
7FF8
7038
7038
7038
0000
0000
0000
ENDCHAR
STARTCHAR char198
ENCODING 198
SWIDTH 923 0
DWIDTH 14 0
BBX 14 14 0 -3
BITMAP
0000
03F8
07F8
0FC0
1DC0
39F0
7FF0
7FC0
71C0
71F8
71F8
0000
0000
0000
ENDCHAR
STARTCHAR char67
ENCODING 199
SWIDTH 923 0
DWIDTH 14 0
BBX 14 14 0 -3
BITMAP
0000
1FE0
3FF0
7038
7000
7000
7000
7000
7038
3FF0
1FE0
01C0
0CE0
07C0
ENDCHAR
STARTCHAR char69
ENCODING 200
SWIDTH 923 0
DWIDTH 14 0
BBX 14 14 0 -3
BITMAP
0E00
0700
0000
7FF8
7FF8
7000
7FC0
7FC0
7000
7FF8
7FF8
0000
0000
0000
ENDCHAR
STARTCHAR char201
ENCODING 201
SWIDTH 923 0
DWIDTH 14 0
BBX 14 14 0 -3
BITMAP
0380
0700
0000
7FF8
7FF8
7000
7FC0
7FC0
7000
7FF8
7FF8
0000
0000
0000
ENDCHAR
STARTCHAR char202
ENCODING 202
SWIDTH 923 0
DWIDTH 14 0
BBX 14 14 0 -3
BITMAP
0700
0D80
0000
7FF8
7FF8
6000
7FC0
7FC0
6000
7FF8
7FF8
0000
0000
0000
ENDCHAR
STARTCHAR char203
ENCODING 203
SWIDTH 923 0
DWIDTH 14 0
BBX 14 14 0 -3
BITMAP
0CC0
0CC0
0000
7FF8
7FF8
6000
7FC0
7FC0
6000
7FF8
7FF8
0000
0000
0000
ENDCHAR
STARTCHAR char73
ENCODING 204
SWIDTH 923 0
DWIDTH 14 0
BBX 14 14 0 -3
BITMAP
0E00
0700
0000
3FE0
3FE0
0700
0700
0700
0700
3FE0
3FE0
0000
0000
0000
ENDCHAR
STARTCHAR char205
ENCODING 205
SWIDTH 923 0
DWIDTH 14 0
BBX 14 14 0 -3
BITMAP
0380
0700
0000
3FE0
3FE0
0700
0700
0700
0700
3FE0
3FE0
0000
0000
0000
ENDCHAR
STARTCHAR char206
ENCODING 206
SWIDTH 923 0
DWIDTH 14 0
BBX 14 14 0 -3
BITMAP
0700
0D80
0000
3FE0
3FE0
0700
0700
0700
0700
3FE0
3FE0
0000
0000
0000
ENDCHAR
STARTCHAR char207
ENCODING 207
SWIDTH 923 0
DWIDTH 14 0
BBX 14 14 0 -3
BITMAP
0D80
0D80
0000
3FE0
3FE0
0700
0700
0700
0700
3FE0
3FE0
0000
0000
0000
ENDCHAR
STARTCHAR char68
ENCODING 208
SWIDTH 923 0
DWIDTH 14 0
BBX 14 14 0 -3
BITMAP
0000
3FC0
38E0
3870
3838
7F38
7F38
3838
3870
38E0
3FC0
0000
0000
0000
ENDCHAR
STARTCHAR char78
ENCODING 209
SWIDTH 923 0
DWIDTH 14 0
BBX 14 14 0 -3
BITMAP
0660
1980
0000
7C38
7E38
7738
73B8
71F8
70F8
7078
7038
0000
0000
0000
ENDCHAR
STARTCHAR char79
ENCODING 210
SWIDTH 923 0
DWIDTH 14 0
BBX 14 14 0 -3
BITMAP
0E00
0700
0000
1FE0
3FF0
7038
7038
7038
7038
3FF0
1FE0
0000
0000
0000
ENDCHAR
STARTCHAR char79
ENCODING 211
SWIDTH 923 0
DWIDTH 14 0
BBX 14 14 0 -3
BITMAP
01C0
0380
0000
1FE0
3FF0
7038
7038
7038
7038
3FF0
1FE0
0000
0000
0000
ENDCHAR
STARTCHAR char79
ENCODING 212
SWIDTH 923 0
DWIDTH 14 0
BBX 14 14 0 -3
BITMAP
0300
0480
0000
1FE0
3FF0
7038
7038
7038
7038
3FF0
1FE0
0000
0000
0000
ENDCHAR
STARTCHAR char79
ENCODING 213
SWIDTH 923 0
DWIDTH 14 0
BBX 14 14 0 -3
BITMAP
0660
1980
0000
1FE0
3FF0
7038
7038
7038
7038
3FF0
1FE0
0000
0000
0000
ENDCHAR
STARTCHAR char79
ENCODING 214
SWIDTH 923 0
DWIDTH 14 0
BBX 14 14 0 -3
BITMAP
0CC0
0CC0
0000
1FE0
3FF0
7038
7038
7038
7038
3FF0
1FE0
0000
0000
0000
ENDCHAR
STARTCHAR char215
ENCODING 215
SWIDTH 923 0
DWIDTH 14 0
BBX 14 14 0 -3
BITMAP
0000
0000
0000
0000
38E0
1DC0
0F80
0700
0F80
1DC0
38E0
0000
0000
0000
ENDCHAR
STARTCHAR char79
ENCODING 216
SWIDTH 923 0
DWIDTH 14 0
BBX 14 14 0 -3
BITMAP
001C
1FF8
3FF0
70F8
71F8
73B8
7738
7E38
7C38
3FF0
7FE0
E000
0000
0000
ENDCHAR
STARTCHAR char85
ENCODING 217
SWIDTH 923 0
DWIDTH 14 0
BBX 14 14 0 -3
BITMAP
0600
0300
7038
7038
7038
7038
7038
7038
7038
3FF0
1FE0
0000
0000
0000
ENDCHAR
STARTCHAR char85
ENCODING 218
SWIDTH 923 0
DWIDTH 14 0
BBX 14 14 0 -3
BITMAP
0180
0300
7038
7038
7038
7038
7038
7038
7038
3FF0
1FE0
0000
0000
0000
ENDCHAR
STARTCHAR char85
ENCODING 219
SWIDTH 923 0
DWIDTH 14 0
BBX 14 14 0 -3
BITMAP
0300
0480
7038
7038
7038
7038
7038
7038
7038
3FF0
1FE0
0000
0000
0000
ENDCHAR
STARTCHAR char85
ENCODING 220
SWIDTH 923 0
DWIDTH 14 0
BBX 14 14 0 -3
BITMAP
0CC0
0CC0
7038
7038
7038
7038
7038
7038
7038
3FF0
1FE0
0000
0000
0000
ENDCHAR
STARTCHAR char89
ENCODING 221
SWIDTH 923 0
DWIDTH 14 0
BBX 14 14 0 -3
BITMAP
0380
0700
6030
7070
38E0
1DC0
0F80
0700
0700
0700
0700
0000
0000
0000
ENDCHAR
STARTCHAR char222
ENCODING 222
SWIDTH 923 0
DWIDTH 14 0
BBX 14 14 0 -3
BITMAP
0000
7000
7000
7FC0
7FE0
7070
7070
7FE0
7FC0
7000
7000
0000
0000
0000
ENDCHAR
STARTCHAR char66
ENCODING 223
SWIDTH 923 0
DWIDTH 14 0
BBX 14 14 0 -3
BITMAP
0000
0FC0
1FE0
3870
38E0
3BE0
3BF0
3838
3838
3BF0
3BE0
7000
0000
0000
ENDCHAR
STARTCHAR char97
ENCODING 224
SWIDTH 923 0
DWIDTH 14 0
BBX 14 14 0 -3
BITMAP
0000
0700
0380
0000
1FF0
3838
0038
3FF8
7038
7038
3FD8
0000
0000
0000
ENDCHAR
STARTCHAR char97
ENCODING 225
SWIDTH 923 0
DWIDTH 14 0
BBX 14 14 0 -3
BITMAP
0000
01C0
0380
0000
1FF0
3838
0038
3FF8
7038
7038
3FD8
0000
0000
0000
ENDCHAR
STARTCHAR char97
ENCODING 226
SWIDTH 923 0
DWIDTH 14 0
BBX 14 14 0 -3
BITMAP
0000
0380
06C0
0000
1FF0
3838
0038
3FF8
7038
7038
3FD8
0000
0000
0000
ENDCHAR
STARTCHAR char97
ENCODING 227
SWIDTH 923 0
DWIDTH 14 0
BBX 14 14 0 -3
BITMAP
0000
0330
0CC0
0000
1FF0
3838
0038
3FF8
7038
7038
3FD8
0000
0000
0000
ENDCHAR
STARTCHAR char97
ENCODING 228
SWIDTH 923 0
DWIDTH 14 0
BBX 14 14 0 -3
BITMAP
0000
06C0
06C0
0000
1FF0
3838
0038
3FF8
7038
7038
3FD8
0000
0000
0000
ENDCHAR
STARTCHAR char97
ENCODING 229
SWIDTH 923 0
DWIDTH 14 0
BBX 14 14 0 -3
BITMAP
0380
06C0
0380
0000
1FF0
3838
0038
3FF8
7038
7038
3FD8
0000
0000
0000
ENDCHAR
STARTCHAR char97
ENCODING 230
SWIDTH 923 0
DWIDTH 14 0
BBX 14 14 0 -3
BITMAP
0000
0000
0000
0000
1FF0
3B38
0338
3FF0
7300
7338
3FF0
0000
0000
0000
ENDCHAR
STARTCHAR char99
ENCODING 231
SWIDTH 923 0
DWIDTH 14 0
BBX 14 14 0 -3
BITMAP
0000
0000
0000
0000
1FF0
3838
7000
7000
7000
3838
1FF0
01C0
0CE0
07C0
ENDCHAR
STARTCHAR char101
ENCODING 232
SWIDTH 923 0
DWIDTH 14 0
BBX 14 14 0 -3
BITMAP
0000
0380
0700
0000
1FE0
3870
7038
7FF8
7000
3838
1FF0
0000
0000
0000
ENDCHAR
STARTCHAR char101
ENCODING 233
SWIDTH 923 0
DWIDTH 14 0
BBX 14 14 0 -3
BITMAP
0000
0700
0380
0000
1FE0
3870
7038
7FF8
7000
3838
1FF0
0000
0000
0000
ENDCHAR
STARTCHAR char101
ENCODING 234
SWIDTH 923 0
DWIDTH 14 0
BBX 14 14 0 -3
BITMAP
0000
0380
06C0
0000
1FE0
3870
7038
7FF8
7000
3838
1FF0
0000
0000
0000
ENDCHAR
STARTCHAR char101
ENCODING 235
SWIDTH 923 0
DWIDTH 14 0
BBX 14 14 0 -3
BITMAP
0000
0CC0
0CC0
0000
1FE0
3870
7038
7FF8
7000
3838
1FF0
0000
0000
0000
ENDCHAR
STARTCHAR char105
ENCODING 236
SWIDTH 923 0
DWIDTH 14 0
BBX 14 14 0 -3
BITMAP
1C00
0E00
0700
0000
1F00
0700
0700
0700
0700
0700
3FE0
0000
0000
0000
ENDCHAR
STARTCHAR char105
ENCODING 237
SWIDTH 923 0
DWIDTH 14 0
BBX 14 14 0 -3
BITMAP
01C0
0380
0700
0000
1F00
0700
0700
0700
0700
0700
3FE0
0000
0000
0000
ENDCHAR
STARTCHAR char105
ENCODING 238
SWIDTH 923 0
DWIDTH 14 0
BBX 14 14 0 -3
BITMAP
0000
0700
0D80
0000
1F00
0700
0700
0700
0700
0700
3FE0
0000
0000
0000
ENDCHAR
STARTCHAR char105
ENCODING 239
SWIDTH 923 0
DWIDTH 14 0
BBX 14 14 0 -3
BITMAP
0000
0D80
0D80
0000
1F00
0700
0700
0700
0700
0700
3FE0
0000
0000
0000
ENDCHAR
STARTCHAR char100
ENCODING 240
SWIDTH 923 0
DWIDTH 14 0
BBX 14 14 0 -3
BITMAP
0000
0EC0
0700
0F80
01C0
1FE0
3870
7038
7038
3870
1FE0
0000
0000
0000
ENDCHAR
STARTCHAR char110
ENCODING 241
SWIDTH 923 0
DWIDTH 14 0
BBX 14 14 0 -3
BITMAP
0000
0660
1980
0000
6FE0
7870
7038
7038
7038
7038
7038
0000
0000
0000
ENDCHAR
STARTCHAR char111
ENCODING 242
SWIDTH 923 0
DWIDTH 14 0
BBX 14 14 0 -3
BITMAP
0000
0600
0300
0000
1FE0
3FF0
7038
7038
7038
3FF0
1FE0
0000
0000
0000
ENDCHAR
STARTCHAR char111
ENCODING 243
SWIDTH 923 0
DWIDTH 14 0
BBX 14 14 0 -3
BITMAP
0000
0180
0300
0000
1FE0
3FF0
7038
7038
7038
3FF0
1FE0
0000
0000
0000
ENDCHAR
STARTCHAR char111
ENCODING 244
SWIDTH 923 0
DWIDTH 14 0
BBX 14 14 0 -3
BITMAP
0000
0300
0480
0000
1FE0
3FF0
7038
7038
7038
3FF0
1FE0
0000
0000
0000
ENDCHAR
STARTCHAR char111
ENCODING 245
SWIDTH 923 0
DWIDTH 14 0
BBX 14 14 0 -3
BITMAP
0000
0660
1980
0000
1FE0
3FF0
7038
7038
7038
3FF0
1FE0
0000
0000
0000
ENDCHAR
STARTCHAR char111
ENCODING 246
SWIDTH 923 0
DWIDTH 14 0
BBX 14 14 0 -3
BITMAP
0000
0CC0
0CC0
0000
1FE0
3FF0
7038
7038
7038
3FF0
1FE0
0000
0000
0000
ENDCHAR
STARTCHAR char45
ENCODING 247
SWIDTH 923 0
DWIDTH 14 0
BBX 14 14 0 -3
BITMAP
0000
0000
0000
0300
0300
0000
1FE0
1FE0
0000
0300
0300
0000
0000
0000
ENDCHAR
STARTCHAR char111
ENCODING 248
SWIDTH 923 0
DWIDTH 14 0
BBX 14 14 0 -3
BITMAP
0000
0000
0000
0000
1FF8
3FF0
71F8
77B8
7E38
3FF0
7FE0
0000
0000
0000
ENDCHAR
STARTCHAR char117
ENCODING 249
SWIDTH 923 0
DWIDTH 14 0
BBX 14 14 0 -3
BITMAP
0000
0E00
0700
0380
7038
7038
7038
7038
7038
3878
1FD8
0000
0000
0000
ENDCHAR
STARTCHAR char117
ENCODING 250
SWIDTH 923 0
DWIDTH 14 0
BBX 14 14 0 -3
BITMAP
0000
01C0
0380
0700
7038
7038
7038
7038
7038
3878
1FD8
0000
0000
0000
ENDCHAR
STARTCHAR char117
ENCODING 251
SWIDTH 923 0
DWIDTH 14 0
BBX 14 14 0 -3
BITMAP
0000
0300
0780
0CC0
7038
7038
7038
7038
7038
3878
1FD8
0000
0000
0000
ENDCHAR
STARTCHAR char117
ENCODING 252
SWIDTH 923 0
DWIDTH 14 0
BBX 14 14 0 -3
BITMAP
0000
0CC0
0CC0
0000
7038
7038
7038
7038
7038
3878
1FD8
0000
0000
0000
ENDCHAR
STARTCHAR char121
ENCODING 253
SWIDTH 923 0
DWIDTH 14 0
BBX 14 14 0 -3
BITMAP
0000
01C0
0380
0700
7038
7038
7038
7038
7038
3838
1FF8
0038
3870
1FE0
ENDCHAR
STARTCHAR char254
ENCODING 254
SWIDTH 923 0
DWIDTH 14 0
BBX 14 14 0 -3
BITMAP
0000
7000
7000
7000
77C0
7CE0
7070
7038
7070
7CE0
77C0
7000
7000
7000
ENDCHAR
STARTCHAR char121
ENCODING 255
SWIDTH 923 0
DWIDTH 14 0
BBX 14 14 0 -3
BITMAP
0000
0CC0
0CC0
0000
7038
7038
7038
7038
7038
3838
1FF8
0038
3870
1FE0
ENDCHAR
STARTCHAR char28
ENCODING 960
SWIDTH 923 0
DWIDTH 14 0
BBX 14 14 0 -3
BITMAP
0000
0000
0000
0000
7FF8
7FF8
1CE0
1CE0
1CE0
1CE0
1CE0
0000
0000
0000
ENDCHAR
STARTCHAR char8592
ENCODING 8592
SWIDTH 923 0
DWIDTH 14 0
BBX 14 14 0 -3
BITMAP
0000
0000
0000
0E00
1C00
3800
7FF8
7FF8
3800
1C00
0E00
0000
0000
0000
ENDCHAR
STARTCHAR char8593
ENCODING 8593
SWIDTH 923 0
DWIDTH 14 0
BBX 14 14 0 -3
BITMAP
0000
0300
0780
0FC0
1FE0
1B60
1320
0300
0300
0300
0300
0300
0300
0000
ENDCHAR
STARTCHAR char8594
ENCODING 8594
SWIDTH 923 0
DWIDTH 14 0
BBX 14 14 0 -3
BITMAP
0000
0000
0000
01C0
00E0
0070
7FF8
7FF8
0070
00E0
01C0
0000
0000
0000
ENDCHAR
STARTCHAR char8595
ENCODING 8595
SWIDTH 923 0
DWIDTH 14 0
BBX 14 14 0 -3
BITMAP
0000
0300
0300
0300
0300
0300
0300
1320
1B60
1FE0
0FC0
0780
0300
0000
ENDCHAR
STARTCHAR char8710
ENCODING 8710
SWIDTH 923 0
DWIDTH 14 0
BBX 14 14 0 -3
BITMAP
0000
0300
0780
0780
0FC0
0DC0
18E0
18E0
3070
3FF0
7FF8
0000
0000
0000
ENDCHAR
STARTCHAR char8734
ENCODING 8734
SWIDTH 923 0
DWIDTH 14 0
BBX 14 14 0 -3
BITMAP
0000
0000
0000
0000
1CE0
3FF0
7338
7338
3FF0
1CE0
0000
0000
0000
0000
ENDCHAR
STARTCHAR char8745
ENCODING 8745
SWIDTH 923 0
DWIDTH 14 0
BBX 14 14 0 -3
BITMAP
0000
0F80
1DC0
38E0
38E0
7070
7070
7070
7070
7070
7070
0000
0000
0000
ENDCHAR
STARTCHAR char8746
ENCODING 8746
SWIDTH 923 0
DWIDTH 14 0
BBX 14 14 0 -3
BITMAP
0000
7070
7070
7070
7070
7070
7070
38E0
38E0
1DC0
0F80
0000
0000
0000
ENDCHAR
STARTCHAR char61
ENCODING 8776
SWIDTH 923 0
DWIDTH 14 0
BBX 14 14 0 -3
BITMAP
0000
0000
0000
1E70
3FE0
73C0
0000
1E70
3FE0
73C0
0000
0000
0000
0000
ENDCHAR
STARTCHAR char29
ENCODING 8800
SWIDTH 923 0
DWIDTH 14 0
BBX 14 14 0 -3
BITMAP
0000
0000
0000
00E0
3FF0
3FF0
0380
0700
3FF0
3FF0
1C00
0000
0000
0000
ENDCHAR
STARTCHAR char26
ENCODING 8804
SWIDTH 923 0
DWIDTH 14 0
BBX 14 14 0 -3
BITMAP
0000
0000
0078
03E0
1F00
7800
1F00
03E0
0078
7FF8
7FF8
0000
0000
0000
ENDCHAR
STARTCHAR char27
ENCODING 8805
SWIDTH 923 0
DWIDTH 14 0
BBX 14 14 0 -3
BITMAP
0000
0000
7800
1F00
03E0
0078
03E0
1F00
7800
7FF8
7FF8
0000
0000
0000
ENDCHAR
STARTCHAR char8992
ENCODING 8992
SWIDTH 923 0
DWIDTH 14 0
BBX 14 14 0 -3
BITMAP
0000
0000
03E0
0770
0770
0700
0700
0700
0700
0700
0700
0700
0700
0700
ENDCHAR
STARTCHAR char8993
ENCODING 8993
SWIDTH 923 0
DWIDTH 14 0
BBX 14 14 0 -3
BITMAP
0700
0700
0700
0700
0700
0700
0700
0700
0700
7700
7700
3E00
0000
0000
ENDCHAR
STARTCHAR char16
ENCODING 9146
SWIDTH 923 0
DWIDTH 14 0
BBX 14 14 0 -3
BITMAP
FFFC
FFFC
0000
0000
0000
0000
0000
0000
0000
0000
0000
0000
0000
0000
ENDCHAR
STARTCHAR char17
ENCODING 9147
SWIDTH 923 0
DWIDTH 14 0
BBX 14 14 0 -3
BITMAP
0000
0000
0000
FFFC
FFFC
0000
0000
0000
0000
0000
0000
0000
0000
0000
ENDCHAR
STARTCHAR char19
ENCODING 9148
SWIDTH 923 0
DWIDTH 14 0
BBX 14 14 0 -3
BITMAP
0000
0000
0000
0000
0000
0000
0000
0000
0000
FFFC
FFFC
0000
0000
0000
ENDCHAR
STARTCHAR char20
ENCODING 9149
SWIDTH 923 0
DWIDTH 14 0
BBX 14 14 0 -3
BITMAP
0000
0000
0000
0000
0000
0000
0000
0000
0000
0000
0000
0000
FFFC
FFFC
ENDCHAR
STARTCHAR char3
ENCODING 9225
SWIDTH 923 0
DWIDTH 14 0
BBX 14 14 0 -3
BITMAP
0000
7700
7700
7F00
7700
7700
03F8
00E0
00E0
00E0
00E0
0000
0000
0000
ENDCHAR
STARTCHAR char6
ENCODING 9226
SWIDTH 923 0
DWIDTH 14 0
BBX 14 14 0 -3
BITMAP
0000
7000
7000
7000
7000
71F8
7FC0
01F0
01C0
01C0
01C0
0000
0000
0000
ENDCHAR
STARTCHAR char10
ENCODING 9227
SWIDTH 923 0
DWIDTH 14 0
BBX 14 14 0 -3
BITMAP
0000
7380
7380
7380
3F00
1FF8
0CE0
00E0
00E0
00E0
00E0
0000
0000
0000
ENDCHAR
STARTCHAR char4
ENCODING 9228
SWIDTH 923 0
DWIDTH 14 0
BBX 14 14 0 -3
BITMAP
0000
7E00
7000
7C00
7000
71F8
71C0
01F0
01C0
01C0
01C0
0000
0000
0000
ENDCHAR
STARTCHAR char5
ENCODING 9229
SWIDTH 923 0
DWIDTH 14 0
BBX 14 14 0 -3
BITMAP
0000
3C00
7600
7000
7000
77F0
3DD8
01D8
01F0
01F8
01D8
0000
0000
0000
ENDCHAR
STARTCHAR char9
ENCODING 9252
SWIDTH 923 0
DWIDTH 14 0
BBX 14 14 0 -3
BITMAP
0000
7380
7B80
7F80
7F80
77C0
73C0
01C0
01C0
01F8
01F8
0000
0000
0000
ENDCHAR
STARTCHAR char18
ENCODING 9472
SWIDTH 923 0
DWIDTH 14 0
BBX 14 14 0 -3
BITMAP
0000
0000
0000
0000
0000
0000
FFFC
FFFC
0000
0000
0000
0000
0000
0000
ENDCHAR
STARTCHAR char9474
ENCODING 9474
SWIDTH 923 0
DWIDTH 14 0
BBX 14 14 0 -3
BITMAP
0300
0300
0300
0300
0300
0300
0300
0300
0300
0300
0300
0300
0300
0300
ENDCHAR
STARTCHAR char13
ENCODING 9484
SWIDTH 923 0
DWIDTH 14 0
BBX 14 14 0 -3
BITMAP
0000
0000
0000
0000
0000
0000
03FC
03FC
0300
0300
0300
0300
0300
0300
ENDCHAR
STARTCHAR char12
ENCODING 9488
SWIDTH 923 0
DWIDTH 14 0
BBX 14 14 0 -3
BITMAP
0000
0000
0000
0000
0000
0000
FF00
FF00
0300
0300
0300
0300
0300
0300
ENDCHAR
STARTCHAR char14
ENCODING 9492
SWIDTH 923 0
DWIDTH 14 0
BBX 14 14 0 -3
BITMAP
0300
0300
0300
0300
0300
0300
03FC
03FC
0000
0000
0000
0000
0000
0000
ENDCHAR
STARTCHAR char11
ENCODING 9496
SWIDTH 923 0
DWIDTH 14 0
BBX 14 14 0 -3
BITMAP
0300
0300
0300
0300
0300
0300
FF00
FF00
0000
0000
0000
0000
0000
0000
ENDCHAR
STARTCHAR char9500
ENCODING 9500
SWIDTH 923 0
DWIDTH 14 0
BBX 14 14 0 -3
BITMAP
0300
0300
0300
0300
0300
0300
03FC
03FC
0300
0300
0300
0300
0300
0300
ENDCHAR
STARTCHAR char9508
ENCODING 9508
SWIDTH 923 0
DWIDTH 14 0
BBX 14 14 0 -3
BITMAP
0300
0300
0300
0300
0300
0300
FF00
FF00
0300
0300
0300
0300
0300
0300
ENDCHAR
STARTCHAR char9516
ENCODING 9516
SWIDTH 923 0
DWIDTH 14 0
BBX 14 14 0 -3
BITMAP
0000
0000
0000
0000
0000
0000
FFFC
FFFC
0300
0300
0300
0300
0300
0300
ENDCHAR
STARTCHAR char9524
ENCODING 9524
SWIDTH 923 0
DWIDTH 14 0
BBX 14 14 0 -3
BITMAP
0300
0300
0300
0300
0300
0300
FFFC
FFFC
0000
0000
0000
0000
0000
0000
ENDCHAR
STARTCHAR char15
ENCODING 9532
SWIDTH 923 0
DWIDTH 14 0
BBX 14 14 0 -3
BITMAP
0300
0300
0300
0300
0300
0300
FFFC
FFFC
0300
0300
0300
0300
0300
0300
ENDCHAR
ENDFONT
