STARTFONT 2.1
FONT -dylex-crawl-Bold-O-Normal--14-140-75-75-C-140-ISO10646-1
SIZE 14 78 78
FONTBOUNDINGBOX 14 14 0 -3
STARTPROPERTIES 23
FONTNAME_REGISTRY ""
FOUNDRY "dylex"
FAMILY_NAME "crawl"
WEIGHT_NAME "Bold"
SLANT "O"
SETWIDTH_NAME "Normal"
ADD_STYLE_NAME ""
PIXEL_SIZE 14
POINT_SIZE 140
RESOLUTION_X 75
RESOLUTION_Y 75
SPACING "C"
AVERAGE_WIDTH 140
CHARSET_REGISTRY "ISO10646"
CHARSET_ENCODING "1"
COPYRIGHT "Public domain font.  Share and enjoy."
DESTINATION 1
DEFAULT_CHAR 0
FONT_DESCENT 3
FONT_ASCENT 11
CAP_HEIGHT 10
X_HEIGHT 6
_GBDFED_INFO "Edited with gbdfed 1.6."
ENDPROPERTIES
CHARS 105
STARTCHAR char0
ENCODING 0
SWIDTH 923 0
DWIDTH 14 0
BBX 14 14 0 -3
BITMAP
0000
366C
366C
0000
6018
6018
0000
0000
6018
6018
0000
D9B0
D9B0
0000
ENDCHAR
STARTCHAR char1
ENCODING 1
SWIDTH 923 0
DWIDTH 14 0
BBX 14 14 0 -3
BITMAP
0000
0000
0000
0300
0780
0CC0
1860
0CC0
0780
0300
0000
0000
0000
0000
ENDCHAR
STARTCHAR char2
ENCODING 2
SWIDTH 923 0
DWIDTH 14 0
BBX 14 14 0 -3
BITMAP
5554
AAA8
5554
AAA8
5554
AAA8
5554
AAA8
5554
AAA8
5554
AAA8
5554
AAA8
ENDCHAR
STARTCHAR char26
ENCODING 26
SWIDTH 923 0
DWIDTH 14 0
BBX 14 14 0 -3
BITMAP
0000
0000
003C
01F0
0F80
7800
1F00
03E0
00F0
FFF0
FFF0
0000
0000
0000
ENDCHAR
STARTCHAR char27
ENCODING 27
SWIDTH 923 0
DWIDTH 14 0
BBX 14 14 0 -3
BITMAP
0000
0000
3C00
0F80
01F0
0078
03E0
1F00
F000
FFF0
FFF0
0000
0000
0000
ENDCHAR
STARTCHAR char28
ENCODING 28
SWIDTH 923 0
DWIDTH 14 0
BBX 14 14 0 -3
BITMAP
0000
0000
0000
0000
7FF8
7FF8
39C0
39C0
39C0
7380
7380
0000
0000
0000
ENDCHAR
STARTCHAR char29
ENCODING 29
SWIDTH 923 0
DWIDTH 14 0
BBX 14 14 0 -3
BITMAP
0000
0000
0000
0070
1FF8
1FF8
0380
0700
7FE0
7FE0
3800
0000
0000
0000
ENDCHAR
STARTCHAR char30
ENCODING 30
SWIDTH 923 0
DWIDTH 14 0
BBX 14 14 0 -3
BITMAP
0000
03F0
0738
0700
0E00
0E00
7FC0
1E00
3800
7EE0
77C0
0000
0000
0000
ENDCHAR
STARTCHAR char31
ENCODING 31
SWIDTH 923 0
DWIDTH 14 0
BBX 14 14 0 -3
BITMAP
0000
0000
0000
0000
0000
0000
0780
0780
0000
0000
0000
0000
0000
0000
ENDCHAR
STARTCHAR char32
ENCODING 32
SWIDTH 923 0
DWIDTH 14 0
BBX 14 14 0 -3
BITMAP
0000
0000
0000
0000
0000
0000
0000
0000
0000
0000
0000
0000
0000
0000
ENDCHAR
STARTCHAR char33
ENCODING 33
SWIDTH 923 0
DWIDTH 14 0
BBX 14 14 0 -3
BITMAP
0000
0380
0380
0380
0700
0700
0700
0700
0000
0E00
0E00
0000
0000
0000
ENDCHAR
STARTCHAR char34
ENCODING 34
SWIDTH 923 0
DWIDTH 14 0
BBX 14 14 0 -3
BITMAP
0000
0EE0
0EE0
1DC0
1980
0000
0000
0000
0000
0000
0000
0000
0000
0000
ENDCHAR
STARTCHAR char35
ENCODING 35
SWIDTH 923 0
DWIDTH 14 0
BBX 14 14 0 -3
BITMAP
0000
0E70
0E70
3FFC
7FF8
1CE0
1CE0
7FF8
FFF0
39C0
39C0
0000
0000
0000
ENDCHAR
STARTCHAR char36
ENCODING 36
SWIDTH 923 0
DWIDTH 14 0
BBX 14 14 0 -3
BITMAP
0000
0380
1FF0
3BB8
7700
3FE0
0770
7770
EEE0
7FC0
0E00
0000
0000
0000
ENDCHAR
STARTCHAR char37
ENCODING 37
SWIDTH 923 0
DWIDTH 14 0
BBX 14 14 0 -3
BITMAP
0000
181C
3C38
3C70
19E0
0380
0700
1EC0
39E0
71E0
E0C0
0000
0000
0000
ENDCHAR
STARTCHAR char38
ENCODING 38
SWIDTH 923 0
DWIDTH 14 0
BBX 14 14 0 -3
BITMAP
0000
0FC0
1CE0
1CE0
1DC0
1F00
0F80
3DF0
71C0
73E0
3F70
0000
0000
0000
ENDCHAR
STARTCHAR char39
ENCODING 39
SWIDTH 923 0
DWIDTH 14 0
BBX 14 14 0 -3
BITMAP
0000
0380
0380
0700
0600
0000
0000
0000
0000
0000
0000
0000
0000
0000
ENDCHAR
STARTCHAR char40
ENCODING 40
SWIDTH 923 0
DWIDTH 14 0
BBX 14 14 0 -3
BITMAP
0000
00E0
01C0
0380
0700
0E00
0E00
0E00
0E00
0E00
0700
0380
0000
0000
ENDCHAR
STARTCHAR char41
ENCODING 41
SWIDTH 923 0
DWIDTH 14 0
BBX 14 14 0 -3
BITMAP
0000
0700
0380
01C0
01C0
01C0
01C0
01C0
0380
0700
0E00
1C00
0000
0000
ENDCHAR
STARTCHAR char42
ENCODING 42
SWIDTH 923 0
DWIDTH 14 0
BBX 14 14 0 -3
BITMAP
0000
0000
0000
0380
1BB0
3FE0
0F80
3FE0
6EC0
0E00
0000
0000
0000
0000
ENDCHAR
STARTCHAR char43
ENCODING 43
SWIDTH 923 0
DWIDTH 14 0
BBX 14 14 0 -3
BITMAP
0000
0000
0000
0380
0380
0380
7FF0
7FF0
0E00
0E00
0E00
0000
0000
0000
ENDCHAR
STARTCHAR char44
ENCODING 44
SWIDTH 923 0
DWIDTH 14 0
BBX 14 14 0 -3
BITMAP
0000
0000
0000
0000
0000
0000
0000
0000
0380
0380
0700
0E00
0000
0000
ENDCHAR
STARTCHAR char45
ENCODING 45
SWIDTH 923 0
DWIDTH 14 0
BBX 14 14 0 -3
BITMAP
0000
0000
0000
0000
0000
0000
1FE0
1FE0
0000
0000
0000
0000
0000
0000
ENDCHAR
STARTCHAR char46
ENCODING 46
SWIDTH 923 0
DWIDTH 14 0
BBX 14 14 0 -3
BITMAP
0000
0000
0000
0000
0000
0000
0000
0000
0700
0700
0700
0000
0000
0000
ENDCHAR
STARTCHAR char47
ENCODING 47
SWIDTH 923 0
DWIDTH 14 0
BBX 14 14 0 -3
BITMAP
0000
001C
0038
0070
01E0
0380
0700
1E00
3800
7000
E000
0000
0000
0000
ENDCHAR
STARTCHAR char48
ENCODING 48
SWIDTH 923 0
DWIDTH 14 0
BBX 14 14 0 -3
BITMAP
0000
07E0
0FF0
1C38
3838
7338
7338
7070
70E0
3FC0
1F80
0000
0000
0000
ENDCHAR
STARTCHAR char49
ENCODING 49
SWIDTH 923 0
DWIDTH 14 0
BBX 14 14 0 -3
BITMAP
0000
03C0
07C0
0FC0
0380
0380
0380
0700
0700
7FF0
7FF0
0000
0000
0000
ENDCHAR
STARTCHAR char50
ENCODING 50
SWIDTH 923 0
DWIDTH 14 0
BBX 14 14 0 -3
BITMAP
0000
0FF0
1FF8
3838
0038
0070
01E0
0F80
3C00
7FF0
FFF0
0000
0000
0000
ENDCHAR
STARTCHAR char51
ENCODING 51
SWIDTH 923 0
DWIDTH 14 0
BBX 14 14 0 -3
BITMAP
0000
0FF0
1FF8
3838
0070
03E0
03E0
0070
E070
7FE0
3FC0
0000
0000
0000
ENDCHAR
STARTCHAR char52
ENCODING 52
SWIDTH 923 0
DWIDTH 14 0
BBX 14 14 0 -3
BITMAP
0000
0078
01F8
07B8
1E70
3070
7FF8
FFF0
00E0
00E0
00E0
0000
0000
0000
ENDCHAR
STARTCHAR char53
ENCODING 53
SWIDTH 923 0
DWIDTH 14 0
BBX 14 14 0 -3
BITMAP
0000
3FF8
3FF8
3800
7000
7FE0
7FF0
0038
C070
FFE0
7FC0
0000
0000
0000
ENDCHAR
STARTCHAR char54
ENCODING 54
SWIDTH 923 0
DWIDTH 14 0
BBX 14 14 0 -3
BITMAP
0000
0FF0
1FF8
3818
7000
7FE0
7FF0
E038
E070
7FE0
3FC0
0000
0000
0000
ENDCHAR
STARTCHAR char55
ENCODING 55
SWIDTH 923 0
DWIDTH 14 0
BBX 14 14 0 -3
BITMAP
0000
3FF8
3FF8
0070
01E0
0380
0700
1E00
3800
7000
E000
0000
0000
0000
ENDCHAR
STARTCHAR char56
ENCODING 56
SWIDTH 923 0
DWIDTH 14 0
BBX 14 14 0 -3
BITMAP
0000
0FF0
1FF8
3838
3870
1FE0
3FF0
7038
E070
7FE0
3FC0
0000
0000
0000
ENDCHAR
STARTCHAR char57
ENCODING 57
SWIDTH 923 0
DWIDTH 14 0
BBX 14 14 0 -3
BITMAP
0000
0FF0
1FF8
3838
3818
1FF8
0FF8
0038
7070
7FE0
3FC0
0000
0000
0000
ENDCHAR
STARTCHAR char58
ENCODING 58
SWIDTH 923 0
DWIDTH 14 0
BBX 14 14 0 -3
BITMAP
0000
0000
0000
0000
0380
0380
0380
0000
0700
0700
0700
0000
0000
0000
ENDCHAR
STARTCHAR char59
ENCODING 59
SWIDTH 923 0
DWIDTH 14 0
BBX 14 14 0 -3
BITMAP
0000
0000
0000
0000
01C0
01C0
01C0
0000
0380
0380
0700
0E00
0000
0000
ENDCHAR
STARTCHAR char60
ENCODING 60
SWIDTH 923 0
DWIDTH 14 0
BBX 14 14 0 -3
BITMAP
0000
0000
0038
00F0
07C0
1F00
7800
1E00
0F00
03C0
00E0
0000
0000
0000
ENDCHAR
STARTCHAR char61
ENCODING 61
SWIDTH 923 0
DWIDTH 14 0
BBX 14 14 0 -3
BITMAP
0000
0000
0000
0000
1FF8
1FF8
0000
0000
7FE0
7FE0
0000
0000
0000
0000
ENDCHAR
STARTCHAR char62
ENCODING 62
SWIDTH 923 0
DWIDTH 14 0
BBX 14 14 0 -3
BITMAP
0000
0000
1C00
0F00
03C0
01E0
0078
03E0
0F80
3C00
7000
0000
0000
0000
ENDCHAR
STARTCHAR char63
ENCODING 63
SWIDTH 923 0
DWIDTH 14 0
BBX 14 14 0 -3
BITMAP
0000
0FE0
1C70
3870
00E0
0380
0700
0700
0000
0E00
0E00
0000
0000
0000
ENDCHAR
STARTCHAR char64
ENCODING 64
SWIDTH 923 0
DWIDTH 14 0
BBX 14 14 0 -3
BITMAP
0000
07E0
0FF0
1C38
3B78
77F8
76F8
73F0
7000
3FC0
1FC0
0000
0000
0000
ENDCHAR
STARTCHAR char65
ENCODING 65
SWIDTH 923 0
DWIDTH 14 0
BBX 14 14 0 -3
BITMAP
0000
00C0
01E0
03F0
0E70
1C38
3FF8
3FF8
7038
7038
7038
0000
0000
0000
ENDCHAR
STARTCHAR char66
ENCODING 66
SWIDTH 923 0
DWIDTH 14 0
BBX 14 14 0 -3
BITMAP
0000
3FE0
3FF0
3838
7070
7FE0
7FF0
7038
E070
FFE0
FFC0
0000
0000
0000
ENDCHAR
STARTCHAR char67
ENCODING 67
SWIDTH 923 0
DWIDTH 14 0
BBX 14 14 0 -3
BITMAP
0000
0FE0
1FF0
3838
7000
E000
E000
E000
E0E0
7FC0
3F80
0000
0000
0000
ENDCHAR
STARTCHAR char68
ENCODING 68
SWIDTH 923 0
DWIDTH 14 0
BBX 14 14 0 -3
BITMAP
0000
3FE0
3FF0
3838
7038
7038
7038
7070
E0E0
FFC0
FF80
0000
0000
0000
ENDCHAR
STARTCHAR char69
ENCODING 69
SWIDTH 923 0
DWIDTH 14 0
BBX 14 14 0 -3
BITMAP
0000
3FFC
3FFC
3800
7000
7FC0
7FC0
7000
E000
FFF0
FFF0
0000
0000
0000
ENDCHAR
STARTCHAR char70
ENCODING 70
SWIDTH 923 0
DWIDTH 14 0
BBX 14 14 0 -3
BITMAP
0000
3FFC
3FFC
3800
7000
7FC0
7FC0
7000
E000
E000
E000
0000
0000
0000
ENDCHAR
STARTCHAR char71
ENCODING 71
SWIDTH 923 0
DWIDTH 14 0
BBX 14 14 0 -3
BITMAP
0000
0FE0
1FF0
3838
7000
E000
E3F0
E3F0
E0E0
7FE0
3FA0
0000
0000
0000
ENDCHAR
STARTCHAR char72
ENCODING 72
SWIDTH 923 0
DWIDTH 14 0
BBX 14 14 0 -3
BITMAP
0000
381C
381C
381C
7038
7FF8
7FF8
7038
E070
E070
E070
0000
0000
0000
ENDCHAR
STARTCHAR char73
ENCODING 73
SWIDTH 923 0
DWIDTH 14 0
BBX 14 14 0 -3
BITMAP
0000
1FF0
1FF0
0380
0700
0700
0700
0700
0E00
7FC0
7FC0
0000
0000
0000
ENDCHAR
STARTCHAR char74
ENCODING 74
SWIDTH 923 0
DWIDTH 14 0
BBX 14 14 0 -3
BITMAP
0000
03F8
03F8
00E0
00E0
01C0
01C0
71C0
E380
7F00
3E00
0000
0000
0000
ENDCHAR
STARTCHAR char75
ENCODING 75
SWIDTH 923 0
DWIDTH 14 0
BBX 14 14 0 -3
BITMAP
0000
1C38
1C70
1CE0
3BC0
3F00
3F00
3B80
7380
71C0
70E0
0000
0000
0000
ENDCHAR
STARTCHAR char76
ENCODING 76
SWIDTH 923 0
DWIDTH 14 0
BBX 14 14 0 -3
BITMAP
0000
1C00
1C00
1C00
3800
3800
3800
3800
7000
7FF8
7FF8
0000
0000
0000
ENDCHAR
STARTCHAR char77
ENCODING 77
SWIDTH 923 0
DWIDTH 14 0
BBX 14 14 0 -3
BITMAP
0000
300C
381C
3C3C
7CF8
7FF8
77B8
7338
E070
E070
E070
0000
0000
0000
ENDCHAR
STARTCHAR char78
ENCODING 78
SWIDTH 923 0
DWIDTH 14 0
BBX 14 14 0 -3
BITMAP
0000
381C
3C1C
3E1C
7E38
7738
73B8
71F8
E1F0
E0F0
E070
0000
0000
0000
ENDCHAR
STARTCHAR char79
ENCODING 79
SWIDTH 923 0
DWIDTH 14 0
BBX 14 14 0 -3
BITMAP
0000
0FF0
1FF8
3838
7038
7038
7038
7038
7070
7FE0
3FC0
0000
0000
0000
ENDCHAR
STARTCHAR char80
ENCODING 80
SWIDTH 923 0
DWIDTH 14 0
BBX 14 14 0 -3
BITMAP
0000
3FF0
3FF8
3838
7038
7070
7FE0
7FC0
E000
E000
E000
0000
0000
0000
ENDCHAR
STARTCHAR char81
ENCODING 81
SWIDTH 923 0
DWIDTH 14 0
BBX 14 14 0 -3
BITMAP
0000
0FF0
1FF8
3838
7038
7038
7038
71F8
71F0
7FE0
3FE0
0070
0000
0000
ENDCHAR
STARTCHAR char82
ENCODING 82
SWIDTH 923 0
DWIDTH 14 0
BBX 14 14 0 -3
BITMAP
0000
3FF0
3FF8
3838
7038
7070
7FE0
7FC0
E1C0
E0E0
E070
0000
0000
0000
ENDCHAR
STARTCHAR char83
ENCODING 83
SWIDTH 923 0
DWIDTH 14 0
BBX 14 14 0 -3
BITMAP
0000
0FF0
1FF8
381C
3800
1FE0
0FF0
0038
E070
7FE0
3FC0
0000
0000
0000
ENDCHAR
STARTCHAR char84
ENCODING 84
SWIDTH 923 0
DWIDTH 14 0
BBX 14 14 0 -3
BITMAP
0000
7FF0
7FF0
0700
0E00
0E00
0E00
0E00
1C00
1C00
1C00
0000
0000
0000
ENDCHAR
STARTCHAR char85
ENCODING 85
SWIDTH 923 0
DWIDTH 14 0
BBX 14 14 0 -3
BITMAP
0000
381C
381C
381C
7038
7038
7038
7038
7070
7FE0
3FC0
0000
0000
0000
ENDCHAR
STARTCHAR char86
ENCODING 86
SWIDTH 923 0
DWIDTH 14 0
BBX 14 14 0 -3
BITMAP
0000
7038
7038
7070
70E0
39C0
39C0
1F80
1E00
1E00
0C00
0000
0000
0000
ENDCHAR
STARTCHAR char87
ENCODING 87
SWIDTH 923 0
DWIDTH 14 0
BBX 14 14 0 -3
BITMAP
0000
7038
7038
7338
7770
7FE0
7FE0
7FE0
7380
7380
6180
0000
0000
0000
ENDCHAR
STARTCHAR char88
ENCODING 88
SWIDTH 923 0
DWIDTH 14 0
BBX 14 14 0 -3
BITMAP
0000
381C
1C38
0E70
0FE0
0780
0780
1FC0
39C0
70E0
E070
0000
0000
0000
ENDCHAR
STARTCHAR char89
ENCODING 89
SWIDTH 923 0
DWIDTH 14 0
BBX 14 14 0 -3
BITMAP
0000
3018
3838
1C70
1DE0
0F80
0700
0700
0E00
0E00
0E00
0000
0000
0000
ENDCHAR
STARTCHAR char90
ENCODING 90
SWIDTH 923 0
DWIDTH 14 0
BBX 14 14 0 -3
BITMAP
0000
3FFC
3FF8
0070
01E0
0380
0700
1E00
3800
7FF0
FFF0
0000
0000
0000
ENDCHAR
STARTCHAR char91
ENCODING 91
SWIDTH 923 0
DWIDTH 14 0
BBX 14 14 0 -3
BITMAP
0000
07E0
07E0
0700
0700
0E00
0E00
0E00
1C00
1C00
1F80
1F80
0000
0000
ENDCHAR
STARTCHAR char92
ENCODING 92
SWIDTH 923 0
DWIDTH 14 0
BBX 14 14 0 -3
BITMAP
0000
3800
1C00
0E00
0E00
0700
0380
01C0
01C0
00E0
0070
0000
0000
0000
ENDCHAR
STARTCHAR char93
ENCODING 93
SWIDTH 923 0
DWIDTH 14 0
BBX 14 14 0 -3
BITMAP
0000
07E0
07E0
00E0
00E0
01C0
01C0
01C0
0380
0380
1F80
1F80
0000
0000
ENDCHAR
STARTCHAR char94
ENCODING 94
SWIDTH 923 0
DWIDTH 14 0
BBX 14 14 0 -3
BITMAP
0000
0380
07C0
1EE0
38E0
7070
0000
0000
0000
0000
0000
0000
0000
0000
ENDCHAR
STARTCHAR char95
ENCODING 95
SWIDTH 923 0
DWIDTH 14 0
BBX 14 14 0 -3
BITMAP
0000
0000
0000
0000
0000
0000
0000
0000
0000
0000
0000
7FF8
0000
0000
ENDCHAR
STARTCHAR char96
ENCODING 96
SWIDTH 923 0
DWIDTH 14 0
BBX 14 14 0 -3
BITMAP
0000
0700
0700
0380
0000
0000
0000
0000
0000
0000
0000
0000
0000
0000
ENDCHAR
STARTCHAR char97
ENCODING 97
SWIDTH 923 0
DWIDTH 14 0
BBX 14 14 0 -3
BITMAP
0000
0000
0000
0000
0FF0
1C38
0038
3FF8
7038
7070
7FB0
0000
0000
0000
ENDCHAR
STARTCHAR char98
ENCODING 98
SWIDTH 923 0
DWIDTH 14 0
BBX 14 14 0 -3
BITMAP
0000
3800
3800
3800
7FE0
7870
7038
7038
E070
F0E0
DFC0
0000
0000
0000
ENDCHAR
STARTCHAR char99
ENCODING 99
SWIDTH 923 0
DWIDTH 14 0
BBX 14 14 0 -3
BITMAP
0000
0000
0000
0000
1FF0
3838
7000
E000
E000
E0E0
7FC0
0000
0000
0000
ENDCHAR
STARTCHAR char100
ENCODING 100
SWIDTH 923 0
DWIDTH 14 0
BBX 14 14 0 -3
BITMAP
0000
0038
0038
0038
3FF0
70F0
E070
E070
E0E0
E1E0
7F60
0000
0000
0000
ENDCHAR
STARTCHAR char101
ENCODING 101
SWIDTH 923 0
DWIDTH 14 0
BBX 14 14 0 -3
BITMAP
0000
0000
0000
0000
0FF0
1C38
3838
7FF8
7000
7070
3FE0
0000
0000
0000
ENDCHAR
STARTCHAR char102
ENCODING 102
SWIDTH 923 0
DWIDTH 14 0
BBX 14 14 0 -3
BITMAP
0000
03F0
0738
0700
0E00
7FC0
0E00
0E00
1C00
1C00
1C00
0000
0000
0000
ENDCHAR
STARTCHAR char103
ENCODING 103
SWIDTH 923 0
DWIDTH 14 0
BBX 14 14 0 -3
BITMAP
0000
0000
0000
0000
1FD8
3878
7038
E070
E070
7070
3FF0
00E0
E0E0
7FC0
ENDCHAR
STARTCHAR char104
ENCODING 104
SWIDTH 923 0
DWIDTH 14 0
BBX 14 14 0 -3
BITMAP
0000
3800
3800
3800
3FE0
7870
7038
7038
E070
E070
E070
0000
0000
0000
ENDCHAR
STARTCHAR char105
ENCODING 105
SWIDTH 923 0
DWIDTH 14 0
BBX 14 14 0 -3
BITMAP
0000
01C0
01C0
0000
0F80
0380
0380
0380
0700
0700
3FE0
0000
0000
0000
ENDCHAR
STARTCHAR char106
ENCODING 106
SWIDTH 923 0
DWIDTH 14 0
BBX 14 14 0 -3
BITMAP
0000
0070
0070
0000
03E0
00E0
00E0
00E0
01C0
01C0
01C0
7380
7700
3E00
ENDCHAR
STARTCHAR char107
ENCODING 107
SWIDTH 923 0
DWIDTH 14 0
BBX 14 14 0 -3
BITMAP
0000
0E00
0E00
0E00
1C70
1CE0
1DC0
1F80
3F80
3DC0
38E0
0000
0000
0000
ENDCHAR
STARTCHAR char108
ENCODING 108
SWIDTH 923 0
DWIDTH 14 0
BBX 14 14 0 -3
BITMAP
0000
07C0
01C0
01C0
0380
0380
0380
0380
0700
0700
3FE0
0000
0000
0000
ENDCHAR
STARTCHAR char109
ENCODING 109
SWIDTH 923 0
DWIDTH 14 0
BBX 14 14 0 -3
BITMAP
0000
0000
0000
0000
3738
3FFC
739C
739C
739C
E738
E738
0000
0000
0000
ENDCHAR
STARTCHAR char110
ENCODING 110
SWIDTH 923 0
DWIDTH 14 0
BBX 14 14 0 -3
BITMAP
0000
0000
0000
0000
37F0
3C38
7038
7038
7038
E070
E070
0000
0000
0000
ENDCHAR
STARTCHAR char111
ENCODING 111
SWIDTH 923 0
DWIDTH 14 0
BBX 14 14 0 -3
BITMAP
0000
0000
0000
0000
0FF0
1C38
3838
7038
7070
70E0
3FC0
0000
0000
0000
ENDCHAR
STARTCHAR char112
ENCODING 112
SWIDTH 923 0
DWIDTH 14 0
BBX 14 14 0 -3
BITMAP
0000
0000
0000
0000
37F0
3C38
3838
7038
7038
7870
7FE0
E000
E000
E000
ENDCHAR
STARTCHAR char113
ENCODING 113
SWIDTH 923 0
DWIDTH 14 0
BBX 14 14 0 -3
BITMAP
0000
0000
0000
0000
1FD8
3878
7038
E070
E070
70F0
3FF0
00E0
00E0
00E0
ENDCHAR
STARTCHAR char114
ENCODING 114
SWIDTH 923 0
DWIDTH 14 0
BBX 14 14 0 -3
BITMAP
0000
0000
0000
0000
37E0
1E70
3830
3800
3800
7000
7000
0000
0000
0000
ENDCHAR
STARTCHAR char115
ENCODING 115
SWIDTH 923 0
DWIDTH 14 0
BBX 14 14 0 -3
BITMAP
0000
0000
0000
0000
1FF0
3838
7000
3FE0
0070
E0E0
7FC0
0000
0000
0000
ENDCHAR
STARTCHAR char116
ENCODING 116
SWIDTH 923 0
DWIDTH 14 0
BBX 14 14 0 -3
BITMAP
0000
0380
0380
0380
3FF0
0700
0700
0700
0E00
0E70
07E0
0000
0000
0000
ENDCHAR
STARTCHAR char117
ENCODING 117
SWIDTH 923 0
DWIDTH 14 0
BBX 14 14 0 -3
BITMAP
0000
0000
0000
0000
7038
7038
E070
E070
E0E0
E1E0
7F60
0000
0000
0000
ENDCHAR
STARTCHAR char118
ENCODING 118
SWIDTH 923 0
DWIDTH 14 0
BBX 14 14 0 -3
BITMAP
0000
0000
0000
0000
7038
7070
70E0
39C0
1F80
1E00
0C00
0000
0000
0000
ENDCHAR
STARTCHAR char119
ENCODING 119
SWIDTH 923 0
DWIDTH 14 0
BBX 14 14 0 -3
BITMAP
0000
0000
0000
0000
7038
7238
7770
7FE0
7FE0
73C0
6180
0000
0000
0000
ENDCHAR
STARTCHAR char120
ENCODING 120
SWIDTH 923 0
DWIDTH 14 0
BBX 14 14 0 -3
BITMAP
0000
0000
0000
0000
381C
1E78
0FE0
0780
1FC0
79E0
E070
0000
0000
0000
ENDCHAR
STARTCHAR char121
ENCODING 121
SWIDTH 923 0
DWIDTH 14 0
BBX 14 14 0 -3
BITMAP
0000
0000
0000
0000
7038
7038
7038
E070
E070
70F0
3FE0
00E0
E1C0
7F80
ENDCHAR
STARTCHAR char122
ENCODING 122
SWIDTH 923 0
DWIDTH 14 0
BBX 14 14 0 -3
BITMAP
0000
0000
0000
0000
3FF8
0070
03E0
0F80
3E00
7000
FFE0
0000
0000
0000
ENDCHAR
STARTCHAR char123
ENCODING 123
SWIDTH 923 0
DWIDTH 14 0
BBX 14 14 0 -3
BITMAP
0000
01E0
0380
0700
0700
0700
0E00
0700
0E00
0E00
0E00
0780
0000
0000
ENDCHAR
STARTCHAR char124
ENCODING 124
SWIDTH 923 0
DWIDTH 14 0
BBX 14 14 0 -3
BITMAP
0000
0380
0380
0380
0380
0700
0700
0700
0E00
0E00
0E00
0E00
0000
0000
ENDCHAR
STARTCHAR char125
ENCODING 125
SWIDTH 923 0
DWIDTH 14 0
BBX 14 14 0 -3
BITMAP
0000
0780
01C0
01C0
01C0
0380
01C0
0380
0380
0380
0700
1E00
0000
0000
ENDCHAR
STARTCHAR char126
ENCODING 126
SWIDTH 923 0
DWIDTH 14 0
BBX 14 14 0 -3
BITMAP
0000
0000
0000
0000
0000
0F0C
3F38
73F0
C3C0
0000
0000
0000
0000
0000
ENDCHAR
STARTCHAR char127
ENCODING 127
SWIDTH 923 0
DWIDTH 14 0
BBX 14 14 0 -3
BITMAP
0000
0000
0000
0000
0000
0000
0000
0000
0000
0000
0000
0000
0000
0000
ENDCHAR
ENDFONT
