STARTFONT 2.1
FONT -Misc-Powerline-Medium-R-Normal--20-145-100-100-C-100-ISO10646-1
SIZE 20 100 100
FONTBOUNDINGBOX 10 20 0 -6
STARTPROPERTIES 25
ADD_STYLE_NAME ""
AVERAGE_WIDTH 100
CAP_HEIGHT 11
CHARSET_ENCODING "1"
CHARSET_REGISTRY "ISO10646"
DEFAULT_CHAR 0
FACE_NAME "-Misc-Powerline-Medium-R-Normal--20-145-100-100-C-100-ISO10646-1"
FAMILY_NAME "Powerline"
FONTNAME_REGISTRY ""
FONT_ASCENT 14
FONT_DESCENT 6
FONT_VERSION "1.11"
FOUNDRY "Misc"
PIXEL_SIZE 28
POINT_SIZE 200
QUAD_WIDTH 10
RESOLUTION_X 100
RESOLUTION_Y 100
SETWIDTH_NAME "Normal"
SLANT "R"
SPACING "C"
WEIGHT 10
WEIGHT_NAME "Medium"
X_HEIGHT 8
_GBDFED_INFO "Edited with gbdfed 1.6."
ENDPROPERTIES
CHARS 7
STARTCHAR U+E0A0
ENCODING 57504
SWIDTH 360 0
DWIDTH 10 0
BBX 10 20 0 -6
BITMAP
C000
C200
C700
CF80
DAC0
C200
C200
C200
C200
C200
C600
8C00
1800
3000
6000
C000
C000
C000
C000
C000
ENDCHAR
STARTCHAR U+E0A1
ENCODING 57505
SWIDTH 360 0
DWIDTH 10 0
BBX 10 20 0 -6
BITMAP
0000
8000
8000
8000
8000
8000
8000
8000
8000
FF00
0000
0000
2040
3040
2840
2440
2240
2140
20C0
2040
ENDCHAR
STARTCHAR U+E0A2
ENCODING 57506
SWIDTH 360 0
DWIDTH 10 0
BBX 10 20 0 -6
BITMAP
1E00
2100
4080
4080
4080
4080
4080
4080
FFC0
FFC0
FFC0
FF40
FEC0
FD40
FAC0
F540
EAC0
D540
AAC0
FFC0
ENDCHAR
STARTCHAR U+E0B0
ENCODING 57520
SWIDTH 360 0
DWIDTH 10 0
BBX 10 20 0 -6
BITMAP
8000
C000
E000
F000
F800
FC00
FE00
FF00
FF80
FFC0
FFC0
FF80
FF00
FE00
FC00
F800
F000
E000
C000
8000
ENDCHAR
STARTCHAR U+E0B1
ENCODING 57521
SWIDTH 360 0
DWIDTH 10 0
BBX 10 20 0 -6
BITMAP
8000
4000
2000
1000
0800
0400
0200
0100
0080
0040
0040
0080
0100
0200
0400
0800
1000
2000
4000
8000
ENDCHAR
STARTCHAR U+E0B2
ENCODING 57522
SWIDTH 360 0
DWIDTH 10 0
BBX 10 20 0 -6
BITMAP
0040
00C0
01C0
03C0
07C0
0FC0
1FC0
3FC0
7FC0
FFC0
FFC0
7FC0
3FC0
1FC0
0FC0
07C0
03C0
01C0
00C0
0040
ENDCHAR
STARTCHAR U+E0B3
ENCODING 57523
SWIDTH 360 0
DWIDTH 10 0
BBX 10 20 0 -6
BITMAP
0040
0080
0100
0200
0400
0800
1000
2000
4000
8000
8000
4000
2000
1000
0800
0400
0200
0100
0080
0040
ENDCHAR
ENDFONT
