STARTFONT 2.1
FONT -ypn-envypn-Medium-R-Normal--15-150-75-75-C-90-ISO8859-2
SIZE 15 75 75
FONTBOUNDINGBOX 7 15 0 -3

STARTPROPERTIES 21
FOUNDRY "ypn"
FAMILY_NAME "envypn"
WEIGHT_NAME "Medium"
SLANT "R"
SETWIDTH_NAME "Normal"
SPACING "C"
CHARSET_REGISTRY "ISO8859"
CHARSET_ENCODING "2"
COPYRIGHT "Designed by Ypnose - http://ywstd.fr - Special thanks to mirabilos"
AVERAGE_WIDTH 90
PIXEL_SIZE 15
POINT_SIZE 150
RESOLUTION_X 75
RESOLUTION_Y 75
WEIGHT 10
X_HEIGHT 12
QUAD_WIDTH 7
_GBDFED_INFO "Edited with gbdfed 1.6."
DEFAULT_CHAR 0
FONT_DESCENT 3
FONT_ASCENT 12
ENDPROPERTIES

CHARS 203

STARTCHAR space
ENCODING 32
SWIDTH 448 0
DWIDTH 7 0
BBX 7 15 0 -3
BITMAP
00
00
00
00
00
00
00
00
00
00
00
00
00
00
00
ENDCHAR

STARTCHAR exclamation
ENCODING 33
SWIDTH 448 0
DWIDTH 7 0
BBX 7 15 0 -3
BITMAP
00
00
00
10
10
10
10
10
00
00
10
10
00
00
00
ENDCHAR

STARTCHAR dblquote
ENCODING 34
SWIDTH 448 0
DWIDTH 7 0
BBX 7 15 0 -3
BITMAP
00
00
48
48
48
48
00
00
00
00
00
00
00
00
00
ENDCHAR

STARTCHAR nmbrsign
ENCODING 35
SWIDTH 448 0
DWIDTH 7 0
BBX 7 15 0 -3
BITMAP
00
00
00
00
28
28
7C
28
7C
28
28
00
00
00
00
ENDCHAR

STARTCHAR dollar
ENCODING 36
SWIDTH 448 0
DWIDTH 7 0
BBX 7 15 0 -3
BITMAP
00
00
00
10
3C
50
50
38
14
14
14
78
10
00
00
ENDCHAR

STARTCHAR percent
ENCODING 37
SWIDTH 448 0
DWIDTH 7 0
BBX 7 15 0 -3
BITMAP
00
00
00
64
64
08
08
10
20
20
4C
4C
00
00
00
ENDCHAR

STARTCHAR ampersand
ENCODING 38
SWIDTH 448 0
DWIDTH 7 0
BBX 7 15 0 -3
BITMAP
00
00
00
30
48
48
30
20
54
48
48
34
00
00
00
ENDCHAR

STARTCHAR sglquote
ENCODING 39
SWIDTH 448 0
DWIDTH 7 0
BBX 7 15 0 -3
BITMAP
00
00
00
10
10
10
00
00
00
00
00
00
00
00
00
ENDCHAR

STARTCHAR leftparent
ENCODING 40
SWIDTH 448 0
DWIDTH 7 0
BBX 7 15 0 -3
BITMAP
00
00
08
10
20
20
20
20
20
20
20
10
08
00
00
ENDCHAR

STARTCHAR rightparent
ENCODING 41
SWIDTH 448 0
DWIDTH 7 0
BBX 7 15 0 -3
BITMAP
00
00
20
10
08
08
08
08
08
08
08
10
20
00
00
ENDCHAR

STARTCHAR asterisk
ENCODING 42
SWIDTH 448 0
DWIDTH 7 0
BBX 7 15 0 -3
BITMAP
00
00
00
00
00
10
54
38
38
54
10
00
00
00
00
ENDCHAR

STARTCHAR plus
ENCODING 43
SWIDTH 448 0
DWIDTH 7 0
BBX 7 15 0 -3
BITMAP
00
00
00
00
00
10
10
7C
10
10
00
00
00
00
00
ENDCHAR

STARTCHAR comma
ENCODING 44
SWIDTH 448 0
DWIDTH 7 0
BBX 7 15 0 -3
BITMAP
00
00
00
00
00
00
00
00
00
00
18
18
30
20
00
ENDCHAR

STARTCHAR dash
ENCODING 45
SWIDTH 448 0
DWIDTH 7 0
BBX 7 15 0 -3
BITMAP
00
00
00
00
00
00
00
7C
00
00
00
00
00
00
00
ENDCHAR

STARTCHAR dot
ENCODING 46
SWIDTH 448 0
DWIDTH 7 0
BBX 7 15 0 -3
BITMAP
00
00
00
00
00
00
00
00
00
00
18
18
00
00
00
ENDCHAR

STARTCHAR slashforw
ENCODING 47
SWIDTH 448 0
DWIDTH 7 0
BBX 7 15 0 -3
BITMAP
00
00
04
04
08
08
10
10
20
20
40
40
00
00
00
ENDCHAR

STARTCHAR zero
ENCODING 48
SWIDTH 448 0
DWIDTH 7 0
BBX 7 15 0 -3
BITMAP
00
00
00
38
44
4C
4C
54
64
64
44
38
00
00
00
ENDCHAR

STARTCHAR onehehe
ENCODING 49
SWIDTH 448 0
DWIDTH 7 0
BBX 7 15 0 -3
BITMAP
00
00
00
10
30
50
10
10
10
10
10
7C
00
00
00
ENDCHAR

STARTCHAR two
ENCODING 50
SWIDTH 448 0
DWIDTH 7 0
BBX 7 15 0 -3
BITMAP
00
00
00
38
44
44
08
10
20
40
40
7C
00
00
00
ENDCHAR

STARTCHAR three
ENCODING 51
SWIDTH 448 0
DWIDTH 7 0
BBX 7 15 0 -3
BITMAP
00
00
00
78
04
04
04
78
04
04
04
78
00
00
00
ENDCHAR

STARTCHAR four
ENCODING 52
SWIDTH 448 0
DWIDTH 7 0
BBX 7 15 0 -3
BITMAP
00
00
00
44
44
44
44
3C
04
04
04
04
00
00
00
ENDCHAR

STARTCHAR five
ENCODING 53
SWIDTH 448 0
DWIDTH 7 0
BBX 7 15 0 -3
BITMAP
00
00
00
7C
40
40
40
78
04
04
04
78
00
00
00
ENDCHAR

STARTCHAR six
ENCODING 54
SWIDTH 448 0
DWIDTH 7 0
BBX 7 15 0 -3
BITMAP
00
00
00
38
40
40
40
58
44
44
44
38
00
00
00
ENDCHAR

STARTCHAR seven
ENCODING 55
SWIDTH 448 0
DWIDTH 7 0
BBX 7 15 0 -3
BITMAP
00
00
00
7C
04
04
08
10
10
10
10
10
00
00
00
ENDCHAR

STARTCHAR eight
ENCODING 56
SWIDTH 448 0
DWIDTH 7 0
BBX 7 15 0 -3
BITMAP
00
00
00
38
44
44
44
38
44
44
44
38
00
00
00
ENDCHAR

STARTCHAR nine
ENCODING 57
SWIDTH 448 0
DWIDTH 7 0
BBX 7 15 0 -3
BITMAP
00
00
00
3C
44
44
44
3C
04
04
04
78
00
00
00
ENDCHAR

STARTCHAR colon
ENCODING 58
SWIDTH 448 0
DWIDTH 7 0
BBX 7 15 0 -3
BITMAP
00
00
00
00
18
18
00
00
00
18
18
00
00
00
00
ENDCHAR

STARTCHAR semicolon
ENCODING 59
SWIDTH 448 0
DWIDTH 7 0
BBX 7 15 0 -3
BITMAP
00
00
00
00
18
18
00
00
00
18
18
30
20
00
00
ENDCHAR

STARTCHAR lessthan
ENCODING 60
SWIDTH 448 0
DWIDTH 7 0
BBX 7 15 0 -3
BITMAP
00
00
00
04
0C
18
30
60
60
30
18
0C
04
00
00
ENDCHAR

STARTCHAR equalsign
ENCODING 61
SWIDTH 448 0
DWIDTH 7 0
BBX 7 15 0 -3
BITMAP
00
00
00
00
00
00
7C
00
00
7C
00
00
00
00
00
ENDCHAR

STARTCHAR greathan
ENCODING 62
SWIDTH 448 0
DWIDTH 7 0
BBX 7 15 0 -3
BITMAP
00
00
00
40
60
30
18
0C
0C
18
30
60
40
00
00
ENDCHAR

STARTCHAR question
ENCODING 63
SWIDTH 448 0
DWIDTH 7 0
BBX 7 15 0 -3
BITMAP
00
00
00
38
44
44
08
10
00
00
10
10
00
00
00
ENDCHAR

STARTCHAR at
ENCODING 64
SWIDTH 448 0
DWIDTH 7 0
BBX 7 15 0 -3
BITMAP
00
00
00
00
38
44
5C
54
54
5C
40
44
38
00
00
ENDCHAR

STARTCHAR A
ENCODING 65
SWIDTH 448 0
DWIDTH 7 0
BBX 7 15 0 -3
BITMAP
00
00
00
38
44
44
44
7C
44
44
44
44
00
00
00
ENDCHAR

STARTCHAR B
ENCODING 66
SWIDTH 448 0
DWIDTH 7 0
BBX 7 15 0 -3
BITMAP
00
00
00
78
44
44
44
78
44
44
44
78
00
00
00
ENDCHAR

STARTCHAR C
ENCODING 67
SWIDTH 448 0
DWIDTH 7 0
BBX 7 15 0 -3
BITMAP
00
00
00
38
44
40
40
40
40
40
44
38
00
00
00
ENDCHAR

STARTCHAR D
ENCODING 68
SWIDTH 448 0
DWIDTH 7 0
BBX 7 15 0 -3
BITMAP
00
00
00
78
44
44
44
44
44
44
44
78
00
00
00
ENDCHAR

STARTCHAR E
ENCODING 69
SWIDTH 448 0
DWIDTH 7 0
BBX 7 15 0 -3
BITMAP
00
00
00
7C
40
40
40
78
40
40
40
7C
00
00
00
ENDCHAR

STARTCHAR F
ENCODING 70
SWIDTH 448 0
DWIDTH 7 0
BBX 7 15 0 -3
BITMAP
00
00
00
7C
40
40
40
78
40
40
40
40
00
00
00
ENDCHAR

STARTCHAR G
ENCODING 71
SWIDTH 448 0
DWIDTH 7 0
BBX 7 15 0 -3
BITMAP
00
00
00
38
44
40
40
5C
44
44
4C
34
00
00
00
ENDCHAR

STARTCHAR H
ENCODING 72
SWIDTH 448 0
DWIDTH 7 0
BBX 7 15 0 -3
BITMAP
00
00
00
44
44
44
44
7C
44
44
44
44
00
00
00
ENDCHAR

STARTCHAR I
ENCODING 73
SWIDTH 448 0
DWIDTH 7 0
BBX 7 15 0 -3
BITMAP
00
00
00
7C
10
10
10
10
10
10
10
7C
00
00
00
ENDCHAR

STARTCHAR J
ENCODING 74
SWIDTH 448 0
DWIDTH 7 0
BBX 7 15 0 -3
BITMAP
00
00
00
1C
24
04
04
04
04
04
44
38
00
00
00
ENDCHAR

STARTCHAR K
ENCODING 75
SWIDTH 448 0
DWIDTH 7 0
BBX 7 15 0 -3
BITMAP
00
00
00
44
48
50
60
60
50
48
44
44
00
00
00
ENDCHAR

STARTCHAR L
ENCODING 76
SWIDTH 448 0
DWIDTH 7 0
BBX 7 15 0 -3
BITMAP
00
00
00
40
40
40
40
40
40
40
40
7C
00
00
00
ENDCHAR

STARTCHAR M
ENCODING 77
SWIDTH 448 0
DWIDTH 7 0
BBX 7 15 0 -3
BITMAP
00
00
00
44
6C
7C
54
54
44
44
44
44
00
00
00
ENDCHAR

STARTCHAR N
ENCODING 78
SWIDTH 448 0
DWIDTH 7 0
BBX 7 15 0 -3
BITMAP
00
00
00
44
64
54
4C
44
44
44
44
44
00
00
00
ENDCHAR

STARTCHAR O
ENCODING 79
SWIDTH 448 0
DWIDTH 7 0
BBX 7 15 0 -3
BITMAP
00
00
00
38
44
44
44
44
44
44
44
38
00
00
00
ENDCHAR

STARTCHAR P
ENCODING 80
SWIDTH 448 0
DWIDTH 7 0
BBX 7 15 0 -3
BITMAP
00
00
00
78
44
44
44
78
40
40
40
40
00
00
00
ENDCHAR

STARTCHAR Q
ENCODING 81
SWIDTH 448 0
DWIDTH 7 0
BBX 7 15 0 -3
BITMAP
00
00
00
38
44
44
44
44
44
54
4C
38
08
08
08
ENDCHAR

STARTCHAR R
ENCODING 82
SWIDTH 448 0
DWIDTH 7 0
BBX 7 15 0 -3
BITMAP
00
00
00
78
44
44
44
78
50
48
48
44
00
00
00
ENDCHAR

STARTCHAR S
ENCODING 83
SWIDTH 448 0
DWIDTH 7 0
BBX 7 15 0 -3
BITMAP
00
00
00
3C
40
40
40
38
04
04
04
78
00
00
00
ENDCHAR

STARTCHAR T
ENCODING 84
SWIDTH 448 0
DWIDTH 7 0
BBX 7 15 0 -3
BITMAP
00
00
00
7C
10
10
10
10
10
10
10
10
00
00
00
ENDCHAR

STARTCHAR U
ENCODING 85
SWIDTH 448 0
DWIDTH 7 0
BBX 7 15 0 -3
BITMAP
00
00
00
44
44
44
44
44
44
44
44
38
00
00
00
ENDCHAR

STARTCHAR V
ENCODING 86
SWIDTH 448 0
DWIDTH 7 0
BBX 7 15 0 -3
BITMAP
00
00
00
44
44
44
44
44
44
44
28
10
00
00
00
ENDCHAR

STARTCHAR W
ENCODING 87
SWIDTH 448 0
DWIDTH 7 0
BBX 7 15 0 -3
BITMAP
00
00
00
44
44
44
44
54
54
7C
6C
44
00
00
00
ENDCHAR

STARTCHAR X
ENCODING 88
SWIDTH 448 0
DWIDTH 7 0
BBX 7 15 0 -3
BITMAP
00
00
00
44
44
44
28
10
28
44
44
44
00
00
00
ENDCHAR

STARTCHAR Y
ENCODING 89
SWIDTH 448 0
DWIDTH 7 0
BBX 7 15 0 -3
BITMAP
00
00
00
44
44
44
44
28
10
10
10
10
00
00
00
ENDCHAR

STARTCHAR Z
ENCODING 90
SWIDTH 448 0
DWIDTH 7 0
BBX 7 15 0 -3
BITMAP
00
00
00
7C
04
08
08
10
20
20
40
7C
00
00
00
ENDCHAR

STARTCHAR leftbrack
ENCODING 91
SWIDTH 448 0
DWIDTH 7 0
BBX 7 15 0 -3
BITMAP
00
00
38
20
20
20
20
20
20
20
20
20
38
00
00
ENDCHAR

STARTCHAR backslash
ENCODING 92
SWIDTH 448 0
DWIDTH 7 0
BBX 7 15 0 -3
BITMAP
00
00
40
40
20
20
10
10
08
08
04
04
00
00
00
ENDCHAR

STARTCHAR rightbrack
ENCODING 93
SWIDTH 448 0
DWIDTH 7 0
BBX 7 15 0 -3
BITMAP
00
00
38
08
08
08
08
08
08
08
08
08
38
00
00
ENDCHAR

STARTCHAR cirumflex
ENCODING 94
SWIDTH 448 0
DWIDTH 7 0
BBX 7 15 0 -3
BITMAP
00
00
00
00
10
38
6C
44
00
00
00
00
00
00
00
ENDCHAR

STARTCHAR underscore
ENCODING 95
SWIDTH 448 0
DWIDTH 7 0
BBX 7 15 0 -3
BITMAP
00
00
00
00
00
00
00
00
00
00
00
00
7C
00
00
ENDCHAR

STARTCHAR grave
ENCODING 96
SWIDTH 448 0
DWIDTH 7 0
BBX 7 15 0 -3
BITMAP
00
00
00
00
00
10
18
08
00
00
00
00
00
00
00
ENDCHAR

STARTCHAR a
ENCODING 97
SWIDTH 448 0
DWIDTH 7 0
BBX 7 15 0 -3
BITMAP
00
00
00
00
00
3C
44
44
44
44
44
3C
00
00
00
ENDCHAR

STARTCHAR b
ENCODING 98
SWIDTH 448 0
DWIDTH 7 0
BBX 7 15 0 -3
BITMAP
00
00
00
40
40
78
44
44
44
44
44
78
00
00
00
ENDCHAR

STARTCHAR c
ENCODING 99
SWIDTH 448 0
DWIDTH 7 0
BBX 7 15 0 -3
BITMAP
00
00
00
00
00
38
44
40
40
40
44
38
00
00
00
ENDCHAR

STARTCHAR d
ENCODING 100
SWIDTH 448 0
DWIDTH 7 0
BBX 7 15 0 -3
BITMAP
00
00
00
04
04
3C
44
44
44
44
44
3C
00
00
00
ENDCHAR

STARTCHAR e
ENCODING 101
SWIDTH 448 0
DWIDTH 7 0
BBX 7 15 0 -3
BITMAP
00
00
00
00
00
38
44
44
78
40
40
3C
00
00
00
ENDCHAR

STARTCHAR f
ENCODING 102
SWIDTH 448 0
DWIDTH 7 0
BBX 7 15 0 -3
BITMAP
00
00
00
1C
20
20
7C
20
20
20
20
20
00
00
00
ENDCHAR

STARTCHAR g
ENCODING 103
SWIDTH 448 0
DWIDTH 7 0
BBX 7 15 0 -3
BITMAP
00
00
00
00
00
3C
44
44
44
44
44
3C
04
04
78
ENDCHAR

STARTCHAR h
ENCODING 104
SWIDTH 448 0
DWIDTH 7 0
BBX 7 15 0 -3
BITMAP
00
00
00
40
40
78
44
44
44
44
44
44
00
00
00
ENDCHAR

STARTCHAR i
ENCODING 105
SWIDTH 448 0
DWIDTH 7 0
BBX 7 15 0 -3
BITMAP
00
00
00
10
00
70
10
10
10
10
10
1C
00
00
00
ENDCHAR

STARTCHAR j
ENCODING 106
SWIDTH 448 0
DWIDTH 7 0
BBX 7 15 0 -3
BITMAP
00
00
00
08
00
38
08
08
08
08
08
08
08
08
70
ENDCHAR

STARTCHAR k
ENCODING 107
SWIDTH 448 0
DWIDTH 7 0
BBX 7 15 0 -3
BITMAP
00
00
00
40
40
44
48
50
60
50
48
44
00
00
00
ENDCHAR

STARTCHAR l
ENCODING 108
SWIDTH 448 0
DWIDTH 7 0
BBX 7 15 0 -3
BITMAP
00
00
00
70
10
10
10
10
10
10
10
18
00
00
00
ENDCHAR

STARTCHAR m
ENCODING 109
SWIDTH 448 0
DWIDTH 7 0
BBX 7 15 0 -3
BITMAP
00
00
00
00
00
78
54
54
54
44
44
44
00
00
00
ENDCHAR

STARTCHAR n
ENCODING 110
SWIDTH 448 0
DWIDTH 7 0
BBX 7 15 0 -3
BITMAP
00
00
00
00
00
78
44
44
44
44
44
44
00
00
00
ENDCHAR

STARTCHAR o
ENCODING 111
SWIDTH 448 0
DWIDTH 7 0
BBX 7 15 0 -3
BITMAP
00
00
00
00
00
38
44
44
44
44
44
38
00
00
00
ENDCHAR

STARTCHAR p
ENCODING 112
SWIDTH 448 0
DWIDTH 7 0
BBX 7 15 0 -3
BITMAP
00
00
00
00
00
78
44
44
44
44
44
78
40
40
40
ENDCHAR

STARTCHAR q
ENCODING 113
SWIDTH 448 0
DWIDTH 7 0
BBX 7 15 0 -3
BITMAP
00
00
00
00
00
3C
44
44
44
44
44
3C
04
04
04
ENDCHAR

STARTCHAR r
ENCODING 114
SWIDTH 448 0
DWIDTH 7 0
BBX 7 15 0 -3
BITMAP
00
00
00
00
00
5C
60
40
40
40
40
40
00
00
00
ENDCHAR

STARTCHAR s
ENCODING 115
SWIDTH 448 0
DWIDTH 7 0
BBX 7 15 0 -3
BITMAP
00
00
00
00
00
3C
40
40
38
04
04
78
00
00
00
ENDCHAR

STARTCHAR t
ENCODING 116
SWIDTH 448 0
DWIDTH 7 0
BBX 7 15 0 -3
BITMAP
00
00
00
20
20
78
20
20
20
20
20
1C
00
00
00
ENDCHAR

STARTCHAR u
ENCODING 117
SWIDTH 448 0
DWIDTH 7 0
BBX 7 15 0 -3
BITMAP
00
00
00
00
00
44
44
44
44
44
44
3C
00
00
00
ENDCHAR

STARTCHAR v
ENCODING 118
SWIDTH 448 0
DWIDTH 7 0
BBX 7 15 0 -3
BITMAP
00
00
00
00
00
44
44
44
44
44
28
10
00
00
00
ENDCHAR

STARTCHAR w
ENCODING 119
SWIDTH 448 0
DWIDTH 7 0
BBX 7 15 0 -3
BITMAP
00
00
00
00
00
44
44
44
54
54
54
38
00
00
00
ENDCHAR

STARTCHAR x
ENCODING 120
SWIDTH 448 0
DWIDTH 7 0
BBX 7 15 0 -3
BITMAP
00
00
00
00
00
44
44
28
10
28
44
44
00
00
00
ENDCHAR

STARTCHAR y
ENCODING 121
SWIDTH 448 0
DWIDTH 7 0
BBX 7 15 0 -3
BITMAP
00
00
00
00
00
44
44
44
44
44
44
3C
04
04
78
ENDCHAR

STARTCHAR z
ENCODING 122
SWIDTH 448 0
DWIDTH 7 0
BBX 7 15 0 -3
BITMAP
00
00
00
00
00
7C
04
08
10
20
40
7C
00
00
00
ENDCHAR

STARTCHAR leftbrace
ENCODING 123
SWIDTH 448 0
DWIDTH 7 0
BBX 7 15 0 -3
BITMAP
00
00
0C
10
10
10
10
60
10
10
10
10
0C
00
00
ENDCHAR

STARTCHAR vertbar
ENCODING 124
SWIDTH 448 0
DWIDTH 7 0
BBX 7 15 0 -3
BITMAP
00
00
10
10
10
10
10
10
10
10
10
10
10
00
00
ENDCHAR

STARTCHAR rightbrace
ENCODING 125
SWIDTH 448 0
DWIDTH 7 0
BBX 7 15 0 -3
BITMAP
00
00
60
10
10
10
10
0C
10
10
10
10
60
00
00
ENDCHAR

STARTCHAR tilde
ENCODING 126
SWIDTH 448 0
DWIDTH 7 0
BBX 7 15 0 -3
BITMAP
00
00
00
00
00
24
54
48
00
00
00
00
00
00
00
ENDCHAR

STARTCHAR capitalOE
ENCODING 140
SWIDTH 448 0
DWIDTH 7 0
BBX 7 15 0 -3
BITMAP
00
00
00
3E
48
48
48
4C
48
48
48
3E
00
00
00
ENDCHAR

STARTCHAR smalloe
ENCODING 156
SWIDTH 448 0
DWIDTH 7 0
BBX 7 15 0 -3
BITMAP
00
00
00
00
00
3E
48
48
4E
48
48
3E
00
00
00
ENDCHAR

STARTCHAR nonbreak
ENCODING 160
SWIDTH 448 0
DWIDTH 7 0
BBX 7 15 0 -3
BITMAP
00
00
00
00
00
00
00
00
00
00
00
00
00
00
00
ENDCHAR

STARTCHAR Aogonek
ENCODING 161
SWIDTH 448 0
DWIDTH 7 0
BBX 7 15 0 -3
BITMAP
00
00
00
38
44
44
44
7C
44
44
44
44
0C
10
0C
ENDCHAR

STARTCHAR breve
ENCODING 162
SWIDTH 448 0
DWIDTH 7 0
BBX 7 15 0 -3
BITMAP
00
00
00
00
44
44
38
00
00
00
00
00
00
00
00
ENDCHAR

STARTCHAR Lstroke
ENCODING 163
SWIDTH 448 0
DWIDTH 7 0
BBX 7 15 0 -3
BITMAP
00
00
00
20
20
28
30
60
20
20
20
3C
00
00
00
ENDCHAR

STARTCHAR currency
ENCODING 164
SWIDTH 448 0
DWIDTH 7 0
BBX 7 15 0 -3
BITMAP
00
00
00
00
44
38
44
44
44
38
44
00
00
00
00
ENDCHAR

STARTCHAR Lcaron
ENCODING 165
SWIDTH 448 0
DWIDTH 7 0
BBX 7 15 0 -3
BITMAP
00
00
00
44
44
40
40
40
40
40
40
7C
00
00
00
ENDCHAR

STARTCHAR Sacute
ENCODING 166
SWIDTH 448 0
DWIDTH 7 0
BBX 7 15 0 -3
BITMAP
08
10
00
3C
40
40
40
38
04
04
04
78
00
00
00
ENDCHAR

STARTCHAR section
ENCODING 167
SWIDTH 448 0
DWIDTH 7 0
BBX 7 15 0 -3
BITMAP
00
00
00
3C
40
50
28
44
28
14
04
78
00
00
00
ENDCHAR

STARTCHAR diaeresis
ENCODING 168
SWIDTH 448 0
DWIDTH 7 0
BBX 7 15 0 -3
BITMAP
00
00
48
48
00
00
00
00
00
00
00
00
00
00
00
ENDCHAR

STARTCHAR Scaron
ENCODING 169
SWIDTH 448 0
DWIDTH 7 0
BBX 7 15 0 -3
BITMAP
28
10
00
3C
40
40
40
38
04
04
04
78
00
00
00
ENDCHAR

STARTCHAR Scedilla
ENCODING 170
SWIDTH 448 0
DWIDTH 7 0
BBX 7 15 0 -3
BITMAP
00
00
00
3C
40
40
40
38
04
04
04
78
10
30
00
ENDCHAR

STARTCHAR Tcaron
ENCODING 171
SWIDTH 448 0
DWIDTH 7 0
BBX 7 15 0 -3
BITMAP
28
10
00
7C
10
10
10
10
10
10
10
10
00
00
00
ENDCHAR

STARTCHAR Zacute
ENCODING 172
SWIDTH 448 0
DWIDTH 7 0
BBX 7 15 0 -3
BITMAP
08
10
00
7C
04
08
08
10
20
20
40
7C
00
00
00
ENDCHAR

STARTCHAR softhyphen
ENCODING 173
SWIDTH 448 0
DWIDTH 7 0
BBX 7 15 0 -3
BITMAP
00
00
00
00
00
00
00
38
00
00
00
00
00
00
00
ENDCHAR

STARTCHAR Zcaron
ENCODING 174
SWIDTH 448 0
DWIDTH 7 0
BBX 7 15 0 -3
BITMAP
28
10
00
7C
04
08
08
10
20
20
40
7C
00
00
00
ENDCHAR

STARTCHAR Zdot
ENCODING 175
SWIDTH 448 0
DWIDTH 7 0
BBX 7 15 0 -3
BITMAP
00
10
00
7C
04
08
08
10
20
20
40
7C
00
00
00
ENDCHAR

STARTCHAR degree
ENCODING 176
SWIDTH 448 0
DWIDTH 7 0
BBX 7 15 0 -3
BITMAP
00
00
1C
14
14
1C
00
00
00
00
00
00
00
00
00
ENDCHAR

STARTCHAR aogonek
ENCODING 177
SWIDTH 448 0
DWIDTH 7 0
BBX 7 15 0 -3
BITMAP
00
00
20
10
00
3C
44
44
44
44
44
3C
10
0C
00
ENDCHAR

STARTCHAR ogonek
ENCODING 178
SWIDTH 448 0
DWIDTH 7 0
BBX 7 15 0 -3
BITMAP
00
00
00
00
00
00
00
00
00
00
0C
10
0C
00
00
ENDCHAR

STARTCHAR lstroke
ENCODING 179
SWIDTH 448 0
DWIDTH 7 0
BBX 7 15 0 -3
BITMAP
00
00
00
70
10
14
18
30
10
10
10
18
00
00
00
ENDCHAR

STARTCHAR acute
ENCODING 180
SWIDTH 448 0
DWIDTH 7 0
BBX 7 15 0 -3
BITMAP
00
08
18
10
00
00
00
00
00
00
00
00
00
00
00
ENDCHAR

STARTCHAR lcaron
ENCODING 181
SWIDTH 448 0
DWIDTH 7 0
BBX 7 15 0 -3
BITMAP
00
00
00
74
14
10
10
10
10
10
10
18
00
00
00
ENDCHAR

STARTCHAR sacute
ENCODING 182
SWIDTH 448 0
DWIDTH 7 0
BBX 7 15 0 -3
BITMAP
00
00
08
10
00
3C
40
40
38
04
04
78
00
00
00
ENDCHAR

STARTCHAR caron
ENCODING 183
SWIDTH 448 0
DWIDTH 7 0
BBX 7 15 0 -3
BITMAP
00
28
10
00
00
00
00
00
00
00
00
00
00
00
00
ENDCHAR

STARTCHAR cedilla
ENCODING 184
SWIDTH 448 0
DWIDTH 7 0
BBX 7 15 0 -3
BITMAP
00
00
00
00
00
00
00
00
00
00
08
18
10
00
00
ENDCHAR

STARTCHAR scaron
ENCODING 185
SWIDTH 448 0
DWIDTH 7 0
BBX 7 15 0 -3
BITMAP
00
00
28
10
00
3C
40
40
38
04
04
78
00
00
00
ENDCHAR

STARTCHAR scedilla
ENCODING 186
SWIDTH 448 0
DWIDTH 7 0
BBX 7 15 0 -3
BITMAP
00
00
00
00
00
3C
40
40
38
04
04
78
10
30
00
ENDCHAR

STARTCHAR tcaron
ENCODING 187
SWIDTH 448 0
DWIDTH 7 0
BBX 7 15 0 -3
BITMAP
00
00
00
24
24
78
20
20
20
20
20
1C
00
00
00
ENDCHAR

STARTCHAR zacute
ENCODING 188
SWIDTH 448 0
DWIDTH 7 0
BBX 7 15 0 -3
BITMAP
00
00
08
10
00
7C
04
08
10
20
40
7C
00
00
00
ENDCHAR

STARTCHAR dblacute
ENCODING 189
SWIDTH 448 0
DWIDTH 7 0
BBX 7 15 0 -3
BITMAP
00
00
14
28
00
00
00
00
00
00
00
00
00
00
00
ENDCHAR

STARTCHAR zcaron
ENCODING 190
SWIDTH 448 0
DWIDTH 7 0
BBX 7 15 0 -3
BITMAP
00
00
28
10
00
7C
04
08
10
20
40
7C
00
00
00
ENDCHAR

STARTCHAR zdot
ENCODING 191
SWIDTH 448 0
DWIDTH 7 0
BBX 7 15 0 -3
BITMAP
00
00
00
10
00
7C
04
08
10
20
40
7C
00
00
00
ENDCHAR

STARTCHAR Racute
ENCODING 192
SWIDTH 448 0
DWIDTH 7 0
BBX 7 15 0 -3
BITMAP
08
10
00
78
44
44
44
78
50
48
48
44
00
00
00
ENDCHAR

STARTCHAR Aacute
ENCODING 193
SWIDTH 448 0
DWIDTH 7 0
BBX 7 15 0 -3
BITMAP
08
10
00
38
44
44
44
7C
44
44
44
44
00
00
00
ENDCHAR

STARTCHAR Acircum
ENCODING 194
SWIDTH 448 0
DWIDTH 7 0
BBX 7 15 0 -3
BITMAP
10
28
00
38
44
44
44
7C
44
44
44
44
00
00
00
ENDCHAR

STARTCHAR Abreve
ENCODING 195
SWIDTH 448 0
DWIDTH 7 0
BBX 7 15 0 -3
BITMAP
44
38
00
38
44
44
44
7C
44
44
44
44
00
00
00
ENDCHAR

STARTCHAR Adiaeresis
ENCODING 196
SWIDTH 448 0
DWIDTH 7 0
BBX 7 15 0 -3
BITMAP
00
28
00
38
44
44
44
7C
44
44
44
44
00
00
00
ENDCHAR

STARTCHAR Lacute
ENCODING 197
SWIDTH 448 0
DWIDTH 7 0
BBX 7 15 0 -3
BITMAP
08
10
00
40
40
40
40
40
40
40
40
7C
00
00
00
ENDCHAR

STARTCHAR Cacute
ENCODING 198
SWIDTH 448 0
DWIDTH 7 0
BBX 7 15 0 -3
BITMAP
08
10
00
38
44
40
40
40
40
40
44
38
00
00
00
ENDCHAR

STARTCHAR Ccedilla
ENCODING 199
SWIDTH 448 0
DWIDTH 7 0
BBX 7 15 0 -3
BITMAP
00
00
00
38
44
40
40
40
40
40
44
38
10
30
00
ENDCHAR

STARTCHAR Ccaron
ENCODING 200
SWIDTH 448 0
DWIDTH 7 0
BBX 7 15 0 -3
BITMAP
28
10
00
38
44
40
40
40
40
40
44
38
00
00
00
ENDCHAR

STARTCHAR Eacute
ENCODING 201
SWIDTH 448 0
DWIDTH 7 0
BBX 7 15 0 -3
BITMAP
08
10
00
7C
40
40
40
78
40
40
40
7C
00
00
00
ENDCHAR

STARTCHAR Eogonek
ENCODING 202
SWIDTH 448 0
DWIDTH 7 0
BBX 7 15 0 -3
BITMAP
08
10
00
7C
40
40
40
78
40
40
40
7C
10
0C
00
ENDCHAR

STARTCHAR Ediaeresis
ENCODING 203
SWIDTH 448 0
DWIDTH 7 0
BBX 7 15 0 -3
BITMAP
00
28
00
7C
40
40
40
78
40
40
40
7C
00
00
00
ENDCHAR

STARTCHAR Ecaron
ENCODING 204
SWIDTH 448 0
DWIDTH 7 0
BBX 7 15 0 -3
BITMAP
28
10
00
7C
40
40
40
78
40
40
40
7C
00
00
00
ENDCHAR

STARTCHAR Iacute
ENCODING 205
SWIDTH 448 0
DWIDTH 7 0
BBX 7 15 0 -3
BITMAP
08
10
00
7C
10
10
10
10
10
10
10
7C
00
00
00
ENDCHAR

STARTCHAR Icircum
ENCODING 206
SWIDTH 448 0
DWIDTH 7 0
BBX 7 15 0 -3
BITMAP
10
28
00
7C
10
10
10
10
10
10
10
7C
00
00
00
ENDCHAR

STARTCHAR Dcaron
ENCODING 207
SWIDTH 448 0
DWIDTH 7 0
BBX 7 15 0 -3
BITMAP
28
10
00
78
44
44
44
44
44
44
44
78
00
00
00
ENDCHAR

STARTCHAR Dstroke
ENCODING 208
SWIDTH 448 0
DWIDTH 7 0
BBX 7 15 0 -3
BITMAP
00
00
00
78
44
44
44
F4
44
44
44
78
00
00
00
ENDCHAR

STARTCHAR Nacute
ENCODING 209
SWIDTH 448 0
DWIDTH 7 0
BBX 7 15 0 -3
BITMAP
08
10
00
44
64
54
4C
44
44
44
44
44
00
00
00
ENDCHAR

STARTCHAR Ncaron
ENCODING 210
SWIDTH 448 0
DWIDTH 7 0
BBX 7 15 0 -3
BITMAP
28
10
00
44
64
54
4C
44
44
44
44
44
00
00
00
ENDCHAR

STARTCHAR Oacute
ENCODING 211
SWIDTH 448 0
DWIDTH 7 0
BBX 7 15 0 -3
BITMAP
08
10
00
38
44
44
44
44
44
44
44
38
00
00
00
ENDCHAR

STARTCHAR Ocircum
ENCODING 212
SWIDTH 448 0
DWIDTH 7 0
BBX 7 15 0 -3
BITMAP
10
28
00
38
44
44
44
44
44
44
44
38
00
00
00
ENDCHAR

STARTCHAR Odblacute
ENCODING 213
SWIDTH 448 0
DWIDTH 7 0
BBX 7 15 0 -3
BITMAP
14
28
00
38
44
44
44
44
44
44
44
38
00
00
00
ENDCHAR

STARTCHAR Odiaeresis
ENCODING 214
SWIDTH 448 0
DWIDTH 7 0
BBX 7 15 0 -3
BITMAP
00
28
00
38
44
44
44
44
44
44
44
38
00
00
00
ENDCHAR

STARTCHAR multipli
ENCODING 215
SWIDTH 448 0
DWIDTH 7 0
BBX 7 15 0 -3
BITMAP
00
00
00
00
00
44
28
10
28
44
00
00
00
00
00
ENDCHAR

STARTCHAR Rcaron
ENCODING 216
SWIDTH 448 0
DWIDTH 7 0
BBX 7 15 0 -3
BITMAP
28
10
00
78
44
44
44
78
50
48
48
44
00
00
00
ENDCHAR

STARTCHAR Uring
ENCODING 217
SWIDTH 448 0
DWIDTH 7 0
BBX 7 15 0 -3
BITMAP
10
28
10
44
44
44
44
44
44
44
44
38
00
00
00
ENDCHAR

STARTCHAR Uacute
ENCODING 218
SWIDTH 448 0
DWIDTH 7 0
BBX 7 15 0 -3
BITMAP
08
10
00
44
44
44
44
44
44
44
44
38
00
00
00
ENDCHAR

STARTCHAR Udblacute
ENCODING 219
SWIDTH 448 0
DWIDTH 7 0
BBX 7 15 0 -3
BITMAP
14
28
00
44
44
44
44
44
44
44
44
38
00
00
00
ENDCHAR

STARTCHAR Udiaeresis
ENCODING 220
SWIDTH 448 0
DWIDTH 7 0
BBX 7 15 0 -3
BITMAP
00
28
00
44
44
44
44
44
44
44
44
38
00
00
00
ENDCHAR

STARTCHAR Yacute
ENCODING 221
SWIDTH 448 0
DWIDTH 7 0
BBX 7 15 0 -3
BITMAP
08
10
00
44
44
44
44
28
10
10
10
10
00
00
00
ENDCHAR

STARTCHAR Tcedilla
ENCODING 222
SWIDTH 448 0
DWIDTH 7 0
BBX 7 15 0 -3
BITMAP
28
10
00
7C
10
10
10
10
10
10
10
10
10
30
00
ENDCHAR

STARTCHAR sharps
ENCODING 223
SWIDTH 448 0
DWIDTH 7 0
BBX 7 15 0 -3
BITMAP
00
00
00
38
44
44
44
58
44
44
54
48
00
00
00
ENDCHAR

STARTCHAR racute
ENCODING 224
SWIDTH 448 0
DWIDTH 7 0
BBX 7 15 0 -3
BITMAP
00
00
08
10
00
5C
60
40
40
40
40
40
00
00
00
ENDCHAR

STARTCHAR aacute
ENCODING 225
SWIDTH 448 0
DWIDTH 7 0
BBX 7 15 0 -3
BITMAP
00
00
08
10
00
3C
44
44
44
44
44
3C
00
00
00
ENDCHAR

STARTCHAR acircum
ENCODING 226
SWIDTH 448 0
DWIDTH 7 0
BBX 7 15 0 -3
BITMAP
00
00
10
28
00
3C
44
44
44
44
44
3C
00
00
00
ENDCHAR

STARTCHAR abreve
ENCODING 227
SWIDTH 448 0
DWIDTH 7 0
BBX 7 15 0 -3
BITMAP
00
00
24
18
00
3C
44
44
44
44
44
3C
00
00
00
ENDCHAR

STARTCHAR adiaeresis
ENCODING 228
SWIDTH 448 0
DWIDTH 7 0
BBX 7 15 0 -3
BITMAP
00
00
00
28
00
3C
44
44
44
44
44
3C
00
00
00
ENDCHAR

STARTCHAR lacute
ENCODING 229
SWIDTH 448 0
DWIDTH 7 0
BBX 7 15 0 -3
BITMAP
08
10
00
70
10
10
10
10
10
10
10
18
00
00
00
ENDCHAR

STARTCHAR cacute
ENCODING 230
SWIDTH 448 0
DWIDTH 7 0
BBX 7 15 0 -3
BITMAP
00
00
08
10
00
38
44
40
40
40
44
38
00
00
00
ENDCHAR

STARTCHAR ccedilla
ENCODING 231
SWIDTH 448 0
DWIDTH 7 0
BBX 7 15 0 -3
BITMAP
00
00
00
00
00
38
44
40
40
40
44
38
10
30
00
ENDCHAR

STARTCHAR ccaron
ENCODING 232
SWIDTH 448 0
DWIDTH 7 0
BBX 7 15 0 -3
BITMAP
00
00
28
10
00
38
44
40
40
40
44
38
00
00
00
ENDCHAR

STARTCHAR eacute
ENCODING 233
SWIDTH 448 0
DWIDTH 7 0
BBX 7 15 0 -3
BITMAP
00
00
08
10
00
38
44
44
7C
40
40
3C
00
00
00
ENDCHAR

STARTCHAR eogonek
ENCODING 234
SWIDTH 448 0
DWIDTH 7 0
BBX 7 15 0 -3
BITMAP
00
00
00
00
00
38
44
44
7C
40
40
3C
10
18
00
ENDCHAR

STARTCHAR ediaeresis
ENCODING 235
SWIDTH 448 0
DWIDTH 7 0
BBX 7 15 0 -3
BITMAP
00
00
00
28
00
38
44
44
7C
40
40
3C
00
00
00
ENDCHAR

STARTCHAR ecaron
ENCODING 236
SWIDTH 448 0
DWIDTH 7 0
BBX 7 15 0 -3
BITMAP
00
00
28
10
00
38
44
44
7C
40
40
3C
00
00
00
ENDCHAR

STARTCHAR iacute
ENCODING 237
SWIDTH 448 0
DWIDTH 7 0
BBX 7 15 0 -3
BITMAP
00
00
08
10
00
70
10
10
10
10
10
1C
00
00
00
ENDCHAR

STARTCHAR icircum
ENCODING 238
SWIDTH 448 0
DWIDTH 7 0
BBX 7 15 0 -3
BITMAP
00
00
10
28
00
70
10
10
10
10
10
1C
00
00
00
ENDCHAR

STARTCHAR dcaron
ENCODING 239
SWIDTH 448 0
DWIDTH 7 0
BBX 7 15 0 -3
BITMAP
00
28
10
04
04
3C
44
44
44
44
44
3C
00
00
00
ENDCHAR

STARTCHAR dstroke
ENCODING 240
SWIDTH 448 0
DWIDTH 7 0
BBX 7 15 0 -3
BITMAP
00
00
00
1C
04
3C
44
44
44
44
44
3C
00
00
00
ENDCHAR

STARTCHAR nacute
ENCODING 241
SWIDTH 448 0
DWIDTH 7 0
BBX 7 15 0 -3
BITMAP
00
00
08
10
00
78
44
44
44
44
44
44
00
00
00
ENDCHAR

STARTCHAR ncaron
ENCODING 242
SWIDTH 448 0
DWIDTH 7 0
BBX 7 15 0 -3
BITMAP
00
00
28
10
00
78
44
44
44
44
44
44
00
00
00
ENDCHAR

STARTCHAR oacute
ENCODING 243
SWIDTH 448 0
DWIDTH 7 0
BBX 7 15 0 -3
BITMAP
00
00
08
10
00
38
44
44
44
44
44
38
00
00
00
ENDCHAR

STARTCHAR ocircum
ENCODING 244
SWIDTH 448 0
DWIDTH 7 0
BBX 7 15 0 -3
BITMAP
00
00
10
28
00
38
44
44
44
44
44
38
00
00
00
ENDCHAR

STARTCHAR odblacute
ENCODING 245
SWIDTH 448 0
DWIDTH 7 0
BBX 7 15 0 -3
BITMAP
00
00
14
28
00
38
44
44
44
44
44
38
00
00
00
ENDCHAR

STARTCHAR odiaeresis
ENCODING 246
SWIDTH 448 0
DWIDTH 7 0
BBX 7 15 0 -3
BITMAP
00
00
00
28
00
38
44
44
44
44
44
38
00
00
00
ENDCHAR

STARTCHAR division
ENCODING 247
SWIDTH 448 0
DWIDTH 7 0
BBX 7 15 0 -3
BITMAP
00
00
00
00
10
10
00
7C
00
10
10
00
00
00
00
ENDCHAR

STARTCHAR rcaron
ENCODING 248
SWIDTH 448 0
DWIDTH 7 0
BBX 7 15 0 -3
BITMAP
00
00
28
10
00
5C
60
40
40
40
40
40
00
00
00
ENDCHAR

STARTCHAR uring
ENCODING 249
SWIDTH 448 0
DWIDTH 7 0
BBX 7 15 0 -3
BITMAP
00
10
28
10
00
44
44
44
44
44
44
3C
00
00
00
ENDCHAR

STARTCHAR uacute
ENCODING 250
SWIDTH 448 0
DWIDTH 7 0
BBX 7 15 0 -3
BITMAP
00
00
08
10
00
44
44
44
44
44
44
3C
00
00
00
ENDCHAR

STARTCHAR udblacute
ENCODING 251
SWIDTH 448 0
DWIDTH 7 0
BBX 7 15 0 -3
BITMAP
00
00
14
28
00
44
44
44
44
44
44
3C
00
00
00
ENDCHAR

STARTCHAR udiaeresis
ENCODING 252
SWIDTH 448 0
DWIDTH 7 0
BBX 7 15 0 -3
BITMAP
00
00
00
28
00
44
44
44
44
44
44
3C
00
00
00
ENDCHAR

STARTCHAR yacute
ENCODING 253
SWIDTH 448 0
DWIDTH 7 0
BBX 7 15 0 -3
BITMAP
00
00
08
10
00
44
44
44
44
44
44
3C
04
04
78
ENDCHAR

STARTCHAR tcedilla
ENCODING 254
SWIDTH 448 0
DWIDTH 7 0
BBX 7 15 0 -3
BITMAP
00
00
00
20
20
78
20
20
20
20
20
1C
08
18
00
ENDCHAR

STARTCHAR dotaccent
ENCODING 255
SWIDTH 448 0
DWIDTH 7 0
BBX 7 15 0 -3
BITMAP
00
00
00
10
00
00
00
00
00
00
00
00
00
00
00
ENDCHAR

STARTCHAR char9679
ENCODING 9679
SWIDTH 448 0
DWIDTH 7 0
BBX 7 15 0 -3
BITMAP
00
00
00
00
38
7C
FE
FE
FE
7C
38
00
00
00
00
ENDCHAR

STARTCHAR char10008
ENCODING 10008
SWIDTH 448 0
DWIDTH 7 0
BBX 7 15 0 -3
BITMAP
00
00
00
00
C6
EE
7C
38
7C
EE
C6
00
00
00
00
ENDCHAR

STARTCHAR char10010
ENCODING 10010
SWIDTH 448 0
DWIDTH 7 0
BBX 7 15 0 -3
BITMAP
00
00
00
00
38
38
FE
FE
FE
38
38
00
00
00
00
ENDCHAR

STARTCHAR versioncontrolbranch
ENCODING 57504
SWIDTH 448 0
DWIDTH 7 0
BBX 7 15 0 -3
BITMAP
00
C0
CC
DE
CC
CC
9C
38
70
E0
C0
C0
C0
C0
00
ENDCHAR

STARTCHAR lnsymbol
ENCODING 57505
SWIDTH 448 0
DWIDTH 7 0
BBX 7 15 0 -3
BITMAP
00
40
40
40
40
40
7C
00
22
32
2A
26
22
22
00
ENDCHAR

STARTCHAR closedpadlock
ENCODING 57506
SWIDTH 448 0
DWIDTH 7 0
BBX 7 15 0 -3
BITMAP
00
00
7C
44
44
44
FE
EE
C6
EE
EE
FE
FE
00
00
ENDCHAR

STARTCHAR rightwardsblackarrowhead
ENCODING 57520
SWIDTH 448 0
DWIDTH 7 0
BBX 7 15 0 -3
BITMAP
00
80
C0
E0
F0
F8
FC
FE
FC
F8
F0
E0
C0
80
00
ENDCHAR

STARTCHAR rightwardsarrowhead
ENCODING 57521
SWIDTH 448 0
DWIDTH 7 0
BBX 7 15 0 -3
BITMAP
00
80
C0
60
30
18
0C
06
0C
18
30
60
C0
80
00
ENDCHAR

STARTCHAR leftwardsblackarrowhead
ENCODING 57522
SWIDTH 448 0
DWIDTH 7 0
BBX 7 15 0 -3
BITMAP
00
02
06
0E
1E
3E
7E
FE
7E
3E
1E
0E
06
02
00
ENDCHAR

STARTCHAR leftwardsarrowhead
ENCODING 57523
SWIDTH 448 0
DWIDTH 7 0
BBX 7 15 0 -3
BITMAP
00
02
06
0C
18
30
60
C0
60
30
18
0C
06
02
00
ENDCHAR

ENDFONT
