STARTFONT 2.1
FONT -jmk-Neep-Medium-R-Normal-AltGlyph-10-80-75-75-C-50-US-ASCII
SIZE 8 75 75
FONTBOUNDINGBOX 5 10 0 -2
STARTPROPERTIES 29
FONTNAME_REGISTRY ""
FOUNDRY "jmk"
FAMILY_NAME "Neep"
WEIGHT_NAME "Medium"
SLANT "R"
SETWIDTH_NAME "Normal"
ADD_STYLE_NAME "AltGlyph"
PIXEL_SIZE 10
POINT_SIZE 80
RESOLUTION_X 75
RESOLUTION_Y 75
SPACING "C"
AVERAGE_WIDTH 50
CHARSET_REGISTRY "US"
CHARSET_ENCODING "ASCII"
COPYRIGHT "Jim Knoble <jmknoble@pobox.com>"
WEIGHT 140
RESOLUTION 75
X_HEIGHT 4
FIGURE_WIDTH 5
QUAD_WIDTH 5
FONT_ASCENT 8
FONT_DESCENT 2
_XMBDFED_INFO "Edited with xmbdfed 3.7."
RELATIVE_WEIGHT 50
RELATIVE_SETWIDTH 50
CAP_HEIGHT 6
UNDERLINE_POSITION -1
UNDERLINE_THICKNESS 1
ENDPROPERTIES
CHARS 1
STARTCHAR U+0026 ampersand
ENCODING 38
SWIDTH 600 0
DWIDTH 5 0
BBX 5 10 0 -2
BITMAP
00
00
40
A0
40
B0
A0
70
00
00
ENDCHAR
ENDFONT
