STARTFONT 2.1
FONT -jmk-Neep-Medium-R-Normal--20-180-75-75-C-100-ISO8859-9
SIZE 20 75 75
FONTBOUNDINGBOX 10 20 0 -4
STARTPROPERTIES 29
FONTNAME_REGISTRY ""
FOUNDRY "jmk"
FAMILY_NAME "Neep"
WEIGHT_NAME "Medium"
SLANT "R"
SETWIDTH_NAME "Normal"
ADD_STYLE_NAME ""
PIXEL_SIZE 20
POINT_SIZE 180
RESOLUTION_X 75
RESOLUTION_Y 75
SPACING "C"
AVERAGE_WIDTH 100
CHARSET_REGISTRY "ISO8859"
CHARSET_ENCODING "9"
COPYRIGHT "Jim Knoble <jmknoble@pobox.com>"
WEIGHT 150
RESOLUTION 75
X_HEIGHT 9
FIGURE_WIDTH 10
QUAD_WIDTH 10
FONT_ASCENT 16
FONT_DESCENT 4
_XMBDFED_INFO "Edited with xmbdfed 3.7."
RELATIVE_WEIGHT 50
RELATIVE_SETWIDTH 50
CAP_HEIGHT 13
UNDERLINE_POSITION -2
UNDERLINE_THICKNESS 1
ENDPROPERTIES
CHARS 128
STARTCHAR nil
ENCODING 128
SWIDTH 480 0
DWIDTH 10 0
BBX 10 20 0 -4
BITMAP
0000
7F80
4080
4080
4080
4080
4080
4080
4080
4080
4080
4080
4080
4080
4080
4080
4080
4080
7F80
0000
ENDCHAR
STARTCHAR nil
ENCODING 129
SWIDTH 480 0
DWIDTH 10 0
BBX 10 20 0 -4
BITMAP
0000
7F80
4080
4080
4080
4080
4080
4080
4080
4080
4080
4080
4080
4080
4080
4080
4080
4080
7F80
0000
ENDCHAR
STARTCHAR nil
ENCODING 130
SWIDTH 480 0
DWIDTH 10 0
BBX 10 20 0 -4
BITMAP
0000
7F80
4080
4080
4080
4080
4080
4080
4080
4080
4080
4080
4080
4080
4080
4080
4080
4080
7F80
0000
ENDCHAR
STARTCHAR nil
ENCODING 131
SWIDTH 480 0
DWIDTH 10 0
BBX 10 20 0 -4
BITMAP
0000
7F80
4080
4080
4080
4080
4080
4080
4080
4080
4080
4080
4080
4080
4080
4080
4080
4080
7F80
0000
ENDCHAR
STARTCHAR nil
ENCODING 132
SWIDTH 480 0
DWIDTH 10 0
BBX 10 20 0 -4
BITMAP
0000
7F80
4080
4080
4080
4080
4080
4080
4080
4080
4080
4080
4080
4080
4080
4080
4080
4080
7F80
0000
ENDCHAR
STARTCHAR nil
ENCODING 133
SWIDTH 480 0
DWIDTH 10 0
BBX 10 20 0 -4
BITMAP
0000
7F80
4080
4080
4080
4080
4080
4080
4080
4080
4080
4080
4080
4080
4080
4080
4080
4080
7F80
0000
ENDCHAR
STARTCHAR nil
ENCODING 134
SWIDTH 480 0
DWIDTH 10 0
BBX 10 20 0 -4
BITMAP
0000
7F80
4080
4080
4080
4080
4080
4080
4080
4080
4080
4080
4080
4080
4080
4080
4080
4080
7F80
0000
ENDCHAR
STARTCHAR nil
ENCODING 135
SWIDTH 480 0
DWIDTH 10 0
BBX 10 20 0 -4
BITMAP
0000
7F80
4080
4080
4080
4080
4080
4080
4080
4080
4080
4080
4080
4080
4080
4080
4080
4080
7F80
0000
ENDCHAR
STARTCHAR nil
ENCODING 136
SWIDTH 480 0
DWIDTH 10 0
BBX 10 20 0 -4
BITMAP
0000
7F80
4080
4080
4080
4080
4080
4080
4080
4080
4080
4080
4080
4080
4080
4080
4080
4080
7F80
0000
ENDCHAR
STARTCHAR nil
ENCODING 137
SWIDTH 480 0
DWIDTH 10 0
BBX 10 20 0 -4
BITMAP
0000
7F80
4080
4080
4080
4080
4080
4080
4080
4080
4080
4080
4080
4080
4080
4080
4080
4080
7F80
0000
ENDCHAR
STARTCHAR nil
ENCODING 138
SWIDTH 480 0
DWIDTH 10 0
BBX 10 20 0 -4
BITMAP
0000
7F80
4080
4080
4080
4080
4080
4080
4080
4080
4080
4080
4080
4080
4080
4080
4080
4080
7F80
0000
ENDCHAR
STARTCHAR nil
ENCODING 139
SWIDTH 480 0
DWIDTH 10 0
BBX 10 20 0 -4
BITMAP
0000
7F80
4080
4080
4080
4080
4080
4080
4080
4080
4080
4080
4080
4080
4080
4080
4080
4080
7F80
0000
ENDCHAR
STARTCHAR nil
ENCODING 140
SWIDTH 480 0
DWIDTH 10 0
BBX 10 20 0 -4
BITMAP
0000
7F80
4080
4080
4080
4080
4080
4080
4080
4080
4080
4080
4080
4080
4080
4080
4080
4080
7F80
0000
ENDCHAR
STARTCHAR nil
ENCODING 141
SWIDTH 480 0
DWIDTH 10 0
BBX 10 20 0 -4
BITMAP
0000
7F80
4080
4080
4080
4080
4080
4080
4080
4080
4080
4080
4080
4080
4080
4080
4080
4080
7F80
0000
ENDCHAR
STARTCHAR nil
ENCODING 142
SWIDTH 480 0
DWIDTH 10 0
BBX 10 20 0 -4
BITMAP
0000
7F80
4080
4080
4080
4080
4080
4080
4080
4080
4080
4080
4080
4080
4080
4080
4080
4080
7F80
0000
ENDCHAR
STARTCHAR nil
ENCODING 143
SWIDTH 480 0
DWIDTH 10 0
BBX 10 20 0 -4
BITMAP
0000
7F80
4080
4080
4080
4080
4080
4080
4080
4080
4080
4080
4080
4080
4080
4080
4080
4080
7F80
0000
ENDCHAR
STARTCHAR nil
ENCODING 144
SWIDTH 480 0
DWIDTH 10 0
BBX 10 20 0 -4
BITMAP
0000
7F80
4080
4080
4080
4080
4080
4080
4080
4080
4080
4080
4080
4080
4080
4080
4080
4080
7F80
0000
ENDCHAR
STARTCHAR nil
ENCODING 145
SWIDTH 480 0
DWIDTH 10 0
BBX 10 20 0 -4
BITMAP
0000
7F80
4080
4080
4080
4080
4080
4080
4080
4080
4080
4080
4080
4080
4080
4080
4080
4080
7F80
0000
ENDCHAR
STARTCHAR nil
ENCODING 146
SWIDTH 480 0
DWIDTH 10 0
BBX 10 20 0 -4
BITMAP
0000
7F80
4080
4080
4080
4080
4080
4080
4080
4080
4080
4080
4080
4080
4080
4080
4080
4080
7F80
0000
ENDCHAR
STARTCHAR nil
ENCODING 147
SWIDTH 480 0
DWIDTH 10 0
BBX 10 20 0 -4
BITMAP
0000
7F80
4080
4080
4080
4080
4080
4080
4080
4080
4080
4080
4080
4080
4080
4080
4080
4080
7F80
0000
ENDCHAR
STARTCHAR nil
ENCODING 148
SWIDTH 480 0
DWIDTH 10 0
BBX 10 20 0 -4
BITMAP
0000
7F80
4080
4080
4080
4080
4080
4080
4080
4080
4080
4080
4080
4080
4080
4080
4080
4080
7F80
0000
ENDCHAR
STARTCHAR nil
ENCODING 149
SWIDTH 480 0
DWIDTH 10 0
BBX 10 20 0 -4
BITMAP
0000
7F80
4080
4080
4080
4080
4080
4080
4080
4080
4080
4080
4080
4080
4080
4080
4080
4080
7F80
0000
ENDCHAR
STARTCHAR nil
ENCODING 150
SWIDTH 480 0
DWIDTH 10 0
BBX 10 20 0 -4
BITMAP
0000
7F80
4080
4080
4080
4080
4080
4080
4080
4080
4080
4080
4080
4080
4080
4080
4080
4080
7F80
0000
ENDCHAR
STARTCHAR nil
ENCODING 151
SWIDTH 480 0
DWIDTH 10 0
BBX 10 20 0 -4
BITMAP
0000
7F80
4080
4080
4080
4080
4080
4080
4080
4080
4080
4080
4080
4080
4080
4080
4080
4080
7F80
0000
ENDCHAR
STARTCHAR nil
ENCODING 152
SWIDTH 480 0
DWIDTH 10 0
BBX 10 20 0 -4
BITMAP
0000
7F80
4080
4080
4080
4080
4080
4080
4080
4080
4080
4080
4080
4080
4080
4080
4080
4080
7F80
0000
ENDCHAR
STARTCHAR nil
ENCODING 153
SWIDTH 480 0
DWIDTH 10 0
BBX 10 20 0 -4
BITMAP
0000
7F80
4080
4080
4080
4080
4080
4080
4080
4080
4080
4080
4080
4080
4080
4080
4080
4080
7F80
0000
ENDCHAR
STARTCHAR nil
ENCODING 154
SWIDTH 480 0
DWIDTH 10 0
BBX 10 20 0 -4
BITMAP
0000
7F80
4080
4080
4080
4080
4080
4080
4080
4080
4080
4080
4080
4080
4080
4080
4080
4080
7F80
0000
ENDCHAR
STARTCHAR nil
ENCODING 155
SWIDTH 480 0
DWIDTH 10 0
BBX 10 20 0 -4
BITMAP
0000
7F80
4080
4080
4080
4080
4080
4080
4080
4080
4080
4080
4080
4080
4080
4080
4080
4080
7F80
0000
ENDCHAR
STARTCHAR nil
ENCODING 156
SWIDTH 480 0
DWIDTH 10 0
BBX 10 20 0 -4
BITMAP
0000
7F80
4080
4080
4080
4080
4080
4080
4080
4080
4080
4080
4080
4080
4080
4080
4080
4080
7F80
0000
ENDCHAR
STARTCHAR nil
ENCODING 157
SWIDTH 480 0
DWIDTH 10 0
BBX 10 20 0 -4
BITMAP
0000
7F80
4080
4080
4080
4080
4080
4080
4080
4080
4080
4080
4080
4080
4080
4080
4080
4080
7F80
0000
ENDCHAR
STARTCHAR nil
ENCODING 158
SWIDTH 480 0
DWIDTH 10 0
BBX 10 20 0 -4
BITMAP
0000
7F80
4080
4080
4080
4080
4080
4080
4080
4080
4080
4080
4080
4080
4080
4080
4080
4080
7F80
0000
ENDCHAR
STARTCHAR nil
ENCODING 159
SWIDTH 480 0
DWIDTH 10 0
BBX 10 20 0 -4
BITMAP
0000
7F80
4080
4080
4080
4080
4080
4080
4080
4080
4080
4080
4080
4080
4080
4080
4080
4080
7F80
0000
ENDCHAR
STARTCHAR U+00a0 no-break space
ENCODING 160
SWIDTH 480 0
DWIDTH 10 0
BBX 10 20 0 -4
BITMAP
0000
0000
0000
0000
0000
0000
0000
0000
0000
0000
0000
0000
0000
0000
0000
0000
0000
0000
0000
0000
ENDCHAR
STARTCHAR U+00a1 inverted exclamation mark
ENCODING 161
SWIDTH 480 0
DWIDTH 10 0
BBX 10 20 0 -4
BITMAP
0000
0000
0000
0000
0000
0000
0000
0C00
0C00
0C00
0000
0C00
0C00
0C00
0C00
0C00
0C00
0C00
0C00
0C00
ENDCHAR
STARTCHAR U+00a2 cent sign
ENCODING 162
SWIDTH 480 0
DWIDTH 10 0
BBX 10 20 0 -4
BITMAP
0000
0000
0000
0000
0400
0400
1F00
3580
6400
6400
6400
6400
3580
1F00
0400
0400
0000
0000
0000
0000
ENDCHAR
STARTCHAR U+00a3 pound sign
ENCODING 163
SWIDTH 480 0
DWIDTH 10 0
BBX 10 20 0 -4
BITMAP
0000
0000
0000
1E00
3300
3000
3000
3000
3000
7C00
3000
3000
3000
3000
3000
7F80
0000
0000
0000
0000
ENDCHAR
STARTCHAR U+00a4 currency sign
ENCODING 164
SWIDTH 480 0
DWIDTH 10 0
BBX 10 20 0 -4
BITMAP
0000
0000
0000
0000
0000
0000
0000
4040
2E80
1B00
3180
3180
3180
1B00
2E80
4040
0000
0000
0000
0000
ENDCHAR
STARTCHAR U+00a5 yen sign
ENCODING 165
SWIDTH 480 0
DWIDTH 10 0
BBX 10 20 0 -4
BITMAP
0000
0000
0000
6180
6180
3300
3300
1E00
1E00
7F80
0C00
0C00
7F80
0C00
0C00
0C00
0000
0000
0000
0000
ENDCHAR
STARTCHAR U+00a6 broken bar
ENCODING 166
SWIDTH 480 0
DWIDTH 10 0
BBX 10 20 0 -4
BITMAP
0000
0000
0000
0C00
0C00
0C00
0C00
0C00
0C00
0000
0C00
0C00
0C00
0C00
0C00
0C00
0C00
0000
0000
0000
ENDCHAR
STARTCHAR U+00a7 section sign
ENCODING 167
SWIDTH 480 0
DWIDTH 10 0
BBX 10 20 0 -4
BITMAP
0000
0000
0000
3F00
6000
6000
3000
1C00
3600
6300
6300
6300
3600
1C00
0600
0300
0300
7E00
0000
0000
ENDCHAR
STARTCHAR U+00a8 diaresis
ENCODING 168
SWIDTH 480 0
DWIDTH 10 0
BBX 10 20 0 -4
BITMAP
0000
0000
0000
3300
3300
0000
0000
0000
0000
0000
0000
0000
0000
0000
0000
0000
0000
0000
0000
0000
ENDCHAR
STARTCHAR U+00a9 copyright sign
ENCODING 169
SWIDTH 480 0
DWIDTH 10 0
BBX 10 20 0 -4
BITMAP
0000
0000
3E00
4100
8080
9C80
B680
B080
B080
B080
B680
9C80
8080
4100
3E00
0000
0000
0000
0000
0000
ENDCHAR
STARTCHAR U+00aa feminine ordinal indicator
ENCODING 170
SWIDTH 480 0
DWIDTH 10 0
BBX 10 20 0 -4
BITMAP
0000
0000
0000
1E00
0300
1F00
3300
3300
3700
1B00
0000
3F00
0000
0000
0000
0000
0000
0000
0000
0000
ENDCHAR
STARTCHAR U+00ab left-pointing double angle quotation mark
ENCODING 171
SWIDTH 480 0
DWIDTH 10 0
BBX 10 20 0 -4
BITMAP
0000
0000
0000
0000
0000
0000
0880
1980
3300
6600
CC00
6600
3300
1980
0880
0000
0000
0000
0000
0000
ENDCHAR
STARTCHAR U+00ac not sign
ENCODING 172
SWIDTH 480 0
DWIDTH 10 0
BBX 10 20 0 -4
BITMAP
0000
0000
0000
0000
0000
0000
0000
0000
0000
0000
7F80
0180
0180
0180
0180
0000
0000
0000
0000
0000
ENDCHAR
STARTCHAR U+00ad soft hyphen
ENCODING 173
SWIDTH 480 0
DWIDTH 10 0
BBX 10 20 0 -4
BITMAP
0000
0000
0000
0000
0000
0000
0000
0000
0000
3E00
3E00
0000
0000
0000
0000
0000
0000
0000
0000
0000
ENDCHAR
STARTCHAR U+00ae registered sign
ENCODING 174
SWIDTH 480 0
DWIDTH 10 0
BBX 10 20 0 -4
BITMAP
0000
0000
3E00
4100
8080
AC80
B680
B080
B080
B080
B080
B080
8080
4100
3E00
0000
0000
0000
0000
0000
ENDCHAR
STARTCHAR U+00af macron
ENCODING 175
SWIDTH 480 0
DWIDTH 10 0
BBX 10 20 0 -4
BITMAP
0000
0000
0000
7F80
7F80
0000
0000
0000
0000
0000
0000
0000
0000
0000
0000
0000
0000
0000
0000
0000
ENDCHAR
STARTCHAR U+00b0 degree sign
ENCODING 176
SWIDTH 480 0
DWIDTH 10 0
BBX 10 20 0 -4
BITMAP
0000
0000
0000
1E00
3300
3300
3300
1E00
0000
0000
0000
0000
0000
0000
0000
0000
0000
0000
0000
0000
ENDCHAR
STARTCHAR U+00b1 plus-minus sign
ENCODING 177
SWIDTH 480 0
DWIDTH 10 0
BBX 10 20 0 -4
BITMAP
0000
0000
0000
0000
0000
0000
0000
0C00
0C00
0C00
7F80
0C00
0C00
0C00
0000
7F80
0000
0000
0000
0000
ENDCHAR
STARTCHAR U+00b2 superscript two
ENCODING 178
SWIDTH 480 0
DWIDTH 10 0
BBX 10 20 0 -4
BITMAP
0000
0000
0000
1E00
3300
0300
0E00
1800
3000
3F00
0000
0000
0000
0000
0000
0000
0000
0000
0000
0000
ENDCHAR
STARTCHAR U+00b3 superscript three
ENCODING 179
SWIDTH 480 0
DWIDTH 10 0
BBX 10 20 0 -4
BITMAP
0000
0000
0000
3F00
0600
0C00
1E00
0300
3300
1E00
0000
0000
0000
0000
0000
0000
0000
0000
0000
0000
ENDCHAR
STARTCHAR U+00b4 acute accent
ENCODING 180
SWIDTH 480 0
DWIDTH 10 0
BBX 10 20 0 -4
BITMAP
0000
0000
0000
0700
0C00
1000
0000
0000
0000
0000
0000
0000
0000
0000
0000
0000
0000
0000
0000
0000
ENDCHAR
STARTCHAR U+00b5 micro sign
ENCODING 181
SWIDTH 480 0
DWIDTH 10 0
BBX 10 20 0 -4
BITMAP
0000
0000
0000
0000
0000
0000
0000
6300
6300
6300
6300
6300
6300
6300
7700
6D80
6000
6000
0000
0000
ENDCHAR
STARTCHAR U+00b6 pilcrow sign
ENCODING 182
SWIDTH 480 0
DWIDTH 10 0
BBX 10 20 0 -4
BITMAP
0000
0000
0000
0000
3F80
7F00
C900
C900
C900
C900
7900
3900
0900
0900
0900
0900
0000
0000
0000
0000
ENDCHAR
STARTCHAR U+00b7 middle dot
ENCODING 183
SWIDTH 480 0
DWIDTH 10 0
BBX 10 20 0 -4
BITMAP
0000
0000
0000
0000
0000
0000
0000
0000
0800
1C00
1C00
0800
0000
0000
0000
0000
0000
0000
0000
0000
ENDCHAR
STARTCHAR U+00b8 cedilla
ENCODING 184
SWIDTH 480 0
DWIDTH 10 0
BBX 10 20 0 -4
BITMAP
0000
0000
0000
0000
0000
0000
0000
0000
0000
0000
0000
0000
0000
0000
0000
0800
0C00
0600
1C00
0000
ENDCHAR
STARTCHAR U+00b9 superscript one
ENCODING 185
SWIDTH 480 0
DWIDTH 10 0
BBX 10 20 0 -4
BITMAP
0000
0000
0000
0400
0C00
1C00
2C00
0C00
0C00
0C00
0000
0000
0000
0000
0000
0000
0000
0000
0000
0000
ENDCHAR
STARTCHAR U+00ba masculine ordinal indicator
ENCODING 186
SWIDTH 480 0
DWIDTH 10 0
BBX 10 20 0 -4
BITMAP
0000
0000
0000
1C00
3600
6300
6300
6300
3600
1C00
0000
7F00
0000
0000
0000
0000
0000
0000
0000
0000
ENDCHAR
STARTCHAR U+00bb right-pointing double angle quotation mark
ENCODING 187
SWIDTH 480 0
DWIDTH 10 0
BBX 10 20 0 -4
BITMAP
0000
0000
0000
0000
0000
0000
8800
CC00
6600
3300
1980
3300
6600
CC00
8800
0000
0000
0000
0000
0000
ENDCHAR
STARTCHAR U+00bc vulgar fraction one quarter
ENCODING 188
SWIDTH 480 0
DWIDTH 10 0
BBX 10 20 0 -4
BITMAP
0000
0000
0000
1000
3000
7000
B000
3000
3000
3000
0300
0700
0B00
1300
1F80
0300
0300
0000
0000
0000
ENDCHAR
STARTCHAR U+00bd vulgar fraction one half
ENCODING 189
SWIDTH 480 0
DWIDTH 10 0
BBX 10 20 0 -4
BITMAP
0000
0000
0000
1000
3000
7000
B000
3000
3000
3000
0F00
1980
0180
0700
0C00
1800
1F80
0000
0000
0000
ENDCHAR
STARTCHAR U+00be vulgar fraction three quarters
ENCODING 190
SWIDTH 480 0
DWIDTH 10 0
BBX 10 20 0 -4
BITMAP
0000
0000
0000
FC00
1800
3000
7800
0C00
CC00
7800
0300
0700
0B00
1300
1F80
0300
0300
0000
0000
0000
ENDCHAR
STARTCHAR U+00bf inverted question mark
ENCODING 191
SWIDTH 480 0
DWIDTH 10 0
BBX 10 20 0 -4
BITMAP
0000
0000
0000
0000
0000
0000
0000
0600
0600
0600
0000
0600
0600
0600
0600
0C00
1800
3000
3000
1F00
ENDCHAR
STARTCHAR U+00c0 latin capital letter A with grave
ENCODING 192
SWIDTH 480 0
DWIDTH 10 0
BBX 10 20 0 -4
BITMAP
0000
3800
0C00
0200
0000
1E00
3300
6180
6180
6180
7F80
6180
6180
6180
6180
6180
0000
0000
0000
0000
ENDCHAR
STARTCHAR U+00c1 latin capital letter A with acute
ENCODING 193
SWIDTH 480 0
DWIDTH 10 0
BBX 10 20 0 -4
BITMAP
0000
0700
0C00
1000
0000
1E00
3300
6180
6180
6180
7F80
6180
6180
6180
6180
6180
0000
0000
0000
0000
ENDCHAR
STARTCHAR U+00c2 latin capital letter A with circumflex
ENCODING 194
SWIDTH 480 0
DWIDTH 10 0
BBX 10 20 0 -4
BITMAP
0000
0C00
1E00
3300
0000
1E00
3300
6180
6180
6180
7F80
6180
6180
6180
6180
6180
0000
0000
0000
0000
ENDCHAR
STARTCHAR U+00c3 latin capital letter A with tilde
ENCODING 195
SWIDTH 480 0
DWIDTH 10 0
BBX 10 20 0 -4
BITMAP
0000
3880
4C80
4700
0000
1E00
3300
6180
6180
6180
7F80
6180
6180
6180
6180
6180
0000
0000
0000
0000
ENDCHAR
STARTCHAR U+00c4 latin capital letter A with diaresis
ENCODING 196
SWIDTH 480 0
DWIDTH 10 0
BBX 10 20 0 -4
BITMAP
0000
3300
3300
0000
0000
1E00
3300
6180
6180
6180
7F80
6180
6180
6180
6180
6180
0000
0000
0000
0000
ENDCHAR
STARTCHAR U+00c5 latin capital letter A with ring above
ENCODING 197
SWIDTH 480 0
DWIDTH 10 0
BBX 10 20 0 -4
BITMAP
0000
1E00
2100
2100
1E00
1E00
3300
6180
6180
6180
7F80
6180
6180
6180
6180
6180
0000
0000
0000
0000
ENDCHAR
STARTCHAR U+00c6 latin capital ligature AE
ENCODING 198
SWIDTH 480 0
DWIDTH 10 0
BBX 10 20 0 -4
BITMAP
0000
0000
0000
1F80
3600
6600
6600
6600
6600
7F80
6600
6600
6600
6600
6600
6780
0000
0000
0000
0000
ENDCHAR
STARTCHAR U+00c7 latin capital letter C with cedilla
ENCODING 199
SWIDTH 480 0
DWIDTH 10 0
BBX 10 20 0 -4
BITMAP
0000
0000
0000
1E00
3300
6180
6000
6000
6000
6000
6000
6000
6000
6180
3300
1E00
0C00
0600
1C00
0000
ENDCHAR
STARTCHAR U+00c8 latin capital letter E with grave
ENCODING 200
SWIDTH 480 0
DWIDTH 10 0
BBX 10 20 0 -4
BITMAP
0000
3800
0C00
0200
0000
7F80
6000
6000
6000
6000
7E00
6000
6000
6000
6000
7F80
0000
0000
0000
0000
ENDCHAR
STARTCHAR U+00c9 latin capital letter E with acute
ENCODING 201
SWIDTH 480 0
DWIDTH 10 0
BBX 10 20 0 -4
BITMAP
0000
0700
0C00
1000
0000
7F80
6000
6000
6000
6000
7E00
6000
6000
6000
6000
7F80
0000
0000
0000
0000
ENDCHAR
STARTCHAR U+00ca latin capital letter E with circumflex
ENCODING 202
SWIDTH 480 0
DWIDTH 10 0
BBX 10 20 0 -4
BITMAP
0000
0C00
1E00
3300
0000
7F80
6000
6000
6000
6000
7E00
6000
6000
6000
6000
7F80
0000
0000
0000
0000
ENDCHAR
STARTCHAR U+00cb latin capital letter E with diaresis
ENCODING 203
SWIDTH 480 0
DWIDTH 10 0
BBX 10 20 0 -4
BITMAP
0000
3300
3300
0000
0000
7F80
6000
6000
6000
6000
7F00
6000
6000
6000
6000
7F80
0000
0000
0000
0000
ENDCHAR
STARTCHAR U+00cc latin capital letter I with grave
ENCODING 204
SWIDTH 480 0
DWIDTH 10 0
BBX 10 20 0 -4
BITMAP
0000
3800
0C00
0200
0000
3F00
0C00
0C00
0C00
0C00
0C00
0C00
0C00
0C00
0C00
3F00
0000
0000
0000
0000
ENDCHAR
STARTCHAR U+00cd latin capital letter I with acute
ENCODING 205
SWIDTH 480 0
DWIDTH 10 0
BBX 10 20 0 -4
BITMAP
0000
0700
0C00
1000
0000
3F00
0C00
0C00
0C00
0C00
0C00
0C00
0C00
0C00
0C00
3F00
0000
0000
0000
0000
ENDCHAR
STARTCHAR U+00ce latin capital letter I with circumflex
ENCODING 206
SWIDTH 480 0
DWIDTH 10 0
BBX 10 20 0 -4
BITMAP
0000
0C00
1E00
3300
0000
3F00
0C00
0C00
0C00
0C00
0C00
0C00
0C00
0C00
0C00
3F00
0000
0000
0000
0000
ENDCHAR
STARTCHAR U+00cf latin capital letter I with diaresis
ENCODING 207
SWIDTH 480 0
DWIDTH 10 0
BBX 10 20 0 -4
BITMAP
0000
3300
3300
0000
0000
3F00
0C00
0C00
0C00
0C00
0C00
0C00
0C00
0C00
0C00
3F00
0000
0000
0000
0000
ENDCHAR
STARTCHAR U+011e latin capital letter G with breve
ENCODING 208
SWIDTH 480 0
DWIDTH 10 0
BBX 10 20 0 -4
BITMAP
0000
2100
2100
1E00
0000
1E00
3300
6180
6000
6000
6780
6180
6180
6180
3300
1E00
0000
0000
0000
0000
ENDCHAR
STARTCHAR U+00d1 latin capital letter N with tilde
ENCODING 209
SWIDTH 480 0
DWIDTH 10 0
BBX 10 20 0 -4
BITMAP
0000
3880
4C80
4700
0000
6180
7180
7180
7980
6980
6D80
6580
6780
6380
6380
6180
0000
0000
0000
0000
ENDCHAR
STARTCHAR U+00d2 latin capital letter O with grave
ENCODING 210
SWIDTH 480 0
DWIDTH 10 0
BBX 10 20 0 -4
BITMAP
0000
3800
0C00
0200
0000
1E00
3300
6180
6180
6180
6180
6180
6180
6180
3300
1E00
0000
0000
0000
0000
ENDCHAR
STARTCHAR U+00d3 latin capital letter O with acute
ENCODING 211
SWIDTH 480 0
DWIDTH 10 0
BBX 10 20 0 -4
BITMAP
0000
0700
0C00
1000
0000
1E00
3300
6180
6180
6180
6180
6180
6180
6180
3300
1E00
0000
0000
0000
0000
ENDCHAR
STARTCHAR U+00d4 latin capital letter O with circumflex
ENCODING 212
SWIDTH 480 0
DWIDTH 10 0
BBX 10 20 0 -4
BITMAP
0000
0C00
1E00
3300
0000
1E00
3300
6180
6180
6180
6180
6180
6180
6180
3300
1E00
0000
0000
0000
0000
ENDCHAR
STARTCHAR U+00d5 latin capital letter O with tilde
ENCODING 213
SWIDTH 480 0
DWIDTH 10 0
BBX 10 20 0 -4
BITMAP
0000
3880
4C80
4700
0000
1E00
3300
6180
6180
6180
6180
6180
6180
6180
3300
1E00
0000
0000
0000
0000
ENDCHAR
STARTCHAR U+00d6 latin capital letter O with diaresis
ENCODING 214
SWIDTH 480 0
DWIDTH 10 0
BBX 10 20 0 -4
BITMAP
0000
3300
3300
0000
0000
1E00
3300
6180
6180
6180
6180
6180
6180
6180
3300
1E00
0000
0000
0000
0000
ENDCHAR
STARTCHAR U+00d7 multiplication sign
ENCODING 215
SWIDTH 480 0
DWIDTH 10 0
BBX 10 20 0 -4
BITMAP
0000
0000
0000
0000
0000
0000
4100
6300
3600
1C00
1C00
3600
6300
4100
0000
0000
0000
0000
0000
0000
ENDCHAR
STARTCHAR U+00d8 latin capital letter O with stroke
ENCODING 216
SWIDTH 480 0
DWIDTH 10 0
BBX 10 20 0 -4
BITMAP
0000
0000
0100
1F00
3300
6380
6380
6580
6580
6580
6980
6980
6980
7180
3300
3E00
2000
0000
0000
0000
ENDCHAR
STARTCHAR U+00d9 latin capital letter U with grave
ENCODING 217
SWIDTH 480 0
DWIDTH 10 0
BBX 10 20 0 -4
BITMAP
0000
3800
0C00
0200
0000
6180
6180
6180
6180
6180
6180
6180
6180
6180
3300
1E00
0000
0000
0000
0000
ENDCHAR
STARTCHAR U+00da latin capital letter U with acute
ENCODING 218
SWIDTH 480 0
DWIDTH 10 0
BBX 10 20 0 -4
BITMAP
0000
0700
0C00
1000
0000
6180
6180
6180
6180
6180
6180
6180
6180
6180
3300
1E00
0000
0000
0000
0000
ENDCHAR
STARTCHAR U+00db latin capital letter U with circumflex
ENCODING 219
SWIDTH 480 0
DWIDTH 10 0
BBX 10 20 0 -4
BITMAP
0000
0C00
1E00
3300
0000
6180
6180
6180
6180
6180
6180
6180
6180
6180
3300
1E00
0000
0000
0000
0000
ENDCHAR
STARTCHAR U+00dc latin capital letter U with diaresis
ENCODING 220
SWIDTH 480 0
DWIDTH 10 0
BBX 10 20 0 -4
BITMAP
0000
3300
3300
0000
0000
6180
6180
6180
6180
6180
6180
6180
6180
6180
3300
1E00
0000
0000
0000
0000
ENDCHAR
STARTCHAR U+0130 latin capital letter I with dot above
ENCODING 221
SWIDTH 480 0
DWIDTH 10 0
BBX 10 20 0 -4
BITMAP
0000
0C00
0C00
0000
0000
3F00
0C00
0C00
0C00
0C00
0C00
0C00
0C00
0C00
0C00
3F00
0000
0000
0000
0000
ENDCHAR
STARTCHAR U+015e latin capital letter S with cedilla
ENCODING 222
SWIDTH 480 0
DWIDTH 10 0
BBX 10 20 0 -4
BITMAP
0000
0000
0000
1E00
3300
6180
6000
6000
3000
1E00
0300
0180
0180
6180
3300
1E00
0C00
0600
1C00
0000
ENDCHAR
STARTCHAR U+00df latin small letter sharp s
ENCODING 223
SWIDTH 480 0
DWIDTH 10 0
BBX 10 20 0 -4
BITMAP
0000
0000
0000
1E00
3300
6300
6600
6C00
6C00
6600
6300
6180
6180
6180
6D80
6700
6000
6000
0000
0000
ENDCHAR
STARTCHAR U+00e0 latin small letter a with grave
ENCODING 224
SWIDTH 480 0
DWIDTH 10 0
BBX 10 20 0 -4
BITMAP
0000
0000
0000
3800
0C00
0200
0000
3E00
0300
0180
1F80
3180
6180
6180
6380
3D80
0000
0000
0000
0000
ENDCHAR
STARTCHAR U+00e1 latin small letter a with acute
ENCODING 225
SWIDTH 480 0
DWIDTH 10 0
BBX 10 20 0 -4
BITMAP
0000
0000
0000
0700
0C00
1000
0000
3E00
0300
0180
1F80
3180
6180
6180
6380
3D80
0000
0000
0000
0000
ENDCHAR
STARTCHAR U+00e2 latin small letter a with circumflex
ENCODING 226
SWIDTH 480 0
DWIDTH 10 0
BBX 10 20 0 -4
BITMAP
0000
0000
0000
0C00
1E00
3300
0000
3E00
0300
0180
1F80
3180
6180
6180
6380
3D80
0000
0000
0000
0000
ENDCHAR
STARTCHAR U+00e3 latin small letter a with tilde
ENCODING 227
SWIDTH 480 0
DWIDTH 10 0
BBX 10 20 0 -4
BITMAP
0000
0000
0000
3880
4C80
4700
0000
3E00
0300
0180
1F80
3180
6180
6180
6380
3D80
0000
0000
0000
0000
ENDCHAR
STARTCHAR U+00e4 latin small letter a with diaresis
ENCODING 228
SWIDTH 480 0
DWIDTH 10 0
BBX 10 20 0 -4
BITMAP
0000
0000
0000
3300
3300
0000
0000
3E00
0300
0180
1F80
3180
6180
6180
6380
3D80
0000
0000
0000
0000
ENDCHAR
STARTCHAR U+00e5 latin small letter a with ring above
ENCODING 229
SWIDTH 480 0
DWIDTH 10 0
BBX 10 20 0 -4
BITMAP
0000
0000
1E00
2100
2100
1E00
0000
3E00
0300
0180
1F80
3180
6180
6180
6380
3D80
0000
0000
0000
0000
ENDCHAR
STARTCHAR U+00e6 latin small ligature ae
ENCODING 230
SWIDTH 480 0
DWIDTH 10 0
BBX 10 20 0 -4
BITMAP
0000
0000
0000
0000
0000
0000
0000
7700
0D80
0D80
3D80
6F80
CC00
CC00
DD80
7700
0000
0000
0000
0000
ENDCHAR
STARTCHAR U+00e7 latin small letter c with cedilla
ENCODING 231
SWIDTH 480 0
DWIDTH 10 0
BBX 10 20 0 -4
BITMAP
0000
0000
0000
0000
0000
0000
0000
1F00
3180
6000
6000
6000
6000
6000
3180
1F00
0C00
0600
1C00
0000
ENDCHAR
STARTCHAR U+00e8 latin small letter e with grave
ENCODING 232
SWIDTH 480 0
DWIDTH 10 0
BBX 10 20 0 -4
BITMAP
0000
0000
0000
3800
0C00
0200
0000
1E00
3300
6180
6180
7F80
6000
6000
3180
1F00
0000
0000
0000
0000
ENDCHAR
STARTCHAR U+00e9 latin small letter e with acute
ENCODING 233
SWIDTH 480 0
DWIDTH 10 0
BBX 10 20 0 -4
BITMAP
0000
0000
0000
0700
0C00
1000
0000
1E00
3300
6180
6180
7F80
6000
6000
3180
1F00
0000
0000
0000
0000
ENDCHAR
STARTCHAR U+00ea latin small letter e with circumflex
ENCODING 234
SWIDTH 480 0
DWIDTH 10 0
BBX 10 20 0 -4
BITMAP
0000
0000
0000
0C00
1E00
3300
0000
1E00
3300
6180
6180
7F80
6000
6000
3180
1F00
0000
0000
0000
0000
ENDCHAR
STARTCHAR U+00eb latin small letter e with diaresis
ENCODING 235
SWIDTH 480 0
DWIDTH 10 0
BBX 10 20 0 -4
BITMAP
0000
0000
0000
3300
3300
0000
0000
1E00
3300
6180
6180
7F80
6000
6000
3180
1F00
0000
0000
0000
0000
ENDCHAR
STARTCHAR U+00ec latin small letter i with grave
ENCODING 236
SWIDTH 480 0
DWIDTH 10 0
BBX 10 20 0 -4
BITMAP
0000
0000
0000
3800
0C00
0200
0000
3C00
0C00
0C00
0C00
0C00
0C00
0C00
0C00
0C00
0000
0000
0000
0000
ENDCHAR
STARTCHAR U+00ed latin small letter i with acute
ENCODING 237
SWIDTH 480 0
DWIDTH 10 0
BBX 10 20 0 -4
BITMAP
0000
0000
0000
0700
0C00
1000
0000
3C00
0C00
0C00
0C00
0C00
0C00
0C00
0C00
0C00
0000
0000
0000
0000
ENDCHAR
STARTCHAR U+00ee latin small letter i with circumflex
ENCODING 238
SWIDTH 480 0
DWIDTH 10 0
BBX 10 20 0 -4
BITMAP
0000
0000
0000
0C00
1E00
3300
0000
3C00
0C00
0C00
0C00
0C00
0C00
0C00
0C00
0C00
0000
0000
0000
0000
ENDCHAR
STARTCHAR U+00ef latin small letter i with diaresis
ENCODING 239
SWIDTH 480 0
DWIDTH 10 0
BBX 10 20 0 -4
BITMAP
0000
0000
0000
3300
3300
0000
0000
3C00
0C00
0C00
0C00
0C00
0C00
0C00
0C00
0C00
0000
0000
0000
0000
ENDCHAR
STARTCHAR U+011f latin small letter g with breve
ENCODING 240
SWIDTH 480 0
DWIDTH 10 0
BBX 10 20 0 -4
BITMAP
0000
0000
0000
2100
2100
1E00
0000
1D80
3380
6180
6180
6180
6180
3380
1D80
0180
0180
6180
3300
1E00
ENDCHAR
STARTCHAR U+00f1 latin small letter n with tilde
ENCODING 241
SWIDTH 480 0
DWIDTH 10 0
BBX 10 20 0 -4
BITMAP
0000
0000
0000
3880
4C80
4700
0000
6E00
7300
6180
6180
6180
6180
6180
6180
6180
0000
0000
0000
0000
ENDCHAR
STARTCHAR U+00f2 latin small letter o with grave
ENCODING 242
SWIDTH 480 0
DWIDTH 10 0
BBX 10 20 0 -4
BITMAP
0000
0000
0000
3800
0C00
0200
0000
1E00
3300
6180
6180
6180
6180
6180
3300
1E00
0000
0000
0000
0000
ENDCHAR
STARTCHAR U+00f3 latin small letter o with acute
ENCODING 243
SWIDTH 480 0
DWIDTH 10 0
BBX 10 20 0 -4
BITMAP
0000
0000
0000
0700
0C00
1000
0000
1E00
3300
6180
6180
6180
6180
6180
3300
1E00
0000
0000
0000
0000
ENDCHAR
STARTCHAR U+00f4 latin small letter o with circumflex
ENCODING 244
SWIDTH 480 0
DWIDTH 10 0
BBX 10 20 0 -4
BITMAP
0000
0000
0000
0C00
1E00
3300
0000
1E00
3300
6180
6180
6180
6180
6180
3300
1E00
0000
0000
0000
0000
ENDCHAR
STARTCHAR U+00f5 latin small letter o with tilde
ENCODING 245
SWIDTH 480 0
DWIDTH 10 0
BBX 10 20 0 -4
BITMAP
0000
0000
0000
3880
4C80
4700
0000
1E00
3300
6180
6180
6180
6180
6180
3300
1E00
0000
0000
0000
0000
ENDCHAR
STARTCHAR U+00f6 latin small letter o with diaresis
ENCODING 246
SWIDTH 480 0
DWIDTH 10 0
BBX 10 20 0 -4
BITMAP
0000
0000
0000
3300
3300
0000
0000
1E00
3300
6180
6180
6180
6180
6180
3300
1E00
0000
0000
0000
0000
ENDCHAR
STARTCHAR U+00f7 division sign
ENCODING 247
SWIDTH 480 0
DWIDTH 10 0
BBX 10 20 0 -4
BITMAP
0000
0000
0000
0000
0000
0000
0C00
0C00
0000
0000
7F80
0000
0000
0C00
0C00
0000
0000
0000
0000
0000
ENDCHAR
STARTCHAR U+00f8 latin small letter o with stroke
ENCODING 248
SWIDTH 480 0
DWIDTH 10 0
BBX 10 20 0 -4
BITMAP
0000
0000
0000
0000
0000
0000
0100
1E00
3300
6380
6580
6580
6980
6980
3300
1E00
2000
0000
0000
0000
ENDCHAR
STARTCHAR U+00f9 latin small letter u with grave
ENCODING 249
SWIDTH 480 0
DWIDTH 10 0
BBX 10 20 0 -4
BITMAP
0000
0000
0000
3800
0C00
0200
0000
6180
6180
6180
6180
6180
6180
6180
3380
1D80
0000
0000
0000
0000
ENDCHAR
STARTCHAR U+00fa latin small letter u with acute
ENCODING 250
SWIDTH 480 0
DWIDTH 10 0
BBX 10 20 0 -4
BITMAP
0000
0000
0000
0700
0C00
1000
0000
6180
6180
6180
6180
6180
6180
6180
3380
1D80
0000
0000
0000
0000
ENDCHAR
STARTCHAR U+00fb latin small letter u with circumflex
ENCODING 251
SWIDTH 480 0
DWIDTH 10 0
BBX 10 20 0 -4
BITMAP
0000
0000
0000
0C00
1E00
3300
0000
6180
6180
6180
6180
6180
6180
6180
3380
1D80
0000
0000
0000
0000
ENDCHAR
STARTCHAR U+00fc latin small letter u with diaresis
ENCODING 252
SWIDTH 480 0
DWIDTH 10 0
BBX 10 20 0 -4
BITMAP
0000
0000
0000
3300
3300
0000
0000
6180
6180
6180
6180
6180
6180
6180
3380
1D80
0000
0000
0000
0000
ENDCHAR
STARTCHAR U+0131 latin small letter dotless i
ENCODING 253
SWIDTH 480 0
DWIDTH 10 0
BBX 10 20 0 -4
BITMAP
0000
0000
0000
0000
0000
0000
0000
3C00
0C00
0C00
0C00
0C00
0C00
0C00
0C00
0C00
0000
0000
0000
0000
ENDCHAR
STARTCHAR U+015f latin small letter s with cedilla
ENCODING 254
SWIDTH 480 0
DWIDTH 10 0
BBX 10 20 0 -4
BITMAP
0000
0000
0000
0000
0000
0000
0000
3F00
6180
6000
3800
0E00
0300
0180
6180
3F00
0C00
0600
1C00
0000
ENDCHAR
STARTCHAR U+00ff latin small letter y with diaresis
ENCODING 255
SWIDTH 480 0
DWIDTH 10 0
BBX 10 20 0 -4
BITMAP
0000
0000
0000
3300
3300
0000
0000
6180
6180
6180
6180
6180
6180
3380
1D80
0180
0180
6180
3300
1E00
ENDCHAR
ENDFONT
