STARTFONT 2.1
FONT -jmk-Neep-Medium-R-SemiCondensed-AltGlyph-11-100-75-75-C-50-US-ASCII
SIZE 10 75 75
FONTBOUNDINGBOX 5 11 0 -2
STARTPROPERTIES 29
FONTNAME_REGISTRY ""
FOUNDRY "jmk"
FAMILY_NAME "Neep"
WEIGHT_NAME "Medium"
SLANT "R"
SETWIDTH_NAME "SemiCondensed"
ADD_STYLE_NAME "AltGlyph"
PIXEL_SIZE 11
POINT_SIZE 100
RESOLUTION_X 75
RESOLUTION_Y 75
SPACING "C"
AVERAGE_WIDTH 50
CHARSET_REGISTRY "US"
CHARSET_ENCODING "ASCII"
COPYRIGHT "Jim Knoble <jmknoble@pobox.com>"
WEIGHT 140
RESOLUTION 75
X_HEIGHT 5
FIGURE_WIDTH 5
QUAD_WIDTH 5
FONT_ASCENT 9
FONT_DESCENT 2
_XMBDFED_INFO "Edited with xmbdfed 3.2."
RELATIVE_WEIGHT 50
RELATIVE_SETWIDTH 40
CAP_HEIGHT 7
UNDERLINE_POSITION -1
UNDERLINE_THICKNESS 1
ENDPROPERTIES
CHARS 1
STARTCHAR U+0026 ampersand
ENCODING 38
SWIDTH 480 0
DWIDTH 5 0
BBX 5 11 0 -2
BITMAP
00
00
40
A0
A0
40
B0
A0
70
00
00
ENDCHAR
ENDFONT
