STARTFONT 2.1
FONT -jmk-Neep-Bold-R-Normal-AltGlyph-24-240-75-75-C-120-US-ASCII
SIZE 24 75 75
FONTBOUNDINGBOX 12 24 0 -5
STARTPROPERTIES 29
FONTNAME_REGISTRY ""
FOUNDRY "jmk"
FAMILY_NAME "Neep"
WEIGHT_NAME "Bold"
SLANT "R"
SETWIDTH_NAME "Normal"
ADD_STYLE_NAME "AltGlyph"
PIXEL_SIZE 24
POINT_SIZE 240
RESOLUTION_X 75
RESOLUTION_Y 75
SPACING "C"
AVERAGE_WIDTH 120
CHARSET_REGISTRY "US"
CHARSET_ENCODING "ASCII"
COPYRIGHT "Jim Knoble <jmknoble@pobox.com>"
WEIGHT 188
RESOLUTION 75
X_HEIGHT 11
FIGURE_WIDTH 12
QUAD_WIDTH 12
FONT_ASCENT 19
FONT_DESCENT 5
_XMBDFED_INFO "Edited with xmbdfed 3.2."
RELATIVE_WEIGHT 70
RELATIVE_SETWIDTH 50
CAP_HEIGHT 16
UNDERLINE_POSITION -2
UNDERLINE_THICKNESS 2
ENDPROPERTIES
CHARS 1
STARTCHAR U+0026 ampersand
ENCODING 38
SWIDTH 480 0
DWIDTH 12 0
BBX 12 24 0 -5
BITMAP
0000
0000
0000
0000
1E00
3F00
7F80
7380
7380
3F00
3E00
3EE0
77E0
73E0
71C0
79C0
7FE0
3FE0
1EE0
0000
0000
0000
0000
0000
ENDCHAR
ENDFONT
