STARTFONT 2.1
FONT -Misc-TamzenForPowerline-Bold-R-Normal--13-94-100-100-C-70-ISO10646-1
SIZE 13 100 100
FONTBOUNDINGBOX 7 13 0 -2
STARTPROPERTIES 25
ADD_STYLE_NAME ""
AVERAGE_WIDTH 70
CAP_HEIGHT 7
CHARSET_ENCODING "1"
CHARSET_REGISTRY "ISO10646"
COPYRIGHT "(c) 2015 Scott Fial"
DEFAULT_CHAR 0
FACE_NAME "-Misc-TamzenForPowerline-Bold-R-Normal--13-94-100-100-C-70-ISO10646-1"
FAMILY_NAME "TamzenForPowerline"
FONTNAME_REGISTRY ""
FONT_ASCENT 11
FONT_DESCENT 2
FONT_VERSION "1.11"
FOUNDRY "Misc"
PIXEL_SIZE 19
POINT_SIZE 130
QUAD_WIDTH 7
RESOLUTION_X 100
RESOLUTION_Y 100
SETWIDTH_NAME "Normal"
SLANT "R"
SPACING "C"
WEIGHT 10
WEIGHT_NAME "Bold"
X_HEIGHT 5
ENDPROPERTIES 
CHARS 198

STARTCHAR U+0000
ENCODING 0
SWIDTH 368 0
DWIDTH 7 0
BBX 7 13 0 -2
BITMAP
00
00
00
00
7C
6C
6C
6C
6C
7C
00
00
00
ENDCHAR
STARTCHAR U+2592
ENCODING 2
SWIDTH 368 0
DWIDTH 7 0
BBX 7 13 0 -2
BITMAP
AA
54
AA
54
AA
54
AA
54
AA
54
AA
54
AA
ENDCHAR
STARTCHAR U+00B0
ENCODING 7
SWIDTH 368 0
DWIDTH 7 0
BBX 7 13 0 -2
BITMAP
00
00
00
70
D8
D8
70
00
00
00
00
00
00
ENDCHAR
STARTCHAR U+2518
ENCODING 11
SWIDTH 368 0
DWIDTH 7 0
BBX 7 13 0 -2
BITMAP
30
30
30
30
30
30
F0
00
00
00
00
00
00
ENDCHAR
STARTCHAR U+2510
ENCODING 12
SWIDTH 368 0
DWIDTH 7 0
BBX 7 13 0 -2
BITMAP
00
00
00
00
00
00
F0
30
30
30
30
30
30
ENDCHAR
STARTCHAR U+250C
ENCODING 13
SWIDTH 368 0
DWIDTH 7 0
BBX 7 13 0 -2
BITMAP
00
00
00
00
00
00
3E
30
30
30
30
30
30
ENDCHAR
STARTCHAR U+2514
ENCODING 14
SWIDTH 368 0
DWIDTH 7 0
BBX 7 13 0 -2
BITMAP
30
30
30
30
30
30
3E
00
00
00
00
00
00
ENDCHAR
STARTCHAR U+253C
ENCODING 15
SWIDTH 368 0
DWIDTH 7 0
BBX 7 13 0 -2
BITMAP
30
30
30
30
30
30
FE
30
30
30
30
30
30
ENDCHAR
STARTCHAR U+2500
ENCODING 18
SWIDTH 368 0
DWIDTH 7 0
BBX 7 13 0 -2
BITMAP
00
00
00
00
00
00
FE
00
00
00
00
00
00
ENDCHAR
STARTCHAR U+251C
ENCODING 21
SWIDTH 368 0
DWIDTH 7 0
BBX 7 13 0 -2
BITMAP
30
30
30
30
30
30
3E
30
30
30
30
30
30
ENDCHAR
STARTCHAR U+2524
ENCODING 22
SWIDTH 368 0
DWIDTH 7 0
BBX 7 13 0 -2
BITMAP
30
30
30
30
30
30
F0
30
30
30
30
30
30
ENDCHAR
STARTCHAR U+2534
ENCODING 23
SWIDTH 368 0
DWIDTH 7 0
BBX 7 13 0 -2
BITMAP
30
30
30
30
30
30
FE
00
00
00
00
00
00
ENDCHAR
STARTCHAR U+252C
ENCODING 24
SWIDTH 368 0
DWIDTH 7 0
BBX 7 13 0 -2
BITMAP
00
00
00
00
00
00
FE
30
30
30
30
30
30
ENDCHAR
STARTCHAR U+2502
ENCODING 25
SWIDTH 368 0
DWIDTH 7 0
BBX 7 13 0 -2
BITMAP
30
30
30
30
30
30
30
30
30
30
30
30
30
ENDCHAR
STARTCHAR U+00A3
ENCODING 30
SWIDTH 368 0
DWIDTH 7 0
BBX 7 13 0 -2
BITMAP
00
00
00
38
60
60
F8
60
60
FC
00
00
00
ENDCHAR
STARTCHAR U+0020
ENCODING 32
SWIDTH 368 0
DWIDTH 7 0
BBX 7 13 0 -2
BITMAP
00
00
00
00
00
00
00
00
00
00
00
00
00
ENDCHAR
STARTCHAR U+0021
ENCODING 33
SWIDTH 368 0
DWIDTH 7 0
BBX 7 13 0 -2
BITMAP
00
00
30
78
78
30
30
00
00
30
00
00
00
ENDCHAR
STARTCHAR U+0022
ENCODING 34
SWIDTH 368 0
DWIDTH 7 0
BBX 7 13 0 -2
BITMAP
00
00
D8
D8
D8
00
00
00
00
00
00
00
00
ENDCHAR
STARTCHAR U+0023
ENCODING 35
SWIDTH 368 0
DWIDTH 7 0
BBX 7 13 0 -2
BITMAP
00
48
48
FC
FC
48
48
FC
FC
48
48
00
00
ENDCHAR
STARTCHAR U+0024
ENCODING 36
SWIDTH 368 0
DWIDTH 7 0
BBX 7 13 0 -2
BITMAP
00
18
18
3C
60
30
18
0C
78
30
30
00
00
ENDCHAR
STARTCHAR U+0025
ENCODING 37
SWIDTH 368 0
DWIDTH 7 0
BBX 7 13 0 -2
BITMAP
00
00
60
D0
DC
78
30
78
F4
34
18
00
00
ENDCHAR
STARTCHAR U+0026
ENCODING 38
SWIDTH 368 0
DWIDTH 7 0
BBX 7 13 0 -2
BITMAP
00
00
70
D8
D8
70
DE
CC
CC
7E
00
00
00
ENDCHAR
STARTCHAR U+0027
ENCODING 39
SWIDTH 368 0
DWIDTH 7 0
BBX 7 13 0 -2
BITMAP
00
00
30
30
30
00
00
00
00
00
00
00
00
ENDCHAR
STARTCHAR U+0028
ENCODING 40
SWIDTH 368 0
DWIDTH 7 0
BBX 7 13 0 -2
BITMAP
00
00
18
30
30
60
60
60
60
30
30
18
00
ENDCHAR
STARTCHAR U+0029
ENCODING 41
SWIDTH 368 0
DWIDTH 7 0
BBX 7 13 0 -2
BITMAP
00
00
60
30
30
18
18
18
18
30
30
60
00
ENDCHAR
STARTCHAR U+002A
ENCODING 42
SWIDTH 368 0
DWIDTH 7 0
BBX 7 13 0 -2
BITMAP
00
00
00
00
6C
38
FE
38
6C
00
00
00
00
ENDCHAR
STARTCHAR U+002B
ENCODING 43
SWIDTH 368 0
DWIDTH 7 0
BBX 7 13 0 -2
BITMAP
00
00
00
00
30
30
FC
30
30
00
00
00
00
ENDCHAR
STARTCHAR U+002C
ENCODING 44
SWIDTH 368 0
DWIDTH 7 0
BBX 7 13 0 -2
BITMAP
00
00
00
00
00
00
00
00
70
70
30
60
00
ENDCHAR
STARTCHAR U+002D
ENCODING 45
SWIDTH 368 0
DWIDTH 7 0
BBX 7 13 0 -2
BITMAP
00
00
00
00
00
00
FC
00
00
00
00
00
00
ENDCHAR
STARTCHAR U+002E
ENCODING 46
SWIDTH 368 0
DWIDTH 7 0
BBX 7 13 0 -2
BITMAP
00
00
00
00
00
00
00
00
70
70
00
00
00
ENDCHAR
STARTCHAR U+002F
ENCODING 47
SWIDTH 368 0
DWIDTH 7 0
BBX 7 13 0 -2
BITMAP
00
00
00
18
18
30
30
60
60
C0
C0
00
00
ENDCHAR
STARTCHAR U+0030
ENCODING 48
SWIDTH 368 0
DWIDTH 7 0
BBX 7 13 0 -2
BITMAP
00
00
00
78
CC
DC
EC
EC
CC
78
00
00
00
ENDCHAR
STARTCHAR U+0031
ENCODING 49
SWIDTH 368 0
DWIDTH 7 0
BBX 7 13 0 -2
BITMAP
00
00
00
30
70
F0
30
30
30
FC
00
00
00
ENDCHAR
STARTCHAR U+0032
ENCODING 50
SWIDTH 368 0
DWIDTH 7 0
BBX 7 13 0 -2
BITMAP
00
00
00
78
CC
0C
18
30
60
FC
00
00
00
ENDCHAR
STARTCHAR U+0033
ENCODING 51
SWIDTH 368 0
DWIDTH 7 0
BBX 7 13 0 -2
BITMAP
00
00
00
FC
0C
18
38
0C
CC
78
00
00
00
ENDCHAR
STARTCHAR U+0034
ENCODING 52
SWIDTH 368 0
DWIDTH 7 0
BBX 7 13 0 -2
BITMAP
00
00
00
18
38
78
D8
FC
18
18
00
00
00
ENDCHAR
STARTCHAR U+0035
ENCODING 53
SWIDTH 368 0
DWIDTH 7 0
BBX 7 13 0 -2
BITMAP
00
00
00
FC
C0
F8
0C
0C
CC
78
00
00
00
ENDCHAR
STARTCHAR U+0036
ENCODING 54
SWIDTH 368 0
DWIDTH 7 0
BBX 7 13 0 -2
BITMAP
00
00
00
38
60
C0
F8
CC
CC
78
00
00
00
ENDCHAR
STARTCHAR U+0037
ENCODING 55
SWIDTH 368 0
DWIDTH 7 0
BBX 7 13 0 -2
BITMAP
00
00
00
FC
0C
18
18
30
30
30
00
00
00
ENDCHAR
STARTCHAR U+0038
ENCODING 56
SWIDTH 368 0
DWIDTH 7 0
BBX 7 13 0 -2
BITMAP
00
00
00
78
CC
CC
78
CC
CC
78
00
00
00
ENDCHAR
STARTCHAR U+0039
ENCODING 57
SWIDTH 368 0
DWIDTH 7 0
BBX 7 13 0 -2
BITMAP
00
00
00
78
CC
CC
7C
0C
18
70
00
00
00
ENDCHAR
STARTCHAR U+003A
ENCODING 58
SWIDTH 368 0
DWIDTH 7 0
BBX 7 13 0 -2
BITMAP
00
00
00
00
70
70
00
00
70
70
00
00
00
ENDCHAR
STARTCHAR U+003B
ENCODING 59
SWIDTH 368 0
DWIDTH 7 0
BBX 7 13 0 -2
BITMAP
00
00
00
00
70
70
00
00
70
70
30
60
00
ENDCHAR
STARTCHAR U+003C
ENCODING 60
SWIDTH 368 0
DWIDTH 7 0
BBX 7 13 0 -2
BITMAP
00
00
00
0C
18
30
60
30
18
0C
00
00
00
ENDCHAR
STARTCHAR U+003D
ENCODING 61
SWIDTH 368 0
DWIDTH 7 0
BBX 7 13 0 -2
BITMAP
00
00
00
00
00
FC
00
FC
00
00
00
00
00
ENDCHAR
STARTCHAR U+003E
ENCODING 62
SWIDTH 368 0
DWIDTH 7 0
BBX 7 13 0 -2
BITMAP
00
00
00
C0
60
30
18
30
60
C0
00
00
00
ENDCHAR
STARTCHAR U+003F
ENCODING 63
SWIDTH 368 0
DWIDTH 7 0
BBX 7 13 0 -2
BITMAP
00
00
78
CC
0C
18
30
00
00
30
00
00
00
ENDCHAR
STARTCHAR U+0040
ENCODING 64
SWIDTH 368 0
DWIDTH 7 0
BBX 7 13 0 -2
BITMAP
00
00
78
CC
CC
DC
DC
DC
C0
C0
7C
00
00
ENDCHAR
STARTCHAR U+0041
ENCODING 65
SWIDTH 368 0
DWIDTH 7 0
BBX 7 13 0 -2
BITMAP
00
00
00
30
78
CC
CC
FC
CC
CC
00
00
00
ENDCHAR
STARTCHAR U+0042
ENCODING 66
SWIDTH 368 0
DWIDTH 7 0
BBX 7 13 0 -2
BITMAP
00
00
00
F8
CC
CC
F8
CC
CC
F8
00
00
00
ENDCHAR
STARTCHAR U+0043
ENCODING 67
SWIDTH 368 0
DWIDTH 7 0
BBX 7 13 0 -2
BITMAP
00
00
00
3C
60
C0
C0
C0
60
3C
00
00
00
ENDCHAR
STARTCHAR U+0044
ENCODING 68
SWIDTH 368 0
DWIDTH 7 0
BBX 7 13 0 -2
BITMAP
00
00
00
F0
D8
CC
CC
CC
D8
F0
00
00
00
ENDCHAR
STARTCHAR U+0045
ENCODING 69
SWIDTH 368 0
DWIDTH 7 0
BBX 7 13 0 -2
BITMAP
00
00
00
FC
C0
C0
F8
C0
C0
FC
00
00
00
ENDCHAR
STARTCHAR U+0046
ENCODING 70
SWIDTH 368 0
DWIDTH 7 0
BBX 7 13 0 -2
BITMAP
00
00
00
FC
C0
C0
F8
C0
C0
C0
00
00
00
ENDCHAR
STARTCHAR U+0047
ENCODING 71
SWIDTH 368 0
DWIDTH 7 0
BBX 7 13 0 -2
BITMAP
00
00
00
3C
60
C0
DC
CC
6C
3C
00
00
00
ENDCHAR
STARTCHAR U+0048
ENCODING 72
SWIDTH 368 0
DWIDTH 7 0
BBX 7 13 0 -2
BITMAP
00
00
00
CC
CC
CC
FC
CC
CC
CC
00
00
00
ENDCHAR
STARTCHAR U+0049
ENCODING 73
SWIDTH 368 0
DWIDTH 7 0
BBX 7 13 0 -2
BITMAP
00
00
00
FC
30
30
30
30
30
FC
00
00
00
ENDCHAR
STARTCHAR U+004A
ENCODING 74
SWIDTH 368 0
DWIDTH 7 0
BBX 7 13 0 -2
BITMAP
00
00
00
0C
0C
0C
0C
CC
CC
78
00
00
00
ENDCHAR
STARTCHAR U+004B
ENCODING 75
SWIDTH 368 0
DWIDTH 7 0
BBX 7 13 0 -2
BITMAP
00
00
00
CC
D8
F0
E0
F0
D8
CC
00
00
00
ENDCHAR
STARTCHAR U+004C
ENCODING 76
SWIDTH 368 0
DWIDTH 7 0
BBX 7 13 0 -2
BITMAP
00
00
00
C0
C0
C0
C0
C0
C0
FC
00
00
00
ENDCHAR
STARTCHAR U+004D
ENCODING 77
SWIDTH 368 0
DWIDTH 7 0
BBX 7 13 0 -2
BITMAP
00
00
00
CC
FC
FC
CC
CC
CC
CC
00
00
00
ENDCHAR
STARTCHAR U+004E
ENCODING 78
SWIDTH 368 0
DWIDTH 7 0
BBX 7 13 0 -2
BITMAP
00
00
00
CC
EC
FC
DC
CC
CC
CC
00
00
00
ENDCHAR
STARTCHAR U+004F
ENCODING 79
SWIDTH 368 0
DWIDTH 7 0
BBX 7 13 0 -2
BITMAP
00
00
00
78
CC
CC
CC
CC
CC
78
00
00
00
ENDCHAR
STARTCHAR U+0050
ENCODING 80
SWIDTH 368 0
DWIDTH 7 0
BBX 7 13 0 -2
BITMAP
00
00
00
F8
CC
CC
F8
C0
C0
C0
00
00
00
ENDCHAR
STARTCHAR U+0051
ENCODING 81
SWIDTH 368 0
DWIDTH 7 0
BBX 7 13 0 -2
BITMAP
00
00
00
78
CC
CC
CC
CC
CC
78
18
0C
00
ENDCHAR
STARTCHAR U+0052
ENCODING 82
SWIDTH 368 0
DWIDTH 7 0
BBX 7 13 0 -2
BITMAP
00
00
00
F8
CC
CC
F8
D8
CC
CC
00
00
00
ENDCHAR
STARTCHAR U+0053
ENCODING 83
SWIDTH 368 0
DWIDTH 7 0
BBX 7 13 0 -2
BITMAP
00
00
00
7C
C0
C0
78
0C
0C
F8
00
00
00
ENDCHAR
STARTCHAR U+0054
ENCODING 84
SWIDTH 368 0
DWIDTH 7 0
BBX 7 13 0 -2
BITMAP
00
00
00
FC
30
30
30
30
30
30
00
00
00
ENDCHAR
STARTCHAR U+0055
ENCODING 85
SWIDTH 368 0
DWIDTH 7 0
BBX 7 13 0 -2
BITMAP
00
00
00
CC
CC
CC
CC
CC
CC
78
00
00
00
ENDCHAR
STARTCHAR U+0056
ENCODING 86
SWIDTH 368 0
DWIDTH 7 0
BBX 7 13 0 -2
BITMAP
00
00
00
CC
CC
CC
CC
CC
78
30
00
00
00
ENDCHAR
STARTCHAR U+0057
ENCODING 87
SWIDTH 368 0
DWIDTH 7 0
BBX 7 13 0 -2
BITMAP
00
00
00
CC
CC
CC
CC
FC
FC
CC
00
00
00
ENDCHAR
STARTCHAR U+0058
ENCODING 88
SWIDTH 368 0
DWIDTH 7 0
BBX 7 13 0 -2
BITMAP
00
00
00
CC
CC
78
30
78
CC
CC
00
00
00
ENDCHAR
STARTCHAR U+0059
ENCODING 89
SWIDTH 368 0
DWIDTH 7 0
BBX 7 13 0 -2
BITMAP
00
00
00
CC
CC
78
30
30
30
30
00
00
00
ENDCHAR
STARTCHAR U+005A
ENCODING 90
SWIDTH 368 0
DWIDTH 7 0
BBX 7 13 0 -2
BITMAP
00
00
00
FC
18
30
30
60
60
FC
00
00
00
ENDCHAR
STARTCHAR U+005B
ENCODING 91
SWIDTH 368 0
DWIDTH 7 0
BBX 7 13 0 -2
BITMAP
00
00
78
60
60
60
60
60
60
60
60
78
00
ENDCHAR
STARTCHAR U+005C
ENCODING 92
SWIDTH 368 0
DWIDTH 7 0
BBX 7 13 0 -2
BITMAP
00
00
00
C0
C0
60
60
30
30
18
18
00
00
ENDCHAR
STARTCHAR U+005D
ENCODING 93
SWIDTH 368 0
DWIDTH 7 0
BBX 7 13 0 -2
BITMAP
00
00
78
18
18
18
18
18
18
18
18
78
00
ENDCHAR
STARTCHAR U+005E
ENCODING 94
SWIDTH 368 0
DWIDTH 7 0
BBX 7 13 0 -2
BITMAP
00
00
00
30
78
CC
00
00
00
00
00
00
00
ENDCHAR
STARTCHAR U+005F
ENCODING 95
SWIDTH 368 0
DWIDTH 7 0
BBX 7 13 0 -2
BITMAP
00
00
00
00
00
00
00
00
00
00
00
FE
00
ENDCHAR
STARTCHAR U+0060
ENCODING 96
SWIDTH 368 0
DWIDTH 7 0
BBX 7 13 0 -2
BITMAP
00
00
60
30
18
00
00
00
00
00
00
00
00
ENDCHAR
STARTCHAR U+0061
ENCODING 97
SWIDTH 368 0
DWIDTH 7 0
BBX 7 13 0 -2
BITMAP
00
00
00
00
00
78
0C
7C
CC
7C
00
00
00
ENDCHAR
STARTCHAR U+0062
ENCODING 98
SWIDTH 368 0
DWIDTH 7 0
BBX 7 12 0 -2
BITMAP
00
00
00
C0
C0
F8
CC
CC
CC
F8
00
00
ENDCHAR
STARTCHAR U+0063
ENCODING 99
SWIDTH 368 0
DWIDTH 7 0
BBX 7 13 0 -2
BITMAP
00
00
00
00
00
7C
C0
C0
C0
7C
00
00
00
ENDCHAR
STARTCHAR U+0064
ENCODING 100
SWIDTH 368 0
DWIDTH 7 0
BBX 7 13 0 -2
BITMAP
00
00
00
0C
0C
7C
CC
CC
CC
7C
00
00
00
ENDCHAR
STARTCHAR U+0065
ENCODING 101
SWIDTH 368 0
DWIDTH 7 0
BBX 7 13 0 -2
BITMAP
00
00
00
00
00
78
CC
FC
C0
7C
00
00
00
ENDCHAR
STARTCHAR U+0066
ENCODING 102
SWIDTH 368 0
DWIDTH 7 0
BBX 7 13 0 -2
BITMAP
00
00
00
3C
60
FC
60
60
60
60
00
00
00
ENDCHAR
STARTCHAR U+0067
ENCODING 103
SWIDTH 368 0
DWIDTH 7 0
BBX 7 13 0 -2
BITMAP
00
00
00
00
00
7C
CC
CC
CC
7C
0C
78
00
ENDCHAR
STARTCHAR U+0068
ENCODING 104
SWIDTH 368 0
DWIDTH 7 0
BBX 7 12 0 -2
BITMAP
00
00
00
C0
C0
F8
CC
CC
CC
CC
00
00
ENDCHAR
STARTCHAR U+0069
ENCODING 105
SWIDTH 368 0
DWIDTH 7 0
BBX 7 13 0 -2
BITMAP
00
00
00
30
00
F0
30
30
30
FC
00
00
00
ENDCHAR
STARTCHAR U+006A
ENCODING 106
SWIDTH 368 0
DWIDTH 7 0
BBX 7 13 0 -2
BITMAP
00
00
00
18
00
78
18
18
18
18
18
F0
00
ENDCHAR
STARTCHAR U+006B
ENCODING 107
SWIDTH 368 0
DWIDTH 7 0
BBX 7 13 0 -2
BITMAP
00
00
00
C0
C0
D8
F0
F0
D8
CC
00
00
00
ENDCHAR
STARTCHAR U+006c
ENCODING 108
SWIDTH 368 0
DWIDTH 7 0
BBX 7 12 0 -2
BITMAP
00
00
00
70
30
30
30
30
30
1C
00
00
ENDCHAR
STARTCHAR U+006d
ENCODING 109
SWIDTH 368 0
DWIDTH 7 0
BBX 7 12 0 -2
BITMAP
00
00
00
00
00
F8
D4
D4
D4
D4
00
00
ENDCHAR
STARTCHAR U+006e
ENCODING 110
SWIDTH 368 0
DWIDTH 7 0
BBX 7 12 0 -2
BITMAP
00
00
00
00
00
F8
CC
CC
CC
CC
00
00
ENDCHAR
STARTCHAR U+006F
ENCODING 111
SWIDTH 368 0
DWIDTH 7 0
BBX 7 13 0 -2
BITMAP
00
00
00
00
00
78
CC
CC
CC
78
00
00
00
ENDCHAR
STARTCHAR U+0070
ENCODING 112
SWIDTH 368 0
DWIDTH 7 0
BBX 7 12 0 -2
BITMAP
00
00
00
00
00
F8
CC
CC
CC
F8
C0
C0
ENDCHAR
STARTCHAR U+0071
ENCODING 113
SWIDTH 368 0
DWIDTH 7 0
BBX 7 12 0 -2
BITMAP
00
00
00
00
00
7C
CC
CC
CC
7C
0C
0C
ENDCHAR
STARTCHAR U+0072
ENCODING 114
SWIDTH 368 0
DWIDTH 7 0
BBX 7 13 0 -2
BITMAP
00
00
00
00
00
DC
E0
C0
C0
C0
00
00
00
ENDCHAR
STARTCHAR U+0073
ENCODING 115
SWIDTH 368 0
DWIDTH 7 0
BBX 7 13 0 -2
BITMAP
00
00
00
00
00
7C
C0
78
0C
F8
00
00
00
ENDCHAR
STARTCHAR U+0074
ENCODING 116
SWIDTH 368 0
DWIDTH 7 0
BBX 7 13 0 -2
BITMAP
00
00
00
00
60
FC
60
60
60
3C
00
00
00
ENDCHAR
STARTCHAR U+0075
ENCODING 117
SWIDTH 368 0
DWIDTH 7 0
BBX 7 13 0 -2
BITMAP
00
00
00
00
00
CC
CC
CC
CC
7C
00
00
00
ENDCHAR
STARTCHAR U+0076
ENCODING 118
SWIDTH 368 0
DWIDTH 7 0
BBX 7 13 0 -2
BITMAP
00
00
00
00
00
CC
CC
CC
78
30
00
00
00
ENDCHAR
STARTCHAR U+0077
ENCODING 119
SWIDTH 368 0
DWIDTH 7 0
BBX 7 12 0 -2
BITMAP
00
00
00
00
00
D4
D4
D4
D4
F8
00
00
ENDCHAR
STARTCHAR U+0078
ENCODING 120
SWIDTH 368 0
DWIDTH 7 0
BBX 7 13 0 -2
BITMAP
00
00
00
00
00
CC
78
30
78
CC
00
00
00
ENDCHAR
STARTCHAR U+0079
ENCODING 121
SWIDTH 368 0
DWIDTH 7 0
BBX 7 12 0 -2
BITMAP
00
00
00
00
00
CC
CC
CC
CC
7C
0C
78
ENDCHAR
STARTCHAR U+007A
ENCODING 122
SWIDTH 368 0
DWIDTH 7 0
BBX 7 13 0 -2
BITMAP
00
00
00
00
00
FC
18
30
60
FC
00
00
00
ENDCHAR
STARTCHAR U+007B
ENCODING 123
SWIDTH 368 0
DWIDTH 7 0
BBX 7 13 0 -2
BITMAP
00
1C
30
30
30
30
E0
30
30
30
30
1C
00
ENDCHAR
STARTCHAR U+007C
ENCODING 124
SWIDTH 368 0
DWIDTH 7 0
BBX 7 13 0 -2
BITMAP
00
00
30
30
30
30
30
30
30
30
30
00
00
ENDCHAR
STARTCHAR U+007D
ENCODING 125
SWIDTH 368 0
DWIDTH 7 0
BBX 7 13 0 -2
BITMAP
00
E0
30
30
30
30
1C
30
30
30
30
E0
00
ENDCHAR
STARTCHAR U+007E
ENCODING 126
SWIDTH 368 0
DWIDTH 7 0
BBX 7 13 0 -2
BITMAP
00
00
00
64
FC
98
00
00
00
00
00
00
00
ENDCHAR
STARTCHAR U+00A0
ENCODING 160
SWIDTH 368 0
DWIDTH 7 0
BBX 7 13 0 -2
BITMAP
00
00
00
00
00
00
00
00
00
00
00
00
00
ENDCHAR
STARTCHAR U+00A1
ENCODING 161
SWIDTH 368 0
DWIDTH 7 0
BBX 7 13 0 -2
BITMAP
00
00
00
00
30
00
00
30
30
30
30
30
00
ENDCHAR
STARTCHAR U+00A2
ENCODING 162
SWIDTH 368 0
DWIDTH 7 0
BBX 7 13 0 -2
BITMAP
00
00
30
30
78
C0
C0
C0
78
30
30
00
00
ENDCHAR
STARTCHAR U+00A3
ENCODING 163
SWIDTH 368 0
DWIDTH 7 0
BBX 7 13 0 -2
BITMAP
00
00
00
38
60
60
F8
60
60
FC
00
00
00
ENDCHAR
STARTCHAR U+00A4
ENCODING 164
SWIDTH 368 0
DWIDTH 7 0
BBX 7 13 0 -2
BITMAP
00
00
00
00
CC
78
78
78
CC
00
00
00
00
ENDCHAR
STARTCHAR U+00A5
ENCODING 165
SWIDTH 368 0
DWIDTH 7 0
BBX 7 13 0 -2
BITMAP
00
00
00
CC
78
30
FC
30
FC
30
00
00
00
ENDCHAR
STARTCHAR U+00A6
ENCODING 166
SWIDTH 368 0
DWIDTH 7 0
BBX 7 13 0 -2
BITMAP
00
00
30
30
30
30
00
30
30
30
30
00
00
ENDCHAR
STARTCHAR U+00A8
ENCODING 168
SWIDTH 368 0
DWIDTH 7 0
BBX 7 13 0 -2
BITMAP
00
00
00
78
00
00
00
00
00
00
00
00
00
ENDCHAR
STARTCHAR U+00A9
ENCODING 169
SWIDTH 368 0
DWIDTH 7 0
BBX 7 13 0 -2
BITMAP
00
00
00
78
84
B4
A4
B4
84
78
00
00
00
ENDCHAR
STARTCHAR U+00AB
ENCODING 171
SWIDTH 368 0
DWIDTH 7 0
BBX 7 13 0 -2
BITMAP
00
00
00
00
00
3C
78
F0
78
3C
00
00
00
ENDCHAR
STARTCHAR U+00AD
ENCODING 173
SWIDTH 368 0
DWIDTH 7 0
BBX 7 13 0 -2
BITMAP
00
00
00
00
00
00
FC
00
00
00
00
00
00
ENDCHAR
STARTCHAR U+00B0
ENCODING 176
SWIDTH 368 0
DWIDTH 7 0
BBX 7 13 0 -2
BITMAP
00
00
00
70
D8
D8
70
00
00
00
00
00
00
ENDCHAR
STARTCHAR U+00B4
ENCODING 180
SWIDTH 368 0
DWIDTH 7 0
BBX 7 13 0 -2
BITMAP
00
00
18
30
00
00
00
00
00
00
00
00
00
ENDCHAR
STARTCHAR U+00B8
ENCODING 184
SWIDTH 368 0
DWIDTH 7 0
BBX 7 13 0 -2
BITMAP
00
00
00
00
00
00
00
00
00
00
18
70
00
ENDCHAR
STARTCHAR U+00BB
ENCODING 187
SWIDTH 368 0
DWIDTH 7 0
BBX 7 13 0 -2
BITMAP
00
00
00
00
00
F0
78
3C
78
F0
00
00
00
ENDCHAR
STARTCHAR U+00BF
ENCODING 191
SWIDTH 368 0
DWIDTH 7 0
BBX 7 13 0 -2
BITMAP
00
00
00
00
30
00
00
30
60
C0
C4
78
00
ENDCHAR
STARTCHAR U+00C0
ENCODING 192
SWIDTH 368 0
DWIDTH 7 0
BBX 7 13 0 -2
BITMAP
60
30
00
30
78
CC
CC
FC
CC
CC
00
00
00
ENDCHAR
STARTCHAR U+00C1
ENCODING 193
SWIDTH 368 0
DWIDTH 7 0
BBX 7 13 0 -2
BITMAP
18
30
00
30
78
CC
CC
FC
CC
CC
00
00
00
ENDCHAR
STARTCHAR U+00C2
ENCODING 194
SWIDTH 368 0
DWIDTH 7 0
BBX 7 13 0 -2
BITMAP
78
CC
00
30
78
CC
CC
FC
CC
CC
00
00
00
ENDCHAR
STARTCHAR U+00C3
ENCODING 195
SWIDTH 368 0
DWIDTH 7 0
BBX 7 13 0 -2
BITMAP
64
FC
98
30
78
CC
CC
FC
CC
CC
00
00
00
ENDCHAR
STARTCHAR U+00C4
ENCODING 196
SWIDTH 368 0
DWIDTH 7 0
BBX 7 13 0 -2
BITMAP
CC
CC
00
30
78
CC
CC
FC
CC
CC
00
00
00
ENDCHAR
STARTCHAR U+00C5
ENCODING 197
SWIDTH 368 0
DWIDTH 7 0
BBX 7 13 0 -2
BITMAP
78
CC
78
30
78
CC
CC
FC
CC
CC
00
00
00
ENDCHAR
STARTCHAR U+00C6
ENCODING 198
SWIDTH 368 0
DWIDTH 7 0
BBX 7 13 0 -2
BITMAP
00
00
00
3C
78
D8
DC
F8
D8
DC
00
00
00
ENDCHAR
STARTCHAR U+00C7
ENCODING 199
SWIDTH 368 0
DWIDTH 7 0
BBX 7 13 0 -2
BITMAP
00
00
00
3C
60
C0
C0
C0
60
3C
18
70
00
ENDCHAR
STARTCHAR U+00C8
ENCODING 200
SWIDTH 368 0
DWIDTH 7 0
BBX 7 13 0 -2
BITMAP
60
30
00
FC
C0
C0
F8
C0
C0
FC
00
00
00
ENDCHAR
STARTCHAR U+00C9
ENCODING 201
SWIDTH 368 0
DWIDTH 7 0
BBX 7 13 0 -2
BITMAP
18
30
00
FC
C0
C0
F8
C0
C0
FC
00
00
00
ENDCHAR
STARTCHAR U+00CA
ENCODING 202
SWIDTH 368 0
DWIDTH 7 0
BBX 7 13 0 -2
BITMAP
78
CC
00
FC
C0
C0
F8
C0
C0
FC
00
00
00
ENDCHAR
STARTCHAR U+00CB
ENCODING 203
SWIDTH 368 0
DWIDTH 7 0
BBX 7 13 0 -2
BITMAP
CC
CC
00
FC
C0
C0
F8
C0
C0
FC
00
00
00
ENDCHAR
STARTCHAR U+00CC
ENCODING 204
SWIDTH 368 0
DWIDTH 7 0
BBX 7 13 0 -2
BITMAP
60
30
00
78
30
30
30
30
30
78
00
00
00
ENDCHAR
STARTCHAR U+00CD
ENCODING 205
SWIDTH 368 0
DWIDTH 7 0
BBX 7 13 0 -2
BITMAP
18
30
00
78
30
30
30
30
30
78
00
00
00
ENDCHAR
STARTCHAR U+00CE
ENCODING 206
SWIDTH 368 0
DWIDTH 7 0
BBX 7 13 0 -2
BITMAP
78
CC
00
78
30
30
30
30
30
78
00
00
00
ENDCHAR
STARTCHAR U+00CF
ENCODING 207
SWIDTH 368 0
DWIDTH 7 0
BBX 7 13 0 -2
BITMAP
CC
CC
00
78
30
30
30
30
30
78
00
00
00
ENDCHAR
STARTCHAR U+00D0
ENCODING 208
SWIDTH 368 0
DWIDTH 7 0
BBX 7 13 0 -2
BITMAP
00
00
00
F8
6C
6C
FC
6C
78
F0
00
00
00
ENDCHAR
STARTCHAR U+00D1
ENCODING 209
SWIDTH 368 0
DWIDTH 7 0
BBX 7 13 0 -2
BITMAP
64
FC
98
00
CC
EC
FC
DC
CC
CC
00
00
00
ENDCHAR
STARTCHAR U+00D2
ENCODING 210
SWIDTH 368 0
DWIDTH 7 0
BBX 7 13 0 -2
BITMAP
60
30
00
78
CC
CC
CC
CC
CC
78
00
00
00
ENDCHAR
STARTCHAR U+00D3
ENCODING 211
SWIDTH 368 0
DWIDTH 7 0
BBX 7 13 0 -2
BITMAP
18
30
00
78
CC
CC
CC
CC
CC
78
00
00
00
ENDCHAR
STARTCHAR U+00D4
ENCODING 212
SWIDTH 368 0
DWIDTH 7 0
BBX 7 13 0 -2
BITMAP
78
CC
00
78
CC
CC
CC
CC
CC
78
00
00
00
ENDCHAR
STARTCHAR U+00D5
ENCODING 213
SWIDTH 368 0
DWIDTH 7 0
BBX 7 13 0 -2
BITMAP
64
FC
98
00
78
CC
CC
CC
CC
78
00
00
00
ENDCHAR
STARTCHAR U+00D6
ENCODING 214
SWIDTH 368 0
DWIDTH 7 0
BBX 7 13 0 -2
BITMAP
CC
CC
00
78
CC
CC
CC
CC
CC
78
00
00
00
ENDCHAR
STARTCHAR U+00D7
ENCODING 215
SWIDTH 368 0
DWIDTH 7 0
BBX 7 13 0 -2
BITMAP
00
00
00
00
00
6C
38
38
6C
00
00
00
00
ENDCHAR
STARTCHAR U+00D8
ENCODING 216
SWIDTH 368 0
DWIDTH 7 0
BBX 7 13 0 -2
BITMAP
00
00
0C
78
CC
D4
D4
E4
E4
78
C0
00
00
ENDCHAR
STARTCHAR U+00D9
ENCODING 217
SWIDTH 368 0
DWIDTH 7 0
BBX 7 13 0 -2
BITMAP
60
30
00
CC
CC
CC
CC
CC
CC
78
00
00
00
ENDCHAR
STARTCHAR U+00DA
ENCODING 218
SWIDTH 368 0
DWIDTH 7 0
BBX 7 13 0 -2
BITMAP
18
30
00
CC
CC
CC
CC
CC
CC
78
00
00
00
ENDCHAR
STARTCHAR U+00DB
ENCODING 219
SWIDTH 368 0
DWIDTH 7 0
BBX 7 13 0 -2
BITMAP
78
CC
00
CC
CC
CC
CC
CC
CC
78
00
00
00
ENDCHAR
STARTCHAR U+00DC
ENCODING 220
SWIDTH 368 0
DWIDTH 7 0
BBX 7 13 0 -2
BITMAP
CC
CC
00
CC
CC
CC
CC
CC
CC
78
00
00
00
ENDCHAR
STARTCHAR U+00DD
ENCODING 221
SWIDTH 368 0
DWIDTH 7 0
BBX 7 13 0 -2
BITMAP
18
30
00
CC
CC
78
30
30
30
30
00
00
00
ENDCHAR
STARTCHAR U+00DE
ENCODING 222
SWIDTH 368 0
DWIDTH 7 0
BBX 7 13 0 -2
BITMAP
00
00
00
C0
F8
CC
CC
CC
F8
C0
00
00
00
ENDCHAR
STARTCHAR U+00DF
ENCODING 223
SWIDTH 368 0
DWIDTH 7 0
BBX 7 13 0 -2
BITMAP
00
00
00
78
CC
D8
CC
CC
CC
D8
00
00
00
ENDCHAR
STARTCHAR U+00E0
ENCODING 224
SWIDTH 368 0
DWIDTH 7 0
BBX 7 13 0 -2
BITMAP
00
00
60
30
00
78
0C
7C
CC
7C
00
00
00
ENDCHAR
STARTCHAR U+00E1
ENCODING 225
SWIDTH 368 0
DWIDTH 7 0
BBX 7 13 0 -2
BITMAP
00
00
18
30
00
78
0C
7C
CC
7C
00
00
00
ENDCHAR
STARTCHAR U+00E2
ENCODING 226
SWIDTH 368 0
DWIDTH 7 0
BBX 7 13 0 -2
BITMAP
00
00
78
CC
00
78
0C
7C
CC
7C
00
00
00
ENDCHAR
STARTCHAR U+00E3
ENCODING 227
SWIDTH 368 0
DWIDTH 7 0
BBX 7 13 0 -2
BITMAP
00
64
FC
98
00
78
0C
7C
CC
7C
00
00
00
ENDCHAR
STARTCHAR U+00E4
ENCODING 228
SWIDTH 368 0
DWIDTH 7 0
BBX 7 13 0 -2
BITMAP
00
00
CC
CC
00
78
0C
7C
CC
7C
00
00
00
ENDCHAR
STARTCHAR U+00E5
ENCODING 229
SWIDTH 368 0
DWIDTH 7 0
BBX 7 13 0 -2
BITMAP
00
38
6C
38
00
78
0C
7C
CC
7C
00
00
00
ENDCHAR
STARTCHAR U+00E6
ENCODING 230
SWIDTH 368 0
DWIDTH 7 0
BBX 7 13 0 -2
BITMAP
00
00
00
00
00
6C
34
7C
B0
DC
00
00
00
ENDCHAR
STARTCHAR U+00E7
ENCODING 231
SWIDTH 368 0
DWIDTH 7 0
BBX 7 13 0 -2
BITMAP
00
00
00
00
00
7C
C0
C0
C0
7C
18
70
00
ENDCHAR
STARTCHAR U+00E8
ENCODING 232
SWIDTH 368 0
DWIDTH 7 0
BBX 7 13 0 -2
BITMAP
00
00
60
30
00
78
CC
FC
C0
7C
00
00
00
ENDCHAR
STARTCHAR U+00E9
ENCODING 233
SWIDTH 368 0
DWIDTH 7 0
BBX 7 13 0 -2
BITMAP
00
00
18
30
00
78
CC
FC
C0
7C
00
00
00
ENDCHAR
STARTCHAR U+00EA
ENCODING 234
SWIDTH 368 0
DWIDTH 7 0
BBX 7 13 0 -2
BITMAP
00
00
78
CC
00
78
CC
FC
C0
7C
00
00
00
ENDCHAR
STARTCHAR U+00EB
ENCODING 235
SWIDTH 368 0
DWIDTH 7 0
BBX 7 13 0 -2
BITMAP
00
00
CC
CC
00
78
CC
FC
C0
7C
00
00
00
ENDCHAR
STARTCHAR U+00EC
ENCODING 236
SWIDTH 368 0
DWIDTH 7 0
BBX 7 13 0 -2
BITMAP
00
00
60
30
00
70
30
30
30
78
00
00
00
ENDCHAR
STARTCHAR U+00ED
ENCODING 237
SWIDTH 368 0
DWIDTH 7 0
BBX 7 13 0 -2
BITMAP
00
00
18
30
00
70
30
30
30
78
00
00
00
ENDCHAR
STARTCHAR U+00EE
ENCODING 238
SWIDTH 368 0
DWIDTH 7 0
BBX 7 13 0 -2
BITMAP
00
00
78
CC
00
70
30
30
30
78
00
00
00
ENDCHAR
STARTCHAR U+00EF
ENCODING 239
SWIDTH 368 0
DWIDTH 7 0
BBX 7 13 0 -2
BITMAP
00
00
CC
CC
00
70
30
30
30
78
00
00
00
ENDCHAR
STARTCHAR U+00F0
ENCODING 240
SWIDTH 368 0
DWIDTH 7 0
BBX 7 13 0 -2
BITMAP
00
34
18
78
0C
7C
CC
CC
CC
78
00
00
00
ENDCHAR
STARTCHAR U+00F1
ENCODING 241
SWIDTH 368 0
DWIDTH 7 0
BBX 7 13 0 -2
BITMAP
00
64
FC
98
00
F8
CC
CC
CC
CC
00
00
00
ENDCHAR
STARTCHAR U+00F2
ENCODING 242
SWIDTH 368 0
DWIDTH 7 0
BBX 7 13 0 -2
BITMAP
00
00
60
30
00
78
CC
CC
CC
78
00
00
00
ENDCHAR
STARTCHAR U+00F3
ENCODING 243
SWIDTH 368 0
DWIDTH 7 0
BBX 7 13 0 -2
BITMAP
00
00
18
30
00
78
CC
CC
CC
78
00
00
00
ENDCHAR
STARTCHAR U+00F4
ENCODING 244
SWIDTH 368 0
DWIDTH 7 0
BBX 7 13 0 -2
BITMAP
00
00
78
CC
00
78
CC
CC
CC
78
00
00
00
ENDCHAR
STARTCHAR U+00F5
ENCODING 245
SWIDTH 368 0
DWIDTH 7 0
BBX 7 13 0 -2
BITMAP
00
64
FC
98
00
78
CC
CC
CC
78
00
00
00
ENDCHAR
STARTCHAR U+00F6
ENCODING 246
SWIDTH 368 0
DWIDTH 7 0
BBX 7 13 0 -2
BITMAP
00
00
CC
CC
00
78
CC
CC
CC
78
00
00
00
ENDCHAR
STARTCHAR U+00F7
ENCODING 247
SWIDTH 368 0
DWIDTH 7 0
BBX 7 13 0 -2
BITMAP
00
00
00
30
00
00
FC
00
00
30
00
00
00
ENDCHAR
STARTCHAR U+00F8
ENCODING 248
SWIDTH 368 0
DWIDTH 7 0
BBX 7 13 0 -2
BITMAP
00
00
00
00
0C
78
CC
D4
E4
78
C0
00
00
ENDCHAR
STARTCHAR U+00F9
ENCODING 249
SWIDTH 368 0
DWIDTH 7 0
BBX 7 13 0 -2
BITMAP
00
00
60
30
00
CC
CC
CC
CC
7C
00
00
00
ENDCHAR
STARTCHAR U+00FA
ENCODING 250
SWIDTH 368 0
DWIDTH 7 0
BBX 7 13 0 -2
BITMAP
00
00
18
30
00
CC
CC
CC
CC
7C
00
00
00
ENDCHAR
STARTCHAR U+00FB
ENCODING 251
SWIDTH 368 0
DWIDTH 7 0
BBX 7 13 0 -2
BITMAP
00
00
78
CC
00
CC
CC
CC
CC
7C
00
00
00
ENDCHAR
STARTCHAR U+00FC
ENCODING 252
SWIDTH 368 0
DWIDTH 7 0
BBX 7 13 0 -2
BITMAP
00
00
CC
CC
00
CC
CC
CC
CC
7C
00
00
00
ENDCHAR
STARTCHAR U+00FD
ENCODING 253
SWIDTH 368 0
DWIDTH 7 0
BBX 7 13 0 -2
BITMAP
00
00
18
30
00
CC
CC
CC
CC
7C
0C
78
00
ENDCHAR
STARTCHAR U+00FE
ENCODING 254
SWIDTH 368 0
DWIDTH 7 0
BBX 7 13 0 -2
BITMAP
00
00
00
C0
C0
F8
CC
CC
CC
F8
C0
C0
00
ENDCHAR
STARTCHAR U+00FF
ENCODING 255
SWIDTH 368 0
DWIDTH 7 0
BBX 7 13 0 -2
BITMAP
00
00
CC
CC
00
CC
CC
CC
CC
7C
0C
78
00
ENDCHAR
STARTCHAR block
ENCODING 9608
SWIDTH 368 0
DWIDTH 7 0
BBX 7 13 0 -2
BITMAP
FE
FE
FE
FE
FE
FE
FE
FE
FE
FE
FE
FE
FE
ENDCHAR
STARTCHAR uniE0A0
ENCODING 57504
SWIDTH 368 0
DWIDTH 7 0
BBX 7 13 0 -2
BITMAP
60
60
6C
76
64
64
6C
48
38
60
60
60
60
ENDCHAR
STARTCHAR uniE0A1
ENCODING 57505
SWIDTH 368 0
DWIDTH 7 0
BBX 7 13 0 -2
BITMAP
00
00
40
40
40
40
40
70
28
38
38
38
28
ENDCHAR
STARTCHAR uniE0A2
ENCODING 57506
SWIDTH 368 0
DWIDTH 7 0
BBX 7 13 0 -2
BITMAP
00
00
38
48
48
48
7C
6C
6C
6C
6C
7C
00
ENDCHAR
STARTCHAR uniE0B0
ENCODING 57520
SWIDTH 368 0
DWIDTH 7 0
BBX 7 13 0 -2
BITMAP
80
C0
E0
F0
F0
F8
FC
FC
F8
F0
F0
E0
C0
ENDCHAR
STARTCHAR uniE0B1
ENCODING 57521
SWIDTH 368 0
DWIDTH 7 0
BBX 7 13 0 -2
BITMAP
80
40
60
30
10
08
04
04
08
10
30
60
40
ENDCHAR
STARTCHAR uniE0B2
ENCODING 57522
SWIDTH 368 0
DWIDTH 7 0
BBX 7 13 0 -2
BITMAP
02
06
0E
1E
3E
7E
FE
FE
7E
3E
1E
0E
06
ENDCHAR
STARTCHAR uniE0B3
ENCODING 57523
SWIDTH 368 0
DWIDTH 7 0
BBX 7 13 0 -2
BITMAP
02
04
08
10
20
60
C0
C0
60
20
10
08
04
ENDCHAR
ENDFONT

